mtllib materials.mtl
v 0.056393 -0.01256 0.079065
v 0.056048 -0.014855 0.076075
v 0.057585 -0.00655 0.076074
v 0.053347 -0.022795 0.076081
v 0.054043 -0.020533 0.079064
v 0.050146 -0.028834 0.079047
v 0.049437 -0.030404 0.076073
v 0.045509 -0.035718 0.079088
v 0.044121 -0.03777 0.076073
v 0.040138 -0.04169 0.079026
v 0.037033 -0.044702 0.076075
v 0.033766 -0.047053 0.079024
v 0.030134 -0.049636 0.076076
v 0.016765 -0.055656 0.076082
v 0.024589 -0.052655 0.076074
v 0.026599 -0.051434 0.079079
v 0.018982 -0.054727 0.079072
v 0.010072 -0.057063 0.079047
v 0.010468 -0.057141 0.076075
v 0.004157 -0.057985 0.076082
v 0.001871 -0.057899 0.079087
v -0.002958 -0.05803 0.076144
v -0.010514 -0.057133 0.076075
v -0.014541 -0.05611 0.078935
v -0.018719 -0.054986 0.076076
v -0.022315 -0.053436 0.079091
v -0.024589 -0.052655 0.076074
v -0.031896 -0.048565 0.076083
v -0.029729 -0.04969 0.079078
v -0.037158 -0.044609 0.0761
v -0.041752 -0.040364 0.076081
v -0.043196 -0.038503 0.079074
v -0.045842 -0.035559 0.076073
v -0.04821 -0.03192 0.079101
v -0.050485 -0.028539 0.076076
v -0.057257 -0.008777 0.076083
v -0.057064 -0.008932 0.079087
v -0.057894 -0.002328 0.076073
v -0.05774 -0.0002 0.07898
v -0.052322 -0.024704 0.078923
v -0.054081 -0.020864 0.076079
v -0.055975 -0.01517 0.076129
v -0.057586 0.006124 0.076075
v -0.057065 0.008536 0.079085
v -0.056522 0.012338 0.076073
v -0.054236 0.020106 0.076107
v -0.052327 0.024278 0.078934
v -0.05048 0.028147 0.076078
v -0.047289 0.033284 0.076115
v -0.043184 0.038111 0.079077
v -0.041699 0.040016 0.076075
v -0.037213 0.043962 0.079055
v -0.035424 0.045641 0.076074
v -0.029753 0.049278 0.079062
v -0.027802 0.050645 0.076072
v -0.022388 0.052999 0.079102
v -0.018702 0.05459 0.076076
v -0.014508 0.055765 0.078857
v -0.010505 0.056733 0.076077
v -0.004445 0.057568 0.076117
v 0.00178 0.057497 0.079086
v 0.004121 0.057588 0.076084
v 0.010081 0.056658 0.079062
v 0.010468 0.05674 0.076075
v 0.016735 0.055264 0.076078
v 0.018979 0.054328 0.079062
v 0.022659 0.053075 0.076073
v 0.026536 0.051059 0.079094
v 0.03015 0.049224 0.076076
v 0.033839 0.046643 0.078973
v 0.038214 0.043364 0.076074
v 0.039978 0.041499 0.078961
v 0.044525 0.036862 0.076076
v 0.045524 0.035273 0.079106
v 0.049438 0.03 0.076072
v 0.050112 0.028491 0.079061
v 0.053335 0.022421 0.076077
v 0.054033 0.020153 0.079067
v 0.056047 0.014457 0.076075
v 0.056414 0.01208 0.079061
v 0.057282 0.008213 0.076074
v 0.057635 0.003826 0.078946
v 0.057895 -0.000209 0.076078
v 0.057596 -0.004129 0.079066
v -0.041438 0.014882 0.508468
v -0.04057 0.019599 0.508468
v -0.043427 0.007457 0.508468
v -0.045048 0.003951 0.508466
v -0.044097 -0.0002 0.508468
v -0.043427 -0.007858 0.508468
v -0.043409 -0.012493 0.508464
v -0.041438 -0.015283 0.508468
v -0.038189 -0.022249 0.508468
v -0.037188 -0.025814 0.508463
v -0.03378 -0.028545 0.508468
v -0.028345 -0.033981 0.508468
v -0.02633 -0.036878 0.50846
v -0.022048 -0.03839 0.508468
v -0.015082 -0.041638 0.508468
v -0.012239 -0.043669 0.508471
v -0.007657 -0.043628 0.508468
v 0 -0.044297 0.508468
v 0.00387 -0.045195 0.508469
v 0.007657 -0.043628 0.508468
v 0.015082 -0.041638 0.508468
v 0.018787 -0.041265 0.508469
v 0.022049 -0.03839 0.508468
v 0.028345 -0.033981 0.508468
v 0.031518 -0.032532 0.508469
v 0.03378 -0.028545 0.508468
v 0.038189 -0.022249 0.508468
v 0.04057 -0.02 0.508468
v 0.041438 -0.015282 0.508468
v 0.043427 -0.007858 0.508468
v 0.045048 -0.004351 0.508466
v 0.044097 -0.0002 0.508468
v 0.043427 0.007457 0.508468
v 0.043409 0.012092 0.508464
v 0.041438 0.014882 0.508468
v 0.038189 0.021848 0.508468
v 0.037188 0.025413 0.508463
v 0.03378 0.028145 0.508468
v 0.028345 0.03358 0.508468
v 0.025644 0.036951 0.508432
v 0.022048 0.037989 0.508468
v 0.015082 0.041237 0.508468
v 0.012239 0.043268 0.508471
v 0.007657 0.043227 0.508468
v -0 0.043897 0.508468
v -0.00387 0.044794 0.508469
v -0.007657 0.043227 0.508468
v -0.015082 0.041237 0.508468
v -0.018787 0.040864 0.508469
v -0.022049 0.037989 0.508468
v -0.028345 0.03358 0.508468
v -0.031518 0.032131 0.508469
v -0.03378 0.028145 0.508468
v -0.038189 0.021848 0.508468
v -0.054904 -0.016786 0.079609
v -0.0063 0.056817 0.079586
v -0.04785 0.031459 0.07956
v -0.036986 -0.044326 0.079304
v -0.006493 -0.057411 0.079299
v -0.055035 0.016709 0.079308
v 0.04432 -0.007529 0.50574
v 0.042499 -0.014732 0.505728
v 0.039515 -0.021539 0.505717
v 0.035448 -0.027762 0.505706
v 0.030408 -0.033231 0.505694
v 0.024531 -0.037794 0.50568
v 0.017896 -0.041355 0.505632
v 0.010847 -0.043738 0.5056
v 0.003486 -0.044924 0.505573
v -0.004197 -0.044818 0.505538
v -0.011711 -0.043565 0.505632
v -0.018506 -0.041178 0.505746
v -0.030847 -0.032804 0.505676
v -0.025025 -0.037474 0.505717
v -0.039795 -0.021031 0.505536
v -0.036085 -0.026971 0.505502
v -0.043561 -0.011734 0.50575
v -0.044731 -0.001516 0.505107
v -0.044376 0.006189 0.505277
v -0.042689 0.01347 0.505272
v -0.040033 0.020107 0.505408
v -0.035778 0.026899 0.505545
v -0.030673 0.032495 0.50551
v -0.024818 0.037132 0.505515
v -0.018272 0.040734 0.505522
v -0.011217 0.0432 0.505531
v -0.004021 0.044499 0.505543
v 0.003042 0.044577 0.505481
v 0.017893 0.041044 0.505834
v 0.010938 0.043367 0.505708
v 0.03948 0.021246 0.505755
v 0.03541 0.027458 0.505753
v 0.030361 0.03293 0.505769
v 0.042431 0.014541 0.505678
v 0.044902 -0.000192 0.505702
v 0.044314 0.007151 0.505725
v -0.045372 -0.004258 0.091854
v -0.041727 -0.019059 0.091497
v -0.033397 -0.031583 0.091446
v -0.024207 -0.0373 0.093095
v -0.017735 -0.040793 0.093097
v -0.010765 -0.043172 0.093092
v -0.003205 -0.0443 0.09329
v 0.004333 -0.044266 0.093165
v 0.013859 -0.043672 0.091694
v 0.02749 -0.036774 0.091525
v 0.035302 -0.026952 0.093127
v 0.041473 -0.019199 0.09171
v 0.045387 -0.004582 0.091772
v 0.044981 0.0075 0.091508
v 0.041661 0.018581 0.091622
v 0.033376 0.031112 0.091531
v 0.024794 0.038135 0.091482
v 0.014348 0.043099 0.091727
v 0.000255 0.045628 0.09139
v -0.011425 0.042599 0.093117
v -0.018351 0.04011 0.093134
v -0.024675 0.036607 0.09308
v -0.033182 0.031317 0.091511
v -0.039158 0.020513 0.093106
v -0.042044 0.013735 0.093121
v -0.043769 0.006574 0.09313
v 0.023909 0.037647 0.50527
v 0.042262 0.006285 0.09683
v 0.042805 -0.000539 0.096685
v 0.042152 -0.007221 0.09687
v 0.040425 -0.014055 0.096868
v 0.037598 -0.020513 0.096865
v 0.028975 -0.031615 0.096858
v 0.023411 -0.035956 0.096854
v -0.029229 -0.031377 0.096878
v -0.033954 -0.026153 0.096876
v -0.042211 -0.006902 0.096865
v -0.042802 -0.000025 0.096689
v -0.041947 0.006947 0.098942
v -0.038979 0.017205 0.099004
v -0.033615 0.026166 0.0969
v -0.028824 0.031331 0.096904
v -0.013544 0.040271 0.099074
v 0.029384 0.030868 0.096815
v 0.034095 0.025608 0.09682
v 0.040622 0.013146 0.096827
v 0.033531 -0.026406 0.098908
v 0.017207 -0.039324 0.096849
v 0.01053 -0.041625 0.096844
v 0.000248 -0.042813 0.099232
v -0.010487 -0.04143 0.099009
v -0.019655 -0.038071 0.099043
v -0.037756 -0.020223 0.096873
v -0.040534 -0.013747 0.096869
v -0.023161 0.035482 0.099017
v -0.00313 0.042495 0.096679
v 0.004085 0.042375 0.096792
v 0.011046 0.041118 0.096798
v 0.017701 0.038732 0.096805
v 0.023869 0.035283 0.09681
v 0.037875 0.019646 0.096824
v -0.038924 -0.017605 0.500255
v -0.016267 0.039274 0.498927
v -0.028473 0.031608 0.498903
v -0.041952 0.007316 0.498746
v -0.042276 -0.006679 0.499694
v -0.038901 0.017268 0.500281
v -0.005456 0.042106 0.500324
v 0.04272 -0.004136 0.500585
v 0.040309 -0.014213 0.500377
v 0.037356 -0.020831 0.500374
v 0.033325 -0.026853 0.50037
v 0.028334 -0.032107 0.500366
v 0.022525 -0.03644 0.500362
v 0.015939 -0.039764 0.500235
v 0.008947 -0.04191 0.500327
v -0.002316 -0.042882 0.499647
v -0.012568 -0.040958 0.500305
v -0.019288 -0.038239 0.500296
v -0.028752 -0.031743 0.498934
v -0.035413 -0.023952 0.500266
v -0.035384 0.023604 0.50029
v 0.001781 0.04242 0.500329
v 0.008967 0.041506 0.500334
v 0.015895 0.039389 0.500339
v 0.022364 0.03613 0.500342
v 0.028189 0.031824 0.500346
v 0.033201 0.026593 0.500349
v 0.037256 0.020591 0.500351
v 0.040238 0.013988 0.500353
v 0.042058 0.006975 0.500354
vn 0.000983 -0.000182 0.000026
vn 0.000938 -0.000319 0.000136
vn 0.000959 -0.000283 -0.00001
vn 0.0009 -0.000423 0.00011
vn 0.000889 -0.000457 0.000029
vn 0.000826 -0.000556 0.000096
vn 0.000811 -0.000585 0.000025
vn 0.000738 -0.000665 0.000113
vn 0.000699 -0.000715 -0.000006
vn 0.00064 -0.000761 0.000103
vn 0.000582 -0.000813 -0.000004
vn 0.000355 -0.000925 0.000138
vn 0.000478 -0.000878 0.000037
vn 0.000519 -0.000848 0.000103
vn 0.000397 -0.000918 -0.000009
vn 0.000252 -0.000961 0.000112
vn 0.000229 -0.000972 0.000056
vn 0.000133 -0.00099 0.000044
vn 0.000101 -0.000989 0.000105
vn 0.000007 -0.000999 0.000034
vn -0.000118 -0.000976 0.000183
vn -0.000253 -0.000967 -0.00001
vn -0.000322 -0.000941 0.0001
vn -0.000369 -0.000929 0.000038
vn -0.000483 -0.000864 0.000141
vn -0.000451 -0.000893 -0.000009
vn -0.000595 -0.000792 0.000133
vn -0.000673 -0.000728 0.000128
vn -0.000761 -0.000648 0.000036
vn -0.000791 -0.000603 0.000106
vn -0.000834 -0.000552 0.000011
vn -0.000993 -0.000098 0.000059
vn -0.000991 -0.000075 0.000108
vn -0.000865 -0.000491 0.000103
vn -0.000905 -0.000424 -0.000013
vn -0.000937 -0.000313 0.000157
vn -0.000979 -0.000196 0.000053
vn -0.000999 0.000036 0.000026
vn -0.000991 0.000075 0.000111
vn -0.000985 0.000169 0.000035
vn -0.000944 0.000277 0.000179
vn -0.000906 0.000423 -0.000013
vn -0.000839 0.00052 0.000162
vn -0.000769 0.000639 0.000025
vn -0.000696 0.00071 0.000106
vn -0.000667 0.000744 0.000019
vn -0.000577 0.000809 0.00011
vn -0.000549 0.000836 0.000024
vn -0.000449 0.000887 0.000113
vn -0.000398 0.000917 -0.000002
vn -0.000327 0.00094 0.000096
vn -0.000253 0.000967 -0.000027
vn -0.000136 0.00098 0.000145
vn -0.000002 0.001 0.000028
vn 0.0001 0.000989 0.000108
vn 0.000132 0.00099 0.000044
vn 0.000229 0.000972 0.000056
vn 0.000252 0.000961 0.000112
vn 0.000346 0.000938 0.000033
vn 0.000395 0.000913 0.000103
vn 0.000457 0.000889 0.000007
vn 0.000516 0.000851 0.000101
vn 0.000588 0.000809 -0.000028
vn 0.000639 0.000762 0.000102
vn 0.000717 0.000696 0.000011
vn 0.000742 0.000663 0.000103
vn 0.000813 0.000582 0.000037
vn 0.000825 0.000557 0.000096
vn 0.000889 0.000457 0.00003
vn 0.000899 0.000423 0.000111
vn 0.000946 0.000322 0.000024
vn 0.000954 0.000281 0.000107
vn 0.00098 0.000194 0.000034
vn 0.000985 0.000144 0.000099
vn 0.000997 0.000073 -0.000012
vn 0.000986 -0.000048 0.000157
vn 0.001 -0.000005 0
vn 0.000984 -0.00014 0.00011
vn 0.000001 -0 0.001
vn -0.000002 0 0.001
vn -0.000001 0 0.001
vn -0.000002 -0 0.001
vn -0.000007 -0.000001 0.001
vn -0.000003 -0.000001 0.001
vn -0.000006 -0.000003 0.001
vn -0.000007 -0.000003 0.001
vn -0.000003 -0.000002 0.001
vn -0.000007 -0.000007 0.001
vn -0.000009 -0.000009 0.001
vn -0.000004 -0.000005 0.001
vn -0.000008 -0.000016 0.001
vn -0 0.000001 0.001
vn 0.000001 0.000002 0.001
vn 0.000001 0.000007 0.001
vn 0 0.000003 0.001
vn -0 0.000001 0.001
vn -0.000001 0.000002 0.001
vn -0.000001 0.000002 0.001
vn -0 0.000001 0.001
vn -0.000002 0.000002 0.001
vn -0.000001 0.000002 0.001
vn -0.000001 0.000001 0.001
vn -0.000002 0.000002 0.001
vn -0.000001 0.000001 0.001
vn -0 0 0.001
vn -0.000001 0 0.001
vn 0.000002 -0 0.001
vn 0.000001 -0 0.001
vn 0.000002 0 0.001
vn 0.000007 0.000001 0.001
vn 0.000003 0.000001 0.001
vn 0.000006 0.000003 0.001
vn 0.000007 0.000003 0.001
vn 0.000003 0.000002 0.001
vn 0.000007 0.000007 0.001
vn 0.00004 0.000043 0.000998
vn 0.000017 0.000024 0.001
vn 0.000026 0.000056 0.000998
vn 0.000007 0.000008 0.001
vn -0.000001 -0.000002 0.001
vn -0.000001 -0.000007 0.001
vn -0 -0.000003 0.001
vn 0 -0.000001 0.001
vn 0.000001 -0.000002 0.001
vn 0.000001 -0.000002 0.001
vn 0 -0.000001 0.001
vn 0.000002 -0.000002 0.001
vn 0.000001 -0.000002 0.001
vn 0.000001 -0.000001 0.001
vn 0.000002 -0.000002 0.001
vn 0.000001 -0.000001 0.001
vn 0 -0 0.001
vn -0.000938 -0.000318 0.000141
vn -0.000138 0.000981 0.000139
vn -0.000846 0.000516 0.000135
vn -0.000952 -0.00025 0.000177
vn -0.000683 -0.000724 0.000101
vn -0.000589 -0.000801 0.000102
vn -0.00016 -0.000987 0.000014
vn -0.000054 -0.00099 0.000133
vn -0.000072 0.000982 0.000174
vn -0.0008 0.000574 0.000174
vn -0.000932 0.00034 0.000128
vn -0.000971 0.000241 0.000013
vn 0.000969 -0.000245 0.000027
vn 0.000951 -0.000272 0.000146
vn 0.000909 -0.000398 -0.000126
vn 0.000837 -0.000547 -0.000015
vn 0.000803 -0.00058 0.000141
vn 0.00073 -0.000672 -0.000123
vn 0.000613 -0.000789 -0.000046
vn 0.00056 -0.000817 0.000137
vn 0.00047 -0.000874 -0.00012
vn 0.00032 -0.000945 -0.000071
vn 0.000253 -0.000959 0.000127
vn 0.000158 -0.000981 -0.000113
vn -0.000013 -0.000996 -0.000091
vn -0.000093 -0.000987 0.00013
vn -0.000165 -0.000984 -0.000067
vn -0.000331 -0.000939 -0.000096
vn -0.00062 -0.000774 -0.000127
vn -0.000434 -0.000901 -0.000011
vn -0.000468 -0.000821 0.000326
vn -0.000843 -0.000526 -0.000109
vn -0.000714 -0.0007 0.000008
vn -0.000727 -0.000646 0.000234
vn -0.000907 -0.000372 0.0002
vn -0.000904 -0.000422 -0.000067
vn -0.000995 -0.000099 0.000028
vn -0.000991 -0.000108 0.000083
vn -0.000984 0.000049 -0.000173
vn -0.000973 0.000225 -0.000047
vn -0.000956 0.000273 0.000109
vn -0.000923 0.000372 -0.0001
vn -0.000845 0.000531 -0.00006
vn -0.000804 0.00058 0.000132
vn -0.000733 0.000668 -0.000127
vn -0.000619 0.000781 -0.000081
vn -0.000562 0.000819 0.000112
vn -0.000478 0.00087 -0.000122
vn -0.000328 0.000939 -0.000099
vn -0.000253 0.000961 0.000112
vn -0.000177 0.00098 -0.00009
vn -0.000012 0.000995 -0.0001
vn 0.000093 0.000985 0.000144
vn 0.000317 0.000942 -0.000115
vn 0.000152 0.000988 -0.000036
vn 0.000422 0.000894 0.00015
vn 0.000829 0.000543 -0.000134
vn 0.000705 0.000706 0.00007
vn 0.000708 0.000653 0.000269
vn 0.000905 0.000422 0.000054
vn 0.000905 0.000396 0.000155
vn 0.000982 -0.000079 -0.00017
vn 0.000995 0.000079 0.000067
vn 0.000984 0.000098 0.000148
vn 0.000962 0.000244 -0.000123
vn -0.000702 -0.000147 0.000697
vn -0.000676 -0.000184 0.000714
vn -0.000669 -0.000278 0.000689
vn -0.000636 -0.000345 0.000691
vn -0.000584 -0.000391 0.000711
vn -0.00057 -0.000437 0.000696
vn -0.000508 -0.000515 0.00069
vn -0.000462 -0.00054 0.000703
vn -0.000417 -0.000593 0.000689
vn -0.000342 -0.000633 0.000694
vn -0.000327 -0.000646 0.00069
vn -0.000233 -0.000683 0.000693
vn -0.000223 -0.000689 0.000689
vn -0.000146 -0.000711 0.000688
vn -0.000124 -0.000709 0.000694
vn 0.000015 -0.000731 0.000682
vn -0.000024 -0.000716 0.000698
vn 0.000149 -0.000723 0.000674
vn 0.000074 -0.000696 0.000714
vn 0.000182 -0.000702 0.000689
vn 0.000285 -0.000661 0.000694
vn 0.000324 -0.000624 0.000711
vn 0.00038 -0.000612 0.000694
vn 0.000466 -0.000554 0.00069
vn 0.000496 -0.000509 0.000703
vn 0.000533 -0.000487 0.000692
vn 0.000625 -0.000372 0.000686
vn 0.000591 -0.000394 0.000704
vn 0.000658 -0.00031 0.000686
vn 0.000684 -0.000202 0.000701
vn 0.000682 -0.000186 0.000707
vn 0.000719 -0.000103 0.000687
vn 0.000721 0.000007 0.000693
vn 0.00071 0.000039 0.000703
vn 0.000715 0.000096 0.000692
vn 0.000685 0.000198 0.000702
vn 0.000685 0.000201 0.0007
vn 0.000658 0.00031 0.000687
vn 0.000588 0.000394 0.000706
vn 0.000588 0.000393 0.000707
vn 0.000534 0.000492 0.000687
vn 0.000462 0.000549 0.000696
vn 0.000449 0.000554 0.000701
vn 0.000382 0.000612 0.000692
vn 0.000318 0.000633 0.000706
vn 0.000284 0.000663 0.000692
vn 0.000184 0.000701 0.000689
vn 0.000108 0.000697 0.000709
vn 0.000074 0.000713 0.000697
vn -0.000018 0.000721 0.000693
vn -0.000077 0.000702 0.000708
vn -0.000152 0.00071 0.000688
vn -0.000245 0.000685 0.000686
vn -0.000219 0.000686 0.000693
vn -0.000357 0.000634 0.000685
vn -0.000327 0.000639 0.000696
vn -0.000422 0.000591 0.000687
vn -0.000466 0.000541 0.0007
vn -0.000505 0.000518 0.00069
vn -0.000563 0.000445 0.000696
vn -0.000571 0.00042 0.000706
vn -0.000642 0.00034 0.000687
vn -0.000664 0.000284 0.000692
vn -0.00067 0.000274 0.00069
vn -0.000699 0.000169 0.000694
vn -0.000706 0.000156 0.00069
vn -0.000724 0.000026 0.000689
vn -0.000713 0.000047 0.0007
vn -0.000728 -0.000048 0.000684
vn 0.000485 0.000871 -0.000075
vn 0.000591 0.000793 -0.00015
vn 0.000839 0.000246 0.000485
vn 0.000883 0.00006 0.000465
vn 0.000871 -0.00022 0.000439
vn 0.000744 -0.000514 0.000428
vn 0.000685 -0.00061 0.000399
vn 0.000529 -0.000679 0.000509
vn -0.000531 -0.000728 0.000435
vn -0.000638 -0.000576 0.000511
vn -0.000873 -0.000226 0.000432
vn -0.000858 -0.000061 0.000509
vn -0.000954 0.000021 0.000298
vn -0.000925 0.000266 0.000273
vn -0.000893 0.000381 0.000241
vn -0.000775 0.000541 0.000327
vn -0.000533 0.00073 0.000429
vn -0.000457 0.000819 0.000347
vn 0.000562 0.00069 0.000456
vn 0.00064 0.000574 0.00051
vn 0.000891 0.000213 0.000401
vn 0.000858 -0.00007 0.000508
vn 0.000898 0.00004 0.000439
vn 0.000669 -0.000692 0.00027
vn 0.000831 -0.00047 0.000299
vn 0.00079 -0.000346 0.000506
vn 0.000879 -0.000237 0.000415
vn 0.000426 -0.000786 0.000447
vn 0.000415 -0.00081 0.000414
vn 0.000281 -0.000816 0.000506
vn 0.000187 -0.00092 0.000346
vn 0.000123 -0.000893 0.000434
vn 0.000008 -0.000971 0.000238
vn -0.000128 -0.000942 0.00031
vn -0.000149 -0.000947 0.000286
vn -0.000329 -0.000901 0.000281
vn -0.000307 -0.000899 0.000312
vn -0.000461 -0.000854 0.000242
vn -0.000588 -0.000726 0.000356
vn -0.000767 -0.000492 0.000413
vn -0.000746 -0.000498 0.000443
vn -0.00079 -0.000339 0.00051
vn -0.000886 -0.000217 0.000411
vn -0.000912 0.00022 0.000345
vn -0.000909 0.000087 0.000407
vn -0.00043 0.000861 0.000273
vn -0.000634 0.000714 0.000297
vn -0.000631 0.000585 0.000509
vn -0.000774 0.000488 0.000404
vn -0.000328 0.000914 0.00024
vn -0.000126 0.000938 0.000322
vn -0.000169 0.000892 0.00042
vn 0.000006 0.000859 0.000513
vn 0.000161 0.000892 0.000423
vn 0.000148 0.000885 0.000442
vn 0.000291 0.000812 0.000506
vn 0.000448 0.000802 0.000394
vn 0.000553 0.000691 0.000466
vn 0.000384 0.000785 0.000487
vn 0.000772 0.00049 0.000405
vn 0.000747 0.000497 0.000442
vn 0.000793 0.000335 0.000509
vn -0.000765 -0.000475 -0.000435
vn -0.000502 0.0008 -0.00033
vn -0.000937 -0.000002 -0.000348
vn -0.000856 0.000325 -0.000403
vn -0.000593 0.000749 -0.000298
vn -0.000185 0.0009 -0.000394
vn 0.000937 -0.000076 -0.000341
vn 0.00088 -0.000222 -0.000419
vn 0.000898 -0.000207 -0.000388
vn 0.000846 -0.00037 -0.000382
vn 0.000841 -0.000375 -0.00039
vn 0.000775 -0.000506 -0.00038
vn 0.000765 -0.000512 -0.000391
vn 0.000681 -0.000627 -0.000378
vn 0.000667 -0.000633 -0.000393
vn 0.000569 -0.000732 -0.000376
vn 0.00055 -0.000736 -0.000395
vn 0.000441 -0.000816 -0.000374
vn 0.00042 -0.000818 -0.000393
vn 0.000269 -0.000893 -0.000361
vn 0.000294 -0.000865 -0.000406
vn 0.000102 -0.000928 -0.000358
vn 0.000144 -0.000884 -0.000445
vn -0.000012 -0.000949 -0.000315
vn -0.000194 -0.000912 -0.000362
vn -0.000155 -0.000897 -0.000414
vn -0.000349 -0.000863 -0.000366
vn -0.000307 -0.000855 -0.000417
vn -0.000458 -0.000808 -0.00037
vn -0.00048 -0.000782 -0.000397
vn -0.000595 -0.000745 -0.000302
vn -0.000746 -0.000582 -0.000323
vn -0.000663 -0.000608 -0.000436
vn -0.000815 -0.000451 -0.000365
vn -0.000895 -0.000292 -0.000337
vn -0.000832 -0.000327 -0.000449
vn -0.000943 -0.000127 -0.000306
vn -0.00089 0.000051 -0.000452
vn -0.000927 0.000215 -0.000307
vn -0.000855 0.00035 -0.000383
vn -0.000793 0.000441 -0.000419
vn -0.000784 0.000498 -0.000371
vn -0.000668 0.000607 -0.000431
vn -0.000743 0.000585 -0.000326
vn -0.000437 0.000794 -0.000422
vn -0.000315 0.000902 -0.000295
vn -0.000164 0.000913 -0.000374
vn -0.000014 0.00091 -0.000414
vn -0.00004 0.000925 -0.000377
vn 0.000116 0.000906 -0.000407
vn 0.000151 0.000916 -0.000372
vn 0.000268 0.000876 -0.000402
vn 0.0003 0.000878 -0.000373
vn 0.000422 0.000814 -0.000399
vn 0.000416 0.000825 -0.000384
vn 0.000546 0.000738 -0.000398
vn 0.000566 0.000734 -0.000376
vn 0.000663 0.000635 -0.000395
vn 0.00068 0.000628 -0.000378
vn 0.000762 0.000514 -0.000394
vn 0.000774 0.000507 -0.00038
vn 0.000841 0.000375 -0.000391
vn 0.000841 0.00038 -0.000386
vn 0.000891 0.000231 -0.000391
vn 0.000896 0.000226 -0.000383
vn 0.00092 0.000047 -0.000388
vn 0.000896 0.000073 -0.000438
vn 0.000997 0.000079 0
vn 0.000998 0.000059 0.000001
vn 0.000995 -0.000097 -0.000001
vn 0.00097 -0.000245 0.000001
vn 0.000973 -0.000233 0
vn 0.000916 -0.000401 0
vn 0.000913 -0.000407 0
vn 0.000823 -0.000568 0
vn 0.000831 -0.000556 -0
vn 0.000753 -0.000658 -0
vn 0.000725 -0.000689 0
vn 0.000615 -0.000788 0
vn 0.000598 -0.000802 0
vn 0.000477 -0.000879 -0
vn 0.000451 -0.000893 0
vn 0.000326 -0.000945 -0
vn 0.000293 -0.000956 0
vn 0.000115 -0.000993 -0
vn 0.000086 -0.000996 0
vn -0.000128 -0.000992 -0.000001
vn -0.000184 -0.000983 0
vn -0.000344 -0.000939 -0.000001
vn -0.000375 -0.000927 -0
vn -0.000566 -0.000824 0
vn -0.000573 -0.00082 -0
vn -0.000742 -0.000671 0
vn -0.00076 -0.00065 0.000001
vn -0.000842 -0.00054 -0
vn -0.000875 -0.000484 0.000001
vn -0.000919 -0.000394 -0
vn -0.000956 -0.000293 0.000001
vn -0.000971 -0.000238 -0
vn -0.000996 -0.000086 -0
vn -0.000993 0.000121 0.000003
vn -0.001 0.000023 -0
vn -0.000961 0.000278 -0
vn -0.000956 0.000293 0
vn -0.000874 0.000485 0
vn -0.000858 0.000513 -0.000001
vn -0.000757 0.000654 0.000001
vn -0.000733 0.00068 0
vn -0.000591 0.000807 -0
vn -0.000532 0.000847 0.000001
vn -0.000446 0.000895 -0.000001
vn -0.000253 0.000967 0.000001
vn -0.000209 0.000978 -0
vn 0.000017 0.001 0.000001
vn -0.000043 0.000999 -0
vn 0.000178 0.000984 0.000001
vn 0.000126 0.000992 -0
vn 0.000338 0.000941 0.000001
vn 0.000292 0.000956 -0
vn 0.000488 0.000873 0.000001
vn 0.00045 0.000893 -0
vn 0.000625 0.000781 0.000001
vn 0.000594 0.000804 -0
vn 0.000745 0.000667 0.000001
vn 0.000722 0.000692 -0
vn 0.000845 0.000535 0.000001
vn 0.000829 0.00056 -0
vn 0.000921 0.000389 0.000001
vn 0.000911 0.000411 0
vn 0.000973 0.000233 0
vn 0.000968 0.000251 0
usemtl LinkGrey
f 1//1 2//1 3//1
f 2//2 1//2 4//2
f 1//3 5//3 4//3
f 4//4 5//4 6//4
f 4//5 6//5 7//5
f 7//6 6//6 8//6
f 7//7 8//7 9//7
f 9//8 8//8 10//8
f 9//9 10//9 11//9
f 10//10 12//10 11//10
f 11//11 12//11 13//11
f 14//12 15//12 16//12
f 16//13 15//13 13//13
f 16//14 13//14 12//14
f 16//15 17//15 14//15
f 14//16 17//16 18//16
f 14//17 18//17 19//17
f 19//18 18//18 20//18
f 20//19 18//19 21//19
f 20//20 21//20 22//20
f 23//21 22//21 24//21
f 23//22 24//22 25//22
f 24//23 26//23 25//23
f 25//24 26//24 27//24
f 27//25 26//25 28//25
f 26//26 29//26 28//26
f 28//27 29//27 30//27
f 31//28 30//28 32//28
f 31//29 32//29 33//29
f 33//30 32//30 34//30
f 33//31 34//31 35//31
f 36//32 37//32 38//32
f 38//33 37//33 39//33
f 34//34 40//34 35//34
f 35//35 40//35 41//35
f 41//36 40//36 42//36
f 36//37 42//37 37//37
f 38//38 39//38 43//38
f 43//39 39//39 44//39
f 43//40 44//40 45//40
f 45//41 44//41 46//41
f 46//42 47//42 48//42
f 48//43 47//43 49//43
f 49//44 50//44 51//44
f 51//45 50//45 52//45
f 51//46 52//46 53//46
f 53//47 52//47 54//47
f 53//48 54//48 55//48
f 55//49 54//49 56//49
f 55//50 56//50 57//50
f 57//51 56//51 58//51
f 57//52 58//52 59//52
f 59//53 58//53 60//53
f 60//54 61//54 62//54
f 62//55 61//55 63//55
f 62//56 63//56 64//56
f 64//57 63//57 65//57
f 65//58 63//58 66//58
f 65//59 66//59 67//59
f 67//60 66//60 68//60
f 67//61 68//61 69//61
f 69//62 68//62 70//62
f 69//63 70//63 71//63
f 71//64 70//64 72//64
f 71//65 72//65 73//65
f 73//66 72//66 74//66
f 73//67 74//67 75//67
f 74//68 76//68 75//68
f 75//69 76//69 77//69
f 77//70 76//70 78//70
f 77//71 78//71 79//71
f 79//72 78//72 80//72
f 79//73 80//73 81//73
f 81//74 80//74 82//74
f 81//75 82//75 83//75
f 83//76 82//76 3//76
f 3//77 82//77 84//77
f 3//78 84//78 1//78
f 85//79 86//79 87//79
f 87//80 86//80 88//80
f 87//81 88//81 89//81
f 89//82 88//82 90//82
f 90//83 88//83 91//83
f 90//84 91//84 92//84
f 92//85 91//85 93//85
f 93//86 91//86 94//86
f 93//87 94//87 95//87
f 95//88 94//88 96//88
f 96//89 94//89 97//89
f 96//90 97//90 98//90
f 98//91 97//91 99//91
f 99//92 97//92 100//92
f 99//93 100//93 101//93
f 101//94 100//94 102//94
f 102//95 100//95 103//95
f 102//96 103//96 104//96
f 104//97 103//97 105//97
f 105//98 103//98 106//98
f 105//99 106//99 107//99
f 107//100 106//100 108//100
f 108//101 106//101 109//101
f 108//102 109//102 110//102
f 110//103 109//103 111//103
f 111//104 109//104 112//104
f 111//105 112//105 113//105
f 113//106 112//106 114//106
f 114//107 112//107 115//107
f 114//108 115//108 116//108
f 116//109 115//109 117//109
f 117//110 115//110 118//110
f 117//111 118//111 119//111
f 119//112 118//112 120//112
f 120//113 118//113 121//113
f 120//114 121//114 122//114
f 122//115 121//115 123//115
f 123//116 121//116 124//116
f 123//117 124//117 125//117
f 125//118 124//118 126//118
f 126//119 124//119 127//119
f 126//120 127//120 128//120
f 128//121 127//121 129//121
f 129//122 127//122 130//122
f 129//123 130//123 131//123
f 131//124 130//124 132//124
f 132//125 130//125 133//125
f 132//126 133//126 134//126
f 134//127 133//127 135//127
f 135//128 133//128 136//128
f 135//129 136//129 137//129
f 137//130 136//130 138//130
f 138//131 136//131 86//131
f 138//132 86//132 85//132
f 40//133 139//133 42//133
f 58//134 140//134 60//134
f 47//135 141//135 49//135
f 37//136 42//136 139//136
f 32//137 30//137 142//137
f 142//138 30//138 29//138
f 143//139 24//139 22//139
f 21//140 143//140 22//140
f 61//141 60//141 140//141
f 50//142 49//142 141//142
f 144//143 47//143 46//143
f 44//144 144//144 46//144
f 145//145 115//145 146//145
f 146//146 115//146 112//146
f 146//147 112//147 147//147
f 147//148 112//148 148//148
f 148//149 112//149 109//149
f 148//150 109//150 149//150
f 149//151 109//151 150//151
f 150//152 109//152 106//152
f 150//153 106//153 151//153
f 151//154 106//154 152//154
f 152//155 106//155 103//155
f 152//156 103//156 153//156
f 153//157 103//157 154//157
f 154//158 103//158 100//158
f 154//159 100//159 155//159
f 100//160 156//160 155//160
f 157//161 158//161 97//161
f 97//162 158//162 100//162
f 100//163 158//163 156//163
f 159//164 160//164 94//164
f 94//165 160//165 97//165
f 97//166 160//166 157//166
f 159//167 94//167 161//167
f 161//168 94//168 91//168
f 161//169 91//169 88//169
f 161//170 88//170 162//170
f 162//171 88//171 163//171
f 163//172 88//172 164//172
f 164//173 88//173 86//173
f 164//174 86//174 165//174
f 165//175 86//175 166//175
f 166//176 86//176 136//176
f 166//177 136//177 167//177
f 167//178 136//178 168//178
f 168//179 136//179 133//179
f 168//180 133//180 169//180
f 169//181 133//181 170//181
f 170//182 133//182 130//182
f 170//183 130//183 171//183
f 171//184 130//184 172//184
f 172//185 130//185 127//185
f 127//186 173//186 174//186
f 127//187 174//187 172//187
f 127//188 124//188 173//188
f 175//189 176//189 121//189
f 121//190 176//190 124//190
f 124//191 176//191 177//191
f 118//192 178//192 121//192
f 121//193 178//193 175//193
f 145//194 179//194 115//194
f 115//195 179//195 180//195
f 115//196 180//196 118//196
f 118//197 180//197 178//197
f 181//198 37//198 139//198
f 181//199 139//199 182//199
f 182//200 139//200 40//200
f 182//201 40//201 34//201
f 182//202 34//202 183//202
f 183//203 34//203 32//203
f 183//204 32//204 142//204
f 183//205 142//205 184//205
f 184//206 142//206 29//206
f 184//207 29//207 185//207
f 185//208 29//208 26//208
f 185//209 26//209 186//209
f 186//210 26//210 24//210
f 186//211 24//211 143//211
f 186//212 143//212 187//212
f 187//213 143//213 188//213
f 188//214 143//214 21//214
f 188//215 21//215 189//215
f 189//216 21//216 18//216
f 189//217 18//217 17//217
f 189//218 17//218 16//218
f 189//219 16//219 190//219
f 190//220 16//220 12//220
f 190//221 12//221 10//221
f 190//222 10//222 191//222
f 191//223 10//223 8//223
f 191//224 8//224 192//224
f 192//225 8//225 6//225
f 192//226 6//226 5//226
f 192//227 5//227 1//227
f 192//228 1//228 193//228
f 193//229 1//229 84//229
f 193//230 84//230 82//230
f 193//231 82//231 194//231
f 194//232 82//232 80//232
f 194//233 80//233 195//233
f 195//234 80//234 78//234
f 195//235 78//235 76//235
f 195//236 76//236 196//236
f 196//237 76//237 74//237
f 196//238 74//238 72//238
f 196//239 72//239 70//239
f 196//240 70//240 197//240
f 197//241 70//241 68//241
f 197//242 68//242 198//242
f 68//243 66//243 198//243
f 198//244 66//244 63//244
f 198//245 63//245 199//245
f 199//246 63//246 61//246
f 199//247 61//247 140//247
f 199//248 140//248 200//248
f 200//249 140//249 58//249
f 200//250 58//250 201//250
f 201//251 58//251 56//251
f 201//252 56//252 202//252
f 202//253 56//253 54//253
f 202//254 54//254 52//254
f 202//255 52//255 203//255
f 203//256 52//256 50//256
f 203//257 50//257 141//257
f 203//258 141//258 204//258
f 204//259 141//259 47//259
f 204//260 47//260 205//260
f 205//261 47//261 144//261
f 205//262 144//262 206//262
f 206//263 144//263 44//263
f 206//264 44//264 181//264
f 181//265 44//265 39//265
f 181//266 39//266 37//266
f 173//267 124//267 207//267
f 177//268 207//268 124//268
f 194//269 195//269 208//269
f 194//270 208//270 209//270
f 193//271 210//271 211//271
f 192//272 212//272 191//272
f 190//273 191//273 213//273
f 190//274 213//274 214//274
f 183//275 184//275 215//275
f 183//276 215//276 216//276
f 181//277 182//277 217//277
f 181//278 217//278 218//278
f 206//279 218//279 219//279
f 206//280 219//280 220//280
f 204//281 205//281 220//281
f 204//282 220//282 221//282
f 203//283 222//283 202//283
f 201//284 202//284 223//284
f 196//285 197//285 224//285
f 196//286 224//286 225//286
f 226//287 208//287 195//287
f 209//288 210//288 193//288
f 209//289 193//289 194//289
f 227//290 213//290 191//290
f 227//291 191//291 212//291
f 211//292 212//292 192//292
f 211//293 192//293 193//293
f 190//294 214//294 228//294
f 189//295 190//295 228//295
f 189//296 228//296 229//296
f 188//297 229//297 230//297
f 189//298 229//298 188//298
f 187//299 188//299 230//299
f 187//300 230//300 231//300
f 186//301 187//301 231//301
f 186//302 231//302 232//302
f 185//303 186//303 232//303
f 184//304 185//304 232//304
f 184//305 232//305 215//305
f 183//306 216//306 233//306
f 182//307 183//307 233//307
f 182//308 233//308 234//308
f 234//309 217//309 182//309
f 220//310 205//310 206//310
f 218//311 206//311 181//311
f 235//312 223//312 202//312
f 235//313 202//313 222//313
f 221//314 222//314 203//314
f 221//315 203//315 204//315
f 200//316 201//316 223//316
f 200//317 223//317 236//317
f 199//318 200//318 236//318
f 199//319 236//319 237//319
f 199//320 237//320 238//320
f 198//321 199//321 238//321
f 198//322 238//322 239//322
f 239//323 240//323 198//323
f 240//324 224//324 197//324
f 240//325 197//325 198//325
f 196//326 225//326 241//326
f 195//327 196//327 241//327
f 195//328 241//328 226//328
f 160//329 159//329 242//329
f 169//330 243//330 244//330
f 163//331 245//331 246//331
f 245//332 164//332 247//332
f 244//333 167//333 168//333
f 243//334 170//334 248//334
f 179//335 145//335 249//335
f 145//336 146//336 249//336
f 249//337 146//337 250//337
f 146//338 147//338 250//338
f 250//339 147//339 251//339
f 147//340 148//340 251//340
f 251//341 148//341 252//341
f 148//342 149//342 252//342
f 252//343 149//343 253//343
f 149//344 150//344 253//344
f 253//345 150//345 254//345
f 254//346 150//346 151//346
f 254//347 151//347 255//347
f 255//348 151//348 256//348
f 256//349 151//349 152//349
f 257//350 256//350 152//350
f 257//351 152//351 153//351
f 154//352 257//352 153//352
f 257//353 154//353 258//353
f 258//354 154//354 155//354
f 259//355 258//355 155//355
f 259//356 155//356 156//356
f 158//357 259//357 156//357
f 260//358 259//358 158//358
f 260//359 158//359 157//359
f 260//360 157//360 261//360
f 261//361 157//361 160//361
f 242//362 261//362 160//362
f 246//363 242//363 159//363
f 246//364 159//364 161//364
f 162//365 246//365 161//365
f 246//366 162//366 163//366
f 163//367 164//367 245//367
f 164//368 165//368 247//368
f 262//369 247//369 165//369
f 262//370 165//370 166//370
f 262//371 166//371 167//371
f 262//372 167//372 244//372
f 244//373 168//373 169//373
f 169//374 170//374 243//374
f 248//375 170//375 171//375
f 248//376 171//376 172//376
f 263//377 248//377 172//377
f 263//378 172//378 264//378
f 172//379 174//379 264//379
f 264//380 174//380 265//380
f 265//381 174//381 173//381
f 265//382 173//382 207//382
f 266//383 265//383 207//383
f 266//384 207//384 267//384
f 207//385 177//385 267//385
f 267//386 177//386 268//386
f 268//387 177//387 176//387
f 269//388 268//388 176//388
f 269//389 176//389 175//389
f 175//390 178//390 269//390
f 269//391 178//391 270//391
f 270//392 178//392 271//392
f 271//393 178//393 180//393
f 249//394 271//394 180//394
f 249//395 180//395 179//395
f 208//396 271//396 209//396
f 209//397 271//397 249//397
f 209//398 249//398 210//398
f 210//399 249//399 211//399
f 211//400 249//400 250//400
f 211//401 250//401 212//401
f 212//402 250//402 251//402
f 212//403 251//403 227//403
f 227//404 251//404 252//404
f 227//405 252//405 213//405
f 213//406 252//406 253//406
f 213//407 253//407 214//407
f 214//408 253//408 254//408
f 214//409 254//409 228//409
f 228//410 254//410 255//410
f 228//411 255//411 229//411
f 229//412 255//412 256//412
f 229//413 256//413 230//413
f 230//414 256//414 257//414
f 230//415 257//415 231//415
f 231//416 257//416 258//416
f 231//417 258//417 232//417
f 232//418 258//418 259//418
f 232//419 259//419 260//419
f 232//420 260//420 215//420
f 215//421 260//421 216//421
f 216//422 260//422 261//422
f 216//423 261//423 233//423
f 233//424 261//424 242//424
f 233//425 242//425 234//425
f 234//426 242//426 246//426
f 234//427 246//427 217//427
f 217//428 246//428 218//428
f 218//429 246//429 219//429
f 219//430 246//430 245//430
f 219//431 245//431 220//431
f 220//432 245//432 247//432
f 220//433 247//433 262//433
f 220//434 262//434 221//434
f 221//435 262//435 244//435
f 221//436 244//436 222//436
f 222//437 244//437 235//437
f 235//438 244//438 243//438
f 235//439 243//439 223//439
f 223//440 243//440 248//440
f 223//441 248//441 236//441
f 236//442 248//442 237//442
f 237//443 248//443 263//443
f 237//444 263//444 238//444
f 238//445 263//445 264//445
f 238//446 264//446 239//446
f 239//447 264//447 265//447
f 239//448 265//448 240//448
f 240//449 265//449 266//449
f 240//450 266//450 224//450
f 224//451 266//451 267//451
f 224//452 267//452 225//452
f 225//453 267//453 268//453
f 225//454 268//454 241//454
f 241//455 268//455 269//455
f 241//456 269//456 226//456
f 226//457 269//457 270//457
f 226//458 270//458 208//458
f 208//459 270//459 271//459
