mtllib materials.mtl
v -0.019279 0.108496 0.015128
v -0.020297 0.108496 0.017766
v -0.017976 0.108496 0.019734
v -0.015501 0.108496 0.015706
v -0.017393 0.108496 0.014613
v -0.015422 0.108496 0.01853
v 0.017379 0.108496 0.019734
v 0.016076 0.108496 0.015128
v 0.015057 0.108496 0.017766
v 0.017962 0.108496 0.014613
v 0.019854 0.108496 0.015706
v 0.019933 0.108496 0.01853
v -0.019926 0.108496 -0.01673
v -0.017298 0.108496 -0.015666
v -0.015216 0.108496 -0.017237
v -0.019527 0.108496 -0.020169
v -0.016071 0.108496 -0.020374
v 0.015429 0.108496 -0.01673
v 0.018057 0.108496 -0.015666
v 0.020139 0.108496 -0.017237
v 0.015828 0.108496 -0.020169
v 0.019284 0.108496 -0.020374
v -0.017652 0.115955 0.019785
v -0.015078 0.115945 0.017811
v -0.015893 0.115968 0.015327
v -0.018162 0.115955 0.014545
v -0.019994 0.115968 0.016087
v -0.020028 0.115962 0.018266
v 0.017703 0.115955 0.019785
v 0.020277 0.115945 0.017811
v 0.019462 0.115968 0.015327
v 0.017193 0.115955 0.014545
v 0.015361 0.115968 0.016087
v 0.015327 0.115962 0.018266
v -0.018101 0.115966 -0.015674
v -0.015637 0.115955 -0.016533
v -0.015327 0.115962 -0.019335
v -0.017703 0.115955 -0.020855
v -0.019775 0.115968 -0.019654
v -0.020152 0.115955 -0.017284
v 0.018147 0.115966 -0.015682
v 0.020169 0.115955 -0.017333
v 0.019356 0.115955 -0.020253
v 0.016998 0.115968 -0.020665
v 0.015306 0.115962 -0.019291
v 0.01567 0.115955 -0.016494
v -0.015628 0.116481 0.014554
v -0.019049 0.116496 0.014385
v -0.020841 0.11649 0.016676
v -0.019615 0.116495 0.019579
v -0.017056 0.116495 0.020193
v -0.014785 0.116493 0.018396
v 0.019727 0.116481 0.014554
v 0.016306 0.116496 0.014385
v 0.014514 0.11649 0.016676
v 0.01574 0.116495 0.019579
v 0.018299 0.116495 0.020193
v 0.02057 0.116493 0.018396
v -0.014617 0.116496 -0.018557
v -0.016157 0.11649 -0.021025
v -0.019556 0.116493 -0.020744
v -0.020809 0.116493 -0.017852
v -0.019162 0.116495 -0.015476
v -0.01574 0.116487 -0.015605
v 0.020837 0.116487 -0.01746
v 0.019198 0.11649 -0.021025
v 0.015799 0.116493 -0.020744
v 0.014546 0.116493 -0.017852
v 0.017197 0.116481 -0.014945
v -0.002201 0.082852 0.05091
v -0.003324 0.081189 0.050795
v -0.000189 0.079045 0.051074
v 0.000008 0.083052 0.051013
v 0.002626 0.083065 0.050799
v 0.00204 0.079225 0.050949
v -0.013025 0.116496 0.018266
v -0.013552 0.116496 0.014613
v -0.016555 0.116496 0.01249
v -0.020207 0.116496 0.013018
v -0.022463 0.116496 0.016429
v -0.021048 0.116496 0.020703
v -0.017141 0.116496 0.021899
v -0.014548 0.116496 0.02071
v 0.02233 0.116496 0.018266
v 0.021802 0.116496 0.014613
v 0.0188 0.116496 0.01249
v 0.015148 0.116496 0.013018
v 0.012891 0.116496 0.016429
v 0.014307 0.116496 0.020703
v 0.018214 0.116496 0.021899
v 0.020807 0.116496 0.02071
v -0.016143 0.116496 -0.022801
v -0.019399 0.116496 -0.022634
v -0.021666 0.116496 -0.020859
v -0.022377 0.116496 -0.016814
v -0.019212 0.116496 -0.013623
v -0.015547 0.116496 -0.013926
v -0.012909 0.116496 -0.017073
v -0.013621 0.116496 -0.020675
v 0.021734 0.116496 -0.020675
v 0.019212 0.116496 -0.022801
v 0.015148 0.116496 -0.022337
v 0.013025 0.116496 -0.019335
v 0.013739 0.116496 -0.015291
v 0.016956 0.116496 -0.013522
v 0.019807 0.116496 -0.013926
v 0.022446 0.116496 -0.017073
v -0.000395 0.085726 0.049264
v 0.000803 0.08595 0.048001
v -0 0.085947 0.047997
v -0.00058 0.085927 0.047997
v -0.002475 0.085241 0.048861
v 0.00144 0.076456 0.049163
v -0.000366 0.076045 0.048007
v 0.000579 0.076167 0.047997
v 0.004854 0.079829 0.046997
v 0.004768 0.08227 0.048781
v 0.004019 0.07934 0.04991
v 0.003721 0.077886 0.048794
v -0.001729 0.076395 0.047993
v -0.001812 0.077054 0.049847
v -0.0037 0.077881 0.048861
v 0.001922 0.085353 0.049412
v 0.003691 0.081467 0.050494
v 0.001336 0.077583 0.050539
v -0.002611 0.078561 0.050617
v -0.00461 0.079742 0.049102
v -0.004828 0.081748 0.048793
v -0.003971 0.0836 0.049366
v -0.001988 0.084462 0.050255
v 0.003648 0.084253 0.048876
v -0.000025 0.084246 0.050798
v -0.000046 0.079035 0.051051
v 0.000046 0.083059 0.051051
v -0.022293 0.107596 0.015782
v -0.020663 0.107596 0.013422
v -0.018402 0.107596 0.012428
v -0.015134 0.107596 0.012996
v -0.013 0.107596 0.016014
v -0.01353 0.107596 0.019686
v -0.015741 0.107596 0.021471
v -0.018217 0.107596 0.021924
v -0.020824 0.107596 0.020729
v -0.022195 0.107596 0.018675
v 0.013062 0.107596 0.015782
v 0.014377 0.107596 0.013739
v 0.016548 0.107596 0.012465
v 0.02022 0.107596 0.012996
v 0.022355 0.107596 0.016014
v 0.021824 0.107596 0.019686
v 0.019614 0.107596 0.021471
v 0.017138 0.107596 0.021924
v 0.014531 0.107596 0.020729
v 0.01316 0.107596 0.018675
v -0.022293 0.107596 -0.019573
v -0.020338 0.107596 -0.022221
v -0.018017 0.107596 -0.022941
v -0.015134 0.107596 -0.022359
v -0.013 0.107596 -0.019341
v -0.013531 0.107596 -0.015669
v -0.016549 0.107596 -0.013535
v -0.019819 0.107596 -0.013903
v -0.022088 0.107596 -0.016288
v 0.018806 0.107596 -0.013535
v 0.021824 0.107596 -0.015669
v 0.022355 0.107596 -0.019341
v 0.020221 0.107596 -0.022359
v 0.017338 0.107596 -0.022941
v 0.015017 0.107596 -0.022221
v 0.013062 0.107596 -0.019573
v 0.013267 0.107596 -0.016288
v 0.015536 0.107596 -0.013903
v -0.004747 0.079317 0.046965
v -0.004376 0.083571 0.046965
v -0.001467 0.085813 0.046965
v 0.001767 0.085785 0.046965
v 0.004746 0.082777 0.046965
v 0.003536 0.077516 0.046965
v 0.001163 0.07625 0.046965
v -0.001767 0.076309 0.046965
v 0.003137 0.110481 0.023705
v 0.000877 0.110496 0.021542
v -0 0.108694 0.024465
v -0 0.110496 0.021465
v -0.001715 0.110512 0.021655
v -0.003048 0.110494 0.024667
v -0.001531 0.1105 0.027312
v -0 0.110496 0.027465
v 0.001489 0.110506 0.02731
v 0.012905 0.110496 0.00899
v 0.01572 0.110496 0.001087
v 0.009525 0.110496 -0.013439
v 0.015059 0.110496 -0.005642
v 0.003763 0.110496 0.015057
v -0.005767 0.110496 0.014284
v -0.013364 0.110496 0.008334
v -0.015763 0.110496 0.000598
v -0.014819 0.110496 -0.006301
v -0.00995 0.110496 -0.012938
v -0.000999 0.110496 -0.016543
v 0.003157 0.116609 0.024944
v 0.002659 0.11644 0.022897
v 0.001475 0.116598 0.021609
v -0.000608 0.116689 0.021272
v -0.002521 0.116581 0.022633
v -0.003148 0.116605 0.024562
v -0.002207 0.116602 0.026738
v -0.000697 0.116447 0.027402
v 0.001535 0.116453 0.027295
v -0.012907 0.116475 0.015757
v -0.015272 0.116186 0.012887
v -0.019811 0.11619 0.012676
v -0.022581 0.116531 0.016029
v -0.021889 0.116185 0.019625
v -0.018067 0.116174 0.022078
v -0.013594 0.116175 0.019941
v 0.022338 0.11619 0.015851
v 0.020088 0.116195 0.01289
v 0.016469 0.11655 0.012281
v 0.014567 0.116193 0.013492
v 0.012995 0.11619 0.015931
v 0.013647 0.116174 0.020017
v 0.017253 0.116507 0.022122
v 0.020109 0.116197 0.021277
v 0.022076 0.116194 0.019154
v -0.012692 0.116518 -0.017786
v -0.014207 0.116174 -0.021742
v -0.017369 0.11653 -0.023203
v -0.020881 0.116167 -0.021903
v -0.022499 0.11619 -0.018593
v -0.021368 0.116167 -0.015008
v -0.018058 0.11619 -0.01339
v -0.014501 0.116186 -0.014496
v 0.022657 0.116507 -0.017788
v 0.021368 0.116167 -0.021416
v 0.018057 0.11619 -0.023034
v 0.015101 0.116524 -0.022521
v 0.013176 0.116536 -0.020385
v 0.013099 0.116186 -0.016499
v 0.014914 0.11653 -0.014045
v 0.018259 0.116524 -0.013222
v 0.021227 0.116537 -0.014672
v 0.001295 0.11569 -0.016288
v 0.006616 0.115708 -0.01489
v 0.011119 0.11569 -0.011769
v 0.014903 0.115685 -0.006085
v 0.015753 0.11569 0.00076
v 0.01436 0.11569 0.00607
v 0.011235 0.11569 0.010583
v 0.006744 0.115708 0.013761
v 0.00192 0.115694 0.015061
v -0.00466 0.115709 0.014773
v -0.011118 0.11569 0.0107
v -0.01429 0.11569 0.00622
v -0.015739 0.11569 0.000925
v -0.014984 0.115685 -0.005862
v -0.010313 0.115684 -0.01264
v -0.00423 0.115673 -0.015763
v -0.004747 0.082777 0.043965
v -0.001772 0.085789 0.043965
v -0.000001 0.085947 0.046965
v 0.001409 0.085831 0.043965
v 0.004376 0.083571 0.043965
v 0.004746 0.079317 0.043965
v 0.001772 0.076304 0.043965
v 0 0.076147 0.046965
v -0.001058 0.076228 0.043965
v -0.003536 0.077516 0.043965
v -0.004758 0.079782 0.043965
v -0.000007 0.116695 0.027715
v -0 0.116446 0.027465
v -0 0.116696 0.027715
v 0.001215 0.116703 0.027605
v 0.000006 0.116695 0.021215
v -0 0.116696 0.021215
v -0.019977 0.116784 0.022327
v -0.015298 0.116695 0.021929
v -0.012577 0.116695 0.018866
v -0.022266 0.116734 0.02007
v -0.020119 0.11669 0.012277
v -0.015101 0.116693 0.012395
v 0.021295 0.116706 0.021199
v 0.013399 0.116694 0.020525
v 0.020259 0.116693 0.012421
v 0.012489 0.116687 0.015254
v 0.02313 0.11669 0.016565
v -0.022794 0.116693 -0.019892
v -0.022464 0.116695 -0.015833
v -0.018917 0.116692 -0.012897
v -0.02144 0.116718 -0.022228
v -0.013615 0.116693 -0.02178
v -0.014097 0.116693 -0.014168
v 0.012384 0.116693 -0.017134
v 0.019357 0.116693 -0.023328
v 0.022027 0.116729 -0.021455
v -0.010368 0.116695 0.012869
v -0.003764 0.1167 0.015884
v -0 0.115696 0.015215
v -0 0.116696 0.016215
v 0.000231 0.116656 0.016216
v -0.004978 0.11671 -0.016841
v -0.013191 0.116695 -0.011116
v -0.017022 0.116694 -0.001596
v -0.01512 0.116696 0.006804
v 0.010367 0.116695 -0.013939
v 0.00023 0.116657 -0.017285
v -0 0.116696 -0.017284
v 0.010677 0.116695 0.012683
v 0.016013 0.116695 0.004897
v 0.016359 0.116694 -0.005359
v 0.002531 0.116697 -0.031353
v -0.007211 0.116697 0.029358
v 0.007788 0.116697 0.029165
v -0.02812 0.116698 0.011913
v -0.030494 0.116696 0.000871
v 0.026042 0.116696 0.015529
v 0.030453 0.116698 0.003929
v 0.018313 0.116696 0.024005
v -0.013387 0.116697 -0.028211
v -0.029096 0.116698 -0.010643
v 0.028708 0.116698 -0.011698
v 0.015832 0.116697 -0.026829
v -0.00504 0.080395 0.040165
v -0.004141 0.083884 0.040165
v -0.001393 0.085823 0.040165
v 0 0.085957 0.043965
v 0.001063 0.085906 0.040165
v 0.003116 0.084982 0.040165
v 0.0049 0.082229 0.040165
v 0.004344 0.078383 0.040165
v 0.001463 0.076271 0.040165
v -0.000001 0.076137 0.043965
v -0.001177 0.076201 0.040165
v -0.003513 0.077462 0.040165
v -0.020618 0.115702 -0.024428
v -0.012057 0.115691 -0.029816
v -0.031502 0.115691 0.002693
v -0.030406 0.115706 -0.00938
v -0.025954 0.115702 -0.018493
v -0.024543 0.115702 0.019307
v -0.028811 0.115702 0.012351
v -0.018707 0.115721 0.024883
v -0.011598 0.115731 0.028816
v 0.004245 0.11572 0.030738
v -0.003773 0.115677 0.030798
v 0.012039 0.11572 0.028639
v 0.019044 0.115721 0.024632
v 0.026079 0.115691 0.017428
v 0.030291 0.115702 0.00833
v 0.031548 0.115683 0.000374
v 0.030743 0.115702 -0.007675
v 0.027926 0.115702 -0.015239
v 0.023174 0.115714 -0.021957
v 0.015091 0.115699 -0.028371
v -0.002143 0.115702 -0.032023
v 0.005913 0.115702 -0.031537
v -0 0.076097 0.040165
v 0.000293 0.076071 0.040165
v -0 0.085997 0.040165
v -0.001747 0.085888 0.040165
v 0.002381 0.110196 -0.032003
v 0.010285 0.110196 -0.03037
v 0.019346 0.110196 -0.025602
v 0.027339 0.110196 -0.01651
v 0.031336 0.110196 -0.005084
v 0.030329 0.110196 0.009072
v 0.024448 0.110196 0.019421
v 0.016844 0.110196 0.026278
v 0.007656 0.110196 0.030081
v -0.002539 0.110196 0.031028
v -0.012176 0.110196 0.02858
v -0.019162 0.110196 0.02454
v -0.024896 0.110196 0.01886
v -0.029001 0.110196 0.01191
v -0.031209 0.110196 0.004147
v -0.031173 0.110196 -0.006091
v -0.02681 0.110196 -0.017383
v -0.018528 0.110196 -0.026212
v -0.007537 0.110196 -0.031289
v 0.004874 0.082881 0.040879
v 0.002205 0.085679 0.040857
v -0.000216 0.08624 0.040968
v -0.002183 0.08604 0.040981
v -0.005112 0.081983 0.040884
v -0.004741 0.079148 0.040892
v -0.002242 0.076315 0.0408
v 0.001081 0.076138 0.040764
v 0.002106 0.076047 0.040985
v 0.004752 0.079111 0.040882
v -0.030617 0.110198 0.029374
v -0.017384 0.110197 0.03842
v -0.000366 0.110235 0.041965
v 0.017383 0.110197 -0.03949
v 0.004035 0.110197 -0.043001
v -0.009736 0.110197 -0.042066
v 0.00631 0.110192 0.04162
v 0.018437 0.110197 0.037933
v -0.022488 0.110197 -0.036784
v -0.031175 0.110197 -0.029502
v -0.040346 0.110198 0.013755
v 0.037413 0.110197 -0.021026
v 0.028912 0.110197 -0.0319
v 0.02786 0.110197 0.031634
v 0.03563 0.110197 0.022922
v 0.041254 0.110197 0.010318
v -0.037957 0.110197 -0.020001
v -0.042616 0.110198 -0.004507
v 0.042474 0.110198 -0.005817
v 0.000071 0.086247 0.040953
v -0.00001 0.075847 0.040963
v -0 0.076047 0.040765
v -0 0.075847 0.040965
v -0.002584 0.107702 -0.045523
v 0.007147 0.107702 -0.045027
v 0.01878 0.107706 -0.041616
v 0.029062 0.107702 -0.034973
v 0.035786 0.107702 -0.02792
v 0.041886 0.107706 -0.017445
v 0.044782 0.107702 -0.00555
v 0.044814 0.107702 0.004193
v 0.04275 0.107702 0.013717
v 0.038686 0.107702 0.022573
v 0.031213 0.107706 0.032117
v 0.020932 0.107669 0.039403
v 0.00799 0.107683 0.043994
v -0 0.110196 0.041965
v -0 0.107696 0.044465
v -0.006021 0.107699 0.044155
v -0.018924 0.107722 0.04046
v -0.030914 0.107706 0.0324
v -0.038537 0.107702 0.022821
v -0.042657 0.107702 0.013991
v -0.044783 0.107702 0.004481
v -0.044814 0.107702 -0.005263
v -0.042039 0.107706 -0.017062
v -0.035962 0.107702 -0.02769
v -0.027499 0.107706 -0.03637
v -0.014618 0.107706 -0.043275
v -0.007298 0.071736 0.044232
v 0.00981 0.072502 0.04351
v -0.0174 0.075047 0.040965
v 0.017399 0.075047 0.040965
v 0.000037 0.07155 0.044468
v -0.0174 0.087047 0.040965
v 0.017399 0.087047 0.040965
v 0.007305 0.090357 0.044232
v -0.009814 0.089591 0.043509
v -0.000038 0.090544 0.044468
v 0.012118 0.067947 0.042874
v 0.020894 0.067947 0.039382
v -0 0.090547 0.044465
v -0.011428 0.067947 0.043045
v -0.020999 0.067947 0.039369
v 0.000397 0.067948 0.044604
v -0 0.071547 0.044465
v -0.031505 0.067947 0.031831
v -0.038831 0.067947 0.022324
v -0.042837 0.067947 0.013443
v -0.04484 0.067947 0.003907
v -0.044747 0.067947 -0.005836
v -0.041729 0.067947 -0.017821
v -0.035608 0.067947 -0.028146
v -0.02884 0.067947 -0.035155
v -0.018407 0.067947 -0.041781
v -0.006863 0.067947 -0.045068
v 0.002871 0.067947 -0.045503
v 0.015003 0.067947 -0.043138
v 0.02782 0.067947 -0.036118
v 0.036132 0.067947 -0.027458
v 0.042183 0.067947 -0.01668
v 0.04484 0.067947 -0.004976
v 0.044746 0.067947 0.004767
v 0.042561 0.067947 0.014262
v 0.038385 0.067947 0.023065
v 0.030613 0.067947 0.032676
v -0.043724 0.067947 -0.000535
v -0.043459 0.067947 -0.005345
v -0.042666 0.067947 -0.010096
v -0.041355 0.067947 -0.014732
v -0.039542 0.067947 -0.019195
v -0.037249 0.067947 -0.023432
v -0.034504 0.067947 -0.02739
v -0.031341 0.067947 -0.031023
v -0.027796 0.067947 -0.034286
v -0.023915 0.067947 -0.037139
v -0.019743 0.067947 -0.039547
v -0.015331 0.067947 -0.041482
v -0.010734 0.067947 -0.04292
v -0.006006 0.067947 -0.043844
v -0.001205 0.067947 -0.044242
v 0.003611 0.067947 -0.044109
v 0.008382 0.067947 -0.043447
v 0.013052 0.067947 -0.042265
v 0.017564 0.067947 -0.040576
v 0.021862 0.067947 -0.038401
v 0.025895 0.067947 -0.035766
v 0.029613 0.067947 -0.032703
v 0.032972 0.067947 -0.02925
v 0.035931 0.067947 -0.025449
v 0.038454 0.067947 -0.021345
v 0.04051 0.067947 -0.016988
v 0.042074 0.067947 -0.012432
v 0.043127 0.067947 -0.007731
v 0.043657 0.067947 -0.002943
v 0.043657 0.067947 0.001874
v 0.043127 0.067947 0.006662
v 0.042074 0.067947 0.011363
v 0.04051 0.067947 0.015919
v 0.038454 0.067947 0.020276
v 0.035931 0.067947 0.02438
v 0.032972 0.067947 0.028181
v 0.029613 0.067947 0.031634
v 0.025895 0.067947 0.034697
v 0.021862 0.067947 0.037331
v 0.017564 0.067947 0.039506
v 0.013052 0.067947 0.041196
v 0.008382 0.067947 0.042378
v 0.003611 0.067947 0.04304
v -0.001205 0.067947 0.043173
v -0.006006 0.067947 0.042775
v -0.010734 0.067947 0.041851
v -0.015331 0.067947 0.040413
v -0.019743 0.067947 0.038478
v -0.023915 0.067947 0.036069
v -0.027796 0.067947 0.033217
v -0.031341 0.067947 0.029954
v -0.034504 0.067947 0.026321
v -0.037249 0.067947 0.022362
v -0.039542 0.067947 0.018126
v -0.041355 0.067947 0.013662
v -0.042666 0.067947 0.009027
v -0.043459 0.067947 0.004275
vn -0 0.001 -0
vn -0 0.001 -0
vn -0 0.001 -0
vn 0 0.001 -0
vn 0 0.001 -0
vn 0 0.001 -0
vn -0.000426 0.000025 -0.000904
vn -0.000608 -0.000048 -0.000792
vn -0.000998 0.000049 0.000028
vn -0.00095 -0.000034 0.000311
vn -0.0005 0.000018 0.000866
vn -0.000326 -0.000025 0.000945
vn 0.000263 0.000036 0.000964
vn 0.000643 -0.000037 0.000765
vn 0.000932 0.000043 0.00036
vn 0.000999 -0.000037 0.000016
vn 0.000646 0.000028 -0.000763
vn 0.000538 -0.000018 -0.000842
vn -0.000426 0.000025 -0.000904
vn -0.000608 -0.000048 -0.000792
vn -0.000998 0.000049 0.000028
vn -0.00095 -0.000034 0.000311
vn -0.0005 0.000018 0.000866
vn -0.000326 -0.000025 0.000945
vn 0.000263 0.000036 0.000964
vn 0.000643 -0.000037 0.000765
vn 0.000932 0.000043 0.00036
vn 0.000999 -0.000037 0.000016
vn 0.000646 0.000028 -0.000763
vn 0.000538 -0.000018 -0.000842
vn -0.000329 -0.000036 -0.000944
vn -0.000602 0.000041 -0.000798
vn -0.000993 -0.000046 -0.00011
vn -0.000963 0.00006 0.000263
vn -0.000537 -0.000063 0.000841
vn 0.000059 0.000077 0.000995
vn 0.000501 -0.000043 0.000865
vn 0.000987 0.000022 0.000157
vn 0.000993 0.000039 0.000115
vn 0.000617 -0.00004 -0.000786
vn 0.000375 0.000039 -0.000926
vn -0.000602 0.000006 -0.000798
vn -0.000632 -0.000007 -0.000775
vn -0.000965 0.000007 0.000263
vn -0.000963 0.000005 0.000268
vn -0.000172 -0.000014 0.000985
vn 0.000059 0.000057 0.000997
vn 0.00063 -0.000047 0.000775
vn 0.000992 0.000056 0.000115
vn 0.000991 -0.000028 -0.000129
vn 0.000375 0.000017 -0.000927
vn 0.000311 -0.000006 -0.00095
vn -0.000679 0.000697 0.000229
vn -0.000178 0.000847 0.000501
vn -0.000047 0.000211 0.000976
vn 0.000398 0.00079 0.000466
vn 0.000681 0.000502 0.000534
vn 0.00053 0.000848 0.000011
vn 0.000895 0.000237 -0.000378
vn 0.000281 0.000855 -0.000436
vn 0.00021 0.00043 -0.000878
vn -0.000375 0.000785 -0.000492
vn -0.000403 0.00076 -0.00051
vn -0.000937 0.000282 0.000205
vn -0.000679 0.000697 0.000229
vn -0.000178 0.000847 0.000501
vn -0.000047 0.000211 0.000976
vn 0.000398 0.00079 0.000466
vn 0.000681 0.000502 0.000534
vn 0.00053 0.000848 0.000011
vn 0.000895 0.000237 -0.000378
vn 0.000281 0.000855 -0.000436
vn 0.00021 0.00043 -0.000878
vn -0.000375 0.000785 -0.000492
vn -0.000403 0.00076 -0.00051
vn -0.000937 0.000282 0.000205
vn -0.000799 0.000336 0.000498
vn -0.00026 0.000878 0.000402
vn 0.000082 0.000078 0.000994
vn 0.000273 0.000844 0.000462
vn 0.000839 0.000404 0.000364
vn 0.000579 0.000809 0.000096
vn 0.000762 0.000373 -0.000529
vn 0.000336 0.000836 -0.000434
vn -0.000035 0.000288 -0.000957
vn -0.000172 0.000846 -0.000504
vn -0.000857 0.0004 -0.000325
vn -0.000558 0.000828 -0.00006
vn -0.000595 0.000787 0.000166
vn -0.000861 0.000318 0.000396
vn -0.000097 0.000808 0.000581
vn 0.000078 0.00032 0.000944
vn 0.00034 0.00084 0.000423
vn 0.000893 0.000229 0.000387
vn 0.000491 0.000869 -0.000062
vn 0.000729 -0.000157 -0.000666
vn 0.00014 0.000887 -0.000439
vn -0.000631 -0.000058 -0.000773
vn -0.000505 0.000459 -0.00073
vn -0.000093 -0.000006 0.000996
vn -0.000048 0.000018 0.000999
vn 0.000081 0.000011 0.000997
vn 0.000054 0.000031 0.000998
vn -0.000002 0.001 -0.000003
vn -0.000008 0.001 0.000001
vn -0.000008 0.001 0.000011
vn 0.000004 0.001 0.000006
vn 0 0.001 0
vn -0.000001 0.001 0.000001
vn 0.000003 0.001 0.000002
vn 0.000004 0.001 -0.000001
vn 0 0.001 -0.000001
vn 0 0.001 -0.000001
vn 0 0.001 -0.000001
vn -0 0.001 -0.000001
vn -0 0.001 -0.000001
vn -0.000002 0.001 -0.000001
vn -0.000008 0.001 0.000001
vn -0.000008 0.001 0.000011
vn 0.000004 0.001 0.000006
vn 0 0.001 0
vn -0.000001 0.001 0.000001
vn 0 0.001 -0.000001
vn 0 0.001 -0.000001
vn 0 0.001 -0.000001
vn -0 0.001 -0.000001
vn -0 0.001 -0.000001
vn -0.000002 0.001 -0.000001
vn 0.000001 0.001 0.000003
vn 0 0.001 0.000002
vn 0.000001 0.001 0.000002
vn 0.000001 0.001 0.000001
vn 0.000002 0.001 0
vn 0.000001 0.001 -0.000001
vn 0.000001 0.001 -0.000001
vn 0.000002 0.001 -0.000001
vn -0 0.001 -0.000006
vn -0.000006 0.001 -0.000005
vn -0.000002 0.001 0.000002
vn -0.000001 0.001 0
vn -0.000002 0.001 -0.000001
vn -0.000003 0.001 0.000003
vn -0.000003 0.001 0.000002
vn -0.000003 0.001 0.000003
vn 0.000001 0.001 0.000003
vn 0 0.001 0.000002
vn 0.000002 0.001 0.000001
vn 0.000001 0.001 0.000001
vn 0.000003 0.001 -0
vn 0.000004 0.001 0
vn 0.000006 0.001 -0.00001
vn -0.000002 0.001 -0.000011
vn -0.000004 0.001 -0.000004
vn -0.000005 0.001 -0.000004
vn -0.000006 0.001 0.000001
vn -0.000005 0.000985 0.00017
vn -0.000034 0.000986 0.000161
vn -0.000258 0.000948 0.000188
vn 0.000127 -0.000981 0.000149
vn 0.000957 -0.000148 0.000249
vn 0.000916 -0.000345 0.000205
vn -0.000239 -0.000918 0.000316
vn -0.000501 -0.000822 0.00027
vn -0.000074 -0.000898 0.000434
vn 0.000134 0.000946 0.000295
vn 0.00085 -0.000014 0.000527
vn 0.000527 -0.000583 0.000619
vn 0.0005 -0.000651 0.000571
vn -0.000561 -0.000593 0.000578
vn -0.000692 -0.000415 0.00059
vn -0.000799 0.000006 0.000602
vn -0.000767 0.000163 0.000621
vn -0.000528 0.00065 0.000547
vn -0.000289 0.000789 0.000542
vn 0.000546 0.000551 0.000631
vn 0.000706 0.00037 0.000604
vn 0.000707 0.000355 0.000611
vn -0.000009 -0.000774 0.000633
vn -0.00067 -0.00023 0.000705
vn -0.000118 0.0007 0.000704
vn 0.000074 0.000727 0.000683
vn -0.000106 -0.000496 0.000862
vn -0.000545 0.000314 0.000777
vn -0.000511 0.000381 0.00077
vn 0.000248 0.000557 0.000793
vn 0.000466 -0.000167 0.000869
vn 0.000445 -0.000392 0.000805
vn -0.000205 0.000392 0.000897
vn 0.000072 -0.00027 0.00096
vn -0.000081 -0.000399 0.000913
vn 0.000042 -0.000788 0.000615
vn -0.000163 -0.000111 0.00098
vn 0.000094 0.000213 0.000973
vn 0.00027 -0.000004 0.000963
vn 0.000018 -0.000987 0.000158
vn -0.00008 0.000203 0.000976
vn -0.000834 0.000024 -0.000552
vn -0.000823 0.000016 -0.000568
vn -0.000402 -0.000021 -0.000915
vn -0.000143 0.000037 -0.000989
vn 0.000171 -0.000029 -0.000985
vn 0.000577 0.000046 -0.000816
vn 0.000816 -0.00004 -0.000577
vn 0.000989 0.000039 -0.000143
vn 0.000989 -0.000033 0.000143
vn 0.000848 0.000036 0.000529
vn 0.000628 -0.000018 0.000778
vn 0.000417 0.000022 0.000909
vn 0.00018 -0.000019 0.000983
vn -0.000292 0.000038 0.000956
vn -0.000417 -0.000008 0.000909
vn -0.000831 -0.000019 0.000555
vn -0.000948 0.000051 0.000314
vn -0.000999 -0.000022 0.000034
vn -0.000834 0.000024 -0.000552
vn -0.00084 0.000029 -0.000541
vn -0.000506 -0.000026 -0.000862
vn -0.000143 0.000039 -0.000989
vn 0.000143 -0.000033 -0.000989
vn 0.000577 0.000046 -0.000816
vn 0.000816 -0.00004 -0.000577
vn 0.000989 0.000039 -0.000143
vn 0.000989 -0.000033 0.000143
vn 0.000848 0.000036 0.000529
vn 0.000628 -0.000018 0.000778
vn 0.000417 0.000022 0.000909
vn 0.00018 -0.000019 0.000983
vn -0.000292 0.000038 0.000956
vn -0.000417 -0.000008 0.000909
vn -0.000831 -0.000019 0.000555
vn -0.000948 0.000051 0.000314
vn -0.000999 -0.000022 0.000034
vn -0.000984 0.000044 -0.000173
vn -0.000804 -0.000029 -0.000594
vn -0.000616 0.000029 -0.000787
vn -0.000296 -0.000013 -0.000955
vn -0.000051 0.000026 -0.000998
vn 0.000198 -0.000026 -0.00098
vn 0.000644 0.000035 -0.000764
vn 0.000816 -0.00003 -0.000577
vn 0.00098 0.000039 -0.000194
vn 0.000989 -0.000047 0.000143
vn 0.000765 0.000048 0.000642
vn 0.000577 -0.000029 0.000816
vn 0.000082 0.000035 0.000996
vn -0.000112 -0.000024 0.000993
vn -0.00071 0.000026 0.000704
vn -0.000724 0.000017 0.000689
vn -0.000998 -0.000029 0.000062
vn 0.00014 0.000028 0.00099
vn 0.000577 -0.000029 0.000816
vn 0.000765 0.000048 0.000642
vn 0.000989 -0.000047 0.000143
vn 0.00098 0.000039 -0.000194
vn 0.000816 -0.00003 -0.000577
vn 0.000644 0.000035 -0.000764
vn 0.000198 -0.000026 -0.00098
vn -0.000113 0.000039 -0.000993
vn -0.000296 -0.000008 -0.000955
vn -0.000805 0.000004 -0.000594
vn -0.000816 0.000012 -0.000577
vn -0.000998 -0.000006 0.000062
vn -0.000984 0.000033 0.000174
vn -0.000724 -0.000039 0.000689
vn -0.000482 0.000039 0.000876
vn -0.000112 -0.000025 0.000993
vn -0.000984 0.000086 -0.000158
vn -0.000914 0.000377 0.00015
vn -0.000717 0.000688 0.000113
vn -0.000608 0.000789 -0.000085
vn -0.000281 0.00095 0.000138
vn 0.000009 0.000993 -0.000117
vn -0.000016 0.000985 -0.000173
vn 0.000317 0.000937 0.000145
vn 0.000558 0.000823 0.00011
vn 0.000704 0.000697 -0.000134
vn 0.000867 0.000483 0.000125
vn 0.000999 0.000036 -0.000002
vn 0.000869 -0.000495 0.000012
vn 0.000541 -0.000833 0.000114
vn 0.000471 -0.000882 0.000023
vn 0.000244 -0.000968 0.00006
vn -0.00002 -0.000996 -0.000092
vn -0.000098 -0.000991 0.000086
vn -0.000574 -0.000814 0.000089
vn -0.000704 -0.000697 -0.000139
vn -0.000881 -0.00045 0.000146
vn -0.000992 -0.000095 0.000082
vn -0.000378 0.000834 0.000401
vn 0.000065 0.000855 0.000514
vn -0.000045 0.000856 0.000515
vn 0.000506 0.000831 0.000229
vn 0.000475 0.000836 -0.000275
vn -0.000059 0.000856 -0.000514
vn 0.000054 0.000856 -0.000514
vn -0.000524 0.000816 -0.000245
vn 0 0.001 -0
vn -0 0.001 -0
vn 0 0.001 -0
vn -0 0.001 -0
vn 0 0.001 -0
vn -0.00097 -0.000045 0.000239
vn -0.000691 0.000043 0.000722
vn -0.000731 0.000064 0.00068
vn 0.000043 -0.000015 0.000999
vn -0.000155 0.000089 0.000984
vn 0.000581 -0.000054 0.000812
vn 0.000913 0.000056 0.000404
vn 0.000951 0.000021 0.000309
vn 0.000867 0.000006 -0.000498
vn 0.000916 0.000064 -0.000396
vn 0.000399 -0.000042 -0.000916
vn -0.000048 0.000022 -0.000999
vn -0 -0.000003 -0.001
vn -0.000909 0.000006 -0.000416
vn -0.000821 0.000116 -0.000559
vn -0.000816 0.000025 0.000577
vn -0.000772 -0.000004 0.000636
vn -0.000171 0.00001 0.000985
vn -0.000046 -0.000036 0.000998
vn 0.000402 0.000039 0.000915
vn 0.000822 -0.000032 0.000568
vn 0.000771 0.000007 0.000636
vn 0.000999 0.000033 -0.000034
vn 0.000982 -0.000014 -0.00019
vn 0.000831 0.000032 -0.000555
vn 0.00054 -0.000041 -0.000841
vn 0.000417 0.000009 -0.000909
vn -0.00018 0.000021 -0.000983
vn -0.00043 -0.000053 -0.000901
vn -0.000628 0.000018 -0.000778
vn -0.00099 -0.000003 -0.000143
vn -0.000987 0.000006 -0.000162
vn -0.000816 0.000009 0.000577
vn -0.000796 -0.000005 0.000605
vn -0.000143 0.00001 0.00099
vn -0.000164 0.000019 0.000986
vn 0.000534 0.000022 0.000845
vn 0.000506 0.000014 0.000863
vn 0.000841 -0.000003 0.000541
vn 0.000841 -0.000003 0.000542
vn 0.000999 0.000008 -0.000034
vn 0.000987 -0.000031 -0.000158
vn 0.000831 0.00004 -0.000555
vn 0.000417 -0.000032 -0.000908
vn 0.000503 0.000013 -0.000864
vn -0.00018 0.000024 -0.000983
vn -0.000284 -0.000005 -0.000959
vn -0.000628 0.000019 -0.000778
vn -0.000733 -0.000021 -0.00068
vn -0.00099 0.00002 -0.000143
vn -0.000997 -0.000003 -0.000079
vn -0.000933 -0.000031 0.00036
vn -0.000816 0.000047 0.000577
vn -0.000421 -0.00002 0.000907
vn -0.000198 0.000043 0.000979
vn 0.000296 0.000006 0.000955
vn 0.000348 -0.000013 0.000937
vn 0.000804 0.000029 0.000594
vn 0.000898 -0.000029 0.000439
vn 0.000998 0.000031 -0.000062
vn 0.000953 -0.000035 -0.000301
vn 0.000724 0.000042 -0.000689
vn 0.000439 -0.000036 -0.000898
vn 0.000112 0.000036 -0.000993
vn -0.000297 -0.000036 -0.000954
vn -0.000577 0.000046 -0.000816
vn -0.000874 -0.000033 -0.000484
vn -0.000988 0.000059 -0.000143
vn -0.000941 -0.000027 0.000337
vn -0.000816 0.000046 0.000577
vn -0.000439 -0.00004 0.000898
vn -0.000198 0.000027 0.00098
vn 0.000296 -0.000014 0.000955
vn 0.000174 0.000031 0.000984
vn 0.000805 0.000012 0.000594
vn 0.000742 0.000051 0.000668
vn 0.001 -0.000011 0.000019
vn 0.000998 0.000018 -0.000062
vn 0.000725 -0.000003 -0.000689
vn 0.0008 0.000046 -0.000598
vn 0.000239 0.000001 -0.000971
vn 0.000112 0.000042 -0.000993
vn -0.000439 0.000005 -0.000898
vn -0.000577 0.000052 -0.000815
vn -0.000909 -0.000014 -0.000417
vn -0.000988 0.000058 -0.000143
vn -0.000254 0.000065 0.000965
vn -0.000281 0.000108 0.000953
vn -0.000568 -0.000089 0.000818
vn -0.00083 0.000077 0.000553
vn -0.000815 0.000025 0.000579
vn -0.000992 -0.000019 0.000123
vn -0.000995 0.000012 0.000098
vn -0.000967 -0.00001 -0.000254
vn -0.000939 0.000075 -0.000335
vn -0.000819 -0.000089 -0.000567
vn -0.000576 0.000065 -0.000815
vn -0.00055 0.000108 -0.000828
vn -0.000259 -0.000091 -0.000962
vn 0.000044 0.000016 -0.000999
vn 0.000081 0.000076 -0.000994
vn 0.000533 -0.000034 -0.000845
vn 0.000614 0.000092 -0.000784
vn 0.000813 -0.000089 -0.000576
vn 0.000963 0.000064 -0.000263
vn 0.000955 0.000014 -0.000296
vn 0.000994 -0.000012 0.000111
vn 0.000991 0.00002 0.000136
vn 0.000823 -0.000022 0.000567
vn 0.000806 0.000022 0.000591
vn 0.000457 -0.000019 0.000889
vn 0.000372 0.000093 0.000924
vn 0.000094 -0.00009 0.000991
vn -0.000708 0.000699 -0.000098
vn -0.00061 0.000791 0.000056
vn -0.000091 0.000996 0.000001
vn -0.000013 0.000999 -0.000045
vn 0.000091 0.000996 0.000005
vn 0.000605 0.000794 -0.00006
vn 0.000707 0.0007 0.000098
vn 0.000991 0.000086 -0.0001
vn 0.000998 0.000036 -0.000042
vn 0.000867 -0.000495 0.000053
vn 0.000705 -0.000696 -0.000133
vn 0.000469 -0.000879 0.000079
vn 0.000088 -0.000996 -0
vn 0.000027 -0.000999 -0.000037
vn -0.000091 -0.000996 0.000005
vn -0.000459 -0.000884 -0.000085
vn -0.000704 -0.000697 0.000135
vn -0.000878 -0.000474 -0.00007
vn -0.001 0.000004 0.000004
vn -0.000991 0.000086 0.0001
vn 0.000405 0.000027 -0.000914
vn 0.000064 0.000709 -0.000703
vn -0.000164 0.000698 -0.000697
vn -0.000081 0.000705 -0.000705
vn -0.000064 0.000744 -0.000665
vn -0.000775 -0.000304 -0.000555
vn -0.000288 -0.000946 0.000148
vn 0.000183 0.000864 -0.000469
vn 0.000008 0.000977 0.000214
vn -0.000081 0.000149 -0.000985
vn -0.00019 0.000898 -0.000398
vn -0.000745 0.000088 -0.000661
vn 0.000474 0.000727 -0.000497
vn 0.000239 0.000898 -0.000368
vn 0.000588 0.000694 0.000415
vn 0.000785 0.000613 -0.000092
vn -0.000466 0.000885 -0.000013
vn -0.000622 0.000643 0.000447
vn -0.000032 0.000702 0.000712
vn -0.000019 0.000616 0.000787
vn -0.000387 0.000849 -0.00036
vn 0.000289 0.000736 -0.000612
vn -0.000223 0.000385 -0.000895
vn -0.000053 0.000694 0.000718
vn 0.000547 -0.000373 0.000749
vn 0.000446 0.000847 0.000288
vn 0.000773 0.000622 -0.000121
vn 0.000831 0.000537 -0.000144
vn -0.000928 0.000052 -0.000368
vn -0.000507 0.000861 -0.000041
vn -0.00074 0.000368 0.000563
vn -0.000636 0.000634 0.000441
vn 0.00047 0.000854 0.000224
vn 0.000934 0.00035 -0.000076
vn 0.000523 0.000837 -0.00016
vn 0.000633 0.000119 -0.000765
vn 0.000558 0.00076 0.000332
vn -0.000335 0.000442 0.000832
vn 0.000206 0.000643 0.000738
vn 0.000225 0.000852 -0.000473
vn -0.000272 0.000397 -0.000877
vn -0.000196 0.000638 -0.000744
vn -0.00065 0.000704 -0.000286
vn -0.000642 0.000745 0.000181
vn 0.000524 0.000847 0.000087
vn 0.000744 0.000306 -0.000594
vn -0.000224 0.000854 0.00047
vn 0.000181 0.000103 0.000978
vn -0.000468 0.000593 0.000655
vn -0.000636 0.000756 0.000155
vn 0.000349 0.000542 -0.000765
vn 0.000068 0.000717 -0.000694
vn 0.000063 0.000706 -0.000706
vn -0.000056 0.000706 -0.000706
vn 0.00015 0.000856 -0.000494
vn -0.000215 0.000573 -0.000791
vn 0.000286 0.000782 0.000554
vn 0.000533 0.000362 0.000765
vn 0.000459 0.00083 0.000316
vn 0.00089 0.000283 0.000358
vn 0.00054 0.000839 0.000059
vn 0.000838 0.000495 -0.000229
vn 0.000713 0.000682 -0.000162
vn 0.000575 0.00071 -0.000407
vn 0.000632 0.000596 -0.000495
vn 0.000304 0.00082 -0.000485
vn -0.000303 0.000269 0.000914
vn -0.000209 0.000581 0.000787
vn 0.000135 0.000779 0.000612
vn 0.000061 0.000741 0.000669
vn 0.000062 0.00074 0.000669
vn -0.000312 0.000239 -0.00092
vn -0.000335 0.000812 -0.000478
vn -0.000663 0.000591 -0.000459
vn -0.000677 0.000572 -0.000464
vn -0.000591 0.000792 -0.000155
vn -0.000929 0.000369 -0.000031
vn -0.000593 0.000802 0.000073
vn -0.000649 0.000625 0.000433
vn -0.000696 0.000529 0.000486
vn -0.000336 0.000805 0.000489
vn -0.000001 0.001 -0
vn -0.000004 0.001 0.000002
vn 0.000014 0.001 -0.000007
vn 0.000014 0.001 -0.000008
vn -0.000012 0.000998 0.000062
vn -0.000007 0.000999 0.000036
vn 0 0.001 -0
vn 0.00001 0.000979 0.000201
vn -0.000008 0.001 0.000001
vn -0.000012 0.001 -0.000008
vn 0.000008 0.001 -0.000029
vn 0.000016 0.001 -0.000006
vn 0 0.001 0.000003
vn -0.000011 0.000999 -0.000048
vn -0.000014 0.000998 -0.000063
vn -0.000001 0.001 0
vn -0.000001 0.001 0.000001
vn -0.000001 0.001 0.000001
vn -0.000147 0.000988 -0.000054
vn -0.000007 0.000998 0.000069
vn 0.000071 0.000996 -0.000055
vn -0.000001 0.000999 0.000042
vn 0.000001 0.001 -0
vn 0 0.001 0
vn -0 0.001 -0
vn -0.000002 0.001 -0.000001
vn 0 0.001 0.000001
vn -0.000038 0.000999 0.000008
vn 0.000024 0.001 -0.000014
vn 0.000026 0.000999 0.000018
vn -0.000064 0.000996 -0.000064
vn -0.000038 0.000996 -0.000078
vn 0.000038 0.000999 0.000025
vn -0.000004 0.001 -0.000005
vn -0.000001 0.001 -0
vn -0 0.001 -0.000001
vn 0.000023 0.000999 0.000038
vn -0.000021 0.000999 -0.000028
vn 0.000069 0.000997 -0.000021
vn 0.000067 0.000994 0.000086
vn -0.000043 0.000999 -0.000001
vn 0 0.001 -0
vn 0.000001 0.001 0
vn 0.000001 0.001 0
vn 0 0.001 -0
vn 0.000111 0.000991 0.000075
vn -0 0.001 0
vn 0.000008 0.001 -0.000013
vn -0.000017 0.001 -0.000026
vn -0.000111 0.000991 0.000079
vn -0.000015 0.001 -0.000016
vn -0.000023 0.001 0.000003
vn -0.000049 0.000998 0.00005
vn -0.000013 0.000999 0.000038
vn 0.000011 0.001 0.000004
vn -0.000033 0.000999 0.000035
vn 0.000201 0.000979 0.000007
vn 0.000052 0.000998 -0.000036
vn 0.000037 0.000999 0.000023
vn 0.000001 0.001 -0
vn 0.000007 0.001 -0.00002
vn 0.000036 0.000999 -0.000025
vn 0 0.001 0.000001
vn 0.000018 0.001 -0.000019
vn -0.000023 0.001 -0.000013
vn 0.000011 0.001 0.000005
vn -0.000003 0.001 0.000001
vn 0.000009 0.001 -0.000003
vn 0.000001 0.001 -0.000011
vn 0.000009 0.001 0.000027
vn -0.000965 0.000249 -0.000081
vn -0.000709 0.0007 0.000091
vn -0.000576 0.000816 -0.00005
vn -0.000094 0.000996 -0.000001
vn -0.000034 0.000999 -0.000023
vn 0.000088 0.000996 0.000011
vn 0.00041 0.000912 -0.000019
vn 0.000603 0.000792 0.000094
vn 0.000837 0.000542 -0.000076
vn 0.000991 0.000086 0.000106
vn 0.000987 -0.000143 -0.000069
vn 0.000708 -0.000699 0.000097
vn 0.000591 -0.000806 -0.000041
vn 0.000094 -0.000996 0.000001
vn -0.000086 -0.000994 -0.000068
vn 0.000027 -0.001 0.000006
vn -0.000461 -0.000887 0.000021
vn -0.000475 -0.00088 0.00001
vn -0.00088 -0.000475 0.000002
vn -0.000887 -0.000462 -0.000009
vn -0.000997 0.000004 0.000075
vn -0.000447 0.000543 -0.000711
vn -0.000369 0.000783 -0.0005
vn -0.000637 0.000769 -0.000057
vn -0.000761 0.000532 -0.000372
vn -0.000425 0.000861 -0.000279
vn -0.000568 0.000646 -0.00051
vn -0.000784 0.000613 -0.000095
vn -0.000659 0.000635 0.000404
vn -0.000757 0.000618 0.00021
vn -0.000579 0.000806 0.000124
vn -0.000481 0.000808 0.000341
vn -0.000513 0.000672 0.000534
vn -0.000491 0.000726 0.000481
vn -0.000245 0.000856 0.000455
vn -0.000267 0.000835 0.00048
vn 0.000007 0.000843 0.000539
vn -0 0.000816 0.000578
vn -0.000212 0.000485 0.000849
vn 0.000222 0.000522 0.000823
vn 0.000364 0.000681 0.000636
vn 0.000252 0.00082 0.000514
vn 0.000511 0.000702 0.000496
vn 0.000482 0.000778 0.000403
vn 0.000608 0.000459 0.000648
vn 0.000699 0.000638 0.000324
vn 0.000538 0.000818 0.000205
vn 0.000875 0.000464 0.000137
vn 0.000576 0.000816 -0.000056
vn 0.000531 0.000845 -0.000059
vn 0.000836 0.000451 -0.000311
vn 0.000474 0.000815 -0.000334
vn 0.000526 0.000771 -0.000358
vn 0.000436 0.000743 -0.000507
vn 0.000497 0.0006 -0.000627
vn -0.000118 0.000795 -0.000596
vn -0.000112 0.00086 -0.000498
vn 0.000056 0.000363 -0.00093
vn 0.000201 0.000789 -0.000581
vn 0.000204 0.000774 -0.000599
vn 0 -0 0.001
vn 0 -0 0.001
vn 0 0 0.001
vn 0.000202 -0.000047 -0.000978
vn 0.000326 0.000059 -0.000944
vn 0.000464 -0.000085 -0.000882
vn 0.000619 0.000086 -0.000781
vn 0.000748 -0.000085 -0.000658
vn 0.000816 0.000046 -0.000577
vn 0.000937 -0.000019 -0.000349
vn 0.000943 -0.000054 -0.00033
vn 0.000993 0.00006 -0.000099
vn 0.000992 -0.000109 0.000071
vn 0.000987 0.000028 0.000156
vn 0.000906 0.000063 0.000419
vn 0.000867 -0.000079 0.000493
vn 0.000715 0.000041 0.000698
vn 0.000669 -0.000045 0.000742
vn 0.000496 0.000061 0.000866
vn 0.000382 -0.000062 0.000922
vn 0.00026 0.000046 0.000965
vn 0.000092 -0.000061 0.000994
vn 0.000007 0.000043 0.000999
vn -0.000246 -0.000015 0.000969
vn -0.000246 -0.000016 0.000969
vn -0.000484 0.000013 0.000875
vn -0.000501 -0.000013 0.000866
vn -0.000691 0.000012 0.000723
vn -0.000704 -0.000013 0.00071
vn -0.000852 0.000012 0.000523
vn -0.000861 -0.000011 0.000509
vn -0.000963 0.000012 0.000268
vn -0.000962 0.000021 0.000274
vn -0.000999 -0.000054 -0.000004
vn -0.000992 0.000084 -0.00009
vn -0.000929 -0.000085 -0.000359
vn -0.000897 0.000051 -0.000438
vn -0.000744 -0.000019 -0.000668
vn -0.000728 -0.000055 -0.000683
vn -0.000531 0.000072 -0.000844
vn -0.000417 -0.000101 -0.000903
vn -0.000217 0.000083 -0.000973
vn -0.000072 -0.000063 -0.000995
vn 0.00006 0.000046 -0.000997
vn -0.000761 -0.000493 0.000422
vn -0.0007 -0.00067 -0.000247
vn -0.000384 -0.000853 0.000353
vn -0.000223 -0.000973 0.000049
vn 0.000006 -0.00092 0.000392
vn 0.0001 -0.000967 0.000233
vn 0.000578 -0.00069 0.000437
vn 0.00075 -0.000532 -0.000393
vn 0.000813 -0.00021 0.000544
vn 0.000975 0.000127 -0.000184
vn 0.000816 0.000425 0.000392
vn 0.000716 0.000641 -0.000277
vn 0.0004 0.000742 0.000538
vn 0.000088 0.000996 -0.000031
vn 0.00005 0.000983 -0.000176
vn -0.000168 0.00098 0.000111
vn 0.000035 0.000971 0.000238
vn -0.000488 0.000666 0.000565
vn -0.000742 0.000633 -0.000222
vn -0.000914 0.000132 0.000384
vn -0.000997 0.000032 -0.000065
vn 0 0.001 -0
vn 0 0.001 -0
vn 0 0.001 -0
vn -0.000002 0.001 -0.000003
vn -0 0.001 0
vn -0 0.001 0
vn 0 0.001 0
vn 0 0.001 0
vn 0.000006 0.001 -0.000005
vn 0 0.001 0
vn -0 0.001 0
vn -0 0.001 -0
vn 0 0.001 0
vn 0 0.001 0
vn -0 0.001 0
vn 0 0.001 0
vn 0 0.001 -0
vn 0 0.001 -0
vn 0 0.001 -0
vn 0 0.001 -0
vn -0 0.001 0
vn -0 0.001 0
vn -0 0.001 0
vn -0 0.001 0
vn 0 0.001 -0
vn -0 0.001 -0
vn -0 0.001 0
vn -0 0.001 -0
vn -0 0.001 -0
vn 0 0.001 -0
vn 0 0.001 0
vn 0 0.001 -0
vn 0 0.001 0
vn 0 0.001 -0
vn -0 0.001 0
vn -0 0.001 -0
vn -0 0.001 0
vn -0 0.001 -0
vn 0.000053 0.00003 0.000998
vn 0.000095 0.000697 0.000711
vn -0.000162 0.000698 0.000698
vn -0.000059 0.000706 0.000706
vn -0.000077 0.000743 0.000664
vn 0.000038 0.000658 -0.000752
vn 0.000171 0.000741 -0.00065
vn 0.000201 0.000699 -0.000687
vn 0.000385 0.000715 -0.000584
vn 0.000371 0.00073 -0.000574
vn 0.00054 0.000666 -0.000515
vn 0.000507 0.000765 -0.000397
vn 0.000666 0.000638 -0.000388
vn 0.000593 0.000781 -0.000197
vn 0.000732 0.000658 -0.000178
vn 0.000734 0.000679 -0.000002
vn 0.000627 0.000778 0.000047
vn 0.000736 0.000658 0.000159
vn 0.000613 0.000741 0.000274
vn 0.000625 0.000726 0.000287
vn 0.000592 0.00066 0.000463
vn 0.000494 0.00075 0.00044
vn 0.000411 0.000673 0.000615
vn 0.000398 0.000722 0.000566
vn 0.000252 0.00066 0.000708
vn 0.000195 0.00074 0.000644
vn 0.000039 0.000701 0.000713
vn 0.000043 0.000706 0.000706
vn 0.000075 0.000705 0.000705
vn -0.000036 0.000698 0.000715
vn -0.000126 0.000794 0.000595
vn -0.000197 0.000694 0.000693
vn -0.000393 0.000718 0.000575
vn -0.000381 0.000732 0.000565
vn -0.000597 0.000647 0.000474
vn -0.000516 0.000794 0.000321
vn -0.000681 0.00066 0.000317
vn -0.000717 0.000679 0.00016
vn -0.000603 0.000794 0.000075
vn -0.000751 0.00066 0.000002
vn -0.000714 0.00068 -0.000168
vn -0.000604 0.000776 -0.000182
vn -0.000666 0.000641 -0.000381
vn -0.000537 0.000752 -0.000383
vn -0.000541 0.000655 -0.000527
vn -0.000418 0.000759 -0.000499
vn -0.000368 0.000627 -0.000687
vn -0.000245 0.000768 -0.000592
vn -0.000141 0.000641 -0.000754
vn -0.000044 0.000765 -0.000642
vn -0.000001 0.000701 0.000714
vn -0 0.000707 0.000707
vn -0.000004 0.000727 0.000687
vn -0.000003 -0.000022 0.001
vn -0 0.000003 0.001
vn -0.000003 -0.000073 0.000997
vn 0.000003 0.00003 0.001
vn 0.000006 -0.000144 0.00099
vn 0.000005 0.000085 0.000996
vn 0 -0.000015 0.001
vn -0.000007 0.000001 0.001
vn -0.000012 0.000274 0.000962
vn -0.000007 0 0.001
vn -0.000006 0.000001 0.001
vn 0.000013 -0.000021 0.001
vn 0.000005 0.000004 0.001
vn 0.000007 0 0.001
vn 0 -0.000702 0.000712
vn 0.000002 -0.00071 0.000704
vn 0.000004 -0.000727 0.000686
vn 0.000334 -0 0.000942
vn 0.000313 0.000018 0.000949
vn 0.00037 -0.000025 0.000929
vn 0.000032 0.000012 0.000999
vn 0.000011 0.000022 0.001
vn 0.00008 0.000046 0.000996
vn -0.000096 -0.000015 0.000995
vn -0.000275 0.000023 0.000961
vn -0.000357 0.000098 0.000929
vn -0.000322 -0.000049 0.000945
vn -0.000405 -0 0.000914
vn -0.000129 -0.000166 0.000978
vn -0.000085 0.000029 0.000996
vn -0.000031 0.000035 0.000999
vn 0.000146 -0.000064 0.000987
vn 0.000093 0.000047 0.000995
vn 0.00031 0.000025 0.00095
vn -0.000318 -0 0.000948
vn -0.000381 -0.000005 0.000925
vn -0.000558 0.000006 0.00083
vn -0.000583 -0.000003 0.000813
vn -0.000782 0.000003 0.000623
vn -0.000792 -0.000002 0.00061
vn -0.000906 0.000001 0.000423
vn -0.000912 -0.000002 0.000411
vn -0.000976 0.000001 0.000218
vn -0.000979 -0.000002 0.000206
vn -0.001 0.000001 0.000003
vn -0.001 -0.000002 -0.00001
vn -0.000973 0.000002 -0.000229
vn -0.00097 -0.000003 -0.000244
vn -0.000868 0.000003 -0.000496
vn -0.00086 -0.000002 -0.00051
vn -0.000716 0.000002 -0.000698
vn -0.000719 0.000003 -0.000695
vn -0.000536 -0.000008 -0.000844
vn -0.000472 0.000012 -0.000881
vn -0.000274 -0.00001 -0.000962
vn -0.000184 0.000009 -0.000983
vn -0.000045 -0.000007 -0.000999
vn 0.000051 0.000006 -0.000999
vn 0.000191 -0.000009 -0.000981
vn 0.000281 0.00001 -0.00096
vn 0.00048 -0.000012 -0.000877
vn 0.000543 0.000007 -0.00084
vn 0.000724 -0.000003 -0.00069
vn 0.000721 -0.000002 -0.000692
vn 0.000864 0.000002 -0.000503
vn 0.000872 -0.000003 -0.00049
vn 0.000972 0.000003 -0.000237
vn 0.000975 -0.000002 -0.000221
vn 0.001 0.000001 -0.000003
vn 0.001 -0.000002 0.00001
vn 0.000977 0.000001 0.000212
vn 0.000974 -0.000002 0.000224
vn 0.000909 0.000001 0.000417
vn 0.000903 -0.000002 0.000429
vn 0.000787 0.000002 0.000617
vn 0.000778 -0.000003 0.000629
vn 0.000578 0.000003 0.000816
vn 0.000568 -0.000001 0.000823
vn 0.000409 -0.000001 0.000913
vn 0.000412 0 0.000911
vn 0 -0.001 0
vn -0 -0.001 0
vn -0 -0.001 0
vn -0 -0.001 0
vn -0 -0.001 0
vn 0 -0.001 0
vn 0 -0.001 0
vn -0 -0.001 0
vn -0 -0.001 0
vn -0 -0.001 0
vn 0 -0.001 0
vn -0 -0.001 0
vn 0 -0.001 0
vn 0 -0.001 0
vn 0 -0.001 0
vn -0 -0.001 0
vn -0 -0.001 0
vn 0 -0.001 0
vn 0 -0.001 0
vn -0 -0.001 0
vn 0 -0.001 0
vn -0 -0.001 0
vn 0 -0.001 0
vn -0 -0.001 0
vn 0 -0.001 0
vn 0 -0.001 0
vn -0 -0.001 -0
vn -0 -0.001 -0
vn -0 -0.001 -0
vn -0 -0.001 0
vn 0 -0.001 0
vn 0 -0.001 0
vn 0 -0.001 0.000001
vn 0 -0.001 0.000001
vn -0 -0.001 0.000001
vn -0 -0.001 0.000002
vn 0 -0.001 0
vn -0 -0.001 0
vn -0 -0.001 0
vn 0 -0.001 -0
vn 0 -0.001 -0
vn 0 -0.001 -0
vn 0 -0.001 -0
vn -0 -0.001 0
vn -0 -0.001 0
usemtl LinkGrey
f 1//1 2//1 3//1
f 1//2 4//2 5//2
f 1//2 6//2 4//2
f 1//2 3//2 6//2
f 7//2 8//2 9//2
f 10//3 8//3 7//3
f 7//4 11//4 10//4
f 7//5 12//5 11//5
f 13//2 14//2 15//2
f 15//2 16//2 13//2
f 15//6 17//6 16//6
f 18//2 19//2 20//2
f 20//2 21//2 18//2
f 20//6 22//6 21//6
f 3//7 23//7 6//7
f 6//8 23//8 24//8
f 6//9 24//9 4//9
f 4//10 24//10 25//10
f 4//11 25//11 5//11
f 5//12 25//12 26//12
f 5//13 26//13 1//13
f 1//14 26//14 27//14
f 1//15 27//15 2//15
f 2//16 27//16 28//16
f 2//17 28//17 3//17
f 3//18 28//18 23//18
f 7//19 29//19 12//19
f 12//20 29//20 30//20
f 12//21 30//21 11//21
f 11//22 30//22 31//22
f 11//23 31//23 10//23
f 10//24 31//24 32//24
f 10//25 32//25 8//25
f 8//26 32//26 33//26
f 8//27 33//27 9//27
f 9//28 33//28 34//28
f 9//29 34//29 7//29
f 7//30 34//30 29//30
f 14//31 35//31 36//31
f 14//32 36//32 15//32
f 15//33 36//33 37//33
f 15//34 37//34 17//34
f 17//35 37//35 38//35
f 17//36 38//36 16//36
f 16//37 38//37 39//37
f 16//38 39//38 40//38
f 16//39 40//39 13//39
f 13//40 40//40 35//40
f 13//41 35//41 14//41
f 19//42 41//42 20//42
f 20//43 41//43 42//43
f 20//44 42//44 22//44
f 22//45 42//45 43//45
f 22//46 43//46 44//46
f 22//47 44//47 21//47
f 21//48 44//48 45//48
f 21//49 45//49 18//49
f 18//50 45//50 46//50
f 18//51 46//51 19//51
f 19//52 46//52 41//52
f 24//53 47//53 25//53
f 25//54 47//54 26//54
f 26//55 47//55 48//55
f 26//56 48//56 27//56
f 27//57 48//57 49//57
f 27//58 49//58 28//58
f 28//59 49//59 50//59
f 28//60 50//60 23//60
f 23//61 50//61 51//61
f 23//62 51//62 24//62
f 24//63 51//63 52//63
f 24//64 52//64 47//64
f 30//65 53//65 31//65
f 31//66 53//66 32//66
f 32//67 53//67 54//67
f 32//68 54//68 33//68
f 33//69 54//69 55//69
f 33//70 55//70 34//70
f 34//71 55//71 56//71
f 34//72 56//72 29//72
f 29//73 56//73 57//73
f 29//74 57//74 30//74
f 30//75 57//75 58//75
f 30//76 58//76 53//76
f 37//77 59//77 60//77
f 37//78 60//78 38//78
f 38//79 60//79 61//79
f 38//80 61//80 39//80
f 39//81 61//81 62//81
f 39//82 62//82 40//82
f 40//83 62//83 63//83
f 40//84 63//84 35//84
f 35//85 63//85 64//85
f 35//86 64//86 36//86
f 36//87 64//87 59//87
f 36//88 59//88 37//88
f 42//89 65//89 43//89
f 43//90 65//90 66//90
f 43//91 66//91 44//91
f 44//92 66//92 67//92
f 44//93 67//93 45//93
f 45//94 67//94 68//94
f 45//95 68//95 46//95
f 46//96 68//96 69//96
f 46//97 69//97 41//97
f 41//98 69//98 42//98
f 42//99 69//99 65//99
f 70//100 71//100 72//100
f 73//101 70//101 72//101
f 74//102 73//102 72//102
f 75//103 74//103 72//103
f 52//104 76//104 47//104
f 47//105 76//105 77//105
f 47//106 77//106 78//106
f 47//107 78//107 48//107
f 48//108 78//108 79//108
f 48//109 79//109 49//109
f 49//110 79//110 80//110
f 49//111 80//111 81//111
f 49//112 81//112 50//112
f 50//113 81//113 51//113
f 51//114 81//114 82//114
f 51//115 82//115 83//115
f 51//116 83//116 52//116
f 52//117 83//117 76//117
f 58//104 84//104 53//104
f 53//118 84//118 85//118
f 53//119 85//119 86//119
f 53//120 86//120 54//120
f 54//121 86//121 87//121
f 54//122 87//122 55//122
f 55//110 87//110 88//110
f 55//111 88//111 89//111
f 55//123 89//123 56//123
f 56//124 89//124 57//124
f 57//125 89//125 90//125
f 57//126 90//126 91//126
f 57//127 91//127 58//127
f 58//128 91//128 84//128
f 60//129 92//129 61//129
f 61//130 92//130 93//130
f 61//131 93//131 94//131
f 61//132 94//132 62//132
f 62//133 94//133 95//133
f 62//134 95//134 63//134
f 63//135 95//135 96//135
f 63//136 96//136 64//136
f 64//137 96//137 97//137
f 64//138 97//138 98//138
f 64//139 98//139 59//139
f 59//140 98//140 99//140
f 59//141 99//141 60//141
f 60//142 99//142 92//142
f 65//143 100//143 66//143
f 66//144 100//144 101//144
f 66//145 101//145 67//145
f 67//146 101//146 102//146
f 67//147 102//147 103//147
f 67//148 103//148 68//148
f 68//149 103//149 104//149
f 68//150 104//150 69//150
f 69//151 104//151 105//151
f 69//152 105//152 106//152
f 69//153 106//153 65//153
f 65//154 106//154 107//154
f 65//155 107//155 100//155
f 108//156 109//156 110//156
f 108//157 110//157 111//157
f 108//158 111//158 112//158
f 113//159 114//159 115//159
f 116//160 117//160 118//160
f 116//161 118//161 119//161
f 120//162 114//162 121//162
f 120//163 121//163 122//163
f 114//164 113//164 121//164
f 109//165 108//165 123//165
f 117//166 124//166 118//166
f 119//167 118//167 125//167
f 119//168 125//168 113//168
f 122//169 121//169 126//169
f 122//170 126//170 127//170
f 128//171 127//171 71//171
f 128//172 71//172 129//172
f 112//173 129//173 130//173
f 112//174 130//174 108//174
f 131//175 123//175 74//175
f 131//176 74//176 117//176
f 117//177 74//177 124//177
f 113//178 125//178 121//178
f 127//179 126//179 71//179
f 108//180 130//180 132//180
f 108//181 132//181 123//181
f 121//182 125//182 126//182
f 129//183 71//183 70//183
f 129//184 70//184 130//184
f 123//185 132//185 74//185
f 118//186 124//186 75//186
f 118//187 75//187 125//187
f 130//188 70//188 132//188
f 125//189 75//189 133//189
f 125//190 133//190 126//190
f 126//191 133//191 72//191
f 126//192 72//192 71//192
f 132//193 134//193 74//193
f 124//194 74//194 75//194
f 73//195 74//195 134//195
f 70//196 134//196 132//196
f 135//197 80//197 79//197
f 135//198 79//198 136//198
f 136//199 79//199 137//199
f 137//200 79//200 78//200
f 137//201 78//201 138//201
f 138//202 78//202 77//202
f 138//203 77//203 139//203
f 139//204 77//204 76//204
f 139//205 76//205 140//205
f 140//206 76//206 83//206
f 140//207 83//207 141//207
f 141//208 83//208 82//208
f 141//209 82//209 142//209
f 142//210 82//210 81//210
f 142//211 81//211 143//211
f 143//212 81//212 144//212
f 144//213 81//213 80//213
f 144//214 80//214 135//214
f 145//215 88//215 87//215
f 145//216 87//216 146//216
f 146//217 87//217 147//217
f 147//218 87//218 86//218
f 147//219 86//219 148//219
f 148//220 86//220 85//220
f 148//221 85//221 149//221
f 149//222 85//222 84//222
f 149//223 84//223 150//223
f 150//224 84//224 91//224
f 150//225 91//225 151//225
f 151//226 91//226 90//226
f 151//227 90//227 152//227
f 152//228 90//228 89//228
f 152//229 89//229 153//229
f 153//230 89//230 154//230
f 154//231 89//231 88//231
f 154//232 88//232 145//232
f 155//233 95//233 94//233
f 155//234 94//234 156//234
f 156//235 94//235 93//235
f 156//236 93//236 157//236
f 157//237 93//237 92//237
f 157//238 92//238 158//238
f 158//239 92//239 99//239
f 158//240 99//240 159//240
f 159//241 99//241 98//241
f 159//242 98//242 160//242
f 160//243 98//243 97//243
f 160//244 97//244 161//244
f 161//245 97//245 96//245
f 161//246 96//246 162//246
f 162//247 96//247 95//247
f 162//248 95//248 163//248
f 163//249 95//249 155//249
f 105//250 164//250 106//250
f 106//251 164//251 165//251
f 106//252 165//252 107//252
f 107//253 165//253 166//253
f 107//254 166//254 100//254
f 100//255 166//255 167//255
f 100//256 167//256 101//256
f 101//257 167//257 168//257
f 101//258 168//258 102//258
f 102//259 168//259 169//259
f 102//260 169//260 170//260
f 102//261 170//261 103//261
f 103//262 170//262 171//262
f 103//263 171//263 104//263
f 104//264 171//264 172//264
f 104//265 172//265 105//265
f 105//266 172//266 164//266
f 173//267 128//267 174//267
f 174//268 128//268 129//268
f 174//269 129//269 112//269
f 174//270 112//270 175//270
f 175//271 112//271 111//271
f 175//272 111//272 176//272
f 176//273 111//273 109//273
f 176//274 109//274 123//274
f 176//275 123//275 131//275
f 176//276 131//276 177//276
f 177//277 131//277 117//277
f 177//278 117//278 116//278
f 116//279 119//279 178//279
f 178//280 119//280 113//280
f 178//281 113//281 179//281
f 179//282 113//282 115//282
f 179//283 115//283 180//283
f 180//284 115//284 120//284
f 180//285 120//285 122//285
f 180//286 122//286 173//286
f 173//287 122//287 127//287
f 173//288 127//288 128//288
f 181//289 182//289 183//289
f 184//290 185//290 183//290
f 182//291 184//291 183//291
f 183//292 185//292 186//292
f 186//293 187//293 183//293
f 188//294 189//294 183//294
f 187//295 188//295 183//295
f 189//296 181//296 183//296
f 190//297 191//297 192//297
f 192//2 191//2 193//2
f 192//298 194//298 190//298
f 192//2 195//2 194//2
f 192//299 196//299 195//299
f 197//2 196//2 192//2
f 192//300 198//300 197//300
f 192//301 199//301 198//301
f 192//2 200//2 199//2
f 181//302 201//302 202//302
f 181//303 202//303 182//303
f 182//304 202//304 203//304
f 182//305 203//305 185//305
f 185//306 203//306 204//306
f 185//307 204//307 205//307
f 185//308 205//308 186//308
f 186//309 205//309 206//309
f 186//310 206//310 187//310
f 187//311 206//311 207//311
f 187//312 207//312 208//312
f 187//313 208//313 209//313
f 187//314 209//314 189//314
f 189//315 209//315 181//315
f 181//316 209//316 201//316
f 139//317 210//317 138//317
f 138//318 210//318 211//318
f 138//319 211//319 137//319
f 137//320 211//320 212//320
f 137//321 212//321 136//321
f 136//322 212//322 135//322
f 135//323 212//323 213//323
f 135//324 213//324 144//324
f 144//325 213//325 214//325
f 144//326 214//326 143//326
f 143//327 214//327 215//327
f 143//328 215//328 142//328
f 142//329 215//329 141//329
f 141//330 215//330 216//330
f 141//331 216//331 140//331
f 140//332 216//332 139//332
f 139//333 216//333 210//333
f 149//334 217//334 148//334
f 148//335 217//335 218//335
f 148//336 218//336 147//336
f 147//337 218//337 219//337
f 147//338 219//338 220//338
f 147//339 220//339 146//339
f 146//340 220//340 145//340
f 145//341 220//341 221//341
f 145//342 221//342 154//342
f 154//343 221//343 222//343
f 154//344 222//344 153//344
f 153//345 222//345 152//345
f 152//346 222//346 223//346
f 152//347 223//347 151//347
f 151//348 223//348 224//348
f 151//349 224//349 150//349
f 150//350 224//350 225//350
f 150//351 225//351 149//351
f 149//352 225//352 217//352
f 159//353 226//353 227//353
f 159//354 227//354 158//354
f 158//355 227//355 228//355
f 158//356 228//356 157//356
f 157//357 228//357 156//357
f 156//358 228//358 229//358
f 156//359 229//359 155//359
f 155//360 229//360 230//360
f 155//361 230//361 163//361
f 163//362 230//362 231//362
f 163//363 231//363 162//363
f 162//364 231//364 232//364
f 162//365 232//365 161//365
f 161//366 232//366 233//366
f 161//367 233//367 160//367
f 160//368 233//368 226//368
f 160//369 226//369 159//369
f 166//370 234//370 235//370
f 166//371 235//371 167//371
f 167//372 235//372 236//372
f 167//373 236//373 168//373
f 168//374 236//374 169//374
f 169//375 236//375 237//375
f 169//376 237//376 170//376
f 170//377 237//377 238//377
f 170//378 238//378 239//378
f 170//379 239//379 171//379
f 171//380 239//380 172//380
f 172//381 239//381 240//381
f 172//382 240//382 241//382
f 172//383 241//383 164//383
f 164//384 241//384 242//384
f 164//385 242//385 165//385
f 165//386 242//386 234//386
f 165//387 234//387 166//387
f 243//388 200//388 244//388
f 244//389 200//389 192//389
f 244//390 192//390 245//390
f 245//391 192//391 246//391
f 246//392 192//392 193//392
f 246//393 193//393 247//393
f 247//394 193//394 191//394
f 247//395 191//395 248//395
f 248//396 191//396 190//396
f 248//397 190//397 249//397
f 249//398 190//398 250//398
f 250//399 190//399 194//399
f 250//400 194//400 251//400
f 251//401 194//401 252//401
f 252//402 194//402 195//402
f 252//403 195//403 253//403
f 253//404 195//404 196//404
f 253//405 196//405 254//405
f 254//406 196//406 255//406
f 255//407 196//407 197//407
f 255//408 197//408 256//408
f 256//409 197//409 198//409
f 256//410 198//410 257//410
f 257//411 198//411 199//411
f 257//412 199//412 258//412
f 258//413 199//413 200//413
f 258//414 200//414 243//414
f 259//415 174//415 260//415
f 260//416 174//416 175//416
f 260//417 175//417 261//417
f 260//418 261//418 262//418
f 262//419 261//419 176//419
f 262//420 176//420 263//420
f 263//421 176//421 177//421
f 263//422 177//422 264//422
f 264//423 177//423 116//423
f 264//424 116//424 178//424
f 264//425 178//425 265//425
f 265//426 178//426 179//426
f 265//427 179//427 266//427
f 265//428 266//428 267//428
f 267//429 266//429 180//429
f 267//430 180//430 268//430
f 268//431 180//431 173//431
f 268//432 173//432 269//432
f 269//433 173//433 259//433
f 259//434 173//434 174//434
f 208//435 207//435 270//435
f 208//436 270//436 271//436
f 271//437 270//437 272//437
f 271//438 272//438 209//438
f 209//439 272//439 273//439
f 209//440 273//440 201//440
f 202//441 201//441 203//441
f 203//442 274//442 275//442
f 203//443 275//443 204//443
f 215//444 276//444 277//444
f 215//445 277//445 216//445
f 216//446 277//446 278//446
f 214//447 279//447 276//447
f 214//448 276//448 215//448
f 212//449 280//449 213//449
f 214//450 213//450 279//450
f 216//451 278//451 210//451
f 211//452 210//452 281//452
f 211//453 281//453 212//453
f 212//454 281//454 280//454
f 224//455 282//455 225//455
f 222//456 283//456 223//456
f 224//457 223//457 282//457
f 218//458 284//458 219//458
f 220//459 219//459 285//459
f 220//460 285//460 221//460
f 221//461 285//461 222//461
f 222//462 285//462 283//462
f 282//463 286//463 225//463
f 225//464 286//464 217//464
f 217//465 286//465 218//465
f 218//466 286//466 284//466
f 229//467 287//467 230//467
f 230//468 287//468 288//468
f 230//469 288//469 231//469
f 231//470 288//470 289//470
f 229//471 290//471 287//471
f 227//472 291//472 228//472
f 229//473 228//473 290//473
f 231//474 289//474 232//474
f 232//475 289//475 233//475
f 233//476 289//476 292//476
f 233//477 292//477 226//477
f 227//478 226//478 291//478
f 238//479 293//479 239//479
f 239//480 293//480 240//480
f 235//481 294//481 236//481
f 236//482 294//482 237//482
f 235//483 295//483 294//483
f 235//484 234//484 295//484
f 252//485 296//485 297//485
f 252//486 297//486 298//486
f 298//487 297//487 299//487
f 298//488 299//488 251//488
f 251//489 299//489 300//489
f 251//490 300//490 250//490
f 258//491 301//491 257//491
f 257//492 301//492 302//492
f 257//493 302//493 256//493
f 256//494 302//494 303//494
f 256//495 303//495 255//495
f 255//496 303//496 254//496
f 254//497 303//497 304//497
f 254//498 304//498 253//498
f 253//499 304//499 296//499
f 253//500 296//500 252//500
f 244//501 305//501 306//501
f 244//502 306//502 243//502
f 243//503 306//503 307//503
f 243//504 307//504 258//504
f 258//505 307//505 301//505
f 250//506 300//506 308//506
f 250//507 308//507 249//507
f 249//508 308//508 248//508
f 248//509 308//509 309//509
f 248//510 309//510 247//510
f 247//511 309//511 310//511
f 247//512 310//512 246//512
f 246//513 310//513 245//513
f 245//514 310//514 305//514
f 245//515 305//515 244//515
f 297//516 296//516 278//516
f 306//517 305//517 311//517
f 312//518 206//518 278//518
f 278//519 206//519 205//519
f 278//520 205//520 204//520
f 278//521 204//521 274//521
f 278//522 274//522 283//522
f 283//523 274//523 203//523
f 283//524 203//524 201//524
f 283//525 201//525 313//525
f 313//526 201//526 273//526
f 312//527 207//527 206//527
f 313//528 273//528 312//528
f 312//529 273//529 270//529
f 270//530 207//530 312//530
f 303//531 280//531 304//531
f 304//532 280//532 281//532
f 304//533 281//533 296//533
f 210//534 278//534 296//534
f 296//535 281//535 210//535
f 279//536 213//536 314//536
f 314//537 213//537 280//537
f 314//538 280//538 315//538
f 315//539 280//539 303//539
f 277//540 312//540 278//540
f 316//541 317//541 286//541
f 286//542 317//542 284//542
f 219//543 284//543 310//543
f 308//544 285//544 219//544
f 308//545 219//545 309//545
f 318//546 282//546 223//546
f 318//547 223//547 313//547
f 313//548 223//548 283//548
f 316//549 286//549 282//549
f 302//550 289//550 303//550
f 302//551 292//551 289//551
f 311//552 291//552 226//552
f 301//553 226//553 302//553
f 302//554 226//554 292//554
f 319//555 290//555 228//555
f 319//556 228//556 291//556
f 303//557 289//557 315//557
f 315//558 289//558 320//558
f 320//559 289//559 288//559
f 320//560 288//560 287//560
f 320//561 287//561 290//561
f 284//562 317//562 310//562
f 310//563 317//563 242//563
f 310//564 242//564 241//564
f 295//565 234//565 321//565
f 321//566 234//566 242//566
f 321//567 242//567 317//567
f 322//568 294//568 295//568
f 237//569 322//569 311//569
f 237//570 311//570 238//570
f 237//571 294//571 322//571
f 309//572 219//572 310//572
f 293//573 238//573 311//573
f 305//574 240//574 293//574
f 305//575 293//575 311//575
f 310//576 241//576 240//576
f 310//577 240//577 305//577
f 319//578 291//578 311//578
f 277//579 276//579 312//579
f 301//580 311//580 226//580
f 311//581 301//581 306//581
f 300//582 283//582 308//582
f 308//583 283//583 285//583
f 283//584 300//584 278//584
f 278//585 300//585 297//585
f 323//586 259//586 324//586
f 324//587 259//587 260//587
f 324//588 260//588 325//588
f 325//589 260//589 326//589
f 325//590 326//590 327//590
f 327//591 326//591 262//591
f 327//592 262//592 328//592
f 328//593 262//593 263//593
f 328//594 263//594 329//594
f 329//595 263//595 264//595
f 329//596 264//596 330//596
f 330//597 264//597 265//597
f 330//598 265//598 331//598
f 331//599 265//599 332//599
f 331//600 332//600 267//600
f 331//601 267//601 333//601
f 333//602 267//602 268//602
f 333//603 268//603 334//603
f 334//604 268//604 269//604
f 334//605 269//605 323//605
f 323//606 269//606 259//606
f 335//607 319//607 336//607
f 335//608 290//608 319//608
f 337//609 320//609 338//609
f 338//610 320//610 339//610
f 339//611 320//611 290//611
f 339//612 290//612 335//612
f 337//613 315//613 320//613
f 340//614 314//614 341//614
f 341//615 314//615 337//615
f 337//616 314//616 315//616
f 340//617 279//617 314//617
f 342//618 276//618 340//618
f 340//619 276//619 279//619
f 343//620 312//620 276//620
f 343//621 276//621 342//621
f 344//622 313//622 312//622
f 344//623 312//623 345//623
f 345//624 312//624 343//624
f 346//625 313//625 344//625
f 347//626 318//626 346//626
f 346//627 318//627 313//627
f 348//628 318//628 347//628
f 348//629 316//629 282//629
f 348//630 282//630 318//630
f 316//631 348//631 349//631
f 316//632 349//632 317//632
f 317//633 349//633 350//633
f 317//634 350//634 351//634
f 317//635 351//635 321//635
f 321//636 351//636 352//636
f 321//637 352//637 353//637
f 321//638 353//638 295//638
f 353//639 322//639 295//639
f 354//640 322//640 353//640
f 336//641 319//641 311//641
f 336//642 311//642 355//642
f 355//643 311//643 356//643
f 356//644 311//644 354//644
f 354//645 311//645 322//645
f 331//646 357//646 358//646
f 325//647 359//647 360//647
f 325//648 360//648 324//648
f 361//649 356//649 362//649
f 362//650 356//650 354//650
f 362//651 354//651 363//651
f 363//652 354//652 353//652
f 363//653 353//653 364//653
f 364//654 353//654 352//654
f 364//655 352//655 351//655
f 364//656 351//656 365//656
f 365//657 351//657 350//657
f 365//658 350//658 366//658
f 366//659 350//659 349//659
f 366//660 349//660 348//660
f 366//661 348//661 367//661
f 367//662 348//662 347//662
f 367//663 347//663 368//663
f 368//664 347//664 346//664
f 368//665 346//665 369//665
f 369//666 346//666 344//666
f 369//667 344//667 370//667
f 370//668 344//668 345//668
f 370//669 345//669 343//669
f 370//670 343//670 371//670
f 371//671 343//671 342//671
f 371//672 342//672 372//672
f 372//673 342//673 340//673
f 372//674 340//674 373//674
f 373//675 340//675 341//675
f 373//676 341//676 374//676
f 374//677 341//677 337//677
f 374//678 337//678 375//678
f 375//679 337//679 376//679
f 376//680 337//680 338//680
f 376//681 338//681 377//681
f 377//682 338//682 339//682
f 377//683 339//683 335//683
f 377//684 335//684 378//684
f 378//685 335//685 336//685
f 378//686 336//686 379//686
f 379//687 336//687 355//687
f 379//688 355//688 361//688
f 361//689 355//689 356//689
f 329//690 380//690 328//690
f 328//691 380//691 381//691
f 328//692 381//692 327//692
f 327//693 381//693 382//693
f 327//694 382//694 360//694
f 360//695 382//695 383//695
f 360//696 383//696 324//696
f 324//697 383//697 384//697
f 324//698 384//698 323//698
f 323//699 384//699 385//699
f 323//700 385//700 334//700
f 334//701 385//701 386//701
f 334//702 386//702 333//702
f 333//703 386//703 358//703
f 358//704 386//704 387//704
f 358//705 387//705 331//705
f 331//706 387//706 388//706
f 331//707 388//707 330//707
f 330//708 388//708 389//708
f 330//709 389//709 329//709
f 329//710 389//710 380//710
f 372//711 390//711 391//711
f 372//712 391//712 371//712
f 371//713 391//713 370//713
f 370//714 391//714 392//714
f 362//715 393//715 394//715
f 362//716 394//716 361//716
f 361//717 394//717 379//717
f 379//718 394//718 395//718
f 370//719 392//719 396//719
f 370//720 396//720 369//720
f 369//721 396//721 397//721
f 369//722 397//722 368//722
f 379//723 395//723 398//723
f 379//724 398//724 378//724
f 378//725 398//725 399//725
f 378//726 399//726 377//726
f 375//727 400//727 374//727
f 374//728 400//728 373//728
f 373//729 400//729 390//729
f 373//730 390//730 372//730
f 364//731 401//731 402//731
f 364//732 402//732 363//732
f 363//733 402//733 393//733
f 363//734 393//734 362//734
f 368//735 397//735 403//735
f 368//736 403//736 367//736
f 367//737 403//737 404//737
f 367//738 404//738 366//738
f 366//739 404//739 405//739
f 399//740 406//740 377//740
f 377//741 406//741 376//741
f 376//742 406//742 407//742
f 376//743 407//743 375//743
f 375//744 407//744 400//744
f 366//745 405//745 408//745
f 366//746 408//746 365//746
f 365//747 408//747 364//747
f 364//748 408//748 401//748
f 381//749 409//749 382//749
f 386//750 410//750 411//750
f 411//751 410//751 412//751
f 411//752 412//752 387//752
f 387//753 412//753 388//753
f 413//754 394//754 414//754
f 414//755 394//755 393//755
f 414//756 393//756 415//756
f 415//757 393//757 402//757
f 415//758 402//758 416//758
f 416//759 402//759 417//759
f 417//760 402//760 401//760
f 417//761 401//761 418//761
f 418//762 401//762 408//762
f 418//763 408//763 419//763
f 419//764 408//764 420//764
f 420//765 408//765 405//765
f 420//766 405//766 421//766
f 421//767 405//767 404//767
f 421//768 404//768 422//768
f 422//769 404//769 423//769
f 423//770 404//770 403//770
f 423//771 403//771 397//771
f 423//772 397//772 424//772
f 424//773 397//773 425//773
f 425//774 397//774 396//774
f 425//775 396//775 426//775
f 425//776 426//776 427//776
f 427//777 426//777 392//777
f 427//778 392//778 428//778
f 428//779 392//779 391//779
f 428//780 391//780 429//780
f 429//781 391//781 390//781
f 429//782 390//782 430//782
f 430//783 390//783 431//783
f 431//784 390//784 400//784
f 431//785 400//785 432//785
f 432//786 400//786 433//786
f 433//787 400//787 407//787
f 433//788 407//788 434//788
f 434//789 407//789 435//789
f 435//790 407//790 406//790
f 435//791 406//791 436//791
f 436//792 406//792 399//792
f 436//793 399//793 437//793
f 437//794 399//794 398//794
f 437//795 398//795 438//795
f 438//796 398//796 395//796
f 438//797 395//797 413//797
f 413//798 395//798 394//798
f 439//799 440//799 441//799
f 441//800 440//800 442//800
f 440//801 439//801 443//801
f 444//802 384//802 383//802
f 410//803 441//803 442//803
f 410//804 442//804 388//804
f 442//805 389//805 388//805
f 381//806 445//806 409//806
f 444//807 383//807 409//807
f 444//808 409//808 445//808
f 381//809 380//809 445//809
f 410//810 386//810 441//810
f 445//811 380//811 442//811
f 442//812 380//812 389//812
f 441//813 386//813 385//813
f 441//814 385//814 384//814
f 441//815 384//815 444//815
f 445//816 446//816 444//816
f 444//817 446//817 447//817
f 447//818 446//818 448//818
f 425//819 446//819 424//819
f 424//820 446//820 445//820
f 449//821 450//821 442//821
f 446//822 425//822 451//822
f 451//823 425//823 428//823
f 451//824 428//824 448//824
f 448//825 428//825 447//825
f 447//826 428//826 429//826
f 452//827 439//827 453//827
f 453//828 439//828 441//828
f 453//829 441//829 444//829
f 452//830 454//830 439//830
f 454//831 443//831 455//831
f 454//832 455//832 439//832
f 449//833 440//833 454//833
f 454//834 440//834 443//834
f 442//835 440//835 449//835
f 447//836 429//836 444//836
f 444//837 429//837 453//837
f 453//838 429//838 430//838
f 453//839 430//839 456//839
f 456//840 430//840 431//840
f 456//841 431//841 457//841
f 457//842 431//842 432//842
f 457//843 432//843 458//843
f 458//844 432//844 433//844
f 458//845 433//845 459//845
f 459//846 433//846 434//846
f 459//847 434//847 460//847
f 460//848 434//848 435//848
f 460//849 435//849 461//849
f 461//850 435//850 436//850
f 461//851 436//851 462//851
f 462//852 436//852 437//852
f 462//853 437//853 463//853
f 463//854 437//854 464//854
f 464//855 437//855 438//855
f 464//856 438//856 465//856
f 465//857 438//857 413//857
f 465//858 413//858 466//858
f 466//859 413//859 414//859
f 466//860 414//860 467//860
f 467//861 414//861 415//861
f 467//862 415//862 468//862
f 468//863 415//863 416//863
f 468//864 416//864 417//864
f 468//865 417//865 469//865
f 469//866 417//866 418//866
f 469//867 418//867 470//867
f 470//868 418//868 419//868
f 470//869 419//869 471//869
f 471//870 419//870 420//870
f 471//871 420//871 472//871
f 472//872 420//872 421//872
f 472//873 421//873 473//873
f 473//874 421//874 422//874
f 473//875 422//875 474//875
f 474//876 422//876 423//876
f 474//877 423//877 475//877
f 475//878 423//878 424//878
f 475//879 424//879 450//879
f 450//880 424//880 445//880
f 450//881 445//881 442//881
f 476//882 459//882 460//882
f 476//883 460//883 477//883
f 477//882 460//882 478//882
f 478//882 460//882 461//882
f 478//884 461//884 479//884
f 479//885 461//885 480//885
f 480//886 461//886 481//886
f 481//887 461//887 462//887
f 481//888 462//888 482//888
f 482//889 462//889 483//889
f 483//882 462//882 463//882
f 483//890 463//890 484//890
f 484//891 463//891 485//891
f 485//892 463//892 464//892
f 485//893 464//893 486//893
f 486//894 464//894 487//894
f 487//882 464//882 488//882
f 488//882 464//882 465//882
f 488//895 465//895 489//895
f 489//882 465//882 490//882
f 490//896 465//896 466//896
f 490//897 466//897 491//897
f 491//882 466//882 492//882
f 492//882 466//882 467//882
f 492//882 467//882 493//882
f 493//882 467//882 494//882
f 494//898 467//898 495//898
f 495//882 467//882 468//882
f 495//899 468//899 496//899
f 496//900 468//900 497//900
f 497//901 468//901 498//901
f 498//882 468//882 469//882
f 498//882 469//882 499//882
f 499//882 469//882 500//882
f 500//882 469//882 470//882
f 500//902 470//902 501//902
f 501//882 470//882 502//882
f 502//882 470//882 503//882
f 503//882 470//882 471//882
f 503//903 471//903 504//903
f 504//882 471//882 505//882
f 505//904 471//904 472//904
f 505//905 472//905 506//905
f 506//882 472//882 507//882
f 507//882 472//882 473//882
f 507//882 473//882 508//882
f 508//882 473//882 509//882
f 509//906 473//906 474//906
f 509//882 474//882 510//882
f 510//882 474//882 511//882
f 511//882 474//882 475//882
f 511//907 475//907 512//907
f 512//882 475//882 513//882
f 513//882 475//882 514//882
f 514//908 475//908 450//908
f 514//909 450//909 515//909
f 515//910 450//910 516//910
f 516//911 450//911 449//911
f 516//912 449//912 517//912
f 517//913 449//913 518//913
f 518//914 449//914 454//914
f 518//915 454//915 519//915
f 519//916 454//916 520//916
f 520//917 454//917 521//917
f 521//918 454//918 452//918
f 521//919 452//919 522//919
f 522//920 452//920 523//920
f 523//921 452//921 453//921
f 523//922 453//922 524//922
f 524//923 453//923 525//923
f 525//924 453//924 456//924
f 525//925 456//925 526//925
f 526//882 456//882 527//882
f 527//882 456//882 528//882
f 528//882 456//882 457//882
f 528//926 457//926 529//926
f 529//882 457//882 530//882
f 530//882 457//882 458//882
f 530//882 458//882 531//882
f 531//882 458//882 532//882
f 532//882 458//882 459//882
f 532//882 459//882 476//882
