mtllib ../materials.mtl
v -0 0.091548 0.056516
v 0.006348 0.092013 0.056516
v -0.000248 0.178825 0.056516
v -0.018506 0.095671 0.056516
v -0.012561 0.093397 0.056516
v -0.006348 0.092013 0.056516
v -0.035252 0.109308 0.056517
v -0.026589 0.100493 0.056516
v -0.042911 0.126993 0.056516
v -0.040127 0.118096 0.056516
v -0.042874 0.143067 0.056516
v -0.04357 0.13674 0.056516
v -0.035459 0.160517 0.056516
v -0.040382 0.15187 0.056517
v -0.019036 0.174492 0.056517
v -0.029266 0.167574 0.056516
v -0.00948 0.177704 0.056516
v 0.015575 0.17587 0.056516
v 0.00948 0.177704 0.056516
v 0.031387 0.165409 0.056516
v 0.023751 0.171839 0.056517
v 0.042139 0.146753 0.056517
v 0.03719 0.158056 0.056516
v 0.042999 0.127479 0.056516
v 0.04357 0.13674 0.056516
v 0.037216 0.112435 0.056516
v 0.040127 0.118096 0.056516
v 0.024057 0.098786 0.056516
v 0.03179 0.105152 0.056517
v 0.015793 0.094424 0.056516
v -0.005549 0.091768 0.047706
v -0.001194 0.091413 0.047725
v -0.014614 0.093918 0.047714
v -0.009959 0.092547 0.047724
v -0.022325 0.097539 0.047707
v -0.018552 0.095554 0.047698
v -0.026333 0.100209 0.047725
v -0.032736 0.106132 0.047716
v -0.02977 0.10312 0.0477
v -0.035504 0.109605 0.047709
v -0.03811 0.113659 0.047725
v -0.040105 0.117669 0.047723
v -0.041616 0.121725 0.047699
v -0.042842 0.12628 0.047725
v -0.043741 0.134898 0.047712
v -0.043503 0.130736 0.0477
v -0.043509 0.139742 0.047726
v -0.042767 0.144312 0.04771
v -0.041682 0.148385 0.047706
v -0.040127 0.15258 0.047724
v -0.035688 0.160425 0.047706
v -0.037952 0.156888 0.047709
v -0.032999 0.163852 0.047708
v -0.029653 0.167316 0.047725
v -0.026173 0.170176 0.0477
v -0.022674 0.172558 0.047716
v -0.018769 0.174654 0.047709
v -0.010113 0.177696 0.047706
v -0.014309 0.176493 0.047725
v -0.005849 0.178492 0.047708
v -0.001111 0.178889 0.047735
v 0.003542 0.178727 0.047699
v 0.007597 0.178224 0.047712
v 0.012219 0.177146 0.047712
v 0.02039 0.17385 0.047716
v 0.016438 0.175682 0.047715
v 0.024342 0.1715 0.047724
v 0.028191 0.168588 0.047709
v 0.031267 0.165725 0.047706
v 0.034153 0.162468 0.047708
v 0.036962 0.158555 0.047725
v 0.042322 0.146154 0.047701
v 0.040907 0.150676 0.047729
v 0.039152 0.154618 0.0477
v 0.04324 0.141813 0.047725
v 0.043691 0.137382 0.047723
v 0.043676 0.133012 0.0477
v 0.043217 0.128337 0.047725
v 0.041017 0.119951 0.047712
v 0.042264 0.123933 0.0477
v 0.039093 0.115504 0.047725
v 0.036845 0.111601 0.0477
v 0.034417 0.108147 0.047716
v 0.031401 0.104685 0.047724
v 0.024474 0.098904 0.047706
v 0.027845 0.101419 0.047709
v 0.020757 0.096651 0.047708
v 0.016403 0.094589 0.047725
v 0.012137 0.09314 0.0477
v 0.007942 0.092119 0.047729
v 0.00324 0.091539 0.047701
v -0.011154 0.066749 0.04228
v -0.010963 0.066749 0.043524
v -0.017247 0.066749 0.040202
v -0.018437 0.066749 0.040921
v -0.022972 0.066749 0.037258
v -0.025497 0.066749 0.037033
v -0.028208 0.066749 0.033512
v -0.032842 0.066749 0.029044
v -0.022972 0.066749 -0.038024
v -0.018688 0.066749 -0.041661
v -0.017247 0.066749 -0.040967
v -0.011154 0.066749 -0.043046
v -0.00889 0.066749 -0.044706
v -0.004823 0.066749 -0.044215
v 0.00161 0.066749 -0.04445
v 0.014238 0.066749 0.041352
v 0.009158 0.066749 0.043882
v 0.00801 0.066749 0.042981
v 0.00161 0.066749 0.043685
v -0.000889 0.066749 0.044655
v -0.004823 0.066749 0.04345
v -0.044097 0.066749 -0.000383
v -0.045013 0.066749 0.000679
v -0.043627 0.066749 -0.006804
v -0.044673 0.066749 -0.005821
v -0.042227 0.066749 -0.013087
v 0.001458 0.066749 -0.045421
v 0.00801 0.066749 -0.043746
v 0.008475 0.066749 -0.044705
v 0.014238 0.066749 -0.042118
v 0.016139 0.066749 -0.042697
v 0.020163 0.066749 -0.0396
v -0.032165 0.066749 0.031327
v -0.036777 0.066749 0.023948
v -0.036601 0.066749 0.025952
v -0.039928 0.066749 0.018334
v -0.043713 0.066749 -0.011115
v -0.042096 0.066749 -0.016398
v -0.039928 0.066749 -0.0191
v -0.039875 0.066749 -0.021404
v -0.036777 0.066749 -0.024714
v -0.037107 0.06675 -0.026059
v -0.032842 0.066749 -0.02981
v -0.033833 0.066751 -0.030318
v -0.028208 0.066749 -0.034278
v -0.030091 0.066749 -0.034063
v -0.025886 0.066749 -0.03744
v -0.039785 0.06675 0.02084
v -0.041965 0.06675 0.016037
v -0.042227 0.066749 0.012321
v -0.04366 0.066749 0.010612
v -0.043627 0.066749 0.006038
v -0.04455 0.066749 0.006056
v 0.034903 0.066749 0.026568
v 0.035499 0.066749 0.027556
v 0.030607 0.066749 0.031363
v 0.027825 0.066749 0.03533
v 0.025658 0.066749 0.035481
v 0.020163 0.066749 0.038834
v 0.019035 0.066749 0.04073
v 0.025222 0.066749 -0.037993
v 0.025658 0.066749 -0.036247
v 0.030607 0.066749 -0.032129
v 0.043979 0.066749 -0.003602
v 0.045042 0.06675 -0.000087
v 0.043979 0.066749 0.002836
v 0.04466 0.066749 0.005204
v 0.043042 0.066749 0.009205
v 0.043793 0.066749 0.010066
v 0.041187 0.066749 0.01537
v 0.04221 0.066749 0.015336
v 0.038455 0.066749 0.021199
v 0.040509 0.066751 0.019418
v 0.043042 0.066749 -0.009971
v 0.044451 0.066749 -0.007394
v 0.032131 0.066749 -0.032138
v 0.034903 0.066749 -0.027334
v 0.036255 0.06675 -0.027279
v 0.038455 0.066749 -0.021965
v 0.039184 0.066749 -0.022689
v 0.041187 0.066749 -0.016136
v 0.041531 0.066749 -0.017823
v 0.043287 0.066749 -0.012746
v 0.009669 0.177941 0.055777
v 0.015709 0.176077 0.055743
v 0.021705 0.173311 0.055819
v 0.026686 0.169973 0.055766
v 0.031744 0.165475 0.055818
v 0.035756 0.160575 0.05578
v 0.039018 0.155157 0.055766
v 0.041591 0.14911 0.055782
v 0.04313 0.143183 0.055779
v 0.043871 0.136096 0.055762
v 0.043634 0.130466 0.055783
v 0.042429 0.123872 0.055817
v 0.040326 0.117867 0.055778
v 0.037396 0.112267 0.055743
v 0.033582 0.106866 0.055819
v 0.029416 0.102595 0.055766
v 0.024051 0.098419 0.055818
v 0.018513 0.095369 0.05578
v 0.012592 0.093154 0.055744
v 0.006184 0.091715 0.055782
v 0.000069 0.091276 0.055778
v -0.006351 0.091778 0.055755
v -0.012597 0.093117 0.055782
v -0.018802 0.095476 0.055817
v -0.024317 0.098629 0.055779
v -0.029291 0.102528 0.055743
v -0.033915 0.107266 0.055819
v -0.037342 0.112113 0.055766
v -0.040319 0.117937 0.055759
v -0.042446 0.124023 0.055784
v -0.043655 0.130507 0.055817
v -0.04383 0.136914 0.05576
v -0.043154 0.143048 0.055778
v -0.041473 0.149554 0.055818
v -0.039082 0.155086 0.055766
v -0.035593 0.160849 0.055817
v -0.031496 0.165692 0.055779
v -0.026759 0.169875 0.055743
v -0.021252 0.173567 0.055819
v -0.015718 0.176099 0.055759
v -0.009329 0.178048 0.055818
v -0.00323 0.178912 0.055787
v 0.00337 0.178898 0.055782
v 0.037917 0.080864 0.024018
v 0.034921 0.078332 0.02821
v 0.030197 0.07987 0.033226
v 0.025207 0.079087 0.037164
v 0.020873 0.078991 0.039761
v 0.015115 0.080168 0.042269
v 0.009151 0.082347 0.043811
v 0.004729 0.088721 0.044361
v -0.000197 0.088758 0.044646
v -0.004997 0.089227 0.044371
v -0.008923 0.079792 0.043867
v -0.013343 0.079566 0.042798
v -0.017667 0.079336 0.041289
v -0.023128 0.079044 0.038485
v -0.027664 0.080005 0.035343
v -0.031227 0.079196 0.032232
v -0.034659 0.079238 0.028552
v -0.038097 0.08242 0.023736
v -0.029975 0.079134 -0.034175
v -0.025716 0.079974 -0.037551
v -0.021182 0.079779 -0.040337
v -0.016481 0.080112 -0.042489
v -0.011401 0.080931 -0.044079
v -0.006208 0.083468 -0.045021
v -0.000659 0.088555 -0.04539
v 0.003722 0.088883 -0.045258
v 0.00858 0.081196 -0.044674
v 0.013762 0.079962 -0.043434
v 0.018604 0.079658 -0.041607
v 0.023176 0.079658 -0.03921
v 0.027446 0.07941 -0.036274
v 0.031848 0.079168 -0.03242
v -0.028236 0.0967 0.034418
v -0.044777 0.128651 0.008532
v -0.044864 0.131331 0.013488
v -0.044989 0.13425 0.006074
v -0.04278 0.119844 0.017215
v -0.040717 0.115964 0.024481
v -0.042546 0.120477 0.021488
v -0.002584 0.089972 0.045307
v -0.001953 0.090149 0.046076
v -0.006889 0.090638 0.045539
v 0.023283 0.096631 0.039965
v 0.018483 0.094113 0.042249
v 0.020895 0.094808 0.040275
v 0.0448 0.123455 0.004025
v 0.044989 0.12795 -0.000413
v 0.044037 0.116412 0.008756
v 0.042719 0.112686 0.013575
v 0.04083 0.108766 0.018292
v 0.038849 0.105999 0.022104
v 0.032072 0.098381 0.030889
v 0.035001 0.101882 0.027669
v -0.010013 0.089475 0.043443
v -0.031199 0.099166 0.031836
v -0.038054 0.104736 0.02339
v -0.03525 0.102248 0.027333
v -0.040689 0.108513 0.018609
v -0.04268 0.113471 0.013738
v -0.044029 0.117212 0.008817
v -0.044801 0.12094 0.003771
v -0.04499 0.127126 -0.000431
v -0 0.089766 0.045191
v -0.006318 0.090288 0.044934
v -0.010744 0.091436 0.044745
v -0.002493 0.089055 0.044619
v -0.011642 0.090316 0.043125
v -0.007507 0.089652 0.044055
v -0.019801 0.092026 0.03987
v -0.015773 0.091253 0.041708
v -0.020829 0.093767 0.039576
v -0.018335 0.093304 0.04116
v -0.014988 0.092283 0.042677
v -0.011316 0.091175 0.043806
v -0.023112 0.096011 0.039167
v -0.023249 0.096585 0.039961
v -0.027899 0.098684 0.035541
v -0.028527 0.100274 0.036766
v -0.032143 0.102455 0.03211
v -0.018702 0.09419 0.042054
v -0.025267 0.096434 0.037126
v -0.024788 0.09473 0.036997
v -0.013941 0.092356 0.043933
v -0.035118 0.104693 0.028351
v -0.03538 0.107261 0.030806
v -0.033082 0.104589 0.033251
v -0.038222 0.108144 0.023804
v -0.032956 0.100856 0.03012
v -0.04403 0.12375 0.01255
v -0.044028 0.125782 0.017431
v -0.038403 0.111605 0.027362
v -0.040761 0.113586 0.02027
v -0.044942 0.13189 -0.000401
v 0.044944 0.132603 0.000391
v 0.044851 0.131301 0.012719
v 0.04403 0.122407 0.011177
v 0.044191 0.126577 0.016814
v 0.042799 0.121268 0.0209
v 0.042689 0.117932 0.015742
v 0.040756 0.116012 0.024382
v 0.040845 0.113538 0.019864
v 0.038069 0.111131 0.028192
v 0.038413 0.109407 0.024106
v 0.034772 0.106565 0.031805
v 0.035707 0.106158 0.028143
v 0.03616 0.104028 0.026314
v 0.016283 0.092834 0.042381
v 0.013711 0.092265 0.043952
v 0.012552 0.090884 0.042966
v 0.012537 0.091706 0.043706
v 0.008835 0.090439 0.044192
v 0.009951 0.091227 0.04481
v 0.031679 0.102435 0.033134
v 0.0321 0.101128 0.031315
v 0.028368 0.099533 0.035706
v 0.03019 0.101755 0.03572
v 0.0259 0.098307 0.038328
v 0.025268 0.096923 0.037469
v 0.020817 0.093548 0.039527
v 0.025261 0.09573 0.036816
v 0.028402 0.098089 0.034576
v 0.01986 0.091998 0.039834
v 0.024238 0.093691 0.037324
v 0.029227 0.097715 0.033644
v 0.006131 0.090314 0.045028
v 0.006009 0.090548 0.045757
v 0.016138 0.091917 0.041733
v 0.00888 0.089659 0.043783
v 0.01094 0.089326 0.043235
v 0.01485 0.090361 0.041998
v 0.00367 0.089187 0.044576
v 0.002458 0.090206 0.045943
v 0.002549 0.089796 0.045121
v -0.044804 0.12352 -0.004789
v -0.044045 0.116528 -0.009508
v -0.040795 0.108857 -0.019159
v -0.042718 0.112803 -0.014369
v -0.03879 0.105974 -0.02298
v -0.036054 0.103486 -0.027109
v -0.032928 0.10057 -0.030845
v -0.014522 0.090243 -0.042885
v 0.010011 0.089664 -0.044222
v 0.013731 0.090708 -0.043219
v 0.032656 0.100268 -0.031122
v 0.035877 0.102665 -0.027312
v 0.038303 0.105162 -0.023741
v 0.04072 0.108596 -0.019315
v 0.04269 0.113494 -0.014475
v 0.044015 0.119057 -0.009822
v 0.044799 0.123181 -0.004789
v 0.04278 0.119844 -0.01798
v 0.041192 0.11699 -0.024527
v 0.043017 0.121924 -0.021349
v -0.044782 0.130563 -0.014169
v -0.044996 0.134535 -0.010362
v -0.016139 0.091855 -0.04248
v -0.011471 0.0904 -0.043975
v -0.007623 0.089674 -0.044804
v -0.004161 0.089069 -0.045246
v -0.010117 0.089393 -0.044184
v -0.020779 0.093701 -0.040356
v -0.01851 0.093776 -0.042297
v -0.021979 0.095243 -0.040329
v -0.025898 0.098305 -0.039093
v -0.023252 0.096615 -0.040754
v -0.025267 0.096922 -0.038236
v -0.025261 0.095729 -0.037582
v -0.029227 0.097715 -0.03441
v -0.028402 0.098089 -0.035342
v -0.024332 0.093766 -0.038025
v -0.019755 0.09199 -0.040664
v -0.029357 0.101026 -0.036947
v -0.028369 0.099533 -0.036472
v -0.032095 0.102506 -0.033022
v -0.032913 0.104421 -0.034215
v -0.035642 0.106238 -0.029171
v -0.035289 0.107215 -0.03201
v -0.038413 0.109407 -0.024872
v -0.038087 0.111168 -0.028959
v -0.040845 0.113538 -0.02063
v -0.04096 0.116437 -0.02478
v -0.042689 0.117931 -0.016507
v -0.042946 0.121725 -0.021336
v -0.04403 0.122407 -0.011942
v -0.044032 0.125835 -0.018046
v 0.044004 0.125801 -0.017939
v 0.038345 0.111539 -0.028255
v 0.040761 0.113585 -0.021036
v 0.035117 0.104692 -0.029116
v 0.038222 0.108144 -0.02457
v 0.044797 0.130844 -0.013817
v 0.044992 0.134642 -0.006646
v 0.035342 0.107204 -0.031589
v 0.032143 0.102455 -0.032875
v 0.033144 0.104666 -0.03398
v 0.026873 0.09906 -0.03868
v 0.02941 0.10106 -0.036893
v 0.028007 0.099106 -0.036673
v 0.023096 0.096507 -0.040833
v 0.023112 0.096012 -0.039932
v 0.019545 0.094611 -0.04253
v 0.029364 0.09851 -0.034414
v 0.025265 0.096432 -0.037892
v 0.018482 0.09369 -0.042189
v 0.015982 0.093055 -0.043962
v 0.011574 0.091654 -0.045359
v 0.013724 0.091971 -0.044002
v 0.020828 0.093767 -0.040342
v 0.024799 0.094724 -0.037753
v 0.028236 0.0967 -0.035184
v 0.006304 0.090169 -0.045532
v 0.008499 0.090946 -0.046073
v 0.004747 0.090388 -0.046631
v 0.002514 0.089935 -0.046005
v -0.001034 0.090139 -0.046865
v 0.016163 0.091769 -0.042444
v 0.01011 0.090714 -0.044656
v -0 0.089593 -0.045781
v -0.003817 0.089985 -0.045943
v -0.004764 0.090407 -0.046574
v -0.008836 0.090733 -0.045296
v -0.00846 0.090918 -0.046065
v -0.014849 0.092625 -0.044416
v 0.019745 0.09195 -0.040656
v -0.013778 0.091885 -0.04388
v -0.019461 0.094569 -0.042562
v -0.002549 0.089449 -0.045579
v 0.006347 0.089415 -0.045035
v 0.043177 0.147826 0.055916
v 0.040933 0.153841 0.055916
v 0.037856 0.159476 0.055916
v 0.034008 0.164616 0.055916
v 0.029468 0.169156 0.055916
v 0.024328 0.173004 0.055916
v 0.018693 0.176081 0.055916
v 0.012678 0.178324 0.055916
v 0.003346 0.180082 0.055916
v -0.006404 0.179689 0.055916
v -0.012678 0.178324 0.055916
v -0.018694 0.176081 0.055916
v -0.024329 0.173004 0.055916
v -0.029468 0.169156 0.055916
v -0.034008 0.164616 0.055916
v -0.037856 0.159476 0.055916
v -0.040933 0.153841 0.055916
v -0.043177 0.147826 0.055916
v -0.044541 0.141552 0.055916
v -0.044999 0.135148 0.055916
v -0.044541 0.128744 0.055916
v -0.043177 0.12247 0.055916
v -0.040933 0.116454 0.055916
v -0.037856 0.110819 0.055916
v -0.034008 0.105679 0.055916
v -0.029468 0.101139 0.055916
v -0.024329 0.097292 0.055916
v -0.018693 0.094215 0.055916
v -0.012678 0.091971 0.055916
v -0.006404 0.090606 0.055916
v -0 0.090148 0.055916
v 0.006404 0.090606 0.055916
v 0.012678 0.091971 0.055916
v 0.018693 0.094215 0.055916
v 0.024328 0.097292 0.055916
v 0.029468 0.10114 0.055916
v 0.034008 0.105679 0.055916
v 0.037856 0.110819 0.055916
v 0.040933 0.116454 0.055916
v 0.043177 0.12247 0.055916
v 0.044541 0.128744 0.055916
v 0.044999 0.135148 0.055916
v 0.044541 0.141552 0.055916
v -0.044533 0.128477 -0.032671
v -0.045065 0.137196 -0.029162
v -0.041289 0.117223 -0.037195
v -0.042861 0.121458 -0.035494
v -0.039683 0.113948 -0.038518
v -0.036757 0.109189 -0.040437
v -0.033003 0.104542 -0.042302
v -0.029226 0.100928 -0.043751
v -0.025309 0.097928 -0.044962
v -0.016427 0.09326 -0.046838
v -0.013603 0.092257 -0.04724
v -0.020084 0.094858 -0.046193
v -0.009384 0.09112 -0.047693
v -0.004987 0.090431 -0.047976
v -0.000973 0.090145 -0.04809
v 0.007517 0.090767 -0.047833
v 0.00302 0.090245 -0.048046
v 0.01344 0.092194 -0.047262
v 0.017753 0.093804 -0.046619
v 0.021845 0.095808 -0.045814
v 0.029271 0.100975 -0.043733
v 0.025733 0.098225 -0.044836
v 0.033678 0.105265 -0.04201
v 0.037315 0.109996 -0.040104
v 0.041391 0.117458 -0.037103
v 0.039765 0.114083 -0.03846
v 0.043587 0.123738 -0.034575
v 0.044575 0.12891 -0.032496
v 0.04499 0.134621 -0.030199
v 0.012184 0.178471 -0.012563
v 0.007843 0.179458 -0.012164
v 0.004996 0.179869 -0.011999
v 0.017828 0.176476 -0.013368
v 0.021836 0.174494 -0.014161
v 0.028421 0.17006 -0.015944
v 0.024465 0.172916 -0.014796
v 0.032889 0.165892 -0.017621
v 0.036534 0.161492 -0.019388
v 0.039547 0.156629 -0.021346
v 0.041899 0.1516 -0.023369
v 0.043707 0.145962 -0.025637
v 0.044723 0.140241 -0.027939
v -0.043562 0.146584 -0.025387
v -0.041482 0.152604 -0.022964
v -0.039765 0.156212 -0.021515
v -0.033702 0.165017 -0.017972
v -0.037396 0.160187 -0.019917
v -0.025703 0.172072 -0.015133
v -0.029284 0.169312 -0.016245
v -0.017816 0.176479 -0.013366
v -0.021832 0.174504 -0.014156
v -0.013415 0.178095 -0.01271
v -0.007507 0.17952 -0.012141
v -0.003001 0.180047 -0.011927
v 0.000964 0.180167 -0.011885
vn -0 0 0.001
vn 0 0 0.001
vn -0 0 0.001
vn -0 0 0.001
vn 0 -0 0.001
vn -0 0 0.001
vn -0 0 0.001
vn -0 0 0.001
vn 0 0 0.001
vn 0 -0 0.001
vn -0 0 0.001
vn 0 -0 0.001
vn 0 -0 0.001
vn -0 0 0.001
vn -0 0 0.001
vn -0 -0 0.001
vn -0 -0 0.001
vn 0 0 0.001
vn 0 0 0.001
vn -0 -0 0.001
vn -0 -0 0.001
vn -0 -0 0.001
vn -0 0 0.001
vn 0 0 0.001
vn -0 -0 0.001
vn 0 0 0.001
vn 0 0 0.001
vn -0 -0 0.001
vn -0.000081 -0.000996 0.00002
vn -0.000073 -0.000997 0.000025
vn -0.000283 -0.000959 0.000009
vn -0.000217 -0.000976 0.00003
vn -0.000174 -0.000985 0.000012
vn -0.000512 -0.000858 0.00004
vn -0.000466 -0.000885 0.000014
vn -0.000357 -0.000934 0.000014
vn -0.000384 -0.000923 0.000035
vn -0.000554 -0.000832 0.000011
vn -0.000711 -0.000701 0.00005
vn -0.000712 -0.0007 0.000048
vn -0.000646 -0.000763 0.000006
vn -0.000782 -0.000623 0.000001
vn -0.000841 -0.000541 0.000006
vn -0.000874 -0.000485 0.000044
vn -0.000895 -0.000445 0.000019
vn -0.000954 -0.000298 0.000038
vn -0.000937 -0.000349 0.000015
vn -0.000965 -0.00026 0.000014
vn -0.000998 -0.000057 0.000031
vn -0.000997 -0.000067 0.000038
vn -0.000989 -0.000147 0.000004
vn -0.000999 0.000048 0.000009
vn -0.000994 0.000109 0.00003
vn -0.000987 0.00016 0.000011
vn -0.000962 0.000272 0.000027
vn -0.000965 0.000257 0.000041
vn -0.000938 0.000348 0.000001
vn -0.000842 0.000539 0.000016
vn -0.000868 0.000494 0.000042
vn -0.000893 0.000451 0.000011
vn -0.000787 0.000617 0.000014
vn -0.000751 0.000659 0.00004
vn -0.000719 0.000695 0.000011
vn -0.000635 0.000773 0.000005
vn -0.00056 0.000827 0.000048
vn -0.000562 0.000825 0.000051
vn -0.000473 0.000881 0.000002
vn -0.000275 0.000961 0.000019
vn -0.000318 0.000947 0.000044
vn -0.000381 0.000924 0.000005
vn -0.000184 0.000983 0.000012
vn -0.00012 0.000992 0.000039
vn -0.000084 0.000996 0.000015
vn 0.000035 0.000999 0.000004
vn 0.000114 0.000993 0.000038
vn 0.000123 0.000992 0.000032
vn 0.000288 0.000957 0.000029
vn 0.000227 0.000974 0.000009
vn 0.00042 0.000906 0.000047
vn 0.000442 0.000897 0.000024
vn 0.000328 0.000945 0.000012
vn 0.000511 0.00086 0.000001
vn 0.000603 0.000797 0.00001
vn 0.000643 0.000764 0.000042
vn 0.000681 0.000732 0.000017
vn 0.000784 0.000619 0.00004
vn 0.000748 0.000663 0.000014
vn 0.000812 0.000583 0.000012
vn 0.000954 0.000299 -0
vn 0.000912 0.000406 0.000054
vn 0.000915 0.000401 0.000047
vn 0.000874 0.000486 0.000005
vn 0.000978 0.000207 0.000006
vn 0.000989 0.000141 0.000044
vn 0.000995 0.000101 0.000021
vn 0.000997 -0.000061 0.000038
vn 0.001 -0.000003 0.000013
vn 0.000995 -0.000098 0.000015
vn 0.000954 -0.000299 0.000034
vn 0.000955 -0.000293 0.000038
vn 0.000977 -0.000212 0.000004
vn 0.000918 -0.000397 0.000009
vn 0.000889 -0.000457 0.00003
vn 0.000866 -0.000499 0.000011
vn 0.000802 -0.000597 0.000023
vn 0.000817 -0.000574 0.000049
vn 0.000754 -0.000657 0.000002
vn 0.000598 -0.000801 0.000018
vn 0.000635 -0.000771 0.000043
vn 0.000676 -0.000737 0.000009
vn 0.000518 -0.000855 0.000013
vn 0.000466 -0.000884 0.000039
vn 0.000428 -0.000904 0.000013
vn 0.000322 -0.000947 0.000005
vn 0.000247 -0.000968 0.000039
vn 0.000236 -0.000971 0.000031
vn 0.000028 -0.001 0.000012
vn 0.000073 -0.000997 0.000028
vn 0.000123 -0.000992 0.00001
vn -0 -0.001 0
vn 0 -0.001 0
vn 0 -0.001 0
vn -0 -0.001 0
vn -0 -0.001 0
vn -0 -0.001 0
vn 0 -0.001 0
vn 0 -0.001 0
vn -0 -0.001 0
vn 0 -0.001 0
vn 0 -0.001 0
vn 0 -0.001 -0
vn 0 -0.001 -0
vn 0 -0.001 -0
vn -0 -0.001 0
vn 0 -0.001 0
vn -0 -0.001 -0
vn -0 -0.001 -0
vn 0 -0.001 0
vn 0 -0.001 -0
vn 0 -0.001 -0
vn -0 -0.001 0
vn -0 -0.001 -0
vn -0 -0.001 -0
vn -0 -0.001 -0
vn -0 -0.001 -0
vn -0 -0.001 -0
vn -0.000001 -0.001 -0.000001
vn -0.000001 -0.001 -0.000001
vn -0.000002 -0.001 -0.000002
vn -0.000002 -0.001 -0.000002
vn 0 -0.001 0.000001
vn -0 -0.001 0
vn 0 -0.001 0
vn -0.000001 -0.001 0.000001
vn -0.000002 -0.001 0.000001
vn -0.000001 -0.001 0.000001
vn -0.000001 -0.001 0
vn -0 -0.001 0
vn -0 -0.001 0
vn -0 -0.001 0
vn 0 -0.001 0
vn 0 -0.001 0
vn 0 -0.001 0
vn 0 -0.001 0
vn 0 -0.001 0
vn 0 -0.001 0
vn 0 -0.001 0
vn 0 -0.001 0
vn 0.000001 -0.001 0
vn 0.000001 -0.001 -0
vn 0 -0.001 0
vn 0 -0.001 0
vn 0 -0.001 0
vn 0 -0.001 0
vn 0 -0.001 0
vn 0.000002 -0.001 0.000001
vn 0.000003 -0.001 0.000002
vn 0.000001 -0.001 0
vn 0 -0.001 -0
vn 0.000001 -0.001 0
vn 0 -0.001 0
vn 0.000001 -0.001 -0.000001
vn 0.000001 -0.001 -0.000001
vn 0 -0.001 -0.000001
vn 0.000001 -0.001 -0
vn 0 -0.001 -0
vn 0 -0.001 -0
vn 0 -0.001 -0
vn 0 -0.001 -0
vn -0.000295 -0.000956 0.000001
vn -0.000328 -0.000945 0.000017
vn -0.00042 -0.000907 0.000006
vn -0.000419 -0.000908 0.000008
vn -0.000556 -0.00083 0.000035
vn -0.000511 -0.000859 -0.000014
vn -0.000603 -0.000797 0.000024
vn -0.000665 -0.000747 0.000004
vn -0.000681 -0.000732 0.000017
vn -0.000773 -0.000633 0.000026
vn -0.000748 -0.000663 -0.000007
vn -0.000812 -0.000583 0.000025
vn -0.000857 -0.000516 0.000001
vn -0.000874 -0.000486 0.000018
vn -0.000914 -0.000407 0.000012
vn -0.00092 -0.000391 0.000002
vn -0.000954 -0.000299 0.000023
vn -0.000968 -0.000251 0.000004
vn -0.000978 -0.000207 0.000022
vn -0.000995 -0.000104 0.000004
vn -0.000995 -0.000101 0.000006
vn -0.001 0.000003 0.000023
vn -0.000999 0.000042 0.000008
vn -0.000995 0.000098 0.000026
vn -0.000984 0.00018 0.000003
vn -0.000977 0.000211 0.000021
vn -0.000944 0.00033 0.000022
vn -0.000954 0.000299 -0.000004
vn -0.000918 0.000397 0.000024
vn -0.000886 0.000464 -0
vn -0.000866 0.000499 0.000018
vn -0.000818 0.000575 0.000008
vn -0.000817 0.000577 0.000007
vn -0.000716 0.000698 0.000036
vn -0.000754 0.000657 -0.000015
vn -0.000676 0.000736 0.000024
vn -0.000614 0.000789 0.000005
vn -0.000598 0.000801 0.000017
vn -0.000482 0.000875 0.000027
vn -0.000518 0.000855 -0.000008
vn -0.000428 0.000903 0.000025
vn -0.00035 0.000937 0.000001
vn -0.000322 0.000947 0.000016
vn -0.000236 0.000972 0.000012
vn -0.000219 0.000976 0.000001
vn -0.000123 0.000992 0.000023
vn -0.000071 0.000997 0.000004
vn -0.000028 0.000999 0.000021
vn 0.000078 0.000997 0.000005
vn 0.000081 0.000997 0.000007
vn 0.000174 0.000985 0.000016
vn 0.00021 0.000978 -0.000001
vn 0.000282 0.000959 0.000025
vn 0.000355 0.000935 0.000004
vn 0.000383 0.000923 0.000021
vn 0.000496 0.000868 0.000024
vn 0.000466 0.000885 -0.000005
vn 0.000554 0.000832 0.000024
vn 0.000617 0.000787 -0
vn 0.000646 0.000763 0.000018
vn 0.000712 0.000702 0.000009
vn 0.000716 0.000698 0.000006
vn 0.000816 0.000577 0.000038
vn 0.000782 0.000623 -0.000016
vn 0.000841 0.00054 0.000024
vn 0.00089 0.000455 0.000002
vn 0.000895 0.000445 0.000009
vn 0.000937 0.000349 0.000013
vn 0.000944 0.00033 0.000003
vn 0.000965 0.00026 0.000025
vn 0.000983 0.000183 0.000003
vn 0.000989 0.000147 0.000023
vn 0.000999 0.000027 0.000019
vn 0.000998 0.000057 -0.000003
vn 0.000999 -0.000048 0.000023
vn 0.000994 -0.00011 0.000001
vn 0.000987 -0.00016 0.000022
vn 0.000968 -0.00025 0.000007
vn 0.000966 -0.000258 0.000012
vn 0.000918 -0.000396 0.000034
vn 0.000938 -0.000347 -0.000014
vn 0.000892 -0.00045 0.000024
vn 0.000855 -0.000518 0.000004
vn 0.000842 -0.000539 0.000018
vn 0.000763 -0.000645 0.000025
vn 0.000787 -0.000617 -0.000006
vn 0.000719 -0.000694 0.000025
vn 0.000662 -0.00075 0
vn 0.000635 -0.000772 0.000017
vn 0.000563 -0.000827 0.00001
vn 0.000557 -0.000831 0.000006
vn 0.000416 -0.000908 0.00004
vn 0.000473 -0.000881 -0.000021
vn 0.000381 -0.000924 0.000021
vn 0.000292 -0.000956 0.000004
vn 0.000276 -0.000961 0.000015
vn 0.00014 -0.00099 0.000029
vn 0.000184 -0.000983 -0.000008
vn 0.000083 -0.000996 0.000025
vn -0.000002 -0.001 0.000002
vn -0.000035 -0.000999 0.00002
vn -0.00015 -0.000988 0.000018
vn -0.000123 -0.000992 -0.000003
vn -0.000227 -0.000974 0.000024
vn 0.000851 -0.000014 0.000524
vn 0.000811 0.000007 0.000585
vn 0.000728 -0.000002 0.000686
vn 0.000712 -0.000016 0.000702
vn 0.000618 0.000014 0.000786
vn 0.000523 -0.000016 0.000852
vn 0.000514 -0.000009 0.000858
vn 0.000401 0.000012 0.000916
vn 0.000304 -0.00002 0.000952
vn 0.000252 0.000004 0.000968
vn 0.00013 0.000005 0.000992
vn 0.000077 -0.000006 0.000997
vn 0.000058 -0.000001 0.000998
vn -0.000057 0.000002 0.000998
vn -0.000112 -0.000008 0.000994
vn -0.000104 -0.00001 0.000995
vn -0.000236 0.000011 0.000972
vn -0.000329 -0.000007 0.000944
vn -0.000329 -0.000008 0.000944
vn -0.000457 0.000002 0.00089
vn -0.000482 -0.00001 0.000876
vn -0.000568 0.000012 0.000823
vn -0.00065 -0.000009 0.00076
vn -0.000657 -0.000005 0.000754
vn -0.000731 0.000006 0.000682
vn -0.000771 -0.000013 0.000636
vn -0.000812 0.000005 0.000583
vn -0.000849 -0.000006 0.000529
vn -0.000707 0 -0.000707
vn -0.000626 0.000002 -0.00078
vn -0.000621 -0.000001 -0.000784
vn -0.000506 -0.000009 -0.000863
vn -0.000524 -0 -0.000852
vn -0.000417 0.000013 -0.000909
vn -0.000297 -0.00001 -0.000955
vn -0.000297 -0.00001 -0.000955
vn -0.000183 0.000011 -0.000983
vn -0.000069 -0.000005 -0.000998
vn -0.000058 -0.00001 -0.000998
vn 0.00003 0.000004 -0.001
vn 0.000101 0.000001 -0.000995
vn 0.000113 -0.000004 -0.000994
vn 0.000253 -0.000008 -0.000967
vn 0.000233 0 -0.000973
vn 0.000354 0.000011 -0.000935
vn 0.00046 -0.000013 -0.000888
vn 0.000464 -0.00001 -0.000886
vn 0.000567 0.000012 -0.000824
vn 0.000646 -0.00001 -0.000763
vn 0.000659 -0.000002 -0.000752
vn 0.000762 0.000003 -0.000647
vn -0.00066 0.000019 0.000751
vn -0.000999 -0.000037 0.000002
vn -0.000943 -0.000317 0.000099
vn -0.000128 -0.000939 0.000321
vn 0.000574 -0.000674 0.000465
vn 0.000999 0.000001 0.000044
vn 0.000984 -0 0.000176
vn 0.000987 0.000001 0.000161
vn 0.000997 -0.000001 0.000072
vn 0.000958 0 0.000288
vn 0.000964 0.000002 0.000265
vn 0.000928 0.000003 0.000374
vn 0.000923 0.000005 0.000385
vn 0.000887 0.000002 0.000463
vn 0.000879 0.000006 0.000477
vn 0.000733 0.000013 0.00068
vn 0.000819 0.00001 0.000574
vn 0.000809 0.000015 0.000587
vn 0.00073 0.000012 0.000683
vn -0.000236 0.000016 0.000972
vn -0.000731 0.000015 0.000682
vn -0.000812 0.000011 0.000584
vn -0.000811 0.00001 0.000585
vn -0.000884 0.000009 0.000467
vn -0.000873 0.000007 0.000487
vn -0.000924 0.000005 0.000382
vn -0.000911 0.000002 0.000413
vn -0.000964 0.000002 0.000266
vn -0.000954 0 0.000298
vn -0.000996 -0.000001 0.000086
vn -0.000988 0.000002 0.000152
vn -0.000981 -0 0.000192
vn -0.000999 0.000001 0.000047
vn -0.000064 -0.00096 0.000273
vn -0.000118 -0.000904 0.000412
vn -0.000252 -0.000922 0.000295
vn -0.00007 -0.000464 0.000883
vn -0.000231 -0.000081 0.000969
vn -0.000429 -0.000102 0.000898
vn -0.000532 -0.000478 0.000698
vn -0.000476 -0.000383 0.000792
vn -0.00038 -0.000464 0.0008
vn -0.000387 -0.000478 0.000789
vn -0.000266 -0.000535 0.000802
vn -0.000119 -0.000604 0.000788
vn -0.000012 -0.000601 0.000799
vn -0.000378 -0.000421 0.000824
vn -0.00065 -0.000665 0.000368
vn -0.000677 -0.000598 0.000428
vn -0.000762 -0.000557 0.000331
vn -0.000129 -0.000586 0.0008
vn -0.000202 -0.000644 0.000738
vn -0.000276 -0.000562 0.00078
vn -0.000457 -0.000719 0.000524
vn -0.000569 -0.00022 0.000792
vn -0.000246 -0.000884 0.000397
vn -0.00035 -0.000825 0.000443
vn -0.000369 -0.000858 0.000358
vn -0.000468 -0.000769 0.000435
vn -0.000541 -0.000417 0.00073
vn -0.000632 -0.000541 0.000555
vn -0.000666 -0.000241 0.000706
vn -0.000649 0.000016 0.00076
vn -0.000575 -0.000687 0.000445
vn -0.00066 -0.000282 0.000696
vn -0.000741 -0.000231 0.00063
vn -0.000812 -0.000444 0.000378
vn -0.000834 -0.000496 0.000242
vn -0.000773 -0.000528 0.000352
vn -0.000112 -0.000816 0.000568
vn -0.000279 0.000031 0.00096
vn -0.00033 0.000019 0.000944
vn -0.000184 -0.000436 0.000881
vn -0.000181 0.000023 0.000983
vn -0.00059 0.000025 0.000807
vn -0.000568 -0.000201 0.000798
vn -0.000567 0.000018 0.000824
vn -0.000486 0.000031 0.000873
vn -0.000458 0.000022 0.000889
vn -0.00041 0.000033 0.000912
vn -0.000566 -0.000711 0.000416
vn -0.000681 -0.000339 0.000649
vn -0.000738 0.000017 0.000675
vn -0.00085 -0.000163 0.000502
vn -0.000902 -0.000096 0.000421
vn -0.000803 -0.000192 0.000565
vn -0.000825 -0.000226 0.000518
vn -0.000992 -0.000115 0.000045
vn -0.000992 -0.000115 0.000048
vn -0.000974 -0.000208 0.000087
vn -0.000975 -0.000208 0.000084
vn -0.000914 -0.000349 0.000207
vn -0.00096 -0.000239 0.000145
vn -0.000999 -0.000035 0.000006
vn -0.000931 -0.000285 0.00023
vn -0.000897 -0.000149 0.000416
vn -0.000954 -0.000106 0.000282
vn -0.000998 0.00001 0.000059
vn -0.001 -0.000007 0.000016
vn -0.000992 -0.000062 0.000106
vn -0.000992 -0.000062 0.000109
vn -0.000977 -0.000107 0.000187
vn -0.000979 -0.000109 0.000171
vn -0.000945 -0.000168 0.000281
vn -0.000878 -0.000375 0.000298
vn -0.000874 -0.00037 0.000316
vn -0.000856 -0.000104 0.000506
vn -0.000803 -0.000333 0.000494
vn -0.000794 -0.000273 0.000544
vn -0.000737 -0.000264 0.000622
vn 0.001 0.000008 0.000008
vn 0.001 -0.000025 0.000017
vn 0.00099 -0.000107 0.000091
vn 0.000994 -0.0001 0.000045
vn 0.000979 -0.000177 0.000103
vn 0.000977 -0.000189 0.000102
vn 0.000951 -0.000268 0.000153
vn 0.000955 -0.000253 0.000157
vn 0.000916 -0.000343 0.000206
vn 0.000922 -0.000323 0.000214
vn 0.000868 -0.000427 0.000253
vn 0.000878 -0.000397 0.000268
vn 0.000947 -0.000118 0.000298
vn 0.000975 -0.000079 0.000206
vn 0.000975 -0.000082 0.000206
vn 0.000994 -0.00004 0.000101
vn 0.000865 -0.000168 0.000474
vn 0.000491 -0.000812 0.000314
vn 0.000461 -0.000743 0.000486
vn 0.000421 -0.000603 0.000677
vn 0.000365 -0.000889 0.000276
vn 0.00031 -0.000633 0.000709
vn 0.000342 -0.00083 0.000441
vn 0.000327 -0.000859 0.000393
vn 0.000865 -0.000168 0.000474
vn 0.000907 -0.00012 0.000403
vn 0.000915 -0.000129 0.000382
vn 0.00095 -0.000101 0.000297
vn 0.000811 -0.000522 0.000265
vn 0.00084 -0.00033 0.000432
vn 0.000709 -0.000584 0.000395
vn 0.000713 -0.000575 0.000402
vn 0.000625 -0.000426 0.000653
vn 0.000703 -0.000345 0.000622
vn 0.000693 -0.000434 0.000575
vn 0.000539 -0.000169 0.000825
vn 0.000542 -0.000063 0.000838
vn 0.000715 -0.000133 0.000686
vn 0.000768 -0.000384 0.000513
vn 0.000758 -0.000433 0.000487
vn 0.000803 -0.000494 0.000333
vn 0.000744 -0.000612 0.000268
vn 0.000611 -0.000383 0.000693
vn 0.000219 -0.000775 0.000593
vn 0.000237 -0.000913 0.000333
vn 0.000409 -0.000569 0.000713
vn 0.000329 -0.000424 0.000844
vn 0.000611 -0.000769 0.000189
vn 0.000376 -0.000234 0.000897
vn 0.000243 -0.000085 0.000966
vn 0.000447 -0.000222 0.000866
vn 0.000454 -0.000105 0.000885
vn 0.00053 -0.000544 0.00065
vn 0.000617 -0.000599 0.000511
vn 0.000505 -0.000463 0.000728
vn 0.000326 -0.00011 0.000939
vn 0.000227 -0.000747 0.000624
vn 0.000174 -0.00045 0.000876
vn 0.000158 -0.000095 0.000983
vn 0.000199 -0.000305 0.000931
vn 0.000578 0.000029 0.000816
vn 0.000693 0.000021 0.000721
vn 0.000618 0.000015 0.000786
vn 0.000387 0.000034 0.000921
vn 0.000175 0.000036 0.000984
vn 0.000301 0.000002 0.000954
vn 0.000261 0.000032 0.000965
vn 0.000404 0.000026 0.000915
vn 0.000487 0.000033 0.000872
vn 0.000513 0.000025 0.000858
vn 0.000107 -0.000941 0.000321
vn 0.000139 -0.00088 0.000455
vn 0.000101 -0.000553 0.000827
vn 0.000662 -0.000149 0.000734
vn 0.000677 -0.000241 0.000696
vn 0.000705 -0.000116 0.0007
vn 0.000789 -0.000102 0.000606
vn 0.000787 -0.000195 0.000586
vn 0.000876 -0.000194 0.000442
vn 0.000879 -0.000189 0.000437
vn 0.000052 -0.000318 0.000947
vn 0.000069 -0.000485 0.000872
vn 0.000028 -0.000637 0.00077
vn 0.000023 -0.000893 0.000449
vn 0.000025 -0.000897 0.000442
vn -0.000999 -0.000002 -0.000041
vn -0.000999 -0.000001 -0.000052
vn -0.000984 -0.000001 -0.000178
vn -0.000927 0.000004 -0.000375
vn -0.000956 -0 -0.000293
vn -0.000884 0.000006 -0.000468
vn -0.000914 0.000002 -0.000406
vn -0.000793 0.000005 -0.000609
vn -0.000831 0.000008 -0.000556
vn -0.00086 0.000003 -0.000511
vn -0.00072 0.000008 -0.000693
vn -0.000302 0.000021 -0.000953
vn 0.000235 0.000012 -0.000972
vn 0.000354 0.00002 -0.000935
vn 0.00076 0.000011 -0.00065
vn 0.000768 0.000007 -0.00064
vn 0.000824 0.000008 -0.000566
vn 0.000843 0.000005 -0.000538
vn 0.000875 0.000007 -0.000483
vn 0.000901 0.000002 -0.000434
vn 0.000925 0.000004 -0.000381
vn 0.000945 -0 -0.000327
vn 0.000961 0.000002 -0.000276
vn 0.000977 -0.000002 -0.000213
vn 0.000988 0.000001 -0.000155
vn 0.000997 -0.000002 -0.000081
vn 0.000999 0.000001 -0.000044
vn 0.000953 -0.000283 -0.000108
vn -0.000999 -0.000047 -0.000007
vn -0.00033 -0.000096 -0.000939
vn -0.000182 -0.00038 -0.000907
vn -0.000518 -0.00058 -0.000628
vn -0.000577 -0.000437 -0.000691
vn -0.000644 -0.000696 -0.000318
vn -0.000625 -0.000597 -0.000503
vn -0.000605 -0.000385 -0.000697
vn -0.000686 0.000018 -0.000727
vn -0.000045 -0.000024 -0.000999
vn -0.000174 0.000024 -0.000984
vn -0.000677 -0.00024 -0.000696
vn -0.000662 -0.000147 -0.000735
vn -0.000489 0.000034 -0.000871
vn -0.000523 0.000023 -0.000852
vn -0.000578 0.00003 -0.000815
vn -0.000623 0.000015 -0.000782
vn -0.00038 0.000037 -0.000924
vn -0.000418 0.000024 -0.000908
vn -0.000763 0.00001 -0.000646
vn -0.000749 -0.000591 -0.0003
vn -0.000772 -0.000539 -0.000336
vn -0.000819 -0.000511 -0.000259
vn -0.000828 -0.00049 -0.000272
vn -0.000872 -0.000419 -0.000253
vn -0.000871 -0.000422 -0.000251
vn -0.000922 -0.000324 -0.000213
vn -0.000919 -0.000335 -0.000209
vn -0.000954 -0.000257 -0.000153
vn -0.000954 -0.000259 -0.000153
vn -0.000976 -0.000192 -0.000099
vn -0.000979 -0.000179 -0.0001
vn -0.000883 -0.00019 -0.000429
vn -0.000947 -0.000119 -0.000297
vn -0.000975 -0.000083 -0.000206
vn -0.000975 -0.00008 -0.000205
vn -0.000444 -0.000228 -0.000867
vn -0.000449 -0.000109 -0.000887
vn -0.000703 -0.000345 -0.000622
vn -0.000693 -0.000434 -0.000575
vn -0.000773 -0.00038 -0.000508
vn -0.001 -0.000011 -0.000011
vn -0.000999 0.00001 -0.000051
vn -0.000992 -0.000108 -0.00006
vn -0.000989 -0.000115 -0.000089
vn -0.000994 -0.00004 -0.000101
vn -0.000865 -0.000166 -0.000473
vn -0.000908 -0.000122 -0.000402
vn -0.000915 -0.00013 -0.000382
vn -0.00095 -0.000103 -0.000296
vn -0.000987 0.000001 -0.00016
vn -0.000186 0.000016 -0.000982
vn -0.000277 0.00003 -0.00096
vn -0.000316 -0.000234 -0.000919
vn -0.000542 -0.000176 -0.000822
vn -0.000548 -0.000071 -0.000833
vn -0.000688 -0.000211 -0.000694
vn -0.000772 -0.000299 -0.000561
vn -0.000818 -0.000237 -0.000524
vn -0.00083 -0.00025 -0.000499
vn -0.000964 0.000002 -0.000265
vn 0.000978 -0.0002 -0.000055
vn 0.000918 -0.000334 -0.000213
vn 0.00096 -0.000249 -0.000124
vn 0.000873 -0.000372 -0.000314
vn 0.000931 -0.000284 -0.000231
vn 0.000966 -0.000197 -0.000165
vn 0.000993 -0.000092 -0.000078
vn 0.000993 -0.000093 -0.000079
vn 0.001 -0.00002 -0.000017
vn 0.001 0.000008 0.000009
vn 0.001 -0.00002 -0.000021
vn 0.000954 -0.000105 -0.000282
vn 0.000898 -0.00015 -0.000414
vn 0.000859 -0.000115 -0.000499
vn 0.000834 -0.000497 -0.000239
vn 0.000724 -0.000564 -0.000396
vn 0.000654 -0.000668 -0.000354
vn 0.00066 -0.000653 -0.000371
vn 0.000573 -0.000714 -0.000402
vn 0.000777 -0.000525 -0.000347
vn 0.000754 -0.000577 -0.000313
vn 0.000769 -0.000328 -0.000549
vn 0.000698 -0.000468 -0.000543
vn 0.00067 -0.000402 -0.000624
vn 0.000502 -0.000744 -0.000441
vn 0.000982 -0.000101 -0.000158
vn 0.000945 -0.000168 -0.00028
vn 0.000825 -0.000223 -0.00052
vn 0.00075 -0.000298 -0.000591
vn 0.000876 -0.000375 -0.000301
vn 0.000812 -0.000445 -0.000378
vn 0.000902 -0.000092 -0.000421
vn 0.000858 -0.000122 -0.000498
vn 0.000806 -0.000195 -0.000559
vn 0.000395 -0.000807 -0.000438
vn 0.000419 -0.000863 -0.000282
vn 0.000563 -0.000445 -0.000696
vn 0.000632 -0.000541 -0.000555
vn 0.000666 -0.000239 -0.000707
vn 0.000569 -0.00022 -0.000792
vn 0.000271 -0.000932 -0.000241
vn 0.000197 -0.00087 -0.000452
vn 0.000056 -0.000894 -0.000445
vn 0.000668 0.00002 -0.000744
vn 0.000527 -0.00055 -0.000647
vn 0.000455 -0.000447 -0.00077
vn 0.000364 -0.000851 -0.000379
vn 0.000242 -0.000794 -0.000557
vn 0.000447 -0.000469 -0.000761
vn 0.000319 -0.000498 -0.000806
vn 0.000073 -0.000861 -0.000504
vn -0.000078 -0.000918 -0.000389
vn -0.000172 -0.000935 -0.00031
vn -0.000328 -0.000869 -0.00037
vn 0.000099 -0.00094 -0.000327
vn -0.000099 -0.000889 -0.000447
vn 0.000428 -0.000384 -0.000818
vn 0.000448 -0.000114 -0.000886
vn -0.000182 -0.000921 -0.000344
vn -0.000327 -0.000817 -0.000475
vn 0.00034 -0.000386 -0.000858
vn 0.000259 -0.00039 -0.000884
vn -0.000438 -0.000849 -0.000296
vn -0.000495 -0.000743 -0.000451
vn -0.00056 -0.000772 -0.000301
vn -0.000343 -0.000482 -0.000806
vn -0.000275 -0.000646 -0.000712
vn -0.000189 -0.000584 -0.00079
vn -0.000228 -0.000105 -0.000968
vn -0.000032 -0.000578 -0.000815
vn -0.000084 -0.000305 -0.000949
vn 0.000056 -0.000384 -0.000922
vn 0.0002 -0.000698 -0.000688
vn 0.000549 -0.000762 -0.000343
vn 0.000675 -0.00011 -0.000729
vn 0.000743 -0.00019 -0.000641
vn -0.00056 -0.00067 -0.000487
vn -0.000444 -0.000476 -0.000759
vn -0.000407 -0.000588 -0.000699
vn -0.000199 -0.000545 -0.000814
vn -0.000024 -0.0006 -0.0008
vn 0.000006 -0.000574 -0.000819
vn 0.000164 -0.000438 -0.000884
vn 0.000386 0.000036 -0.000922
vn 0.000159 0.000026 -0.000987
vn 0.000255 0.00002 -0.000967
vn 0.000659 0.000017 -0.000752
vn 0.00059 0.000024 -0.000807
vn 0.000567 0.000019 -0.000823
vn -0.000029 -0.000608 -0.000794
vn 0.000137 -0.00054 -0.00083
vn 0.000218 -0.000529 -0.00082
vn 0.000569 -0.000201 -0.000798
vn 0.000484 0.000032 -0.000874
vn 0.000464 0.000025 -0.000885
vn -0.000632 -0.000482 -0.000607
vn -0.000713 -0.000575 -0.000402
vn -0.000706 -0.000591 -0.000389
vn -0.000105 -0.000039 0.000994
vn -0.000124 -0.000068 0.00099
vn -0.000096 -0.00006 0.000993
vn -0.000106 -0.000079 0.000991
vn -0.000067 -0.000063 0.000996
vn -0.00007 -0.00007 0.000995
vn -0.000075 -0.000073 0.000994
vn -0.000088 -0.000118 0.000989
vn -0.000047 -0.000086 0.000995
vn -0.000047 -0.000087 0.000995
vn -0.000058 -0.000098 0.000994
vn -0.000057 -0.000153 0.000987
vn -0.000031 -0.000118 0.000993
vn -0.000027 -0.000145 0.000989
vn -0.000017 -0.000113 0.000993
vn 0.000001 -0.000113 0.000994
vn 0.000006 -0.000141 0.00099
vn 0.000018 -0.000092 0.000996
vn 0.000021 -0.000097 0.000995
vn 0.000021 -0.000099 0.000995
vn 0.000053 -0.000143 0.000988
vn 0.000053 -0.000093 0.000994
vn 0.000047 -0.000087 0.000995
vn 0.000048 -0.000093 0.000995
vn 0.000098 -0.00013 0.000987
vn 0.000087 -0.00009 0.000992
vn 0.000095 -0.000095 0.000991
vn 0.00008 -0.00006 0.000995
vn 0.00008 -0.00006 0.000995
vn 0.000077 -0.000056 0.000995
vn 0.000127 -0.000069 0.000989
vn 0.000105 -0.000036 0.000994
vn 0.000092 -0.000034 0.000995
vn 0.000086 -0.000028 0.000996
vn 0.000129 -0.000028 0.000991
vn 0.000116 -0.000016 0.000993
vn 0.000148 -0.000011 0.000989
vn 0.000115 0.000012 0.000993
vn 0.000098 0.000007 0.000995
vn 0.000089 0.000012 0.000996
vn 0.000123 0.000027 0.000992
vn 0.000108 0.000034 0.000994
vn 0.000134 0.00005 0.00099
vn 0.000113 0.000059 0.000992
vn 0.000122 0.000066 0.00099
vn 0.000094 0.000078 0.000992
vn 0.000076 0.000057 0.000995
vn 0.000074 0.000057 0.000996
vn 0.000109 0.000109 0.000988
vn 0.000082 0.000113 0.00099
vn 0.000076 0.000101 0.000992
vn 0.000051 0.000102 0.000993
vn 0.000045 0.000082 0.000996
vn 0.000037 0.000081 0.000996
vn 0.000042 0.000113 0.000993
vn 0.000029 0.000114 0.000993
vn 0.000029 0.000135 0.00099
vn 0.000007 0.000136 0.000991
vn 0.000009 0.000121 0.000993
vn -0.000009 0.000122 0.000992
vn -0.000008 0.000119 0.000993
vn -0.00002 0.000117 0.000993
vn -0.000031 0.000142 0.000989
vn -0.000059 0.00014 0.000988
vn -0.000041 0.000111 0.000993
vn -0.000066 0.000107 0.000992
vn -0.000042 0.000077 0.000996
vn -0.000049 0.000075 0.000996
vn -0.000075 0.0001 0.000992
vn -0.000113 0.000098 0.000989
vn -0.00006 0.00006 0.000996
vn -0.000064 0.000059 0.000996
vn -0.000111 0.000083 0.00099
vn -0.000148 0.000071 0.000986
vn -0.0001 0.000054 0.000994
vn -0.000133 0.00004 0.00099
vn -0.000078 0.000029 0.000997
vn -0.000091 0.000022 0.000996
vn -0.000103 0.000022 0.000994
vn -0.000128 0.000009 0.000992
vn -0.000128 0.000009 0.000992
vn -0.00015 -0.000018 0.000988
vn -0.000106 -0.000008 0.000994
vn -0.000139 -0.000037 0.00099
vn -0.000102 -0.000022 0.000995
vn -0.000125 -0.00005 0.000991
vn -0.000987 -0.000161 0.000005
vn -0.000998 -0.000058 -0.000007
vn -0.000999 -0.00005 -0.000003
vn -0.001 -0.00002 0
vn -0.000999 -0.000041 0.000001
vn -0.000969 -0.000247 -0.000011
vn -0.000937 -0.000349 0.000003
vn -0.000936 -0.000352 0.000001
vn -0.000973 -0.000231 -0.000001
vn -0.000853 -0.000521 -0.000009
vn -0.000895 -0.000447 0.000019
vn -0.00088 -0.000475 -0.000007
vn -0.000778 -0.000628 -0.000001
vn -0.000768 -0.00064 -0.000016
vn -0.000814 -0.000581 0.000006
vn -0.000692 -0.000722 -0.000003
vn -0.000692 -0.000722 -0.000003
vn -0.000538 -0.000843 -0
vn -0.00061 -0.000792 -0.00001
vn -0.000619 -0.000786 -0.000001
vn -0.000338 -0.000941 -0.000027
vn -0.000398 -0.000917 0.000018
vn -0.000391 -0.00092 -0.000006
vn -0.000471 -0.000882 0.000011
vn -0.00051 -0.00086 -0.000019
vn -0.000157 -0.000987 -0.000033
vn -0.000257 -0.000966 0.000027
vn -0.000255 -0.000967 0.000014
vn -0.000071 -0.000997 -0.000008
vn -0.000072 -0.000997 -0.000005
vn -0.000136 -0.000991 0.000005
vn 0.000117 -0.000992 -0.000043
vn 0.000024 -0.000997 0.000071
vn 0.000043 -0.000999 -0.000002
vn 0.000234 -0.000971 -0.000046
vn 0.000237 -0.000971 -0.000034
vn 0.000144 -0.000989 0.00002
vn 0.000297 -0.000955 0.00002
vn 0.000353 -0.000935 -0.000028
vn 0.000398 -0.000917 0.000007
vn 0.000469 -0.000883 0.000006
vn 0.000442 -0.000897 -0.000017
vn 0.000615 -0.000788 -0.000007
vn 0.000556 -0.000831 0.00001
vn 0.00053 -0.000848 -0.000014
vn 0.000697 -0.000717 -0.000007
vn 0.000699 -0.000715 -0.000005
vn 0.00062 -0.000784 -0.000003
vn 0.00077 -0.000638 -0.000031
vn 0.000791 -0.000611 0.000007
vn 0.000821 -0.000571 0.000003
vn 0.000887 -0.000461 -0.000003
vn 0.000898 -0.000439 0.000015
vn 0.000859 -0.000512 -0.000008
vn 0.000939 -0.000343 -0.000007
vn 0.000944 -0.000331 0.000003
vn 0.000981 -0.000194 0.000016
vn 0.000972 -0.000236 -0.000012
vn 0.000997 -0.000071 -0.000005
vn 0.000991 -0.000131 0.000008
vn 0.000998 -0.000057 0.000002
vn 0.000999 -0.000051 -0
vn 0.000987 -0.000159 0.000005
vn 0.000997 -0.000071 -0.000005
vn 0.000977 -0.000213 -0.000003
vn 0.000968 -0.00025 0.000005
vn 0.000877 -0.000481 0.000002
vn 0.000937 -0.000349 -0
vn 0.000933 -0.000361 0.000002
vn 0.000811 -0.000586 -0
vn 0.000878 -0.000479 0.000001
vn 0.000723 -0.000691 -0.000002
vn 0.000707 -0.000707 0.000004
vn 0.000801 -0.000599 0.000003
vn 0.000599 -0.000801 -0.000006
vn 0.000549 -0.000835 0.000023
vn 0.000626 -0.00078 -0.000001
vn 0.000479 -0.000878 -0.000001
vn 0.000467 -0.000884 0.000006
vn 0.000362 -0.000932 0.000001
vn 0.000349 -0.000937 0.000007
vn 0.000175 -0.000984 0.000023
vn 0.000213 -0.000977 -0.000003
vn 0.000266 -0.000964 -0.000001
vn 0.000013 -0.001 -0.000003
vn 0.000071 -0.000997 0.000012
vn 0.000096 -0.000995 0.000002
vn -0.000099 -0.000995 0.000002
vn -0.000071 -0.000997 0.000014
vn -0.000276 -0.000961 -0.000002
vn -0.000205 -0.000979 0.000011
vn -0.000213 -0.000977 0.000007
vn -0.00036 -0.000933 0.000002
vn -0.000349 -0.000937 0.000007
vn -0.000469 -0.000883 0.000007
vn -0.000479 -0.000878 0.000002
vn -0.000576 -0.000817 0.000009
vn -0.000599 -0.000801 -0.000005
vn -0.00069 -0.000723 0.000007
vn -0.000707 -0.000707 -0.000003
vn -0.000821 -0.000571 0
vn -0.000801 -0.000599 0.000006
vn -0.000758 -0.000652 0
vn -0.000884 -0.000468 0.000001
vn -0.000878 -0.000479 0.000004
vn -0.000937 -0.000349 0.000003
vn -0.000927 -0.000376 -0.000001
vn -0.000997 -0.000071 0.000003
vn -0.000989 -0.00015 -0.000002
vn -0.000977 -0.000213 0.000003
vn -0.000963 -0.00027 -0.000002
vn 0.000222 0.000975 0
vn 0.000185 0.000983 0.000003
vn 0.000143 0.00099 0
vn 0.000333 0.000943 0.000001
vn 0.000349 0.000937 -0.000001
vn 0.000444 0.000896 0.000003
vn 0.000479 0.000878 -0.000001
vn 0.000586 0.000811 0.000002
vn 0.000599 0.000801 0
vn 0.000515 0.000857 -0
vn 0.000707 0.000707 0.000001
vn 0.000682 0.000731 -0.000001
vn 0.000801 0.000599 0.000002
vn 0.00077 0.000638 -0.000001
vn 0.000878 0.000479 0.000002
vn 0.00085 0.000527 -0.000001
vn 0.000952 0.000306 -0.000001
vn 0.000937 0.000349 0.000002
vn 0.000906 0.000424 -0.000001
vn 0.000977 0.000213 0.000001
vn 0.001 -0.000023 0
vn 0.001 -0.000004 -0
vn 0.000999 0.000048 -0
vn 0.000997 0.000071 0.000001
vn 0.000985 0.000175 -0.000001
vn -0.000997 0.000071 0.000002
vn -0.001 -0.000023 0
vn -0.001 -0.000026 -0
vn -0.000987 0.000159 -0.000002
vn -0.000945 0.000327 -0.000001
vn -0.000977 0.000213 0.000001
vn -0.000903 0.00043 -0
vn -0.000937 0.000349 0.000001
vn -0.000794 0.000607 0.000001
vn -0.000878 0.000479 -0.000001
vn -0.00086 0.000511 0.000003
vn -0.000801 0.000599 -0
vn -0.000599 0.000801 0.000001
vn -0.00061 0.000792 0
vn -0.000707 0.000707 -0
vn -0.000697 0.000717 0.000001
vn -0.000479 0.000878 -0.000001
vn -0.000442 0.000897 0.000003
vn -0.000532 0.000847 -0.000001
vn -0.000349 0.000937 0.000001
vn -0.000345 0.000939 0.000001
vn -0.000213 0.000977 0.000001
vn -0.000234 0.000972 -0.000001
vn -0.000116 0.000993 -0.000001
vn 0.000074 0.000997 -0.000001
vn -0.00004 0.000999 0.000003
vn -0.00003 0.001 0.000004
usemtl JointGrey
f 1//1 2//1 3//1
f 4//2 5//2 3//2
f 3//3 5//3 6//3
f 3//4 6//4 1//4
f 7//5 8//5 3//5
f 3//6 8//6 4//6
f 9//7 10//7 3//7
f 3//8 10//8 7//8
f 11//9 12//9 3//9
f 3//10 12//10 9//10
f 13//11 14//11 3//11
f 3//12 14//12 11//12
f 15//13 16//13 3//13
f 3//14 16//14 13//14
f 3//15 17//15 15//15
f 18//16 19//16 3//16
f 20//17 21//17 3//17
f 3//18 21//18 18//18
f 22//19 23//19 3//19
f 3//20 23//20 20//20
f 24//21 25//21 3//21
f 3//22 25//22 22//22
f 26//23 27//23 3//23
f 3//24 27//24 24//24
f 28//25 29//25 3//25
f 3//26 29//26 26//26
f 2//27 30//27 3//27
f 3//28 30//28 28//28
f 31//29 32//29 6//29
f 6//30 32//30 1//30
f 5//31 33//31 34//31
f 5//32 34//32 6//32
f 6//33 34//33 31//33
f 8//34 35//34 4//34
f 4//35 35//35 36//35
f 4//36 36//36 5//36
f 5//37 36//37 33//37
f 8//38 37//38 35//38
f 7//39 38//39 39//39
f 7//40 39//40 8//40
f 8//41 39//41 37//41
f 38//42 7//42 40//42
f 40//43 7//43 41//43
f 41//44 7//44 10//44
f 41//45 10//45 42//45
f 9//46 43//46 10//46
f 10//47 43//47 42//47
f 9//48 44//48 43//48
f 12//49 45//49 46//49
f 12//50 46//50 9//50
f 9//51 46//51 44//51
f 45//52 12//52 47//52
f 47//53 12//53 11//53
f 47//54 11//54 48//54
f 48//55 11//55 14//55
f 48//56 14//56 49//56
f 14//57 50//57 49//57
f 13//58 51//58 52//58
f 13//59 52//59 14//59
f 14//60 52//60 50//60
f 51//61 13//61 53//61
f 53//62 13//62 16//62
f 53//63 16//63 54//63
f 54//64 16//64 55//64
f 55//65 16//65 15//65
f 55//66 15//66 56//66
f 15//67 57//67 56//67
f 17//68 58//68 59//68
f 17//69 59//69 15//69
f 15//70 59//70 57//70
f 58//71 17//71 60//71
f 60//72 17//72 3//72
f 60//73 3//73 61//73
f 61//74 3//74 62//74
f 62//75 3//75 19//75
f 62//76 19//76 63//76
f 18//77 64//77 19//77
f 19//78 64//78 63//78
f 21//79 65//79 66//79
f 21//80 66//80 18//80
f 18//81 66//81 64//81
f 65//82 21//82 67//82
f 67//83 21//83 68//83
f 68//84 21//84 20//84
f 68//85 20//85 69//85
f 23//86 70//86 20//86
f 20//87 70//87 69//87
f 23//88 71//88 70//88
f 72//89 73//89 22//89
f 22//90 73//90 74//90
f 22//91 74//91 23//91
f 23//92 74//92 71//92
f 72//93 22//93 75//93
f 75//94 22//94 25//94
f 75//95 25//95 76//95
f 24//96 77//96 25//96
f 25//97 77//97 76//97
f 24//98 78//98 77//98
f 27//99 79//99 80//99
f 27//100 80//100 24//100
f 24//101 80//101 78//101
f 79//102 27//102 81//102
f 81//103 27//103 26//103
f 81//104 26//104 82//104
f 82//105 26//105 29//105
f 82//106 29//106 83//106
f 29//107 84//107 83//107
f 28//108 85//108 86//108
f 28//109 86//109 29//109
f 29//110 86//110 84//110
f 85//111 28//111 87//111
f 87//112 28//112 30//112
f 87//113 30//113 88//113
f 88//114 30//114 89//114
f 89//115 30//115 2//115
f 89//116 2//116 90//116
f 32//117 91//117 1//117
f 1//118 91//118 2//118
f 2//119 91//119 90//119
f 92//120 93//120 94//120
f 94//121 93//121 95//121
f 94//122 95//122 96//122
f 96//123 95//123 97//123
f 96//124 97//124 98//124
f 98//125 97//125 99//125
f 100//126 101//126 102//126
f 102//127 101//127 103//127
f 103//128 101//128 104//128
f 103//122 104//122 105//122
f 105//122 104//122 106//122
f 107//129 108//129 109//129
f 109//130 108//130 110//130
f 110//131 108//131 111//131
f 110//132 111//132 112//132
f 112//133 111//133 92//133
f 92//134 111//134 93//134
f 113//135 114//135 115//135
f 115//136 114//136 116//136
f 115//137 116//137 117//137
f 104//122 118//122 106//122
f 106//138 118//138 119//138
f 119//122 118//122 120//122
f 119//122 120//122 121//122
f 121//122 120//122 122//122
f 121//122 122//122 123//122
f 97//139 124//139 99//139
f 99//140 124//140 125//140
f 125//141 124//141 126//141
f 125//122 126//122 127//122
f 116//142 128//142 117//142
f 117//143 128//143 129//143
f 117//144 129//144 130//144
f 130//145 129//145 131//145
f 130//146 131//146 132//146
f 132//147 131//147 133//147
f 132//148 133//148 134//148
f 134//149 133//149 135//149
f 134//150 135//150 136//150
f 136//151 135//151 137//151
f 136//152 137//152 100//152
f 100//153 137//153 138//153
f 100//122 138//122 101//122
f 126//154 139//154 127//154
f 127//155 139//155 140//155
f 127//156 140//156 141//156
f 141//157 140//157 142//157
f 141//158 142//158 143//158
f 143//159 142//159 144//159
f 143//160 144//160 113//160
f 113//161 144//161 114//161
f 145//162 146//162 147//162
f 147//163 146//163 148//163
f 147//164 148//164 149//164
f 149//165 148//165 150//165
f 150//166 148//166 151//166
f 150//167 151//167 107//167
f 107//168 151//168 108//168
f 123//122 122//122 152//122
f 123//122 152//122 153//122
f 153//122 152//122 154//122
f 155//169 156//169 157//169
f 157//170 156//170 158//170
f 157//171 158//171 159//171
f 159//172 158//172 160//172
f 159//173 160//173 161//173
f 161//174 160//174 162//174
f 161//175 162//175 163//175
f 163//176 162//176 164//176
f 163//177 164//177 145//177
f 145//178 164//178 146//178
f 165//179 166//179 155//179
f 155//180 166//180 156//180
f 152//181 167//181 154//181
f 154//122 167//122 168//122
f 168//182 167//182 169//182
f 168//183 169//183 170//183
f 170//184 169//184 171//184
f 170//185 171//185 172//185
f 172//186 171//186 173//186
f 172//187 173//187 165//187
f 165//188 173//188 174//188
f 165//189 174//189 166//189
f 175//190 64//190 176//190
f 176//191 64//191 66//191
f 176//192 66//192 65//192
f 176//193 65//193 177//193
f 177//194 65//194 178//194
f 65//195 67//195 178//195
f 178//196 67//196 68//196
f 178//197 68//197 179//197
f 179//198 68//198 69//198
f 179//199 69//199 180//199
f 180//200 69//200 70//200
f 180//201 70//201 71//201
f 180//202 71//202 181//202
f 181//203 71//203 74//203
f 181//204 74//204 73//204
f 181//205 73//205 182//205
f 182//206 73//206 72//206
f 182//207 72//207 183//207
f 183//208 72//208 75//208
f 183//209 75//209 184//209
f 184//210 75//210 76//210
f 184//211 76//211 77//211
f 184//212 77//212 185//212
f 185//213 77//213 78//213
f 185//214 78//214 186//214
f 186//215 78//215 80//215
f 186//216 80//216 187//216
f 187//217 80//217 79//217
f 187//218 79//218 81//218
f 187//219 81//219 188//219
f 188//220 81//220 82//220
f 188//221 82//221 83//221
f 188//222 83//222 189//222
f 189//223 83//223 190//223
f 83//224 84//224 190//224
f 190//225 84//225 86//225
f 190//226 86//226 191//226
f 191//227 86//227 85//227
f 191//228 85//228 192//228
f 192//229 85//229 87//229
f 192//230 87//230 88//230
f 192//231 88//231 193//231
f 193//232 88//232 89//232
f 193//233 89//233 90//233
f 193//234 90//234 194//234
f 194//235 90//235 91//235
f 194//236 91//236 195//236
f 195//237 91//237 32//237
f 195//238 32//238 196//238
f 196//239 32//239 31//239
f 31//240 34//240 196//240
f 196//241 34//241 197//241
f 197//242 34//242 33//242
f 197//243 33//243 198//243
f 198//244 33//244 36//244
f 198//245 36//245 199//245
f 199//246 36//246 35//246
f 199//247 35//247 37//247
f 199//248 37//248 200//248
f 200//249 37//249 39//249
f 200//250 39//250 38//250
f 200//251 38//251 201//251
f 201//252 38//252 202//252
f 38//253 40//253 202//253
f 202//254 40//254 41//254
f 202//255 41//255 203//255
f 203//256 41//256 42//256
f 42//257 43//257 203//257
f 203//258 43//258 204//258
f 204//259 43//259 44//259
f 204//260 44//260 205//260
f 205//261 44//261 46//261
f 205//262 46//262 206//262
f 206//263 46//263 45//263
f 206//264 45//264 47//264
f 206//265 47//265 207//265
f 207//266 47//266 48//266
f 207//267 48//267 208//267
f 208//268 48//268 49//268
f 208//269 49//269 209//269
f 49//270 50//270 209//270
f 209//271 50//271 52//271
f 209//272 52//272 210//272
f 210//273 52//273 51//273
f 210//274 51//274 211//274
f 211//275 51//275 53//275
f 211//276 53//276 54//276
f 211//277 54//277 212//277
f 212//278 54//278 55//278
f 212//279 55//279 56//279
f 212//280 56//280 213//280
f 213//281 56//281 214//281
f 214//282 56//282 57//282
f 214//283 57//283 59//283
f 214//284 59//284 215//284
f 215//285 59//285 58//285
f 215//286 58//286 216//286
f 58//287 60//287 216//287
f 216//288 60//288 61//288
f 216//289 61//289 217//289
f 217//290 61//290 62//290
f 217//291 62//291 175//291
f 175//292 62//292 63//292
f 175//293 63//293 64//293
f 164//294 218//294 146//294
f 146//295 218//295 219//295
f 219//296 220//296 146//296
f 146//297 220//297 148//297
f 148//298 220//298 221//298
f 148//299 221//299 151//299
f 151//300 221//300 222//300
f 151//301 222//301 223//301
f 151//302 223//302 108//302
f 108//303 223//303 224//303
f 108//304 224//304 225//304
f 108//305 225//305 111//305
f 111//306 225//306 226//306
f 111//307 226//307 227//307
f 111//308 227//308 93//308
f 93//309 227//309 228//309
f 93//310 228//310 229//310
f 230//311 95//311 93//311
f 230//312 93//312 229//312
f 95//313 230//313 231//313
f 95//314 231//314 97//314
f 97//315 231//315 232//315
f 97//316 232//316 124//316
f 232//317 233//317 124//317
f 233//318 234//318 124//318
f 124//319 234//319 126//319
f 234//320 235//320 126//320
f 126//321 235//321 139//321
f 135//322 236//322 137//322
f 237//323 138//323 137//323
f 237//324 137//324 236//324
f 238//325 101//325 138//325
f 238//326 138//326 237//326
f 239//327 101//327 238//327
f 101//328 239//328 240//328
f 101//329 240//329 104//329
f 104//330 240//330 241//330
f 242//331 118//331 104//331
f 242//332 104//332 241//332
f 243//333 118//333 242//333
f 244//334 120//334 118//334
f 244//335 118//335 243//335
f 245//336 122//336 120//336
f 245//337 120//337 244//337
f 122//338 245//338 246//338
f 122//339 246//339 152//339
f 152//340 246//340 247//340
f 152//341 247//341 248//341
f 152//342 248//342 167//342
f 167//343 248//343 249//343
f 167//344 249//344 169//344
f 233//345 232//345 250//345
f 251//346 252//346 253//346
f 254//347 255//347 256//347
f 257//348 258//348 259//348
f 260//349 261//349 262//349
f 263//350 156//350 264//350
f 265//351 160//351 158//351
f 265//352 158//352 263//352
f 263//353 158//353 156//353
f 266//354 162//354 160//354
f 266//355 160//355 265//355
f 267//356 164//356 266//356
f 266//357 164//357 162//357
f 268//358 218//358 267//358
f 267//359 218//359 164//359
f 269//360 219//360 270//360
f 270//361 219//361 268//361
f 268//362 219//362 218//362
f 269//363 220//363 219//363
f 228//364 271//364 229//364
f 272//365 234//365 233//365
f 273//366 235//366 274//366
f 274//367 235//367 234//367
f 235//368 273//368 139//368
f 139//369 273//369 275//369
f 140//370 275//370 276//370
f 275//371 140//371 139//371
f 277//372 142//372 276//372
f 276//373 142//373 140//373
f 114//374 144//374 278//374
f 278//375 144//375 277//375
f 277//376 144//376 142//376
f 279//377 114//377 278//377
f 257//378 280//378 258//378
f 257//379 259//379 281//379
f 281//380 259//380 282//380
f 280//381 283//381 226//381
f 284//382 271//382 285//382
f 286//383 287//383 288//383
f 288//384 287//384 289//384
f 289//385 287//385 290//385
f 290//386 287//386 284//386
f 290//387 284//387 291//387
f 291//388 284//388 285//388
f 227//389 283//389 257//389
f 257//390 283//390 280//390
f 284//391 287//391 271//391
f 292//392 293//392 294//392
f 293//393 295//393 294//393
f 294//394 295//394 296//394
f 257//395 281//395 227//395
f 227//396 281//396 285//396
f 285//397 281//397 291//397
f 290//398 297//398 289//398
f 288//399 298//399 299//399
f 281//400 282//400 291//400
f 291//401 282//401 300//401
f 291//402 300//402 290//402
f 290//403 300//403 297//403
f 289//404 292//404 288//404
f 288//405 292//405 298//405
f 299//406 298//406 250//406
f 250//407 272//407 233//407
f 289//408 297//408 292//408
f 298//409 294//409 250//409
f 250//410 294//410 272//410
f 301//411 296//411 302//411
f 302//412 296//412 303//412
f 303//413 296//413 295//413
f 283//414 227//414 226//414
f 229//415 271//415 287//415
f 229//416 287//416 230//416
f 285//417 271//417 227//417
f 227//418 271//418 228//418
f 250//419 232//419 299//419
f 299//420 286//420 288//420
f 232//421 231//421 299//421
f 299//422 231//422 286//422
f 286//423 231//423 230//423
f 287//424 286//424 230//424
f 297//425 293//425 292//425
f 292//426 294//426 298//426
f 272//427 274//427 234//427
f 301//428 273//428 274//428
f 304//429 275//429 273//429
f 274//430 305//430 301//430
f 301//431 305//431 296//431
f 252//432 251//432 306//432
f 252//433 306//433 307//433
f 307//434 306//434 254//434
f 307//435 254//435 256//435
f 308//436 255//436 309//436
f 309//437 255//437 254//437
f 253//438 310//438 251//438
f 309//439 304//439 308//439
f 304//440 309//440 275//440
f 275//441 309//441 276//441
f 310//442 279//442 278//442
f 310//443 278//443 251//443
f 251//444 278//444 277//444
f 251//445 277//445 306//445
f 306//446 277//446 276//446
f 306//447 276//447 254//447
f 254//448 276//448 309//448
f 302//449 308//449 301//449
f 301//450 308//450 304//450
f 301//451 304//451 273//451
f 305//452 274//452 272//452
f 305//453 272//453 296//453
f 296//454 272//454 294//454
f 264//455 311//455 312//455
f 264//456 312//456 263//456
f 263//457 312//457 313//457
f 312//458 314//458 313//458
f 313//459 314//459 315//459
f 313//460 315//460 316//460
f 316//461 315//461 317//461
f 316//462 317//462 318//462
f 318//463 317//463 319//463
f 318//464 319//464 320//464
f 320//465 319//465 321//465
f 320//466 321//466 322//466
f 318//467 266//467 316//467
f 316//468 266//468 265//468
f 316//469 265//469 313//469
f 313//470 265//470 263//470
f 268//471 323//471 270//471
f 324//472 262//472 261//472
f 325//473 324//473 261//473
f 326//474 324//474 327//474
f 327//475 324//475 325//475
f 328//476 326//476 327//476
f 328//477 327//477 329//477
f 329//478 327//478 325//478
f 323//479 268//479 320//479
f 320//480 268//480 318//480
f 318//481 268//481 267//481
f 318//482 267//482 266//482
f 322//483 321//483 330//483
f 322//484 330//484 331//484
f 332//485 333//485 334//485
f 332//486 334//486 335//486
f 335//487 262//487 336//487
f 335//488 337//488 338//488
f 335//489 338//489 332//489
f 336//490 339//490 340//490
f 336//491 340//491 337//491
f 338//492 341//492 331//492
f 338//493 331//493 332//493
f 332//494 331//494 330//494
f 333//495 330//495 321//495
f 330//496 333//496 332//496
f 337//497 335//497 336//497
f 328//498 329//498 342//498
f 342//499 329//499 343//499
f 344//500 324//500 326//500
f 326//501 328//501 345//501
f 334//502 260//502 262//502
f 344//503 326//503 346//503
f 346//504 326//504 345//504
f 347//505 339//505 344//505
f 344//506 339//506 336//506
f 262//507 324//507 344//507
f 335//508 334//508 262//508
f 336//509 262//509 344//509
f 347//510 344//510 346//510
f 328//511 342//511 348//511
f 328//512 348//512 345//512
f 345//513 348//513 225//513
f 345//514 225//514 346//514
f 341//515 340//515 221//515
f 220//516 269//516 341//516
f 220//517 341//517 221//517
f 339//518 347//518 223//518
f 225//519 224//519 346//519
f 346//520 224//520 347//520
f 347//521 224//521 223//521
f 339//522 223//522 222//522
f 339//523 222//523 340//523
f 340//524 222//524 221//524
f 343//525 349//525 342//525
f 342//526 349//526 350//526
f 342//527 350//527 348//527
f 340//528 341//528 337//528
f 337//529 341//529 338//529
f 341//530 269//530 331//530
f 331//531 269//531 270//531
f 331//532 270//532 322//532
f 322//533 270//533 323//533
f 322//534 323//534 320//534
f 226//535 225//535 348//535
f 226//536 348//536 280//536
f 280//537 348//537 350//537
f 280//538 350//538 349//538
f 280//539 349//539 258//539
f 279//540 351//540 116//540
f 279//541 116//541 114//541
f 352//542 128//542 116//542
f 353//543 129//543 354//543
f 354//544 129//544 128//544
f 355//545 131//545 353//545
f 353//546 131//546 129//546
f 356//547 135//547 133//547
f 356//548 133//548 355//548
f 355//549 133//549 131//549
f 357//550 236//550 135//550
f 358//551 240//551 239//551
f 245//552 244//552 359//552
f 246//553 245//553 360//553
f 249//554 361//554 362//554
f 249//555 362//555 169//555
f 169//556 362//556 363//556
f 169//557 363//557 171//557
f 171//558 363//558 364//558
f 171//559 364//559 173//559
f 173//560 364//560 365//560
f 173//561 365//561 174//561
f 174//562 365//562 366//562
f 174//563 366//563 166//563
f 166//564 366//564 367//564
f 166//565 367//565 156//565
f 367//566 264//566 156//566
f 368//567 369//567 370//567
f 371//568 310//568 372//568
f 373//569 374//569 358//569
f 375//570 376//570 377//570
f 373//571 378//571 379//571
f 379//572 378//572 380//572
f 380//573 381//573 382//573
f 383//574 381//574 380//574
f 378//575 384//575 383//575
f 357//576 385//576 236//576
f 376//577 242//577 241//577
f 376//578 241//578 377//578
f 385//579 386//579 384//579
f 385//580 384//580 387//580
f 387//581 388//581 238//581
f 387//582 238//582 237//582
f 387//583 237//583 385//583
f 385//584 237//584 236//584
f 388//585 358//585 239//585
f 388//586 239//586 238//586
f 135//587 356//587 357//587
f 389//588 390//588 391//588
f 392//589 389//589 391//589
f 392//590 391//590 393//590
f 392//591 393//591 394//591
f 394//592 393//592 395//592
f 394//593 395//593 396//593
f 396//594 395//594 397//594
f 396//595 397//595 398//595
f 398//596 397//596 399//596
f 398//597 399//597 400//597
f 400//598 399//598 401//598
f 400//599 401//599 402//599
f 356//600 395//600 393//600
f 399//601 397//601 354//601
f 401//602 399//602 352//602
f 352//603 399//603 354//603
f 373//604 358//604 388//604
f 373//605 388//605 378//605
f 383//606 384//606 386//606
f 383//607 386//607 390//607
f 390//608 386//608 391//608
f 310//609 371//609 351//609
f 310//610 351//610 279//610
f 371//611 402//611 401//611
f 371//612 401//612 351//612
f 351//613 401//613 352//613
f 356//614 355//614 395//614
f 395//615 355//615 397//615
f 397//616 355//616 353//616
f 397//617 353//617 354//617
f 351//618 352//618 116//618
f 241//619 240//619 377//619
f 377//620 240//620 358//620
f 377//621 358//621 374//621
f 388//622 387//622 378//622
f 378//623 387//623 384//623
f 386//624 385//624 391//624
f 391//625 385//625 357//625
f 391//626 357//626 393//626
f 393//627 357//627 356//627
f 352//628 354//628 128//628
f 403//629 368//629 370//629
f 404//630 369//630 405//630
f 405//631 369//631 368//631
f 406//632 404//632 407//632
f 407//633 404//633 405//633
f 368//634 403//634 366//634
f 366//635 403//635 408//635
f 366//636 408//636 367//636
f 367//637 408//637 409//637
f 311//638 264//638 409//638
f 409//639 264//639 367//639
f 365//640 364//640 405//640
f 405//641 364//641 407//641
f 407//642 363//642 406//642
f 410//643 411//643 412//643
f 413//644 414//644 415//644
f 413//645 415//645 416//645
f 416//646 415//646 417//646
f 416//647 417//647 418//647
f 414//648 412//648 411//648
f 414//649 411//649 415//649
f 415//650 411//650 419//650
f 415//651 419//651 420//651
f 415//652 420//652 417//652
f 418//653 421//653 422//653
f 366//654 365//654 368//654
f 368//655 365//655 405//655
f 411//656 406//656 361//656
f 411//657 361//657 419//657
f 410//658 404//658 406//658
f 410//659 406//659 411//659
f 407//660 364//660 363//660
f 363//661 362//661 406//661
f 406//662 362//662 361//662
f 423//663 422//663 424//663
f 424//664 422//664 421//664
f 421//665 417//665 425//665
f 425//666 417//666 420//666
f 426//667 420//667 427//667
f 420//668 426//668 425//668
f 423//669 428//669 429//669
f 429//670 428//670 430//670
f 430//671 431//671 432//671
f 427//672 361//672 249//672
f 425//673 433//673 421//673
f 421//674 433//674 424//674
f 424//675 434//675 423//675
f 423//676 434//676 428//676
f 433//677 360//677 424//677
f 424//678 360//678 434//678
f 431//679 435//679 432//679
f 432//680 435//680 436//680
f 437//681 438//681 439//681
f 439//682 438//682 440//682
f 430//683 428//683 431//683
f 432//684 436//684 437//684
f 360//685 433//685 441//685
f 441//686 433//686 425//686
f 437//687 436//687 438//687
f 438//688 442//688 440//688
f 360//689 359//689 434//689
f 434//690 359//690 428//690
f 442//691 379//691 440//691
f 440//692 379//692 443//692
f 382//693 443//693 379//693
f 442//694 438//694 374//694
f 374//695 438//695 375//695
f 375//696 438//696 436//696
f 377//697 374//697 375//697
f 376//698 444//698 435//698
f 376//699 435//699 242//699
f 242//700 435//700 243//700
f 243//701 445//701 359//701
f 421//702 418//702 417//702
f 420//703 419//703 427//703
f 427//704 419//704 361//704
f 380//705 382//705 379//705
f 373//706 379//706 442//706
f 373//707 442//707 374//707
f 375//708 436//708 376//708
f 376//709 436//709 444//709
f 435//710 431//710 243//710
f 243//711 431//711 445//711
f 360//712 441//712 246//712
f 359//713 244//713 243//713
f 360//714 245//714 359//714
f 249//715 248//715 427//715
f 427//716 248//716 426//716
f 426//717 248//717 247//717
f 444//718 436//718 435//718
f 431//719 428//719 445//719
f 445//720 428//720 359//720
f 441//721 425//721 426//721
f 441//722 426//722 247//722
f 441//723 247//723 246//723
f 380//724 378//724 383//724
f 381//725 383//725 390//725
f 381//726 390//726 389//726
f 446//727 447//727 181//727
f 181//728 447//728 448//728
f 181//729 448//729 180//729
f 180//730 448//730 449//730
f 180//731 449//731 179//731
f 179//732 449//732 450//732
f 179//733 450//733 178//733
f 178//734 450//734 451//734
f 178//735 451//735 177//735
f 177//736 451//736 452//736
f 177//737 452//737 176//737
f 176//738 452//738 453//738
f 176//739 453//739 175//739
f 175//740 453//740 454//740
f 175//741 454//741 217//741
f 217//742 454//742 216//742
f 216//743 454//743 455//743
f 216//744 455//744 215//744
f 215//745 455//745 456//745
f 215//746 456//746 214//746
f 214//747 456//747 457//747
f 214//748 457//748 213//748
f 213//749 457//749 458//749
f 213//750 458//750 212//750
f 212//751 458//751 459//751
f 212//752 459//752 211//752
f 211//753 459//753 460//753
f 211//754 460//754 210//754
f 210//755 460//755 461//755
f 210//756 461//756 209//756
f 209//757 461//757 462//757
f 209//758 462//758 208//758
f 208//759 462//759 463//759
f 208//760 463//760 207//760
f 207//761 463//761 464//761
f 207//762 464//762 206//762
f 206//763 464//763 465//763
f 206//764 465//764 205//764
f 205//765 465//765 466//765
f 205//766 466//766 204//766
f 204//767 466//767 467//767
f 204//768 467//768 203//768
f 203//769 467//769 468//769
f 203//770 468//770 202//770
f 202//771 468//771 469//771
f 202//772 469//772 201//772
f 201//773 469//773 470//773
f 201//774 470//774 200//774
f 200//775 470//775 471//775
f 200//776 471//776 199//776
f 199//777 471//777 472//777
f 199//778 472//778 198//778
f 198//779 472//779 473//779
f 198//780 473//780 197//780
f 197//781 473//781 474//781
f 197//782 474//782 196//782
f 196//783 474//783 475//783
f 196//784 475//784 195//784
f 195//785 475//785 476//785
f 195//786 476//786 194//786
f 194//787 476//787 477//787
f 194//788 477//788 193//788
f 193//789 477//789 478//789
f 193//790 478//790 192//790
f 192//791 478//791 479//791
f 192//792 479//792 191//792
f 191//793 479//793 480//793
f 191//794 480//794 190//794
f 190//795 480//795 481//795
f 190//796 481//796 189//796
f 189//797 481//797 482//797
f 189//798 482//798 188//798
f 188//799 482//799 483//799
f 188//800 483//800 187//800
f 187//801 483//801 484//801
f 187//802 484//802 186//802
f 186//803 484//803 485//803
f 186//804 485//804 185//804
f 185//805 485//805 486//805
f 185//806 486//806 184//806
f 184//807 486//807 487//807
f 184//808 487//808 183//808
f 183//809 487//809 488//809
f 183//810 488//810 182//810
f 182//811 488//811 446//811
f 182//812 446//812 181//812
f 371//813 489//813 402//813
f 489//814 371//814 490//814
f 490//815 371//815 372//815
f 310//816 253//816 372//816
f 253//817 252//817 465//817
f 402//818 489//818 400//818
f 491//819 398//819 492//819
f 492//820 398//820 400//820
f 489//821 492//821 400//821
f 396//822 493//822 494//822
f 493//823 396//823 491//823
f 491//824 396//824 398//824
f 494//825 495//825 392//825
f 494//826 392//826 394//826
f 494//827 394//827 396//827
f 496//828 389//828 495//828
f 389//829 392//829 495//829
f 497//830 382//830 381//830
f 497//831 381//831 496//831
f 496//832 381//832 389//832
f 498//833 499//833 440//833
f 498//834 440//834 500//834
f 440//835 443//835 500//835
f 500//836 443//836 382//836
f 500//837 382//837 497//837
f 501//838 502//838 439//838
f 501//839 439//839 499//839
f 499//840 439//840 440//840
f 503//841 432//841 502//841
f 502//842 432//842 437//842
f 502//843 437//843 439//843
f 504//844 430//844 505//844
f 505//845 430//845 503//845
f 503//846 430//846 432//846
f 506//847 423//847 429//847
f 506//848 429//848 504//848
f 504//849 429//849 430//849
f 423//850 506//850 422//850
f 422//851 506//851 507//851
f 422//852 507//852 418//852
f 508//853 416//853 418//853
f 508//854 418//854 507//854
f 509//855 413//855 510//855
f 510//856 413//856 416//856
f 510//857 416//857 508//857
f 511//858 412//858 414//858
f 511//859 414//859 509//859
f 509//860 414//860 413//860
f 512//861 410//861 412//861
f 512//862 412//862 511//862
f 512//863 404//863 410//863
f 369//864 404//864 513//864
f 513//865 404//865 514//865
f 514//866 404//866 512//866
f 515//867 370//867 369//867
f 369//868 513//868 515//868
f 370//869 515//869 516//869
f 370//870 516//870 403//870
f 486//871 314//871 487//871
f 487//872 314//872 312//872
f 487//873 312//873 311//873
f 517//874 409//874 408//874
f 516//875 408//875 403//875
f 517//876 408//876 516//876
f 485//877 315//877 486//877
f 486//878 315//878 314//878
f 484//879 319//879 317//879
f 484//880 317//880 485//880
f 485//881 317//881 315//881
f 321//882 319//882 483//882
f 483//883 319//883 484//883
f 333//884 321//884 482//884
f 481//885 333//885 482//885
f 482//886 321//886 483//886
f 481//887 480//887 260//887
f 481//888 260//888 334//888
f 334//889 333//889 481//889
f 480//890 479//890 261//890
f 480//891 261//891 260//891
f 325//892 261//892 479//892
f 478//893 325//893 479//893
f 329//894 478//894 343//894
f 343//895 478//895 477//895
f 478//896 329//896 325//896
f 258//897 349//897 476//897
f 476//898 349//898 477//898
f 477//899 349//899 343//899
f 259//900 258//900 475//900
f 475//901 258//901 476//901
f 300//902 282//902 474//902
f 474//903 282//903 259//903
f 474//904 259//904 475//904
f 473//905 297//905 300//905
f 473//906 300//906 474//906
f 293//907 297//907 472//907
f 472//908 297//908 473//908
f 471//909 295//909 293//909
f 471//910 293//910 472//910
f 470//911 303//911 295//911
f 470//912 295//912 471//912
f 308//913 302//913 469//913
f 469//914 302//914 470//914
f 470//915 302//915 303//915
f 255//916 308//916 468//916
f 468//917 308//917 469//917
f 467//918 256//918 468//918
f 468//919 256//919 255//919
f 465//920 252//920 466//920
f 466//921 252//921 307//921
f 466//922 307//922 467//922
f 467//923 307//923 256//923
f 518//924 519//924 453//924
f 453//925 519//925 454//925
f 454//926 519//926 520//926
f 521//927 518//927 452//927
f 452//928 518//928 453//928
f 451//929 522//929 521//929
f 451//930 521//930 452//930
f 523//931 524//931 450//931
f 450//932 524//932 451//932
f 451//933 524//933 522//933
f 449//934 525//934 450//934
f 450//935 525//935 523//935
f 448//936 526//936 449//936
f 449//937 526//937 525//937
f 447//938 527//938 448//938
f 448//939 527//939 526//939
f 528//940 446//940 529//940
f 446//941 528//941 447//941
f 447//942 528//942 527//942
f 529//943 446//943 488//943
f 311//944 409//944 487//944
f 487//945 409//945 517//945
f 487//946 517//946 530//946
f 487//947 530//947 488//947
f 488//948 530//948 529//948
f 490//949 465//949 464//949
f 465//950 490//950 253//950
f 253//951 490//951 372//951
f 464//952 531//952 490//952
f 532//953 531//953 463//953
f 463//954 531//954 464//954
f 462//955 533//955 532//955
f 462//956 532//956 463//956
f 534//957 535//957 461//957
f 461//958 535//958 462//958
f 462//959 535//959 533//959
f 460//960 534//960 461//960
f 458//961 536//961 459//961
f 459//962 536//962 537//962
f 459//963 537//963 460//963
f 460//964 537//964 534//964
f 457//965 538//965 458//965
f 458//966 538//966 539//966
f 458//967 539//967 536//967
f 540//968 457//968 456//968
f 540//969 538//969 457//969
f 541//970 456//970 455//970
f 541//971 540//971 456//971
f 542//972 541//972 455//972
f 454//973 520//973 543//973
f 454//974 543//974 455//974
f 455//975 543//975 542//975
