mtllib ../materials.mtl
v -0.057869 0.059399 0.00316
v -0.057199 0.059403 0.008064
v -0.057906 0.059398 -0.000653
v 0.010933 0.059399 0.055926
v 0.008376 0.059398 0.057617
v 0.018765 0.059373 0.054772
v -0.022251 0.059399 0.05252
v -0.024491 0.059364 0.052354
v -0.014232 0.059399 0.055191
v -0.013846 0.059344 0.056355
v -0.029795 0.059399 0.048711
v 0.026848 0.059399 0.050365
v 0.032045 0.059377 0.047943
v 0.03403 0.059399 0.04591
v -0.042916 0.059446 0.037976
v -0.034439 0.059387 0.046115
v -0.036705 0.059399 0.043844
v 0.019094 0.059399 0.053728
v -0.00591 0.059399 0.056665
v -0.002989 0.059395 0.058348
v 0.001517 0.059399 0.056986
v 0.040487 0.059399 0.040456
v 0.042971 0.059407 0.038286
v 0.046276 0.059416 0.033893
v -0.014163 0.018072 -0.0465
v -0.024834 0.019279 -0.042903
v -0.024832 0.029393 -0.047571
v -0.032202 0.055194 0.049558
v -0.029742 0.051344 0.056198
v -0.024741 0.056591 0.053779
v -0.00675 0.05939 -0.058434
v 0.001818 0.059388 -0.058799
v -0.003197 0.049784 -0.05855
v -0.014974 0.059393 -0.056855
v -0.013923 0.049896 -0.056825
v -0.024713 0.050278 -0.053029
v -0.022979 0.059392 -0.054081
v -0.03054 0.059396 -0.050111
v -0.034592 0.050649 -0.047101
v -0.037337 0.059396 -0.045173
v -0.043348 0.059393 -0.039318
v -0.044941 0.048052 -0.037021
v -0.049934 0.049773 -0.029905
v -0.048519 0.059397 -0.032514
v -0.052584 0.059397 -0.025161
v -0.054608 0.050089 -0.019937
v -0.055566 0.059397 -0.017194
v -0.05742 0.051105 -0.008769
v -0.057338 0.059398 -0.008943
v 0.029814 0.056549 0.050578
v 0.038998 0.055566 0.043484
v 0.04661 0.052827 0.035604
v 0.056373 0.051681 -0.014295
v 0.056407 0.059398 -0.01399
v 0.057754 0.059398 -0.005286
v 0.053921 0.059398 -0.022006
v 0.052803 0.048115 -0.023998
v 0.050229 0.059394 -0.029738
v 0.048491 0.047639 -0.032022
v 0.041646 0.051246 -0.041096
v 0.045542 0.059397 -0.036672
v 0.03989 0.059397 -0.042887
v 0.033434 0.059395 -0.048198
v 0.030168 0.050554 -0.050101
v 0.026097 0.059394 -0.052611
v 0.019839 0.049798 -0.054998
v 0.018268 0.059394 -0.055866
v 0.008802 0.049681 -0.057858
v 0.010121 0.059396 -0.05793
v -0.018661 0.054612 0.062682
v -0.019541 0.054792 0.059963
v -0.026498 0.051271 0.062651
v -0.033651 0.046915 0.06268
v -0.034585 0.046965 0.058484
v -0.040185 0.041486 0.062678
v -0.050491 0.028129 0.062675
v -0.045925 0.035074 0.062679
v -0.051035 0.028299 0.054405
v -0.054053 0.020554 0.062676
v -0.057752 0.004 0.062675
v -0.057997 0.004183 0.038489
v -0.057741 -0.004429 0.062674
v -0.057495 -0.005657 0.044608
v -0.056538 -0.012697 0.06267
v -0.05565 -0.016749 0.062671
v -0.05273 -0.024166 0.055858
v -0.054063 -0.020917 0.062672
v -0.050496 -0.028521 0.062672
v -0.046895 -0.034119 0.055477
v -0.045899 -0.035495 0.06267
v -0.039158 -0.042681 0.054509
v -0.040263 -0.041812 0.06267
v -0.02998 -0.049532 0.054083
v -0.033682 -0.047295 0.06267
v -0.019731 -0.054329 0.053324
v -0.018723 -0.054993 0.062668
v -0.026478 -0.051685 0.062672
v -0.007874 -0.057396 0.054006
v -0.010531 -0.057131 0.06267
v -0.002156 -0.058063 0.062671
v -0.000023 -0.058036 0.055934
v 0.006332 -0.057748 0.062672
v 0.008546 -0.057213 0.05359
v 0.014598 -0.056231 0.062668
v 0.019588 -0.054416 0.053496
v 0.022622 -0.053493 0.062671
v 0.030113 -0.04966 0.062667
v 0.029565 -0.049722 0.053753
v 0.038623 -0.04315 0.054414
v 0.03704 -0.044697 0.062672
v 0.043102 -0.038861 0.062671
v 0.046477 -0.034676 0.055298
v 0.048271 -0.032167 0.062672
v 0.052441 -0.023952 0.049061
v 0.052416 -0.024809 0.06267
v 0.055401 -0.016354 0.050508
v 0.057708 -0.007703 0.062674
v 0.055442 -0.016876 0.062673
v 0.0579 -0.000162 0.06267
v 0.057452 -0.005419 0.043239
v 0.05544 0.016479 0.062674
v 0.057294 0.008217 0.06267
v 0.054716 0.020095 0.054185
v 0.052414 0.024403 0.062678
v 0.048366 0.031632 0.062665
v 0.042778 0.039475 0.058624
v 0.04309 0.038473 0.062679
v 0.030195 0.049202 0.06268
v 0.034398 0.047055 0.05869
v 0.02477 0.052618 0.059834
v 0.02265 0.05308 0.062677
v 0.014537 0.055854 0.062674
v 0.014107 0.056313 0.060459
v 0.0055 0.057755 0.060157
v 0.00633 0.057348 0.062673
v -0.010561 0.056724 0.062646
v -0.002139 0.05766 0.062676
v -0.005593 0.057735 0.060178
v 0.000023 0.057989 0.060261
v 0.052513 0.005058 0.00058
v 0.056345 0.006607 0.013547
v 0.052512 -0.006813 0.014354
v 0.046677 -0.001388 -0.0062
v 0.046673 -0.014586 0.00912
v 0.039047 -0.006929 -0.012093
v 0.039041 -0.021278 0.004559
v 0.029911 -0.011384 -0.016844
v 0.029904 -0.026663 0.000885
v 0.019614 -0.014591 -0.020257
v 0.019606 -0.030536 -0.001751
v 0.00866 -0.025333 -0.01253
v 0.057446 0.01945 0.031739
v 0.054716 0.027644 0.038804
v 0.056872 0.013621 0.048383
v 0.057997 0.009009 0.02796
v 0.054684 -0.011424 0.031242
v 0.049826 -0.020743 0.027546
v 0.044874 -0.027006 0.025038
v 0.039036 -0.03261 0.022691
v 0.029898 -0.038726 0.020182
v 0.019599 -0.043126 0.018386
v 0.008547 -0.039873 0.007255
v -0.002999 -0.038495 0.004272
v -0.003004 -0.044663 0.014609
v 0.008561 -0.050641 0.028229
v 0.031892 0.051575 0.053397
v 0.038734 0.045178 0.054223
v 0.038967 0.049469 0.048018
v 0.051051 0.031054 0.048238
v 0.046667 -0.031978 0.042887
v 0.039033 -0.040185 0.041243
v 0.029893 -0.04679 0.039919
v 0.019577 -0.049605 0.033483
v -0.003037 -0.056584 0.045943
v 0.008587 -0.055398 0.043354
v 0.019574 -0.052647 0.043611
v 0.046512 0.037585 0.050928
v -0.003022 -0.053806 0.035588
v -0.003327 -0.028004 -0.010191
v -0.01413 -0.031311 -0.00338
v -0.014127 -0.044224 0.017013
v -0.024873 -0.028879 -0.000465
v -0.024882 -0.041206 0.019304
v -0.034637 -0.024271 0.002763
v -0.034643 -0.035953 0.021528
v -0.041073 -0.019809 0.005856
v -0.043065 -0.029104 0.024434
v -0.046674 -0.014801 0.009415
v -0.04983 -0.020932 0.027931
v -0.052512 -0.007171 0.014842
v -0.054685 -0.011783 0.031953
v -0.056344 0.005869 0.014408
v -0.057941 0.016017 0.017587
v -0.056324 0.026718 0.031702
v -0.057704 0.012764 0.035781
v -0.056322 0.016388 0.048751
v -0.053529 0.032555 0.037027
v -0.053541 0.024121 0.051039
v -0.050934 0.038259 0.038153
v -0.04663 0.040966 0.045459
v -0.048142 0.0336 0.053947
v -0.042974 0.039928 0.055891
v -0.038961 0.047251 0.050596
v -0.01946 0.056352 0.057023
v 0.025007 0.054374 0.056001
v -0.011302 0.05738 0.059249
v -0.054686 -0.017528 0.046388
v -0.049833 -0.027467 0.044174
v -0.043072 -0.036321 0.042279
v -0.034656 -0.043738 0.040713
v -0.024898 -0.049429 0.039516
v -0.014104 -0.051074 0.032756
v -0.003011 -0.049799 0.025095
v -0.014108 -0.054205 0.043072
v 0.046617 0.044167 0.041878
v 0.051071 0.03961 0.036743
v -0.056483 0.012574 0.062678
v -0.038777 0.053374 0.044955
v -0.046563 0.053481 0.035453
v -0.046596 0.04677 0.039709
v -0.048022 0.059426 0.031429
v -0.051101 0.051736 0.028402
v -0.052275 0.059402 0.024008
v -0.039007 0.04148 -0.04166
v -0.029863 0.040201 -0.048321
v -0.016931 0.039378 -0.054155
v -0.054713 0.044212 0.02327
v -0.055323 0.059398 0.016147
v -0.057437 0.039886 0.013434
v -0.057446 0.032217 -0.001409
v -0.054684 0.034938 -0.01471
v -0.049828 0.031776 -0.024403
v -0.043062 0.028903 -0.032989
v -0.034638 0.026487 -0.040173
v -0.054684 0.020837 -0.006316
v -0.049828 0.015907 -0.015025
v -0.043059 0.011458 -0.022719
v -0.034633 0.007723 -0.029151
v -0.024866 0.004859 -0.034083
v -0.014154 0.003279 -0.037527
v -0.014182 0.028507 -0.051282
v -0.00266 0.012147 -0.045184
v -0.002674 0.001989 -0.038537
v -0.014254 -0.015298 -0.021754
v -0.024868 -0.013253 -0.018638
v -0.034633 -0.009455 -0.014487
v -0.041067 -0.005773 -0.010506
v -0.046672 -0.001651 -0.005944
v -0.052511 0.004627 0.001006
v -0.002642 0.022645 -0.050696
v 0.05072 0.059406 0.027002
v 0.051053 0.050475 0.028942
v 0.054263 0.059407 0.019302
v 0.054675 0.05173 0.020158
v 0.05661 0.059397 0.011213
v 0.057981 0.04891 -0.00267
v 0.039004 0.041569 -0.041686
v 0.029859 0.040252 -0.048337
v 0.019566 0.039308 -0.053112
v 0.008542 0.038564 -0.055764
v -0.000378 0.041013 -0.056985
v -0.00262 0.033377 -0.054929
v 0.057438 0.039676 0.013553
v 0.057774 0.059401 0.002961
v 0.057477 0.033129 -0.001823
v 0.054688 0.035592 -0.014999
v 0.049838 0.032146 -0.024554
v 0.044928 0.02987 -0.030964
v 0.039068 0.027847 -0.036845
v 0.02994 0.025639 -0.043197
v 0.019567 0.028815 -0.049664
v 0.008537 0.027782 -0.052193
v 0.022292 0.057325 0.054438
v 0.054659 0.040483 0.025948
v 0.019568 0.018511 -0.044914
v 0.008531 0.017198 -0.047282
v 0.054687 0.021491 -0.006778
v 0.049834 0.016267 -0.015272
v 0.044904 0.012787 -0.020992
v 0.039055 0.009695 -0.026234
v 0.029923 0.006316 -0.0319
v 0.019626 0.003881 -0.035975
v 0.008526 0.006914 -0.041176
v -0.002685 -0.007728 -0.030896
v 0.014116 0.057663 0.057845
v 0.008539 -0.007969 -0.030042
v -0.002692 -0.016899 -0.022407
v 0.037024 0.044309 0.062676
v 0.057276 -0.00863 0.062674
v -0.018049 0.056657 0.529439
v -0.024361 0.056648 0.532809
v -0.018054 0.056664 0.611789
v -0.010797 0.05665 0.614274
v -0.003664 0.056654 0.615433
v -0.003523 0.056662 0.525789
v 0.003708 0.056657 0.615424
v 0.011023 0.056657 0.614205
v 0.017885 0.056652 0.611876
v -0.010923 0.056651 0.526992
v 0.030383 0.05666 0.537477
v 0.024342 0.056649 0.532798
v 0.030338 0.056662 0.6038
v 0.01785 0.05665 0.529338
v 0.011035 0.056657 0.527032
v 0.024417 0.056651 0.608382
v 0.003715 0.056658 0.525813
v -0.03945 0.056659 0.592177
v -0.03544 0.056657 0.598291
v -0.042495 0.05666 0.55592
v -0.030272 0.056655 0.53737
v -0.035446 0.056659 0.542954
v -0.024536 0.056653 0.608299
v -0.030334 0.056654 0.60381
v 0.035447 0.056654 0.598283
v 0.039492 0.056656 0.592118
v 0.035445 0.056654 0.542947
v 0.039487 0.056657 0.549111
v -0.039494 0.056656 0.549127
v -0.044337 0.056651 0.563116
v -0.044973 0.05665 0.570581
v 0.042494 0.056653 0.585327
v 0.044339 0.056655 0.578101
v 0.042496 0.056657 0.555932
v 0.044974 0.056649 0.570607
v 0.044343 0.056651 0.563147
v -0.044341 0.056654 0.578086
v -0.042516 0.056654 0.585257
v -0.015343 0.056499 0.52847
v 0.007789 0.056499 0.614783
v -0.015343 0.056499 0.612764
v 0.044591 -0.032296 0.564493
v 0.044248 -0.017358 0.562512
v 0.044999 -0.029835 0.570617
v 0.044878 -0.013875 0.567062
v 0.044994 0.005895 0.570198
v 0.044771 0.012627 0.565444
v 0.042284 -0.036027 0.555223
v 0.041918 -0.022968 0.554206
v 0.043756 -0.034061 0.56011
v 0.042745 -0.020831 0.556461
v 0.039569 -0.02699 0.549206
v 0.040165 -0.037997 0.550325
v 0.037631 -0.039754 0.545966
v 0.040721 -0.025186 0.551629
v 0.034786 -0.041315 0.542078
v 0.034454 -0.032647 0.541678
v 0.037048 -0.029925 0.545062
v 0.03173 -0.034904 0.538708
v 0.031542 -0.042745 0.538523
v 0.027624 -0.038014 0.535104
v 0.027629 -0.044121 0.535106
v 0.014702 -0.046942 0.528084
v 0.015101 -0.044093 0.528225
v 0.019003 -0.04261 0.529822
v 0.019285 -0.046186 0.529995
v 0.023665 -0.040315 0.532326
v 0.023608 -0.045244 0.532309
v 0.010866 -0.0453 0.526945
v 0.005318 -0.047808 0.525931
v 0.006529 -0.046242 0.526089
v 0.009965 -0.047485 0.526747
v -0.000775 -0.046628 0.525634
v 0.000276 -0.047939 0.525617
v -0.004928 -0.047827 0.525891
v -0.005086 -0.046209 0.525904
v -0.009896 -0.047492 0.52673
v 0.002517 -0.046572 0.525683
v -0.014844 -0.046922 0.528139
v -0.014687 -0.044243 0.528083
v -0.011001 -0.045366 0.52698
v -0.007597 -0.045979 0.526304
v -0.028043 -0.04399 0.535427
v -0.02793 -0.037804 0.535343
v -0.023981 -0.040099 0.532525
v -0.023968 -0.045155 0.532529
v -0.019254 -0.042482 0.529941
v -0.01952 -0.046144 0.530069
v -0.035134 -0.031994 0.5425
v -0.03187 -0.034849 0.538845
v -0.035066 -0.041179 0.542415
v -0.031819 -0.042634 0.538798
v -0.038073 -0.039484 0.54663
v -0.038282 -0.0285 0.54697
v -0.040585 -0.025187 0.55118
v -0.042383 -0.035913 0.555507
v -0.042513 -0.022104 0.555868
v -0.040429 -0.037783 0.550858
v -0.043888 -0.033756 0.560876
v -0.043934 -0.018819 0.560988
v -0.044827 0.012477 0.566176
v -0.04408 0.017359 0.561565
v -0.044994 0.005738 0.56995
v -0.044995 -0.006502 0.569929
v -0.044966 -0.000141 0.56464
v -0.044798 -0.010503 0.565498
v -0.044999 -0.029835 0.570617
v -0.04471 -0.031798 0.565739
v -0.040824 0.024376 0.551625
v -0.0385 0.027943 0.547346
v -0.042695 0.020965 0.556345
v -0.03544 0.03128 0.542877
v -0.020575 0.041476 0.530598
v -0.024317 0.039585 0.532755
v -0.02839 0.037117 0.535715
v -0.032061 0.034241 0.539026
v -0.016558 0.043129 0.528753
v -0.012987 0.044278 0.527527
v -0.007904 0.04546 0.526304
v -0.010172 0.045068 0.526818
v 0.000067 0.046177 0.5256
v -0.004907 0.045812 0.525872
v 0.003678 0.046141 0.525766
v 0.007685 0.045587 0.526277
v 0.012709 0.044372 0.527452
v 0.010087 0.045056 0.526782
v 0.024286 0.039613 0.532729
v 0.020138 0.041629 0.530375
v 0.016434 0.043179 0.528713
v 0.028198 0.037214 0.535554
v 0.034886 0.031823 0.542193
v 0.031741 0.03458 0.538714
v 0.037735 0.028817 0.546095
v 0.042375 0.022028 0.5555
v 0.040177 0.025605 0.550331
v 0.043858 0.017411 0.560425
v -0.01473 -0.012732 0.613137
v -0.009889 -0.01218 0.614488
v -0.019178 -0.013461 0.611345
v -0.027647 -0.015558 0.606104
v -0.023614 -0.014428 0.608923
v -0.031542 -0.016926 0.602711
v -0.037668 -0.019933 0.595235
v -0.034826 -0.018373 0.599115
v -0.042329 -0.023682 0.585919
v -0.040164 -0.021673 0.590909
v -0.043755 -0.025609 0.581125
v -0.044693 -0.027728 0.575857
v 0.044685 -0.027701 0.575925
v 0.044003 -0.026095 0.579916
v 0.04012 -0.021653 0.590962
v 0.038075 -0.020188 0.594602
v 0.042399 -0.023772 0.585693
v 0.035066 -0.018492 0.59882
v 0.028058 -0.015687 0.605783
v 0.031819 -0.017037 0.602436
v 0.019455 -0.013518 0.611152
v 0.014842 -0.012748 0.613093
v 0.023971 -0.014517 0.608703
v 0.009899 -0.012179 0.614514
v -0.005309 -0.011862 0.615283
v -0.000329 -0.011732 0.615621
v 0.004906 -0.011844 0.615336
v -0.038403 -0.023408 0.540988
v -0.038438 -0.02405 0.543721
v -0.040816 -0.018983 0.545209
v 0.040665 -0.021293 0.549098
v 0.038265 -0.023698 0.541611
v 0.035531 -0.028147 0.540094
v 0.035508 -0.02759 0.537989
v 0.032186 -0.03142 0.53536
v -0.044998 -0.000163 0.517718
v -0.044762 -0.004925 0.517718
v 0.044933 -0.000599 0.567637
v 0.044786 -0.007759 0.562774
v 0.044808 -0.00442 0.556815
v 0.044984 -0.000194 0.562735
v 0.044996 -0.000187 0.517718
v 0.014607 -0.042676 0.525511
v 0.017909 -0.041706 0.517717
v 0.019767 -0.040463 0.527187
v 0.024165 -0.038312 0.517718
v 0.01 -0.04402 0.524709
v 0.010203 -0.044133 0.517718
v 0.005037 -0.044901 0.524209
v 0.000031 -0.045219 0.524327
v -0.002621 -0.045229 0.517717
v 0.004802 -0.044973 0.517718
v -0.005061 -0.044905 0.52438
v -0.012255 -0.043677 0.517718
v -0.010056 -0.044013 0.525001
v -0.014989 -0.042527 0.52608
v -0.01967 -0.04084 0.517718
v 0.005098 -0.045679 0.525657
v 0.007663 -0.045339 0.526026
v 0.012585 -0.044255 0.527155
v 0.014931 -0.043249 0.52771
v 0.002538 -0.045819 0.525372
v 0.009992 -0.044356 0.526022
v 0.007503 -0.044643 0.525121
v 0.005068 -0.045092 0.524956
v 0.002582 -0.045193 0.524525
v 0.000001 -0.045871 0.525284
v 0.012434 -0.04355 0.526306
v 0.016213 -0.042246 0.527267
v 0.019811 -0.041208 0.529616
v 0.024198 -0.038966 0.532059
v 0.028341 -0.036179 0.534913
v 0.035311 -0.029744 0.54163
v 0.032121 -0.032499 0.537641
v 0.037914 -0.025921 0.544514
v 0.0427 -0.016476 0.553464
v 0.019728 -0.040628 0.528521
v 0.024218 -0.038012 0.530509
v 0.02841 -0.034924 0.532934
v 0.040112 -0.02055 0.544387
v 0.04114 -0.01835 0.545324
v 0.042682 -0.014372 0.548694
v 0.044031 -0.012314 0.55829
v 0.044048 -0.009383 0.552786
v 0.044749 -0.004937 0.517718
v 0.044001 -0.009671 0.517718
v 0.042613 -0.014744 0.517718
v 0.040725 -0.019417 0.517718
v 0.038328 -0.02386 0.517718
v 0.035342 -0.028172 0.517718
v 0.031999 -0.031962 0.517718
v 0.028299 -0.035324 0.517718
v -0.038408 -0.026286 0.546154
v -0.044793 -0.004519 0.556592
v -0.044031 -0.012314 0.55829
v -0.042692 -0.016801 0.553773
v -0.044036 -0.009448 0.552797
v -0.042698 -0.014305 0.548952
v -0.015794 -0.043113 0.52811
v -0.019761 -0.041048 0.529413
v -0.035505 -0.030154 0.542267
v -0.035502 -0.028291 0.540354
v -0.032121 -0.032984 0.538153
v -0.028341 -0.036171 0.534906
v -0.02826 -0.035048 0.532838
v -0.024198 -0.038658 0.531735
v -0.024166 -0.038002 0.53019
v -0.019641 -0.040531 0.527671
v -0.035498 -0.027574 0.537665
v -0.040797 -0.021025 0.549259
v -0.03206 -0.031534 0.535469
v -0.015119 -0.042708 0.527112
v -0.017336 -0.041767 0.527668
v -0.01014 -0.044247 0.525891
v -0.011341 -0.044558 0.526775
v -0.012528 -0.043552 0.52632
v -0.005106 -0.045149 0.525117
v -0.007588 -0.044659 0.525137
v -0.007621 -0.045089 0.525802
v -0.0243 -0.038216 0.517718
v -0.02838 -0.035249 0.517718
v -0.002484 -0.046196 0.52557
v -0.002544 -0.045359 0.52487
v -0.043979 -0.0098 0.517718
v -0.042655 -0.014592 0.517719
v -0.040766 -0.019317 0.517718
v -0.038277 -0.023938 0.517718
v -0.03545 -0.028019 0.517718
v -0.032148 -0.031808 0.517718
v -0.01622 0.041844 0.527274
v -0.019761 0.04022 0.52856
v -0.019811 0.040807 0.529616
v -0.040797 0.020833 0.549481
v -0.015181 0.042298 0.517718
v -0.01953 0.04049 0.517718
v -0.019781 0.040052 0.527167
v -0.024225 0.037859 0.517718
v -0.010076 0.043606 0.524999
v -0.010203 0.043732 0.517718
v -0.005062 0.044503 0.524377
v 0.000074 0.044807 0.524173
v 0.002621 0.044829 0.517717
v -0.004802 0.044572 0.517718
v 0.004982 0.044535 0.524578
v 0.012255 0.043276 0.517718
v 0.009975 0.043627 0.524637
v 0.014774 0.042211 0.525686
v 0.019558 0.040501 0.517718
v 0.019709 0.040085 0.527669
v 0.024396 0.037761 0.517718
v 0.044762 0.004524 0.517718
v 0.044782 0.004653 0.559812
v -0.044783 0.004525 0.559582
v -0.000028 0.045611 0.52538
v 0.002595 0.045304 0.525285
v -0 0.045079 0.52484
v 0.002507 0.044779 0.524444
v 0.005038 0.045237 0.525617
v 0.007561 0.044676 0.525815
v 0.011114 0.043485 0.525774
v 0.011404 0.043747 0.526451
v 0.017369 0.041349 0.527674
v 0.015117 0.042303 0.527101
v 0.019761 0.040647 0.529413
v 0.015104 0.042968 0.527895
v 0.024178 0.0384 0.531906
v 0.028341 0.03577 0.534906
v 0.032121 0.032583 0.538153
v 0.035359 0.029209 0.541607
v 0.007651 0.044158 0.524852
v 0.038039 0.025278 0.544664
v 0.042706 0.01743 0.554624
v 0.040667 0.020998 0.549217
v 0.038196 0.023401 0.541539
v 0.035523 0.027939 0.540372
v 0.03542 0.02733 0.538378
v 0.032048 0.031189 0.535586
v 0.024175 0.037589 0.530172
v 0.028261 0.034643 0.532828
v 0.042624 0.014054 0.546157
v 0.041267 0.017922 0.546784
v 0.042681 0.014728 0.551312
v 0.040376 0.019544 0.544068
v 0.044026 0.009088 0.552635
v 0.04403 0.011709 0.558071
v -0.03841 0.025989 0.546242
v -0.038384 0.023814 0.543827
v -0.042691 0.016278 0.553639
v -0.044037 0.013073 0.559215
v -0.04401 0.009262 0.553875
v -0.042701 0.013884 0.548843
v -0.03842 0.022993 0.541121
v -0.040847 0.018522 0.545407
v -0.035522 0.027215 0.538733
v -0.035474 0.029093 0.541772
v -0.032121 0.032098 0.537641
v -0.028341 0.035778 0.534913
v -0.024198 0.038565 0.532059
v -0.028411 0.034476 0.532803
v -0.032189 0.031017 0.535365
v -0.024225 0.037605 0.53051
v -0.01128 0.043492 0.525909
v -0.012593 0.043423 0.526794
v -0.01492 0.042857 0.527713
v -0.008849 0.044487 0.526019
v -0.014935 0.042156 0.526088
v -0.007497 0.044269 0.525113
v -0.005029 0.044756 0.525108
v -0.002578 0.045507 0.525437
v -0.002484 0.044847 0.524606
v -0.038342 0.023434 0.517718
v -0.040725 0.019017 0.517718
v -0.042613 0.014344 0.517718
v -0.044001 0.00927 0.517718
v -0.044762 0.00445 0.517718
v -0.031994 0.031556 0.517718
v -0.035413 0.027671 0.517718
v 0.043979 0.009399 0.517718
v 0.042655 0.014191 0.517719
v 0.040766 0.018916 0.517718
v 0.038281 0.023531 0.517718
v 0.035456 0.027608 0.517718
v 0.032151 0.031402 0.517718
v 0.028392 0.03485 0.517718
v -0.028305 0.034922 0.517718
v -0.028345 0.03358 0.517718
v -0.03378 0.028145 0.517718
v -0.015082 0.041237 0.517718
v -0.022049 0.037989 0.517718
v -0.038189 -0.022249 0.517718
v -0.041438 -0.015283 0.517718
v -0.022048 -0.03839 0.517718
v -0.028345 -0.033981 0.517718
v -0.03378 -0.028545 0.517718
v -0.007657 0.043227 0.517718
v -0.038189 0.021848 0.517718
v -0.043427 -0.007858 0.517718
v -0.044097 -0.0002 0.517718
v -0.043427 0.007457 0.517718
v -0.015082 -0.041638 0.517718
v 0.015082 -0.041638 0.517718
v 0.022049 -0.03839 0.517718
v 0.03378 -0.028545 0.517718
v 0.028345 -0.033981 0.517718
v 0.041438 -0.015282 0.517718
v 0.038189 -0.022249 0.517718
v -0.041438 0.014882 0.517718
v 0.007657 -0.043628 0.517718
v 0 -0.044297 0.517718
v -0 0.043897 0.517718
v -0.007657 -0.043628 0.517718
v 0.043427 -0.007858 0.517718
v 0.043427 0.007457 0.517718
v 0.044097 -0.0002 0.517718
v 0.007657 0.043227 0.517718
v 0.041438 0.014882 0.517718
v 0.038189 0.021848 0.517718
v 0.022048 0.037989 0.517718
v 0.028345 0.03358 0.517718
v 0.03378 0.028145 0.517718
v 0.015082 0.041237 0.517718
vn -0.000004 0.001 -0
vn 0.000004 0.001 0.000007
vn -0.00002 0.000998 0.00006
vn -0.000018 0.000998 0.000053
vn -0.000018 0.000999 0.000036
vn 0.000017 0.000999 0.000027
vn 0.000045 0.000998 -0.000039
vn -0.000013 0.001 0.000018
vn -0.000043 0.000996 0.000072
vn 0.000012 0.001 0.000028
vn 0.000047 0.000995 0.000093
vn 0.000007 0.001 0.000027
vn -0 0.001 0.000003
vn -0 0.001 0.000003
vn -0.000009 0.000999 0.00005
vn -0.000008 0.001 0.000016
vn -0.000005 0.001 -0.000001
vn 0.000052 0.000997 0.000062
vn -0.000055 0.000997 -0.00006
vn 0 0.001 0.000001
vn -0.000333 -0.000395 -0.000856
vn -0.00045 0.00069 0.000567
vn -0.000042 -0.000004 -0.000999
vn -0.000188 -0.000058 -0.00098
vn -0.000159 -0.000021 -0.000987
vn -0.000333 -0.000045 -0.000942
vn -0.000327 -0.000039 -0.000944
vn -0.000465 -0.000014 -0.000885
vn -0.000588 -0.000006 -0.000809
vn -0.000696 -0.000061 -0.000715
vn -0.000691 -0.000049 -0.000722
vn -0.000819 -0.000001 -0.000574
vn -0.000795 -0.000047 -0.000604
vn -0.000875 -0.000002 -0.000484
vn -0.000905 -0.000041 -0.000423
vn -0.000937 0.000007 -0.000351
vn -0.00097 -0.000029 -0.000242
vn -0.000978 0.000005 -0.00021
vn -0.000998 0.000008 -0.000068
vn -0.000312 0.000456 0.000833
vn 0.000414 0.000424 0.000805
vn 0.000628 0.000313 0.000712
vn 0.000736 0.000137 0.000663
vn 0.000988 0.000002 -0.000153
vn 0.000955 0.000008 -0.000296
vn 0.000942 -0.000034 -0.000334
vn 0.000902 -0.000013 -0.000431
vn 0.000881 -0.000039 -0.000471
vn 0.000798 -0.000001 -0.000602
vn 0.000825 -0.000092 -0.000558
vn 0.00074 0.000012 -0.000673
vn 0.000635 -0.000033 -0.000772
vn 0.000618 -0.00006 -0.000784
vn 0.000515 -0.000006 -0.000857
vn 0.000431 -0.000057 -0.000901
vn 0.000384 -0.000021 -0.000923
vn 0.000251 -0.000046 -0.000967
vn 0.000245 -0.000041 -0.000969
vn -0.000386 0.000904 0.000185
vn -0.000516 0.000848 0.000125
vn -0.000632 0.00076 0.00015
vn -0.000834 0.000548 0.000066
vn -0.000903 0.000425 0.000068
vn -0.001 -0.000001 0.00001
vn -0.000998 -0.000057 -0.00001
vn -0.00099 -0.000144 -0.000004
vn -0.000934 -0.000356 -0.000013
vn -0.000905 -0.000424 0.000025
vn -0.000863 -0.000504 -0.000039
vn -0.000835 -0.00055 0.00001
vn -0.000743 -0.000668 -0.000029
vn -0.000746 -0.000666 -0.000024
vn -0.000599 -0.000799 -0.00005
vn -0.00064 -0.000768 -0.000005
vn -0.000425 -0.000905 -0.000018
vn -0.000391 -0.000917 -0.00007
vn -0.00052 -0.000854 -0.000002
vn -0.000252 -0.000966 -0.000048
vn -0.000248 -0.000968 -0.000042
vn 0.000037 -0.000999 0.000008
vn 0.000085 -0.000996 -0.000038
vn 0.000181 -0.000983 -0.000014
vn 0.000245 -0.000968 -0.000058
vn 0.000323 -0.000946 -0.000012
vn 0.000455 -0.000889 -0.000061
vn 0.000426 -0.000904 -0.00002
vn 0.000588 -0.000808 -0.000031
vn 0.000582 -0.000812 -0.000041
vn 0.000694 -0.00072 -0.000002
vn 0.000735 -0.000676 -0.000047
vn 0.000791 -0.000611 0.000015
vn 0.000866 -0.000499 -0.00003
vn 0.00087 -0.00049 -0.000045
vn 0.000933 -0.000359 -0.000021
vn 0.000971 -0.00024 -0.000014
vn 0.000934 -0.000356 -0.000018
vn 0.001 -0.000026 -0.000016
vn 0.000976 0.000219 0.00001
vn 0.000932 0.000356 0.000072
vn 0.000872 0.000489 -0.000011
vn 0.000789 0.000608 0.00009
vn 0.000505 0.00086 0.000069
vn 0.000449 0.000873 0.000193
vn 0.000322 0.000943 0.000087
vn 0.000331 0.000935 0.00013
vn 0.000178 0.000979 0.0001
vn -0.000109 0.000977 0.00018
vn -0.000047 0.000994 0.000094
vn 0.000045 0.000984 0.000175
vn 0.000037 0.000988 0.000148
vn 0.000929 -0.00028 -0.000241
vn 0.000847 -0.000402 -0.000347
vn 0.000847 -0.000403 -0.000347
vn 0.000726 -0.000521 -0.000449
vn 0.000726 -0.000521 -0.000449
vn 0.000578 -0.000618 -0.000532
vn 0.000578 -0.000618 -0.000532
vn 0.000412 -0.00069 -0.000595
vn 0.000412 -0.00069 -0.000595
vn 0.000272 -0.000729 -0.000628
vn 0.000968 0.000226 0.000112
vn 0.000987 -0.000133 -0.000091
vn 0.000971 -0.000207 -0.00012
vn 0.000939 -0.00028 -0.000197
vn 0.000898 -0.000381 -0.00022
vn 0.000849 -0.000441 -0.000292
vn 0.000802 -0.000511 -0.000308
vn 0.000728 -0.000578 -0.000369
vn 0.000717 -0.000592 -0.00037
vn 0.00058 -0.000691 -0.000431
vn 0.000581 -0.00069 -0.000431
vn 0.000414 -0.000772 -0.000482
vn 0.000414 -0.000772 -0.000482
vn 0.000273 -0.000816 -0.00051
vn 0.00003 -0.000858 -0.000512
vn 0.000968 0.000224 0.00011
vn 0.000194 -0.000873 -0.000448
vn 0.000078 -0.000887 -0.000455
vn 0.000566 0.000668 0.000483
vn 0.000892 0.000406 0.000199
vn 0.00038 0.000869 0.000317
vn 0.000999 0.000045 0.000021
vn 0.000964 -0.000247 -0.000099
vn 0.000932 -0.00034 -0.000122
vn 0.0009 -0.000402 -0.000169
vn 0.000858 -0.000482 -0.000176
vn 0.000806 -0.000544 -0.000233
vn 0.000721 -0.000645 -0.000252
vn 0.000733 -0.00063 -0.000257
vn 0.000586 -0.00075 -0.000306
vn 0.000586 -0.00075 -0.000306
vn 0.000419 -0.000841 -0.000343
vn 0.000445 -0.000823 -0.000353
vn 0.000265 -0.000886 -0.00038
vn 0.000051 -0.000986 -0.000159
vn 0.000062 -0.000983 -0.000174
vn 0.000241 -0.000956 -0.000169
vn 0.000243 -0.000955 -0.000171
vn 0.000424 -0.000892 -0.00016
vn 0.000437 -0.000882 -0.000177
vn 0.000588 -0.000794 -0.000154
vn 0.000593 -0.000789 -0.000159
vn 0.000734 -0.000667 -0.000127
vn 0.000739 -0.000661 -0.000132
vn 0.000843 -0.000528 -0.000102
vn 0.000977 -0.000208 -0.000037
vn 0.000999 -0.000048 -0.00001
vn 0.000997 0.000072 0.000022
vn 0.000963 0.000259 0.000069
vn 0.000726 0.000661 0.00019
vn 0.000744 0.000636 0.000205
vn 0.000839 0.000527 0.000135
vn 0.000909 0.000387 0.000154
vn 0.000403 -0.000876 -0.000263
vn 0.000222 -0.000934 -0.00028
vn 0.000239 -0.000926 -0.000292
vn 0.00007 -0.000952 -0.000299
vn 0.000041 -0.000965 -0.000259
vn -0.00012 -0.000805 -0.000581
vn -0.000175 -0.000832 -0.000527
vn -0.000319 -0.000801 -0.000507
vn -0.000331 -0.000801 -0.000499
vn -0.000499 -0.000735 -0.000459
vn -0.0005 -0.000735 -0.000458
vn -0.000644 -0.000649 -0.000404
vn -0.000658 -0.000643 -0.000392
vn -0.000739 -0.000568 -0.000363
vn -0.000793 -0.000525 -0.000309
vn -0.000848 -0.000442 -0.000291
vn -0.000899 -0.000381 -0.000217
vn -0.000939 -0.000283 -0.000195
vn -0.000972 -0.000206 -0.000116
vn -0.000988 -0.000128 -0.000087
vn -0.000996 -0.000081 -0.000049
vn -0.00099 0.000119 0.000072
vn -0.000941 0.00029 0.000176
vn -0.000942 0.000288 0.000172
vn -0.000903 0.000368 0.000221
vn -0.000904 0.000366 0.000219
vn -0.000817 0.000494 0.000298
vn -0.000836 0.000479 0.000267
vn -0.000779 0.000536 0.000326
vn -0.000719 0.000621 0.000314
vn -0.00066 0.000643 0.000389
vn -0.000543 0.000772 0.000329
vn -0.000425 0.000804 0.000415
vn 0.00032 0.000854 0.000411
vn -0.000272 0.000932 0.000239
vn -0.000094 0.000973 0.000209
vn -0.000379 0.000903 0.000201
vn -0.000562 0.000774 0.000291
vn -0.000965 -0.000243 -0.000097
vn -0.000901 -0.000404 -0.000161
vn -0.000899 -0.000405 -0.000163
vn -0.000797 -0.00056 -0.000226
vn -0.000796 -0.000561 -0.000227
vn -0.000663 -0.000694 -0.000281
vn -0.000662 -0.000694 -0.000282
vn -0.000506 -0.000799 -0.000325
vn -0.000505 -0.0008 -0.000326
vn -0.000353 -0.000867 -0.000353
vn -0.000324 -0.000868 -0.000377
vn -0.000168 -0.000904 -0.000393
vn -0.000138 -0.000925 -0.000353
vn -0.00016 -0.000945 -0.000287
vn -0.000311 -0.000909 -0.000276
vn -0.000249 0.000958 0.000144
vn 0.000157 0.000973 0.000171
vn -0.000111 -0.000994 -0.000003
vn -0.000074 -0.000997 -0.000028
vn -0.000049 -0.00099 -0.000129
vn 0.000719 0.000559 0.000413
vn 0.00072 0.000558 0.000414
vn 0.000834 0.000442 0.000331
vn 0.000833 0.000443 0.000331
vn 0.000916 0.00032 0.00024
vn 0.000195 -0.000791 -0.00058
vn 0.000064 -0.000804 -0.000591
vn 0.000055 -0.000808 -0.000587
vn -0.000143 -0.00085 -0.000507
vn -0.000129 -0.00089 -0.000436
vn 0.000054 -0.000897 -0.000439
vn 0.000029 -0.000934 -0.000357
vn -0.000139 -0.000956 -0.000257
vn -0.000158 -0.000968 -0.000192
vn -0.00024 -0.00096 -0.000143
vn -0.000341 -0.000919 -0.000198
vn -0.000428 -0.00089 -0.000156
vn -0.000512 -0.000839 -0.000184
vn -0.000597 -0.000791 -0.000134
vn -0.000669 -0.000725 -0.000163
vn -0.000744 -0.00066 -0.000105
vn -0.000801 -0.000583 -0.000135
vn -0.000862 -0.000502 -0.000072
vn -0.000903 -0.000417 -0.000106
vn -0.000942 -0.000334 -0.00004
vn -0.00097 -0.000237 -0.000046
vn -0.000976 -0.000214 -0.000032
vn -0.000999 0.000037 0.00001
vn -0.000983 0.000176 0.000056
vn -0.000989 0.000146 0.000029
vn -0.000945 0.000317 0.000076
vn -0.000956 0.000291 0.000047
vn -0.000887 0.000452 0.000099
vn -0.000864 0.000484 0.000138
vn -0.000785 0.000612 0.000096
vn -0.000736 0.000659 0.000151
vn -0.000657 0.000747 0.000099
vn -0.000757 0.0002 0.000622
vn -0.000326 0.000742 0.000585
vn -0.000504 0.00043 0.000749
vn -0.00049 0.000382 0.000783
vn -0.000854 0.000368 0.000367
vn -0.000731 0.000482 0.000483
vn -0.000724 0.000479 0.000496
vn -0.000595 0.000579 0.000557
vn -0.000572 0.000565 0.000594
vn -0.00077 0.000217 0.0006
vn -0.000848 0.000138 0.000512
vn -0.000858 0.00015 0.000491
vn -0.000681 -0.000103 -0.000725
vn -0.000596 -0.000178 -0.000783
vn -0.000158 -0.0002 -0.000967
vn -0.000333 -0.000141 -0.000932
vn -0.000886 0.000121 0.000447
vn -0.000924 0.000131 0.000358
vn -0.000969 0.000072 0.000237
vn -0.000971 0.000074 0.000226
vn -0.00099 0.000049 0.000135
vn -0.000992 0.000042 0.000122
vn -0.001 0.000005 0.00001
vn -0.000999 -0.000016 -0.00004
vn -0.000999 -0.000016 -0.000044
vn -0.000972 -0.000084 -0.000219
vn -0.000968 -0.000077 -0.000237
vn -0.000903 -0.000136 -0.000408
vn -0.000899 -0.000133 -0.000417
vn -0.000826 -0.000169 -0.000538
vn -0.000801 -0.000198 -0.000565
vn -0.000735 -0.000208 -0.000645
vn -0.000669 -0.000264 -0.000695
vn -0.000593 -0.000249 -0.000766
vn -0.000518 -0.000297 -0.000803
vn -0.000489 -0.000365 -0.000792
vn -0.000714 0.000377 0.000589
vn -0.000806 0.00032 0.000498
vn -0.000831 0.000319 0.000456
vn -0.00092 0.000222 0.000322
vn -0.000964 -0.000136 -0.000228
vn -0.0009 -0.000223 -0.000375
vn -0.000899 -0.000223 -0.000377
vn -0.000796 -0.000308 -0.000522
vn -0.000795 -0.000308 -0.000523
vn -0.000662 -0.00038 -0.000646
vn -0.000661 -0.00038 -0.000647
vn -0.000504 -0.000437 -0.000745
vn -0.000527 -0.000442 -0.000725
vn -0.000331 -0.000492 -0.000805
vn -0.000328 -0.00049 -0.000808
vn -0.000515 -0.000056 -0.000855
vn -0.000514 -0.000133 -0.000848
vn -0.000413 -0.000203 -0.000888
vn -0.000411 -0.000252 -0.000876
vn -0.000335 -0.000319 -0.000886
vn -0.000331 -0.000394 -0.000857
vn -0.000167 -0.000511 -0.000843
vn -0.000134 -0.000542 -0.000829
vn -0.000322 -0.000612 -0.000722
vn -0.000329 -0.000613 -0.000719
vn -0.000498 -0.000563 -0.00066
vn -0.000499 -0.000563 -0.000659
vn -0.000656 -0.00049 -0.000574
vn -0.000644 -0.000491 -0.000587
vn -0.000739 -0.000444 -0.000506
vn -0.000792 -0.000387 -0.000473
vn -0.000849 -0.000355 -0.000392
vn -0.000897 -0.000276 -0.000344
vn -0.00094 -0.000237 -0.000247
vn -0.00097 -0.000154 -0.000189
vn -0.000985 -0.000116 -0.000125
vn -0.001 0.000023 0.00001
vn -0.000998 0.000049 0.000048
vn -0.000976 0.000144 0.000163
vn -0.000965 0.00018 0.000188
vn -0.000942 0.000213 0.000261
vn -0.000163 -0.000411 -0.000897
vn -0.000137 -0.00046 -0.000877
vn 0.000784 0.000193 0.00059
vn 0.000827 0.00018 0.000533
vn 0.000846 0.000143 0.000514
vn 0.000901 0.000124 0.000415
vn 0.000916 0.000093 0.000391
vn 0.000957 0.000082 0.000278
vn 0.00099 -0.000014 -0.00014
vn 0.000754 -0.000167 -0.000635
vn 0.000617 -0.000121 -0.000777
vn 0.000596 -0.000153 -0.000789
vn 0.000432 -0.000165 -0.000887
vn 0.000428 -0.000171 -0.000888
vn 0.000249 -0.000178 -0.000952
vn 0.000242 -0.000185 -0.000953
vn 0.000083 -0.000186 -0.000979
vn 0.000056 -0.000275 -0.00096
vn 0.000611 0.000226 0.000759
vn 0.00096 0.000072 0.00027
vn 0.000989 0.000058 0.000139
vn 0.001 -0.000018 -0.000002
vn 0.000998 0.000035 0.000053
vn 0.000988 -0.000039 -0.000146
vn 0.000971 -0.000092 -0.000223
vn 0.000945 -0.000085 -0.000316
vn 0.000902 -0.000153 -0.000403
vn 0.000875 -0.000146 -0.000462
vn 0.000811 -0.000195 -0.000552
vn 0.000757 -0.000189 -0.000625
vn 0.000728 -0.000225 -0.000648
vn 0.000592 -0.000266 -0.000761
vn 0.000593 -0.000264 -0.00076
vn 0.000424 -0.000298 -0.000855
vn 0.000445 -0.00028 -0.000851
vn 0.000242 -0.000303 -0.000922
vn 0.00024 -0.000305 -0.000922
vn 0.000075 -0.000314 -0.000947
vn 0.000413 0.0006 0.000685
vn 0.000895 0.000204 0.000398
vn 0.000972 0.000107 0.000211
vn 0.000401 -0.000383 -0.000832
vn 0.00024 -0.000406 -0.000882
vn 0.000238 -0.000409 -0.000881
vn -0.000876 0.000329 0.000354
vn 0.000044 -0.000464 -0.000884
vn 0.000072 -0.00042 -0.000905
vn 0.000044 -0.000367 -0.000929
vn -0.000138 -0.000363 -0.000921
vn -0.000174 -0.000292 -0.00094
vn -0.000144 -0.000218 -0.000965
vn -0.000142 -0.000218 -0.000965
vn 0.000056 -0.000158 -0.000986
vn 0.000057 -0.000056 -0.000997
vn 0.000104 -0.000022 -0.000994
vn 0.000964 -0.000134 -0.000229
vn 0.0009 -0.00022 -0.000377
vn 0.000899 -0.000221 -0.000378
vn 0.000806 -0.000299 -0.000511
vn 0.000805 -0.0003 -0.000512
vn 0.000721 -0.00035 -0.000598
vn 0.000721 -0.00035 -0.000598
vn 0.000586 -0.000409 -0.000699
vn 0.000586 -0.00041 -0.0007
vn 0.00044 -0.000454 -0.000775
vn 0.000419 -0.000472 -0.000776
vn 0.000238 -0.000506 -0.000829
vn 0.000255 -0.000494 -0.000831
vn 0.000069 -0.000509 -0.000858
vn 0.000044 -0.000547 -0.000836
vn -0.000137 -0.000612 -0.000779
vn -0.000177 -0.000636 -0.000751
vn 0.000188 0.00071 0.000679
vn 0.000354 0.000479 0.000803
vn 0.000565 0.000491 0.000663
vn 0.000723 0.00041 0.000556
vn 0.000726 0.000404 0.000556
vn 0.000836 0.000322 0.000444
vn 0.000838 0.00032 0.000443
vn 0.000917 0.000234 0.000324
vn 0.000207 -0.000586 -0.000783
vn 0.000074 -0.000597 -0.000799
vn 0.000046 -0.000617 -0.000785
vn -0.000134 -0.000673 -0.000727
vn -0.000601 0.00029 0.000744
vn -0.00011 0.000809 0.000578
vn -0.000044 0.00077 0.000636
vn 0.000035 0.000831 0.000555
vn 0.000046 0.000814 0.000579
vn 0.000189 0.000713 0.000675
vn 0.000388 0.000684 0.000618
vn 0.000483 0.000576 0.000659
vn 0.000598 0.000569 0.000564
vn 0.000962 0.000184 0.000204
vn 0.000996 0.000062 0.000069
vn 0.000998 0.000036 0.000046
vn 0.000998 -0.000034 -0.000045
vn 0.00097 -0.000152 -0.00019
vn 0.000939 -0.000236 -0.000249
vn 0.000898 -0.000273 -0.000345
vn 0.000848 -0.000354 -0.000394
vn 0.000802 -0.00038 -0.00046
vn 0.000715 -0.00046 -0.000526
vn 0.000727 -0.000445 -0.000523
vn 0.00058 -0.000528 -0.00062
vn 0.00058 -0.000528 -0.00062
vn 0.000414 -0.00059 -0.000693
vn 0.000414 -0.00059 -0.000693
vn 0.000274 -0.000623 -0.000732
vn 0.000041 -0.000679 -0.000733
vn -0.000139 -0.000729 -0.00067
vn -0.00018 -0.000742 -0.000646
vn -0.00032 -0.000715 -0.000621
vn -0.000329 -0.000716 -0.000616
vn -0.000497 -0.000658 -0.000566
vn -0.000497 -0.000658 -0.000565
vn -0.000642 -0.000582 -0.0005
vn -0.000643 -0.000581 -0.000499
vn -0.000736 -0.000513 -0.000441
vn -0.000738 -0.000513 -0.000439
vn -0.000847 -0.000404 -0.000346
vn -0.000848 -0.000404 -0.000344
vn -0.000929 -0.000281 -0.00024
vn -0.000373 0.000657 0.000655
vn 0.000475 0.000768 0.000431
vn 0.000629 0.000713 0.000311
vn 0.000636 0.000701 0.000323
vn 0.00067 0.00074 0.000069
vn 0.000688 0.000715 0.000124
vn -0.000651 0.000338 0.00068
vn -0.000273 0.000667 0.000693
vn -0.000151 0.000751 0.000643
vn 0.000314 0.000654 0.000689
vn 0.000889 0.000326 0.000322
vn 0.000969 0.000176 0.000171
vn 0.00099 -0.000099 -0.000097
vn 0.000195 -0.000696 -0.000691
vn 0.000085 -0.000707 -0.000702
vn 0.000034 -0.00074 -0.000671
vn -0.000232 0.000862 0.000451
vn 0.000132 0.000881 0.000455
vn 0.000327 0.000839 0.000435
vn 0.000495 0.000778 0.000387
vn 0.000574 0.0008 0.000174
vn 0 -0 0.001
vn 0.000001 0 0.001
vn -0.000001 0.000001 0.001
vn -0.000001 0.001 -0
vn -0.000001 0.001 0
vn -0 0.001 0
vn 0 0.001 0
vn 0.000001 0.001 -0
vn 0.000002 0.001 0
vn -0.000002 0.001 -0
vn 0.000001 0.001 -0
vn -0.000002 0.001 -0
vn 0 0.001 -0
vn 0.000001 0.001 -0
vn 0 0.001 0
vn -0.000001 0.001 0.000001
vn 0 0.001 -0
vn 0 0.001 -0
vn 0.000001 0.001 -0
vn 0.000001 0.001 -0
vn 0.000001 0.001 -0
vn -0.000002 0.001 0
vn 0 0.001 0
vn 0.000002 0.001 -0
vn -0 0.001 0
vn 0.000001 0.001 -0
vn -0.000001 0.001 0
vn 0.000001 0.001 0
vn -0.000001 0.001 0
vn 0.000001 0.001 -0
vn -0.000005 0.001 -0
vn 0.000001 0.001 0
vn -0.000001 0.001 0
vn -0 0.001 0
vn 0.000005 0.001 -0
vn 0.000004 0.001 -0
vn -0.000005 0.001 -0
vn -0.000001 0.001 0
vn -0.000002 0.001 0
vn -0.000315 0.000238 -0.000919
vn 0.00016 0.000238 0.000958
vn -0.000312 0.000269 0.000911
vn 0.000997 0.000013 -0.000072
vn 0.000992 -0.00002 -0.000122
vn 0.000999 -0 -0.000035
vn 0.000999 0.000001 -0.000046
vn 0.000957 0.000004 -0.00029
vn 0.000944 -0.000018 -0.000329
vn 0.000981 0.000021 -0.000195
vn 0.000972 -0.000009 -0.000236
vn 0.000916 0.000009 -0.0004
vn 0.000865 -0.000004 -0.000501
vn 0.000906 -0.00001 -0.000423
vn 0.000909 -0.000007 -0.000417
vn 0.000806 0.000004 -0.000592
vn 0.000797 -0.000008 -0.000604
vn 0.000853 0.000003 -0.000521
vn 0.000738 -0.000003 -0.000675
vn 0.000739 -0.000002 -0.000674
vn 0.000659 0.000002 -0.000752
vn 0.000658 0 -0.000753
vn 0.000381 -0.000008 -0.000924
vn 0.000387 -0.000014 -0.000922
vn 0.000574 0 -0.000819
vn 0.000572 -0.000004 -0.00082
vn 0.000474 -0.000002 -0.00088
vn 0.000473 -0.000005 -0.000881
vn 0.000288 0.000007 -0.000958
vn 0.000175 -0.000036 -0.000984
vn 0.000274 -0.000026 -0.000961
vn 0.000191 0.00001 -0.000981
vn -0.000053 -0.00003 -0.000998
vn -0.000062 0.000002 -0.000998
vn -0.000167 -0.000009 -0.000986
vn 0.000015 0.000025 -0.001
vn 0.000063 -0.000056 -0.000996
vn 0.000099 0.000024 -0.000995
vn -0.000288 -0.000003 -0.000958
vn -0.000277 -0.000031 -0.00096
vn -0.000192 0.000015 -0.000981
vn -0.00016 -0.000034 -0.000986
vn -0.000581 -0 -0.000814
vn -0.00058 -0.000002 -0.000815
vn -0.00048 -0.000002 -0.000877
vn -0.000483 0.000004 -0.000875
vn -0.000382 -0.000005 -0.000924
vn -0.000376 0.000003 -0.000927
vn -0.000746 0.000001 -0.000666
vn -0.000744 -0.000001 -0.000668
vn -0.000664 0 -0.000748
vn -0.000666 0.000002 -0.000746
vn -0.000817 0.000002 -0.000577
vn -0.000814 -0.000001 -0.00058
vn -0.000925 0.000001 -0.000381
vn -0.000874 -0.000002 -0.000486
vn -0.000877 0.000001 -0.000481
vn -0.000922 -0.000002 -0.000387
vn -0.000964 -0.000001 -0.000267
vn -0.000963 -0.000002 -0.000269
vn -0.000989 0.000012 -0.000148
vn -0.000999 0.000001 -0.000042
vn -0.001 0 -0.000005
vn -0.000999 0 0.000032
vn -0.000999 -0.000001 -0.000043
vn -0.000998 -0.000005 -0.000057
vn -0.000984 -0.000006 -0.000177
vn -0.000986 -0.000002 -0.000166
vn -0.000996 -0.000003 -0.000085
vn -0.000884 0.000016 -0.000467
vn -0.00093 0.000001 -0.000368
vn -0.000969 0.000002 -0.000248
vn -0.000967 0.000004 -0.000254
vn -0.000836 0.000001 -0.000548
vn -0.000827 0.000006 -0.000562
vn -0.000915 -0.000007 -0.000404
vn -0.0005 0.000001 -0.000866
vn -0.000611 0.000001 -0.000792
vn -0.000592 0.000011 -0.000806
vn -0.000669 -0.000002 -0.000743
vn -0.000734 0.000008 -0.00068
vn -0.000752 0.000002 -0.000659
vn -0.000426 0.000025 -0.000904
vn -0.000337 0.000008 -0.000942
vn -0.000328 0.000012 -0.000945
vn -0.000471 -0.000007 -0.000882
vn -0.000221 0 -0.000975
vn -0.000317 -0.000006 -0.000948
vn -0.000251 0.000026 -0.000968
vn -0.000055 -0.000001 -0.000998
vn -0.00016 0.000013 -0.000987
vn -0.000145 0.000022 -0.000989
vn 0.000127 0.000004 -0.000992
vn 0.000003 0.000004 -0.001
vn 0.000046 0.000034 -0.000998
vn 0.000257 0.00004 -0.000965
vn 0.00032 -0.000006 -0.000947
vn 0.000207 0.000004 -0.000978
vn 0.000164 0.000018 -0.000986
vn 0.000494 0.000002 -0.000869
vn 0.000419 0.000029 -0.000907
vn 0.00047 -0.000009 -0.000882
vn 0.000323 0.00001 -0.000946
vn 0.000612 0.000001 -0.000791
vn 0.000591 0.000013 -0.000807
vn 0.000743 0.000004 -0.000669
vn 0.000734 0.000007 -0.000679
vn 0.000665 -0.000001 -0.000747
vn 0.000812 0.000012 -0.000584
vn 0.000836 -0.000002 -0.000548
vn 0.000921 0.000002 -0.00039
vn 0.000915 0.000004 -0.000404
vn 0.000866 -0 -0.0005
vn 0.000959 0.000008 -0.000282
vn 0.000996 0.000005 -0.000084
vn 0.000984 0 -0.000179
vn 0.000969 -0 -0.000248
vn -0.000269 0.000003 0.000963
vn -0.000315 -0.000001 0.000949
vn -0.000474 0.000002 0.000881
vn -0.000339 -0.000001 0.000941
vn -0.000374 0.000002 0.000927
vn -0.000574 0.000005 0.000819
vn -0.000612 -0.000001 0.000791
vn -0.00048 0.000001 0.000878
vn -0.000734 0.000002 0.000679
vn -0.000657 -0 0.000754
vn -0.000808 0.000005 0.00059
vn -0.000836 -0.000001 0.000548
vn -0.000739 0.000001 0.000674
vn -0.000918 0.000002 0.000397
vn -0.000866 -0 0.0005
vn -0.000959 0.000004 0.000284
vn -0.000969 -0 0.000247
vn -0.000914 0.000001 0.000405
vn -0.001 0 0.000004
vn -0.000998 0 0.000058
vn -0.000984 -0.000001 0.000175
vn -0.000996 0.000002 0.000084
vn 0.000986 0.000007 0.000166
vn 0.001 0 0.000012
vn 0.000998 0 0.000059
vn 0.000996 -0.000002 0.000084
vn 0.000915 0.000001 0.000404
vn 0.000872 -0 0.00049
vn 0.000918 0.000001 0.000397
vn 0.000969 -0 0.000247
vn 0.000964 0.000002 0.000267
vn 0.000836 -0 0.000549
vn 0.000815 0.000004 0.00058
vn 0.000665 -0 0.000747
vn 0.000734 0.000002 0.00068
vn 0.000744 0.000001 0.000668
vn 0.000472 0.000001 0.000882
vn 0.000388 -0.000001 0.000922
vn 0.000477 0.000001 0.000879
vn 0.000612 -0 0.000791
vn 0.000582 0.000004 0.000813
vn 0.000176 0.000002 0.000984
vn 0.000321 -0.000001 0.000947
vn 0.000277 0.000005 0.000961
vn -0.000171 0.000001 0.000985
vn -0.00016 0.000002 0.000987
vn -0.000068 -0.000001 0.000998
vn 0.000001 0.000003 0.001
vn 0.000054 -0 0.000999
vn 0.000155 0.000001 0.000988
vn 0.000163 0.000001 0.000987
vn -0.000912 -0.000397 -0.000105
vn 0.000942 -0.000174 -0.000288
vn 0.000864 -0.000484 -0.000137
vn 0.000798 -0.000581 -0.000162
vn -0.000999 -0.00005 0.000001
vn 0.001 -0.000004 -0.000015
vn 0.001 -0.000003 -0.000026
vn 0.001 -0.000026 -0.000011
vn 0.000999 -0.000042 0
vn 0.000381 -0.000923 0.000046
vn 0.000477 -0.000879 0.000022
vn 0.000276 -0.000961 0.000024
vn 0.0003 -0.000954 0.000009
vn 0.000173 -0.000985 0.000021
vn 0.000035 -0.000999 -0.000012
vn 0.000064 -0.000998 0.000009
vn 0.000154 -0.000988 0.000005
vn -0.000061 -0.000998 0.000026
vn -0.000159 -0.000987 -0.00001
vn -0.000175 -0.000985 0.000007
vn -0.00028 -0.000959 0.00004
vn -0.000357 -0.000934 0.000012
vn 0.000124 -0.000386 -0.000914
vn 0.000173 -0.000284 -0.000943
vn 0.000259 -0.000386 -0.000885
vn 0.000374 -0.000452 -0.00081
vn 0.000377 -0.000426 -0.000822
vn 0.000471 -0.000389 -0.000792
vn 0.00002 -0.000382 -0.000924
vn 0.000123 -0.000381 -0.000916
vn 0.000235 -0.00056 -0.000795
vn 0.000372 -0.000449 -0.000812
vn 0.000181 -0.00075 -0.000636
vn 0.000113 -0.000759 -0.000641
vn 0.000134 -0.0008 -0.000584
vn 0.000037 -0.000805 -0.000593
vn 0.000052 -0.000826 -0.000561
vn 0.00019 -0.000762 -0.000619
vn 0.000306 -0.000728 -0.000614
vn 0.000307 -0.000704 -0.00064
vn 0.000428 -0.000656 -0.000622
vn 0.000394 -0.000742 -0.000542
vn 0.000481 -0.000786 -0.000389
vn 0.000598 -0.000443 -0.000668
vn 0.000575 -0.000371 -0.000729
vn 0.000686 -0.000392 -0.000613
vn 0.000663 -0.000329 -0.000672
vn 0.000754 -0.000352 -0.000555
vn 0.000835 -0.000331 -0.00044
vn 0.000752 -0.000366 -0.000549
vn 0.000472 -0.000388 -0.000792
vn 0.00004 -0.000454 -0.00089
vn 0.000437 -0.00088 -0.000184
vn 0.000344 -0.000935 -0.000086
vn 0.000859 -0.000247 -0.000448
vn 0.000856 -0.00026 -0.000447
vn 0.0008 -0.000245 -0.000547
vn 0.000951 -0.000168 -0.000258
vn 0.00096 -0.000091 -0.000265
vn 0.000083 -0.000965 -0.00025
vn 0.000192 -0.000949 -0.00025
vn 0.000197 -0.00095 -0.000242
vn 0.000329 -0.000915 -0.000233
vn 0.0005 -0.000749 -0.000435
vn 0.000588 -0.000695 -0.000413
vn 0.000587 -0.000693 -0.000418
vn 0.000681 -0.000628 -0.000377
vn 0.000681 -0.000629 -0.000375
vn 0.00077 -0.000551 -0.000323
vn 0.000853 -0.000418 -0.000313
vn 0.000823 -0.000448 -0.000349
vn 0.000909 -0.000376 -0.000178
vn 0.000918 -0.00036 -0.000165
vn 0.000928 -0.000117 -0.000354
vn 0.000917 -0.000208 -0.00034
vn 0.000948 -0.000298 -0.000113
vn 0.000956 -0.000267 -0.000122
vn 0.000915 -0.000326 -0.000238
vn 0.000978 -0.000109 -0.00018
vn 0.000978 -0.00011 -0.000175
vn 0.000976 -0.000195 -0.000101
vn 0.000977 -0.000194 -0.000089
vn 0.001 -0.000026 0.000008
vn 0.000994 -0.000053 -0.000097
vn 0.000992 -0.000052 -0.000114
vn 0.000992 -0.000108 -0.000057
vn 0.000993 -0.000108 -0.000054
vn 0.000896 -0.000245 -0.000372
vn 0.000911 -0.000377 -0.000166
vn 0.000999 -0.000052 -0.000001
vn 0.000988 -0.000156 0.000001
vn 0.000988 -0.000151 -0
vn 0.000965 -0.000264 0.000001
vn 0.000964 -0.000265 0.000001
vn 0.000927 -0.000375 0.000002
vn 0.000932 -0.000361 -0
vn 0.00088 -0.000475 0.000005
vn 0.000879 -0.000477 0.000006
vn 0.000822 -0.000569 0.000006
vn 0.000812 -0.000584 0.00001
vn 0.00075 -0.000661 0.000013
vn 0.000751 -0.00066 0.000012
vn 0.000672 -0.00074 0.000016
vn 0.000675 -0.000738 0.000014
vn 0.000586 -0.00081 0.000017
vn 0.000587 -0.00081 0.000017
vn 0.000471 -0.000882 0.000019
vn 0.00053 -0.000843 -0.000089
vn 0.000445 -0.00089 -0.000097
vn -0.000916 -0.000183 -0.000357
vn -0.001 -0.000017 -0.000012
vn -0.000999 -0.000019 -0.000028
vn -0.000973 -0.0001 -0.000206
vn -0.000977 -0.000106 -0.000184
vn -0.000976 -0.000192 -0.000099
vn -0.000977 -0.000192 -0.000098
vn -0.000994 -0.000053 -0.000092
vn -0.000991 -0.000114 -0.000077
vn -0.000992 -0.000109 -0.000056
vn -0.00048 -0.000452 -0.000752
vn -0.000593 -0.000454 -0.000665
vn -0.000481 -0.000447 -0.000754
vn -0.000823 -0.000407 -0.000397
vn -0.000759 -0.00056 -0.000334
vn -0.000671 -0.00064 -0.000374
vn -0.000678 -0.000672 -0.000299
vn -0.000576 -0.000748 -0.000329
vn -0.000579 -0.00077 -0.000268
vn -0.000858 -0.000497 -0.000127
vn -0.000913 -0.000208 -0.00035
vn -0.000929 -0.000278 -0.000244
vn -0.000837 -0.000474 -0.000275
vn -0.000754 -0.000571 -0.000325
vn -0.000909 -0.000373 -0.000184
vn -0.000861 -0.000491 -0.000132
vn -0.000788 -0.000595 -0.00016
vn -0.000516 -0.000614 -0.000598
vn -0.000593 -0.000454 -0.000665
vn -0.000697 -0.000422 -0.00058
vn -0.00067 -0.000345 -0.000658
vn -0.000754 -0.00034 -0.000562
vn -0.000426 -0.000881 -0.000208
vn -0.000429 -0.000871 -0.000238
vn -0.000757 -0.000314 -0.000573
vn -0.000816 -0.000294 -0.000498
vn -0.000316 -0.000675 -0.000667
vn -0.000313 -0.000911 -0.000269
vn -0.000186 -0.000929 -0.00032
vn -0.000167 -0.000824 -0.000541
vn -0.000227 -0.000583 -0.00078
vn -0.000181 -0.000487 -0.000854
vn -0.000337 -0.000885 -0.000322
vn -0.000359 -0.000911 -0.000205
vn -0.000406 -0.000728 -0.000552
vn -0.000403 -0.00072 -0.000564
vn -0.000375 -0.000373 -0.000849
vn -0.000362 -0.000333 -0.00087
vn -0.000241 -0.000332 -0.000912
vn -0.000286 -0.000477 -0.000831
vn -0.000268 -0.000735 -0.000622
vn -0.000286 -0.000798 -0.00053
vn -0.00023 -0.000936 -0.000267
vn -0.00021 -0.000887 -0.000411
vn 0.000045 -0.000884 -0.000465
vn -0.000879 -0.000357 -0.000317
vn -0.000884 -0.000335 -0.000327
vn -0.000872 -0.000212 -0.000441
vn -0.000871 -0.00023 -0.000434
vn -0.000823 -0.000231 -0.000518
vn -0.000454 -0.000845 -0.000282
vn -0.000456 -0.000849 -0.000267
vn -0.000479 -0.000877 0.00002
vn -0.000588 -0.000809 0.00002
vn -0.000578 -0.000816 0.000015
vn -0.000673 -0.000739 0.000015
vn -0.000952 -0.000275 -0.000134
vn -0.000951 -0.000275 -0.000141
vn -0.000955 -0.000163 -0.000248
vn -0.000945 -0.000147 -0.000292
vn -0.000105 -0.000538 -0.000837
vn -0.000059 -0.000369 -0.000927
vn -0.000005 -0.000642 -0.000767
vn -0.000074 -0.000823 -0.000563
vn 0.000876 -0.000429 -0.000222
vn 0.000824 -0.000521 -0.000222
vn 0.000742 -0.000614 -0.000269
vn 0.000305 -0.000933 -0.000191
vn 0.000194 -0.000947 -0.000257
vn -0.000059 -0.000864 -0.000501
vn -0.000108 -0.000942 -0.000319
vn -0.000126 -0.000642 -0.000756
vn -0.000099 -0.000594 -0.000798
vn -0.000999 -0.000039 -0
vn -0.000988 -0.000152 0.000001
vn -0.000987 -0.000159 -0
vn -0.000964 -0.000266 0.000001
vn -0.000964 -0.000266 0.000001
vn -0.000927 -0.000375 0.000002
vn -0.000929 -0.000371 0.000003
vn -0.000876 -0.000482 0.000004
vn -0.00088 -0.000474 0.000006
vn -0.000817 -0.000577 0.000009
vn -0.000822 -0.00057 0.000011
vn -0.000752 -0.00066 0.000013
vn -0.000754 -0.000657 0.000014
vn -0.000674 -0.000738 0.000015
vn -0.000493 -0.00087 0.000028
vn -0.000385 -0.000922 0.00003
vn -0.000501 0.000746 -0.000439
vn -0.000952 0.000154 -0.000266
vn -0.000384 0.000923 0.000033
vn -0.000489 0.000872 0.000027
vn -0.000277 0.000961 0.000021
vn -0.000174 0.000985 0.00002
vn -0.000035 0.000999 -0.00001
vn -0.000059 0.000998 0.000008
vn -0.000154 0.000988 0.000004
vn 0.000053 0.000998 0.000024
vn 0.000159 0.000987 -0.000013
vn 0.000179 0.000984 0.000009
vn 0.000274 0.000961 0.000042
vn 0.000355 0.000935 0.000013
vn 0.000384 0.000923 0.000033
vn 0.000493 0.00087 0.000029
vn 0.000999 0.00005 0
vn 0.001 -0.000013 0.000009
vn 0.001 0.000017 -0.000022
vn -0.001 0.000013 -0.000022
vn 0.000058 0.000712 -0.000699
vn 0.000018 0.000847 -0.000531
vn 0.000111 0.000838 -0.000534
vn 0.000098 0.000822 -0.000561
vn 0.000222 0.000802 -0.000554
vn 0.00028 0.000849 -0.000448
vn 0.00043 0.000871 -0.00024
vn 0.00017 0.000405 -0.000898
vn 0.000165 0.000428 -0.000889
vn 0.000273 0.000405 -0.000873
vn 0.000447 0.000361 -0.000819
vn 0.000593 0.000415 -0.00069
vn 0.000682 0.000368 -0.000632
vn 0.000684 0.000354 -0.000638
vn 0.000753 0.00033 -0.000569
vn 0.000756 0.000306 -0.000579
vn 0.000813 0.000295 -0.000501
vn 0.000819 0.000263 -0.000511
vn 0.000405 0.000438 -0.000802
vn 0.000338 0.000535 -0.000774
vn 0.000253 0.000468 -0.000846
vn 0.000509 0.000663 -0.000548
vn 0.00038 0.000712 -0.000591
vn 0.000135 0.000356 -0.000925
vn 0.000024 0.000474 -0.00088
vn 0.000413 0.000456 -0.000788
vn 0.000519 0.000488 -0.000702
vn 0.0006 0.00043 -0.000675
vn 0.000323 0.000936 -0.000139
vn 0.000419 0.000894 -0.000159
vn 0.000462 0.000856 -0.000231
vn 0.000099 0.000548 -0.00083
vn 0.000169 0.000901 -0.000401
vn 0.000864 0.000251 -0.000436
vn 0.000864 0.000254 -0.000435
vn 0.000052 0.000926 -0.000373
vn 0.000953 0.000122 -0.000279
vn 0.000944 0.000169 -0.000284
vn 0.00085 0.000419 -0.000318
vn 0.000867 0.000463 -0.000186
vn 0.000807 0.000552 -0.00021
vn 0.00017 0.000874 -0.000455
vn 0.000282 0.000855 -0.000434
vn 0.00039 0.00079 -0.000472
vn 0.000455 0.000844 -0.000285
vn 0.000579 0.000771 -0.000265
vn 0.000574 0.000742 -0.000348
vn 0.000681 0.000663 -0.000311
vn 0.000672 0.000639 -0.000373
vn 0.000759 0.00056 -0.000333
vn 0.000939 0.000338 -0.000055
vn 0.000956 0.000271 -0.000107
vn 0.00095 0.000238 -0.000201
vn 0.000934 0.000344 -0.000101
vn 0.000903 0.000387 -0.000187
vn 0.000921 0.000383 -0.000073
vn 0.000974 0.000223 -0.00004
vn 0.000973 0.000208 -0.000101
vn 0.00098 0.000149 -0.000129
vn 0.000975 0.000109 -0.000193
vn 0.000975 0.000107 -0.000193
vn 0.000999 0.000027 -0.000024
vn 0.000991 0.000075 -0.000109
vn 0.000991 0.000079 -0.000109
vn 0.000994 0.000095 -0.000046
vn 0.000908 0.000222 -0.000355
vn 0.000916 0.000184 -0.000356
vn 0.000916 0.000342 -0.000207
vn -0.001 0.000015 -0.000022
vn -0.000915 0.000204 -0.000349
vn -0.000929 0.00027 -0.000254
vn -0.000979 0.000091 -0.000184
vn -0.000975 0.000179 -0.000133
vn -0.000979 0.000181 -0.000088
vn -0.000913 0.000393 -0.000107
vn -0.000852 0.000504 -0.000142
vn -0.000953 0.000268 -0.00014
vn -0.000951 0.000278 -0.000137
vn -0.000993 0.00005 -0.000108
vn -0.000991 0.000082 -0.000105
vn -0.000994 0.000084 -0.000065
vn -0.000836 0.000314 -0.00045
vn -0.000753 0.000372 -0.000543
vn -0.00068 0.000634 -0.000369
vn -0.000769 0.000555 -0.000317
vn -0.000813 0.0005 -0.000297
vn -0.000887 0.000399 -0.000232
vn -0.000875 0.000355 -0.000329
vn -0.000977 0.000106 -0.000186
vn -0.000952 0.000153 -0.000266
vn -0.00091 0.000365 -0.000196
vn -0.000823 0.000523 -0.000224
vn -0.000743 0.000613 -0.000269
vn -0.000588 0.000695 -0.000414
vn -0.000397 0.000749 -0.000531
vn -0.000395 0.000741 -0.000543
vn -0.000421 0.000471 -0.000775
vn -0.000418 0.000467 -0.000779
vn -0.000327 0.000846 -0.000421
vn -0.000314 0.000531 -0.000787
vn -0.00033 0.000414 -0.000848
vn -0.000346 0.000929 -0.000131
vn -0.000431 0.00087 -0.000238
vn -0.000445 0.00089 -0.000101
vn -0.00028 0.00075 -0.000599
vn -0.000273 0.000505 -0.000819
vn -0.000172 0.000868 -0.000467
vn -0.000226 0.000588 -0.000777
vn -0.000178 0.000432 -0.000884
vn -0.000085 0.000541 -0.000837
vn -0.000073 0.00059 -0.000804
vn -0.000151 0.000766 -0.000625
vn -0.00021 0.000887 -0.000411
vn -0.000338 0.000879 -0.000336
vn 0.000046 0.000356 -0.000933
vn -0.000036 0.000368 -0.000929
vn -0.000045 0.00071 -0.000703
vn -0.000015 0.000782 -0.000623
vn -0.00005 0.000922 -0.000383
vn -0.000236 0.000952 -0.000192
vn 0.000213 0.000973 -0.000093
vn 0.000318 0.000926 -0.000203
vn -0.000587 0.000693 -0.000419
vn -0.000678 0.00063 -0.000378
vn -0.000822 0.000569 0.000008
vn -0.000876 0.000482 0.000006
vn -0.00088 0.000475 0.000005
vn -0.000928 0.000373 0.000003
vn -0.000927 0.000375 0.000003
vn -0.000962 0.000274 0.000001
vn -0.000965 0.000264 -0
vn -0.000987 0.000161 -0
vn -0.000988 0.000156 -0.000001
vn -0.000999 0.000039 -0.000001
vn -0.000999 0.000051 0.000001
vn -0.000533 0.000841 -0.000094
vn -0.000472 0.000881 0.000018
vn -0.000593 0.000805 0.000016
vn -0.000669 0.000743 0.000015
vn -0.000747 0.000665 0.000012
vn -0.000751 0.000661 0.00001
vn -0.000823 0.000569 0.000008
vn -0.000918 0.000163 -0.000363
vn -0.000873 0.000209 -0.000441
vn -0.000879 0.000226 -0.00042
vn -0.000817 0.00027 -0.000509
vn -0.00076 0.000313 -0.00057
vn -0.000681 0.000358 -0.000639
vn -0.000681 0.000357 -0.00064
vn -0.000601 0.000401 -0.000691
vn -0.00059 0.000376 -0.000715
vn -0.00052 0.000462 -0.000719
vn -0.000462 0.000344 -0.000817
vn -0.000481 0.000785 -0.00039
vn -0.000185 0.000931 -0.000314
vn -0.000097 0.000942 -0.000322
vn -0.000071 0.000864 -0.000499
vn 0.000756 0.000566 -0.000329
vn 0.000833 0.000476 -0.000282
vn 0.000828 0.000442 -0.000345
vn 0.000877 0.000431 -0.000215
vn 0.000999 0.000041 -0.000001
vn 0.000986 0.000167 -0.000001
vn 0.000987 0.000159 0
vn 0.000962 0.000273 0.000001
vn 0.000964 0.000266 0.000002
vn 0.000925 0.00038 0.000003
vn 0.000929 0.000371 0.000005
vn 0.00087 0.000493 0.000001
vn 0.00088 0.000474 0.000006
vn 0.000814 0.00058 0.000006
vn 0.000822 0.000569 0.000009
vn 0.000749 0.000662 0.00001
vn 0.000754 0.000657 0.000012
vn 0.000669 0.000743 0.000013
vn 0.000676 0.000737 0.000016
vn 0.000578 0.000816 0.000016
vn 0.000589 0.000808 0.000022
vn 0.000479 0.000878 0.000021
vn -0.000281 0.000959 0.000025
vn -0.000393 0.000919 0.000027
vn -0.000584 0.000811 0.00002
vn -0.000674 0.000739 0.000017
vn -0 0 -0.001
vn -0 0 -0.001
vn 0 -0 -0.001
vn -0 0.000001 -0.001
vn -0 -0 -0.001
vn -0 0 -0.001
vn -0 0 -0.001
vn -0 -0 -0.001
vn -0 -0 -0.001
vn -0 -0 -0.001
vn -0 -0 -0.001
vn -0 -0 -0.001
vn 0 0 -0.001
vn -0 -0 -0.001
vn -0 0 -0.001
vn -0 0 -0.001
vn -0 -0 -0.001
vn -0 0 -0.001
vn -0 0 -0.001
vn 0 0 -0.001
vn -0 0 -0.001
vn -0 -0 -0.001
vn -0.000001 0 -0.001
vn -0.000001 -0 -0.001
vn -0.000001 -0 -0.001
vn -0.000001 -0 -0.001
vn -0.000001 -0 -0.001
vn -0 -0 -0.001
vn -0 -0 -0.001
vn -0 -0 -0.001
vn -0 -0 -0.001
vn -0 -0 -0.001
vn -0 0 -0.001
vn 0 -0 -0.001
vn -0 -0 -0.001
vn 0 -0 -0.001
vn 0.000001 -0.000001 -0.001
vn -0 -0 -0.001
vn -0.000001 0.000001 -0.001
vn -0 0 -0.001
vn -0 0 -0.001
vn -0 0 -0.001
vn -0 -0 -0.001
vn 0 -0 -0.001
vn 0 -0 -0.001
vn 0 -0 -0.001
vn 0 0 -0.001
vn 0 -0 -0.001
vn 0 -0 -0.001
vn -0 -0 -0.001
vn -0 0 -0.001
vn -0.000001 0 -0.001
vn -0 0 -0.001
vn -0 -0 -0.001
vn 0 0 -0.001
vn 0 0 -0.001
vn 0 -0 -0.001
vn 0 -0 -0.001
vn 0 0 -0.001
vn -0 -0 -0.001
vn 0 -0 -0.001
vn 0 -0 -0.001
vn 0 -0 -0.001
vn -0 -0 -0.001
vn -0 -0 -0.001
vn 0 0 -0.001
vn 0 0 -0.001
vn 0.000001 0 -0.001
vn 0.000001 0 -0.001
vn 0 0 -0.001
vn 0 0 -0.001
vn 0.000001 0 -0.001
vn 0.000001 0 -0.001
vn 0 0 -0.001
vn 0 0 -0.001
vn 0 0 -0.001
vn 0 0 -0.001
vn -0 -0 -0.001
vn -0 -0 -0.001
vn -0 -0 -0.001
vn 0 0 -0.001
vn 0 0 -0.001
vn 0 0 -0.001
vn -0 -0 -0.001
vn -0 0 -0.001
usemtl JointGrey
f 1//1 2//1 3//1
f 4//2 5//2 6//2
f 7//3 8//3 9//3
f 9//4 8//4 10//4
f 11//5 8//5 7//5
f 12//6 13//6 14//6
f 15//7 16//7 17//7
f 17//8 16//8 11//8
f 11//9 16//9 8//9
f 18//10 6//10 12//10
f 12//11 6//11 13//11
f 4//12 6//12 18//12
f 19//13 20//13 21//13
f 21//14 20//14 5//14
f 9//15 10//15 19//15
f 19//16 10//16 20//16
f 22//17 23//17 24//17
f 14//18 13//18 22//18
f 22//19 13//19 23//19
f 21//20 5//20 4//20
f 25//21 26//21 27//21
f 28//22 29//22 30//22
f 31//23 32//23 33//23
f 31//24 33//24 34//24
f 34//25 33//25 35//25
f 36//26 37//26 35//26
f 35//27 37//27 34//27
f 38//28 37//28 36//28
f 38//29 39//29 40//29
f 40//30 39//30 41//30
f 41//31 39//31 42//31
f 41//32 42//32 43//32
f 41//33 43//33 44//33
f 44//34 43//34 45//34
f 45//35 43//35 46//35
f 46//36 47//36 45//36
f 48//37 47//37 46//37
f 48//38 49//38 47//38
f 48//39 3//39 49//39
f 30//40 10//40 8//40
f 6//41 50//41 13//41
f 51//42 23//42 13//42
f 52//43 23//43 51//43
f 53//44 54//44 55//44
f 54//45 53//45 56//45
f 56//46 53//46 57//46
f 56//47 57//47 58//47
f 58//48 57//48 59//48
f 58//49 59//49 60//49
f 58//50 60//50 61//50
f 61//51 60//51 62//51
f 62//52 60//52 63//52
f 63//53 60//53 64//53
f 64//54 65//54 63//54
f 66//55 65//55 64//55
f 66//56 67//56 65//56
f 68//57 67//57 66//57
f 68//58 69//58 67//58
f 70//59 71//59 72//59
f 73//60 72//60 74//60
f 73//61 74//61 75//61
f 76//62 77//62 78//62
f 76//63 78//63 79//63
f 80//64 81//64 82//64
f 82//65 81//65 83//65
f 82//66 83//66 84//66
f 85//67 86//67 87//67
f 87//68 86//68 88//68
f 88//69 86//69 89//69
f 88//70 89//70 90//70
f 91//71 92//71 89//71
f 89//72 92//72 90//72
f 93//73 94//73 91//73
f 91//74 94//74 92//74
f 95//75 96//75 93//75
f 93//76 96//76 97//76
f 93//77 97//77 94//77
f 98//78 99//78 96//78
f 98//79 96//79 95//79
f 100//80 101//80 102//80
f 102//81 101//81 103//81
f 102//82 103//82 104//82
f 104//83 103//83 105//83
f 104//84 105//84 106//84
f 106//85 105//85 107//85
f 107//86 105//86 108//86
f 107//87 108//87 109//87
f 107//88 109//88 110//88
f 110//89 109//89 111//89
f 111//90 109//90 112//90
f 112//91 113//91 111//91
f 114//92 115//92 112//92
f 112//93 115//93 113//93
f 116//94 115//94 114//94
f 117//95 118//95 116//95
f 116//96 118//96 115//96
f 119//97 117//97 120//97
f 121//98 122//98 123//98
f 121//99 123//99 124//99
f 124//100 123//100 125//100
f 126//101 127//101 125//101
f 128//102 129//102 130//102
f 128//103 130//103 131//103
f 131//104 130//104 132//104
f 132//105 130//105 133//105
f 132//106 134//106 135//106
f 136//107 137//107 138//107
f 138//108 137//108 139//108
f 139//109 137//109 134//109
f 134//110 137//110 135//110
f 140//111 141//111 142//111
f 140//112 142//112 143//112
f 143//113 142//113 144//113
f 143//114 144//114 145//114
f 145//115 144//115 146//115
f 145//116 146//116 147//116
f 147//117 146//117 148//117
f 147//118 148//118 149//118
f 149//119 148//119 150//119
f 149//120 150//120 151//120
f 152//121 153//121 154//121
f 141//122 155//122 120//122
f 141//123 120//123 156//123
f 141//124 156//124 142//124
f 142//125 156//125 157//125
f 142//126 157//126 144//126
f 144//127 157//127 158//127
f 144//128 158//128 146//128
f 146//129 158//129 159//129
f 146//130 159//130 148//130
f 148//131 159//131 160//131
f 148//132 160//132 150//132
f 150//133 160//133 161//133
f 150//134 161//134 162//134
f 163//135 162//135 164//135
f 153//136 123//136 154//136
f 162//137 161//137 165//137
f 162//138 165//138 164//138
f 166//139 167//139 168//139
f 153//140 169//140 123//140
f 152//141 154//141 122//141
f 152//142 122//142 155//142
f 156//143 120//143 116//143
f 156//144 116//144 114//144
f 156//145 114//145 157//145
f 157//146 114//146 170//146
f 157//147 170//147 158//147
f 158//148 170//148 159//148
f 159//149 170//149 171//149
f 159//150 171//150 160//150
f 160//151 171//151 172//151
f 160//152 172//152 161//152
f 161//153 172//153 173//153
f 161//154 173//154 165//154
f 101//155 174//155 103//155
f 103//156 174//156 175//156
f 103//157 175//157 105//157
f 105//158 175//158 176//158
f 105//159 176//159 108//159
f 108//160 176//160 172//160
f 108//161 172//161 109//161
f 109//162 172//162 171//162
f 109//163 171//163 112//163
f 112//164 171//164 170//164
f 112//165 170//165 114//165
f 117//166 116//166 120//166
f 119//167 120//167 155//167
f 119//168 155//168 122//168
f 122//169 154//169 123//169
f 167//170 126//170 177//170
f 177//171 126//171 125//171
f 177//172 125//172 169//172
f 169//173 125//173 123//173
f 173//174 172//174 176//174
f 173//175 176//175 165//175
f 165//176 176//176 175//176
f 165//177 175//177 178//177
f 178//178 175//178 174//178
f 179//179 163//179 180//179
f 180//180 163//180 181//180
f 180//181 181//181 182//181
f 182//182 181//182 183//182
f 182//183 183//183 184//183
f 184//184 183//184 185//184
f 184//185 185//185 186//185
f 186//186 185//186 187//186
f 186//187 187//187 188//187
f 188//188 187//188 189//188
f 188//189 189//189 190//189
f 190//190 189//190 191//190
f 190//191 191//191 192//191
f 192//192 191//192 83//192
f 192//193 83//193 193//193
f 193//194 83//194 81//194
f 194//195 195//195 196//195
f 194//196 196//196 197//196
f 197//197 196//197 198//197
f 197//198 198//198 199//198
f 199//199 198//199 78//199
f 199//200 78//200 200//200
f 200//201 78//201 201//201
f 200//202 201//202 202//202
f 200//203 202//203 203//203
f 203//204 202//204 74//204
f 203//205 74//205 29//205
f 204//206 29//206 71//206
f 205//207 133//207 130//207
f 206//208 71//208 136//208
f 206//209 136//209 138//209
f 72//210 71//210 29//210
f 72//211 29//211 74//211
f 207//212 83//212 191//212
f 207//213 191//213 208//213
f 208//214 191//214 189//214
f 208//215 189//215 209//215
f 209//216 189//216 187//216
f 209//217 187//217 210//217
f 210//218 187//218 185//218
f 210//219 185//219 211//219
f 211//220 185//220 183//220
f 211//221 183//221 212//221
f 212//222 183//222 181//222
f 212//223 181//223 213//223
f 213//224 178//224 212//224
f 212//225 178//225 214//225
f 212//226 214//226 211//226
f 71//227 70//227 136//227
f 133//228 134//228 132//228
f 98//229 100//229 99//229
f 101//230 100//230 98//230
f 101//231 98//231 174//231
f 168//232 167//232 215//232
f 215//233 167//233 177//233
f 215//234 177//234 216//234
f 216//235 177//235 169//235
f 216//236 169//236 153//236
f 151//237 150//237 162//237
f 151//238 162//238 179//238
f 179//239 162//239 163//239
f 181//240 163//240 164//240
f 181//241 164//241 213//241
f 213//242 164//242 165//242
f 213//243 165//243 178//243
f 178//244 174//244 214//244
f 214//245 174//245 98//245
f 214//246 98//246 95//246
f 214//247 95//247 211//247
f 211//248 95//248 93//248
f 211//249 93//249 210//249
f 210//250 93//250 91//250
f 210//251 91//251 209//251
f 209//252 91//252 89//252
f 209//253 89//253 208//253
f 208//254 89//254 86//254
f 208//255 86//255 207//255
f 207//256 86//256 85//256
f 207//257 85//257 83//257
f 83//258 85//258 84//258
f 195//259 81//259 80//259
f 195//260 80//260 196//260
f 196//261 80//261 217//261
f 196//262 217//262 198//262
f 198//263 217//263 79//263
f 198//264 79//264 78//264
f 201//265 78//265 77//265
f 201//266 77//266 202//266
f 202//267 77//267 75//267
f 202//268 75//268 74//268
f 218//269 15//269 219//269
f 204//270 10//270 30//270
f 28//271 30//271 8//271
f 28//272 8//272 16//272
f 220//273 199//273 200//273
f 220//274 200//274 218//274
f 218//275 200//275 203//275
f 29//276 28//276 203//276
f 203//277 28//277 218//277
f 219//278 15//278 221//278
f 219//279 221//279 222//279
f 222//280 221//280 223//280
f 224//281 42//281 39//281
f 224//282 39//282 225//282
f 35//283 33//283 226//283
f 35//284 226//284 36//284
f 227//285 222//285 223//285
f 227//286 223//286 228//286
f 227//287 228//287 229//287
f 229//288 228//288 2//288
f 229//289 2//289 1//289
f 229//290 1//290 193//290
f 193//291 1//291 3//291
f 193//292 3//292 230//292
f 230//293 3//293 48//293
f 230//294 48//294 231//294
f 231//295 48//295 46//295
f 231//296 46//296 232//296
f 232//297 46//297 43//297
f 232//298 43//298 42//298
f 232//299 42//299 233//299
f 233//300 42//300 224//300
f 233//301 224//301 234//301
f 234//302 224//302 225//302
f 234//303 225//303 27//303
f 27//304 26//304 234//304
f 220//305 218//305 219//305
f 220//306 219//306 199//306
f 199//307 219//307 222//307
f 199//308 222//308 227//308
f 235//309 230//309 231//309
f 235//310 231//310 236//310
f 236//311 231//311 232//311
f 236//312 232//312 237//312
f 237//313 232//313 233//313
f 237//314 233//314 238//314
f 238//315 233//315 234//315
f 238//316 234//316 239//316
f 239//317 234//317 26//317
f 239//318 26//318 240//318
f 240//319 26//319 25//319
f 39//320 38//320 36//320
f 39//321 36//321 225//321
f 225//322 36//322 226//322
f 225//323 226//323 27//323
f 27//324 226//324 241//324
f 27//325 241//325 25//325
f 240//326 25//326 242//326
f 240//327 242//327 243//327
f 240//328 244//328 239//328
f 239//329 244//329 245//329
f 239//330 245//330 238//330
f 238//331 245//331 246//331
f 238//332 246//332 237//332
f 237//333 246//333 247//333
f 237//334 247//334 248//334
f 237//335 248//335 236//335
f 236//336 248//336 249//336
f 236//337 249//337 235//337
f 235//338 249//338 192//338
f 235//339 192//339 230//339
f 230//340 192//340 193//340
f 193//341 81//341 229//341
f 229//342 81//342 195//342
f 229//343 195//343 194//343
f 229//344 194//344 227//344
f 227//345 194//345 197//345
f 25//346 241//346 250//346
f 25//347 250//347 242//347
f 23//348 52//348 24//348
f 24//349 52//349 251//349
f 251//350 52//350 252//350
f 251//351 252//351 253//351
f 253//352 252//352 254//352
f 253//353 254//353 255//353
f 55//354 256//354 53//354
f 60//355 59//355 257//355
f 60//356 257//356 64//356
f 64//357 257//357 258//357
f 64//358 258//358 66//358
f 66//359 258//359 259//359
f 66//360 259//360 68//360
f 68//361 259//361 260//361
f 68//362 260//362 261//362
f 261//363 260//363 262//363
f 13//364 50//364 51//364
f 255//365 254//365 263//365
f 255//366 263//366 264//366
f 264//367 263//367 55//367
f 55//368 263//368 256//368
f 53//369 256//369 265//369
f 53//370 265//370 266//370
f 53//371 266//371 57//371
f 57//372 266//372 267//372
f 57//373 267//373 59//373
f 59//374 267//374 268//374
f 59//375 268//375 257//375
f 257//376 268//376 269//376
f 257//377 269//377 258//377
f 258//378 269//378 270//378
f 258//379 270//379 259//379
f 259//380 270//380 271//380
f 259//381 271//381 260//381
f 260//382 271//382 272//382
f 260//383 272//383 262//383
f 6//384 273//384 50//384
f 254//385 252//385 274//385
f 254//386 274//386 263//386
f 271//387 270//387 275//387
f 271//388 275//388 272//388
f 272//389 275//389 276//389
f 197//390 199//390 227//390
f 276//391 242//391 250//391
f 276//392 250//392 272//392
f 272//393 250//393 262//393
f 250//394 241//394 262//394
f 262//395 241//395 226//395
f 262//396 226//396 33//396
f 262//397 33//397 261//397
f 261//398 33//398 68//398
f 68//399 33//399 32//399
f 68//400 32//400 69//400
f 266//401 265//401 277//401
f 266//402 277//402 267//402
f 267//403 277//403 278//403
f 267//404 278//404 268//404
f 268//405 278//405 279//405
f 268//406 279//406 269//406
f 269//407 279//407 280//407
f 269//408 280//408 270//408
f 270//409 280//409 281//409
f 270//410 281//410 275//410
f 275//411 281//411 282//411
f 275//412 282//412 276//412
f 276//413 282//413 283//413
f 276//414 283//414 242//414
f 242//415 283//415 243//415
f 243//416 284//416 240//416
f 240//417 284//417 244//417
f 5//418 285//418 6//418
f 6//419 285//419 273//419
f 51//420 50//420 168//420
f 51//421 168//421 52//421
f 52//422 168//422 215//422
f 52//423 215//423 252//423
f 252//424 215//424 216//424
f 252//425 216//425 274//425
f 283//426 282//426 286//426
f 283//427 286//427 243//427
f 243//428 286//428 284//428
f 284//429 287//429 244//429
f 28//430 16//430 218//430
f 20//431 10//431 138//431
f 20//432 138//432 139//432
f 20//433 139//433 5//433
f 5//434 139//434 134//434
f 5//435 134//435 285//435
f 50//436 273//436 205//436
f 50//437 205//437 166//437
f 50//438 166//438 168//438
f 263//439 274//439 152//439
f 263//440 152//440 256//440
f 256//441 152//441 155//441
f 256//442 155//442 265//442
f 265//443 141//443 277//443
f 277//444 141//444 140//444
f 277//445 140//445 278//445
f 278//446 140//446 143//446
f 278//447 143//447 279//447
f 279//448 143//448 280//448
f 280//449 143//449 145//449
f 280//450 145//450 281//450
f 281//451 145//451 147//451
f 281//452 147//452 282//452
f 282//453 147//453 149//453
f 282//454 149//454 286//454
f 284//455 286//455 287//455
f 287//456 179//456 244//456
f 244//457 179//457 180//457
f 244//458 180//458 245//458
f 245//459 180//459 182//459
f 245//460 182//460 246//460
f 246//461 182//461 184//461
f 246//462 184//462 247//462
f 247//463 184//463 186//463
f 247//464 186//464 248//464
f 248//465 186//465 188//465
f 248//466 188//466 249//466
f 249//467 188//467 190//467
f 249//468 190//468 192//468
f 30//469 29//469 204//469
f 166//470 205//470 129//470
f 166//471 129//471 167//471
f 167//472 129//472 126//472
f 126//473 129//473 288//473
f 126//474 288//474 127//474
f 16//475 15//475 218//475
f 10//476 204//476 206//476
f 10//477 206//477 138//477
f 273//478 285//478 205//478
f 274//479 216//479 153//479
f 274//480 153//480 152//480
f 265//481 155//481 141//481
f 286//482 149//482 151//482
f 286//483 151//483 287//483
f 287//484 151//484 179//484
f 204//485 71//485 206//485
f 285//486 134//486 133//486
f 285//487 133//487 205//487
f 205//488 130//488 129//488
f 129//489 128//489 288//489
f 118//490 117//490 289//490
f 85//491 87//491 84//491
f 289//492 117//492 119//492
f 290//493 291//493 292//493
f 293//494 294//494 295//494
f 294//495 296//495 295//495
f 295//496 296//496 297//496
f 295//497 297//497 298//497
f 293//498 295//498 292//498
f 292//499 295//499 299//499
f 292//500 299//500 290//500
f 300//501 301//501 302//501
f 302//502 301//502 303//502
f 302//503 303//503 304//503
f 298//504 305//504 295//504
f 295//505 305//505 302//505
f 295//506 302//506 306//506
f 306//507 302//507 304//507
f 307//508 308//508 309//508
f 291//509 310//509 292//509
f 292//510 310//510 311//510
f 292//511 311//511 312//511
f 312//512 311//512 313//512
f 302//513 314//513 300//513
f 300//514 314//514 315//514
f 300//515 315//515 316//515
f 316//516 315//516 317//516
f 313//517 311//517 308//517
f 308//518 311//518 318//518
f 308//519 318//519 309//519
f 309//520 319//520 320//520
f 315//521 321//521 317//521
f 317//522 321//522 322//522
f 317//523 322//523 323//523
f 323//524 322//524 324//524
f 323//525 324//525 325//525
f 320//526 326//526 309//526
f 309//527 326//527 327//527
f 309//528 327//528 307//528
f 299//529 328//529 290//529
f 296//530 329//530 297//530
f 292//531 330//531 293//531
f 331//532 332//532 333//532
f 333//533 332//533 334//533
f 333//534 334//534 335//534
f 335//535 336//535 324//535
f 337//536 338//536 339//536
f 339//537 338//537 340//537
f 339//538 340//538 331//538
f 331//539 340//539 332//539
f 341//540 337//540 342//540
f 341//541 342//541 343//541
f 337//542 341//542 344//542
f 337//543 344//543 338//543
f 345//544 346//544 343//544
f 343//545 346//545 347//545
f 343//546 347//546 341//546
f 345//547 348//547 346//547
f 345//548 349//548 348//548
f 348//549 349//549 350//549
f 350//550 349//550 351//550
f 352//551 353//551 354//551
f 352//552 354//552 355//552
f 350//553 351//553 356//553
f 356//554 351//554 357//554
f 356//555 357//555 354//555
f 354//556 357//556 355//556
f 358//557 353//557 352//557
f 359//558 360//558 361//558
f 352//559 361//559 358//559
f 358//560 361//560 360//560
f 362//561 363//561 364//561
f 362//562 364//562 365//562
f 365//563 364//563 366//563
f 363//564 362//564 367//564
f 363//565 367//565 359//565
f 359//566 367//566 360//566
f 368//567 369//567 370//567
f 368//568 370//568 366//568
f 366//569 370//569 371//569
f 366//570 371//570 365//570
f 372//571 373//571 374//571
f 372//572 374//572 375//572
f 375//573 374//573 376//573
f 375//574 376//574 377//574
f 377//575 376//575 368//575
f 368//576 376//576 369//576
f 378//577 379//577 380//577
f 380//578 379//578 381//578
f 381//579 379//579 373//579
f 381//580 373//580 372//580
f 382//581 383//581 378//581
f 382//582 378//582 380//582
f 384//583 385//583 386//583
f 383//584 382//584 387//584
f 383//585 387//585 384//585
f 384//586 387//586 385//586
f 388//587 389//587 386//587
f 386//588 385//588 388//588
f 390//589 320//589 391//589
f 390//590 392//590 320//590
f 393//591 392//591 394//591
f 393//592 320//592 392//592
f 393//593 395//593 396//593
f 396//594 395//594 397//594
f 397//595 395//595 389//595
f 397//596 389//596 388//596
f 320//597 319//597 391//597
f 398//598 309//598 399//598
f 398//599 400//599 309//599
f 309//600 400//600 319//600
f 319//601 400//601 391//601
f 311//602 401//602 318//602
f 318//603 401//603 399//603
f 309//604 318//604 399//604
f 291//605 402//605 403//605
f 291//606 403//606 310//606
f 310//607 403//607 404//607
f 310//608 404//608 405//608
f 310//609 405//609 311//609
f 311//610 405//610 401//610
f 406//611 402//611 291//611
f 328//612 407//612 290//612
f 290//613 407//613 406//613
f 290//614 406//614 291//614
f 299//615 408//615 409//615
f 299//616 409//616 328//616
f 328//617 409//617 407//617
f 295//618 410//618 411//618
f 295//619 411//619 299//619
f 299//620 411//620 408//620
f 412//621 306//621 413//621
f 306//622 412//622 295//622
f 295//623 412//623 410//623
f 303//624 414//624 415//624
f 303//625 415//625 304//625
f 304//626 415//626 413//626
f 304//627 413//627 306//627
f 416//628 417//628 301//628
f 417//629 418//629 301//629
f 301//630 418//630 303//630
f 303//631 418//631 414//631
f 416//632 301//632 300//632
f 416//633 300//633 419//633
f 420//634 421//634 316//634
f 316//635 421//635 300//635
f 300//636 421//636 419//636
f 317//637 422//637 420//637
f 420//638 316//638 317//638
f 423//639 424//639 323//639
f 323//640 424//640 317//640
f 317//641 424//641 422//641
f 425//642 423//642 325//642
f 324//643 336//643 325//643
f 325//644 336//644 425//644
f 423//645 323//645 325//645
f 426//646 427//646 330//646
f 330//647 427//647 293//647
f 312//648 428//648 292//648
f 292//649 428//649 330//649
f 330//650 428//650 426//650
f 429//651 430//651 313//651
f 313//652 430//652 312//652
f 312//653 430//653 428//653
f 308//654 431//654 313//654
f 313//655 431//655 429//655
f 307//656 432//656 433//656
f 307//657 433//657 308//657
f 308//658 433//658 431//658
f 307//659 434//659 435//659
f 307//660 435//660 432//660
f 326//661 436//661 434//661
f 326//662 434//662 327//662
f 327//663 434//663 307//663
f 393//664 396//664 320//664
f 320//665 396//665 437//665
f 436//666 326//666 437//666
f 437//667 326//667 320//667
f 438//668 324//668 439//668
f 333//669 335//669 324//669
f 333//670 324//670 438//670
f 324//671 322//671 439//671
f 440//672 321//672 315//672
f 440//673 315//673 441//673
f 440//674 442//674 321//674
f 321//675 442//675 322//675
f 322//676 442//676 439//676
f 314//677 443//677 315//677
f 315//678 443//678 441//678
f 302//679 444//679 445//679
f 302//680 445//680 314//680
f 314//681 445//681 443//681
f 446//682 305//682 298//682
f 446//683 298//683 447//683
f 305//684 446//684 448//684
f 305//685 448//685 302//685
f 302//686 448//686 444//686
f 329//687 449//687 297//687
f 297//688 449//688 298//688
f 298//689 449//689 447//689
f 427//690 450//690 293//690
f 293//691 450//691 294//691
f 294//692 450//692 451//692
f 294//693 451//693 296//693
f 296//694 451//694 452//694
f 296//695 452//695 329//695
f 329//696 452//696 449//696
f 453//697 454//697 455//697
f 338//698 344//698 456//698
f 457//699 458//699 459//699
f 459//700 458//700 460//700
f 461//701 462//701 394//701
f 335//702 334//702 463//702
f 463//703 334//703 464//703
f 465//704 466//704 464//704
f 467//705 466//705 465//705
f 468//706 469//706 470//706
f 470//707 469//707 471//707
f 472//708 473//708 468//708
f 468//709 473//709 469//709
f 474//710 473//710 472//710
f 475//711 476//711 477//711
f 475//712 477//712 474//712
f 474//713 477//713 473//713
f 476//714 475//714 478//714
f 476//715 478//715 479//715
f 479//716 478//716 480//716
f 479//717 480//717 481//717
f 479//718 481//718 482//718
f 360//719 367//719 483//719
f 360//720 483//720 484//720
f 360//721 484//721 358//721
f 358//722 485//722 353//722
f 353//723 485//723 486//723
f 353//724 486//724 354//724
f 367//725 362//725 487//725
f 367//726 487//726 483//726
f 358//727 484//727 488//727
f 358//728 488//728 485//728
f 489//729 483//729 490//729
f 490//730 483//730 487//730
f 490//731 487//731 491//731
f 491//732 487//732 492//732
f 491//733 492//733 475//733
f 484//734 483//734 489//734
f 484//735 489//735 488//735
f 485//736 488//736 493//736
f 485//737 493//737 486//737
f 493//738 494//738 486//738
f 486//739 494//739 495//739
f 354//740 495//740 496//740
f 354//741 496//741 356//741
f 356//742 496//742 497//742
f 356//743 497//743 350//743
f 350//744 497//744 348//744
f 498//745 348//745 499//745
f 499//746 348//746 497//746
f 495//747 354//747 486//747
f 492//748 487//748 362//748
f 494//749 468//749 470//749
f 494//750 493//750 468//750
f 500//751 347//751 498//751
f 498//752 347//752 346//752
f 498//753 346//753 348//753
f 456//754 501//754 340//754
f 456//755 340//755 338//755
f 491//756 474//756 490//756
f 490//757 474//757 489//757
f 489//758 472//758 488//758
f 488//759 472//759 493//759
f 494//760 502//760 495//760
f 495//761 502//761 503//761
f 495//762 503//762 496//762
f 496//763 503//763 504//763
f 496//764 504//764 497//764
f 497//765 504//765 499//765
f 458//766 457//766 498//766
f 458//767 498//767 499//767
f 457//768 505//768 500//768
f 456//769 505//769 506//769
f 344//770 341//770 500//770
f 344//771 500//771 456//771
f 501//772 456//772 506//772
f 501//773 506//773 507//773
f 506//774 505//774 457//774
f 332//775 340//775 508//775
f 508//776 340//776 501//776
f 508//777 501//777 509//777
f 509//778 501//778 507//778
f 463//779 464//779 466//779
f 334//780 332//780 464//780
f 464//781 332//781 508//781
f 464//782 508//782 465//782
f 465//783 508//783 509//783
f 341//784 347//784 500//784
f 456//785 500//785 505//785
f 510//786 467//786 465//786
f 510//787 465//787 511//787
f 511//788 465//788 509//788
f 511//789 509//789 512//789
f 512//790 509//790 507//790
f 512//791 507//791 513//791
f 513//792 507//792 506//792
f 513//793 506//793 514//793
f 514//794 506//794 457//794
f 514//795 457//795 515//795
f 515//796 457//796 459//796
f 515//797 459//797 516//797
f 516//798 459//798 460//798
f 516//799 460//799 517//799
f 517//800 460//800 504//800
f 517//801 504//801 471//801
f 471//802 504//802 503//802
f 471//803 503//803 470//803
f 470//804 503//804 502//804
f 470//805 502//805 494//805
f 383//806 384//806 518//806
f 394//807 519//807 395//807
f 394//808 395//808 393//808
f 386//809 389//809 520//809
f 386//810 520//810 521//810
f 521//811 520//811 522//811
f 521//812 522//812 523//812
f 389//813 395//813 520//813
f 520//814 395//814 519//814
f 520//815 519//815 522//815
f 369//816 376//816 524//816
f 376//817 374//817 525//817
f 376//818 525//818 524//818
f 526//819 527//819 528//819
f 529//820 528//820 530//820
f 529//821 530//821 531//821
f 531//822 530//822 532//822
f 531//823 532//823 525//823
f 525//824 532//824 533//824
f 454//825 453//825 534//825
f 384//826 535//826 518//826
f 518//827 535//827 454//827
f 528//828 527//828 536//828
f 528//829 536//829 530//829
f 535//830 455//830 454//830
f 527//831 454//831 534//831
f 527//832 534//832 536//832
f 537//833 524//833 525//833
f 531//834 525//834 374//834
f 531//835 374//835 529//835
f 529//836 374//836 373//836
f 529//837 373//837 379//837
f 481//838 537//838 538//838
f 538//839 537//839 525//839
f 528//840 529//840 379//840
f 528//841 379//841 378//841
f 539//842 540//842 541//842
f 539//843 541//843 480//843
f 478//844 542//844 543//844
f 543//845 542//845 544//845
f 544//846 542//846 365//846
f 544//847 365//847 371//847
f 481//848 480//848 541//848
f 481//849 541//849 537//849
f 537//850 541//850 540//850
f 537//851 540//851 524//851
f 524//852 540//852 370//852
f 524//853 370//853 369//853
f 371//854 370//854 540//854
f 371//855 540//855 544//855
f 544//856 540//856 539//856
f 544//857 539//857 543//857
f 543//858 539//858 480//858
f 543//859 480//859 478//859
f 491//860 475//860 474//860
f 454//861 527//861 518//861
f 518//862 527//862 526//862
f 518//863 526//863 383//863
f 378//864 383//864 526//864
f 378//865 526//865 528//865
f 538//866 525//866 533//866
f 538//867 533//867 481//867
f 545//868 533//868 532//868
f 545//869 532//869 546//869
f 546//870 532//870 530//870
f 546//871 530//871 536//871
f 523//872 455//872 535//872
f 523//873 535//873 521//873
f 521//874 535//874 384//874
f 521//875 384//875 386//875
f 362//876 365//876 547//876
f 362//877 547//877 492//877
f 492//878 547//878 548//878
f 492//879 548//879 475//879
f 500//880 498//880 457//880
f 458//881 499//881 460//881
f 460//882 499//882 504//882
f 493//883 472//883 468//883
f 472//884 489//884 474//884
f 478//885 475//885 548//885
f 478//886 548//886 542//886
f 542//887 548//887 547//887
f 542//888 547//888 365//888
f 519//889 394//889 462//889
f 519//890 462//890 522//890
f 522//891 462//891 549//891
f 522//892 549//892 523//892
f 523//893 549//893 550//893
f 523//894 550//894 455//894
f 455//895 550//895 551//895
f 455//896 551//896 453//896
f 453//897 551//897 552//897
f 453//898 552//898 534//898
f 534//899 552//899 553//899
f 534//900 553//900 536//900
f 536//901 553//901 554//901
f 536//902 554//902 546//902
f 533//903 545//903 482//903
f 533//904 482//904 481//904
f 555//905 556//905 557//905
f 400//906 398//906 558//906
f 559//907 560//907 561//907
f 561//908 560//908 562//908
f 563//909 564//909 559//909
f 565//910 564//910 563//910
f 566//911 567//911 568//911
f 566//912 568//912 565//912
f 565//913 568//913 564//913
f 567//914 566//914 569//914
f 567//915 569//915 570//915
f 570//916 569//916 571//916
f 570//917 571//917 572//917
f 570//918 572//918 573//918
f 573//919 572//919 574//919
f 573//920 574//920 575//920
f 467//921 576//921 466//921
f 463//922 466//922 335//922
f 577//923 336//923 335//923
f 392//924 390//924 578//924
f 579//925 580//925 581//925
f 582//926 581//926 580//926
f 582//927 580//927 569//927
f 569//928 580//928 583//928
f 569//929 583//929 584//929
f 585//930 584//930 586//930
f 587//931 588//931 589//931
f 412//932 413//932 583//932
f 583//933 413//933 584//933
f 584//934 413//934 415//934
f 590//935 418//935 589//935
f 417//936 416//936 591//936
f 591//937 416//937 419//937
f 591//938 419//938 592//938
f 592//939 419//939 421//939
f 592//940 421//940 593//940
f 593//941 421//941 420//941
f 593//942 420//942 594//942
f 590//943 586//943 414//943
f 414//944 586//944 415//944
f 415//945 586//945 584//945
f 589//946 588//946 590//946
f 590//947 588//947 586//947
f 583//948 580//948 412//948
f 412//949 580//949 579//949
f 414//950 418//950 590//950
f 418//951 417//951 589//951
f 589//952 417//952 591//952
f 585//953 588//953 572//953
f 572//954 588//954 587//954
f 572//955 587//955 574//955
f 582//956 569//956 566//956
f 595//957 571//957 569//957
f 422//958 596//958 594//958
f 420//959 422//959 594//959
f 581//960 582//960 566//960
f 423//961 597//961 598//961
f 423//962 598//962 424//962
f 594//963 599//963 600//963
f 600//964 599//964 601//964
f 600//965 601//965 602//965
f 595//966 569//966 584//966
f 595//967 584//967 585//967
f 585//968 586//968 588//968
f 574//969 587//969 589//969
f 574//970 589//970 603//970
f 603//971 589//971 591//971
f 603//972 591//972 604//972
f 604//973 591//973 592//973
f 604//974 592//974 593//974
f 605//975 606//975 607//975
f 607//976 606//976 598//976
f 607//977 598//977 597//977
f 608//978 606//978 605//978
f 599//979 596//979 608//979
f 608//980 596//980 606//980
f 609//981 605//981 607//981
f 609//982 607//982 610//982
f 610//983 607//983 597//983
f 610//984 597//984 425//984
f 425//985 597//985 423//985
f 577//986 335//986 466//986
f 425//987 336//987 610//987
f 610//988 336//988 577//988
f 610//989 577//989 609//989
f 422//990 424//990 596//990
f 596//991 424//991 598//991
f 596//992 598//992 606//992
f 392//993 578//993 394//993
f 398//994 611//994 558//994
f 558//995 611//995 612//995
f 391//996 613//996 614//996
f 614//997 613//997 615//997
f 615//998 613//998 616//998
f 617//999 618//999 612//999
f 617//1000 612//1000 619//1000
f 613//1001 558//1001 618//1001
f 613//1002 618//1002 616//1002
f 390//1003 391//1003 614//1003
f 390//1004 614//1004 578//1004
f 578//1005 614//1005 615//1005
f 620//1006 405//1006 621//1006
f 621//1007 405//1007 622//1007
f 623//1008 624//1008 622//1008
f 622//1009 624//1009 621//1009
f 621//1010 619//1010 620//1010
f 620//1011 619//1011 612//1011
f 611//1012 620//1012 612//1012
f 391//1013 400//1013 613//1013
f 613//1014 400//1014 558//1014
f 558//1015 612//1015 618//1015
f 619//1016 621//1016 625//1016
f 625//1017 621//1017 624//1017
f 557//1018 556//1018 626//1018
f 627//1019 555//1019 628//1019
f 628//1020 555//1020 629//1020
f 628//1021 629//1021 407//1021
f 407//1022 629//1022 406//1022
f 627//1023 628//1023 630//1023
f 630//1024 628//1024 407//1024
f 630//1025 407//1025 409//1025
f 631//1026 555//1026 627//1026
f 555//1027 631//1027 561//1027
f 555//1028 561//1028 556//1028
f 632//1029 627//1029 630//1029
f 630//1030 409//1030 408//1030
f 633//1031 632//1031 630//1031
f 633//1032 630//1032 411//1032
f 411//1033 630//1033 408//1033
f 411//1034 410//1034 634//1034
f 411//1035 634//1035 633//1035
f 633//1036 634//1036 635//1036
f 632//1037 565//1037 563//1037
f 627//1038 563//1038 631//1038
f 410//1039 412//1039 579//1039
f 410//1040 579//1040 634//1040
f 634//1041 579//1041 581//1041
f 634//1042 581//1042 635//1042
f 635//1043 581//1043 566//1043
f 627//1044 632//1044 563//1044
f 595//1045 585//1045 571//1045
f 571//1046 585//1046 572//1046
f 623//1047 557//1047 626//1047
f 623//1048 626//1048 624//1048
f 617//1049 619//1049 636//1049
f 617//1050 636//1050 618//1050
f 618//1051 636//1051 637//1051
f 618//1052 637//1052 616//1052
f 616//1053 637//1053 638//1053
f 616//1054 638//1054 615//1054
f 615//1055 638//1055 639//1055
f 615//1056 639//1056 578//1056
f 578//1057 639//1057 640//1057
f 578//1058 640//1058 394//1058
f 394//1059 640//1059 461//1059
f 626//1060 556//1060 561//1060
f 626//1061 561//1061 562//1061
f 626//1062 562//1062 624//1062
f 625//1063 624//1063 641//1063
f 625//1064 641//1064 619//1064
f 619//1065 641//1065 642//1065
f 619//1066 642//1066 636//1066
f 398//1067 399//1067 611//1067
f 611//1068 399//1068 401//1068
f 611//1069 401//1069 620//1069
f 620//1070 401//1070 405//1070
f 405//1071 404//1071 622//1071
f 622//1072 404//1072 403//1072
f 622//1073 403//1073 623//1073
f 623//1074 403//1074 402//1074
f 623//1075 402//1075 557//1075
f 557//1076 402//1076 406//1076
f 557//1077 406//1077 629//1077
f 557//1078 629//1078 555//1078
f 632//1079 633//1079 565//1079
f 565//1080 633//1080 635//1080
f 565//1081 635//1081 566//1081
f 602//1082 604//1082 593//1082
f 602//1083 593//1083 600//1083
f 600//1084 593//1084 594//1084
f 594//1085 596//1085 599//1085
f 577//1086 466//1086 576//1086
f 577//1087 576//1087 609//1087
f 609//1088 576//1088 643//1088
f 609//1089 643//1089 605//1089
f 605//1090 643//1090 644//1090
f 605//1091 644//1091 608//1091
f 608//1092 644//1092 645//1092
f 608//1093 645//1093 599//1093
f 599//1094 645//1094 646//1094
f 599//1095 646//1095 601//1095
f 601//1096 646//1096 647//1096
f 601//1097 647//1097 602//1097
f 602//1098 647//1098 648//1098
f 602//1099 648//1099 604//1099
f 604//1100 648//1100 649//1100
f 604//1101 649//1101 603//1101
f 603//1102 649//1102 575//1102
f 603//1103 575//1103 574//1103
f 631//1104 563//1104 559//1104
f 631//1105 559//1105 561//1105
f 624//1106 562//1106 650//1106
f 624//1107 650//1107 641//1107
f 641//1108 651//1108 642//1108
f 642//1109 651//1109 652//1109
f 560//1110 653//1110 562//1110
f 562//1111 653//1111 654//1111
f 651//1112 641//1112 650//1112
f 651//1113 650//1113 654//1113
f 654//1114 650//1114 562//1114
f 552//1115 551//1115 655//1115
f 655//1116 551//1116 656//1116
f 657//1117 545//1117 658//1117
f 658//1118 545//1118 546//1118
f 658//1119 546//1119 659//1119
f 659//1120 546//1120 554//1120
f 657//1121 482//1121 545//1121
f 653//1122 560//1122 559//1122
f 653//1123 559//1123 660//1123
f 660//1124 559//1124 564//1124
f 642//1125 652//1125 636//1125
f 636//1126 652//1126 661//1126
f 662//1127 462//1127 663//1127
f 663//1128 462//1128 461//1128
f 663//1129 461//1129 664//1129
f 664//1130 461//1130 640//1130
f 551//1131 550//1131 656//1131
f 656//1132 550//1132 549//1132
f 656//1133 549//1133 662//1133
f 662//1134 549//1134 462//1134
f 554//1135 553//1135 659//1135
f 659//1136 553//1136 655//1136
f 655//1137 553//1137 552//1137
f 482//1138 657//1138 665//1138
f 482//1139 665//1139 479//1139
f 469//1140 666//1140 471//1140
f 471//1141 666//1141 667//1141
f 668//1142 515//1142 669//1142
f 670//1143 512//1143 671//1143
f 671//1144 512//1144 513//1144
f 672//1145 638//1145 661//1145
f 661//1146 638//1146 637//1146
f 661//1147 637//1147 636//1147
f 473//1148 477//1148 673//1148
f 673//1142 477//1142 674//1142
f 666//1149 469//1149 673//1149
f 673//1150 469//1150 473//1150
f 515//1151 516//1151 669//1151
f 669//1152 516//1152 517//1152
f 669//1153 517//1153 667//1153
f 667//1154 517//1154 471//1154
f 513//1155 514//1155 671//1155
f 671//1156 514//1156 668//1156
f 668//1157 514//1157 515//1157
f 564//1158 568//1158 660//1158
f 660//1142 568//1142 675//1142
f 640//1159 639//1159 664//1159
f 664//1160 639//1160 672//1160
f 672//1161 639//1161 638//1161
f 476//1162 479//1162 676//1162
f 676//1163 479//1163 665//1163
f 510//1164 511//1164 677//1164
f 677//1165 511//1165 670//1165
f 670//1166 511//1166 512//1166
f 678//1167 576//1167 679//1167
f 679//1168 576//1168 467//1168
f 679//1169 467//1169 677//1169
f 677//1170 467//1170 510//1170
f 568//1171 567//1171 675//1171
f 675//1172 567//1172 680//1172
f 477//1173 476//1173 674//1173
f 674//1174 476//1174 676//1174
f 681//1175 643//1175 678//1175
f 678//1176 643//1176 576//1176
f 646//1177 645//1177 682//1177
f 682//1178 645//1178 681//1178
f 681//1179 645//1179 644//1179
f 681//1180 644//1180 643//1180
f 573//1181 575//1181 683//1181
f 683//1182 575//1182 684//1182
f 684//1183 575//1183 649//1183
f 684//1184 649//1184 685//1184
f 685//1185 649//1185 648//1185
f 567//1186 570//1186 680//1186
f 680//1187 570//1187 686//1187
f 648//1188 647//1188 685//1188
f 685//1189 647//1189 682//1189
f 682//1190 647//1190 646//1190
f 686//1191 570//1191 573//1191
f 686//1192 573//1192 683//1192
