mtllib ../materials.mtl
v -0 0.057047 0.163065
v 0.005937 0.057047 0.162659
v -0.011763 0.057047 0.161448
v -0.005937 0.057047 0.162659
v -0.031864 0.057047 0.149224
v -0.027515 0.057047 0.153286
v -0.022654 0.057047 0.156718
v -0.01737 0.057047 0.159455
v -0.041082 0.057047 0.134066
v -0.038711 0.057047 0.139524
v -0.035619 0.057047 0.144608
v -0.043498 0.057047 0.11649
v -0.043498 0.057047 0.122441
v -0.042688 0.057047 0.128336
v -0.038711 0.057047 0.099407
v -0.041082 0.057047 0.104865
v -0.042688 0.057047 0.110595
v -0.027515 0.057047 0.085645
v -0.031864 0.057047 0.089706
v -0.035619 0.057047 0.094323
v -0.011763 0.057047 0.077483
v -0.01737 0.057047 0.079476
v -0.022654 0.057047 0.082213
v 0.005937 0.057047 0.076272
v -0 0.057047 0.075866
v -0.005937 0.057047 0.076272
v 0.022653 0.057047 0.082213
v 0.01737 0.057047 0.079476
v 0.011763 0.057047 0.077483
v 0.035619 0.057047 0.094323
v 0.031864 0.057047 0.089706
v 0.027515 0.057047 0.085645
v 0.042687 0.057047 0.110595
v 0.041082 0.057047 0.104865
v 0.038711 0.057047 0.099407
v 0.042687 0.057047 0.128336
v 0.043498 0.057047 0.122441
v 0.043498 0.057047 0.11649
v 0.035619 0.057047 0.144608
v 0.038711 0.057047 0.139524
v 0.041082 0.057047 0.134066
v 0.022653 0.057047 0.156718
v 0.027515 0.057047 0.153286
v 0.031864 0.057047 0.149224
v 0.011763 0.057047 0.161448
v 0.01737 0.057047 0.159455
v 0.001053 0.048247 0.163197
v -0.003222 0.048246 0.163086
v -0.01148 0.048248 0.161678
v -0.007293 0.04824 0.16259
v -0.015449 0.048231 0.160372
v -0.019295 0.048257 0.158733
v -0.023 0.048241 0.156667
v -0.026568 0.048247 0.154218
v -0.029822 0.048246 0.151463
v -0.035387 0.048247 0.145183
v -0.032685 0.04824 0.148526
v -0.037736 0.048246 0.141583
v -0.039667 0.048243 0.137897
v -0.041226 0.048241 0.134073
v -0.042478 0.048247 0.129917
v -0.043287 0.048246 0.125747
v -0.043694 0.048247 0.117352
v -0.043682 0.048241 0.121664
v -0.043273 0.048246 0.113088
v -0.042482 0.04824 0.109065
v -0.041272 0.048248 0.104963
v -0.039597 0.048255 0.100861
v -0.037604 0.04823 0.097151
v -0.032739 0.048247 0.090453
v -0.035437 0.04824 0.09383
v -0.02975 0.048246 0.087401
v -0.026614 0.04824 0.084758
v -0.023091 0.048248 0.082311
v -0.019323 0.048246 0.080224
v -0.015511 0.048243 0.078568
v -0.007352 0.048247 0.076343
v -0.011581 0.04824 0.077289
v -0.003197 0.048246 0.075845
v 0.001063 0.048162 0.075852
v 0.005269 0.048247 0.076039
v 0.0095 0.048246 0.076769
v 0.013517 0.048243 0.077866
v 0.021277 0.048247 0.081244
v 0.017374 0.048241 0.079327
v 0.024877 0.048246 0.083489
v 0.028137 0.048241 0.08598
v 0.031305 0.048247 0.088911
v 0.034138 0.048246 0.092119
v 0.038727 0.048248 0.099121
v 0.036546 0.04824 0.095439
v 0.04059 0.048255 0.103139
v 0.041948 0.04823 0.107123
v 0.042905 0.048241 0.110973
v 0.043541 0.048247 0.115251
v 0.04374 0.048246 0.119514
v 0.042932 0.048248 0.127862
v 0.043539 0.04824 0.123611
v 0.041919 0.048231 0.131908
v 0.040561 0.048257 0.135866
v 0.038772 0.048241 0.139706
v 0.036583 0.048247 0.143451
v 0.034077 0.048246 0.146887
v 0.02821 0.048247 0.152899
v 0.031355 0.04824 0.149957
v 0.024797 0.048246 0.155497
v 0.021314 0.04824 0.157657
v 0.017481 0.048248 0.159566
v 0.013437 0.048242 0.161089
v 0.009405 0.048246 0.162182
v 0.00536 0.04824 0.162873
v 0.000947 0.048404 0.07567
v 0.003117 0.056309 0.075709
v 0.00886 0.056307 0.076502
v 0.014973 0.05635 0.078192
v 0.020002 0.056295 0.080418
v 0.025162 0.056119 0.083644
v 0.029916 0.056314 0.087365
v 0.034163 0.056348 0.091894
v 0.037561 0.056289 0.096812
v 0.040209 0.056309 0.101918
v 0.042121 0.056113 0.107567
v 0.04346 0.056313 0.113431
v 0.043901 0.056348 0.119661
v 0.043444 0.056309 0.125588
v 0.042148 0.056134 0.131331
v 0.04016 0.056349 0.137208
v 0.037568 0.056295 0.142123
v 0.033917 0.056348 0.147341
v 0.02984 0.05631 0.15163
v 0.025227 0.056134 0.155254
v 0.019987 0.056313 0.15852
v 0.014762 0.05631 0.16078
v 0.009003 0.056117 0.162303
v 0.003045 0.056314 0.163238
v -0.003176 0.056348 0.163252
v -0.009071 0.056289 0.162381
v -0.014621 0.056308 0.160828
v -0.02043 0.056349 0.158326
v -0.025203 0.056295 0.155375
v -0.030114 0.056348 0.151411
v -0.034153 0.05633 0.14702
v -0.037436 0.056134 0.142177
v -0.040381 0.05635 0.1367
v -0.042196 0.056295 0.131476
v -0.043356 0.056121 0.125527
v -0.04388 0.056315 0.119506
v -0.043465 0.056306 0.113551
v -0.042191 0.056312 0.107445
v -0.04027 0.056309 0.102055
v -0.037449 0.056115 0.096805
v -0.034072 0.056313 0.091818
v -0.029827 0.056348 0.087253
v -0.025177 0.056308 0.083537
v -0.020157 0.056128 0.080602
v -0.01443 0.056312 0.078025
v -0.009063 0.056295 0.07654
v -0.002989 0.0563 0.075713
v -0.02372 -0.038263 0.066566
v -0.028801 -0.03461 0.066566
v -0.02543 -0.035878 0.066566
v -0.042679 -0.014198 0.066566
v -0.044022 -0.009289 0.066567
v -0.042462 -0.011749 0.066566
v 0.005923 0.044817 0.066566
v 0.01214 0.043634 0.066566
v 0.008972 0.043323 0.066566
v -0.044782 -0.004422 0.066567
v -0.043686 -0.005857 0.066566
v 0.005923 -0.044521 0.066566
v -0.000307 -0.044879 0.066566
v 0.003009 -0.043846 0.066566
v -0.044097 0.000148 0.066566
v -0.045018 0.000191 0.066568
v -0.028869 0.034819 0.066566
v -0.022856 0.039141 0.066566
v -0.02543 0.036174 0.066566
v -0.038185 0.024056 0.066567
v -0.036319 0.026842 0.066566
v -0.037677 0.02306 0.066566
v -0.034207 0.027977 0.066566
v -0.040446 0.017716 0.066566
v -0.040523 0.019831 0.066567
v -0.043999 0.00966 0.066568
v -0.042462 0.012045 0.066566
v -0.043686 0.006152 0.066566
v -0.044779 0.004698 0.066567
v -0.037677 -0.022764 0.066566
v -0.037842 -0.024322 0.066566
v -0.040633 -0.01931 0.066567
v -0.040446 -0.01742 0.066566
v -0.03272 -0.030899 0.066566
v -0.035529 -0.02758 0.066566
v -0.034207 -0.027681 0.066566
v -0.030099 -0.03208 0.066566
v 0.02543 -0.035878 0.066566
v 0.028633 -0.034729 0.066566
v 0.022129 -0.039262 0.066566
v 0.017998 0.041557 0.066566
v 0.014767 0.041699 0.066566
v 0.020287 0.039301 0.066566
v -0.014767 0.041699 0.066566
v -0.011337 0.043823 0.066566
v -0.008972 0.043322 0.066566
v -0.042603 0.014715 0.066567
v -0.017307 -0.041602 0.066566
v -0.020288 -0.039005 0.066566
v -0.011376 -0.043516 0.066566
v -0.014767 -0.041403 0.066566
v 0.032788 -0.030819 0.066566
v 0.030099 -0.03208 0.066566
v 0.044819 -0.004027 0.066568
v 0.044034 -0.009207 0.066568
v 0.043686 -0.005857 0.066566
v 0.042462 -0.011749 0.066566
v 0.042687 -0.014156 0.066567
v 0.042462 0.012045 0.066566
v 0.042741 0.014309 0.066567
v 0.044155 0.008985 0.066567
v 0.043686 0.006152 0.066566
v 0.026643 0.036545 0.066566
v 0.02543 0.036174 0.066566
v 0.023242 0.038863 0.066566
v -0.000307 0.045175 0.066566
v 0.003009 0.044142 0.066566
v -0.006443 0.044752 0.066566
v -0.003009 0.044142 0.066566
v -0.006565 -0.044443 0.066566
v -0.008972 -0.043027 0.066566
v -0.003009 -0.043846 0.066566
v 0.014767 -0.041403 0.066566
v 0.015523 -0.042245 0.066566
v 0.010703 -0.043671 0.066566
v 0.008972 -0.043027 0.066566
v 0.020287 -0.039005 0.066566
v 0.041074 -0.018302 0.066568
v 0.040446 -0.01742 0.066566
v 0.044097 0.000148 0.066566
v 0.045004 0.000052 0.066567
v 0.044828 0.004141 0.066568
v 0.040446 0.017716 0.066566
v 0.040637 0.019594 0.066567
v 0.037677 0.02306 0.066566
v 0.03788 0.02456 0.066566
v 0.034206 0.027977 0.066566
v 0.035446 0.027986 0.066566
v 0.029186 0.034548 0.066566
v 0.03281 0.031088 0.066566
v 0.030098 0.032376 0.066566
v -0.016197 0.04229 0.066566
v -0.032842 0.031054 0.066566
v -0.030099 0.032375 0.066566
v 0.035177 -0.028037 0.066567
v 0.034206 -0.027681 0.066566
v 0.039423 -0.021675 0.066566
v 0.037822 -0.024356 0.066567
v 0.037677 -0.022764 0.066566
v -0.020288 0.039301 0.066566
v 0.042464 0.056447 0.131363
v 0.025431 0.056447 0.155493
v 0.008972 0.056447 0.162642
v -0.037679 0.056447 0.142379
v -0.043689 0.056447 0.12547
v -0.037679 0.056447 0.096552
v -0.020289 0.056447 0.08031
v 0.025431 0.056447 0.083438
v 0.042464 0.056447 0.107568
v -0.035636 0.02733 0.08702
v -0.025342 0.037135 0.077846
v -0.020828 0.039887 0.076155
v -0.016278 0.041999 0.074862
v -0.012501 0.043301 0.074416
v -0.006302 0.044701 0.073258
v -0.010002 0.043986 0.074153
v -0.002586 0.045094 0.073275
v -0.000035 0.045165 0.073148
v 0.002513 0.04509 0.073204
v 0.005051 0.044857 0.073293
v 0.00872 0.044272 0.073587
v 0.012535 0.043303 0.0746
v 0.01615 0.042055 0.074925
v 0.019759 0.040418 0.07592
v 0.023137 0.038565 0.077013
v 0.044991 0.000142 0.111283
v 0.044952 -0.001745 0.116764
v 0.045 0.006676 0.119185
v 0.04274 0.018549 0.104378
v 0.040813 0.024538 0.10042
v 0.0428 0.021498 0.105527
v -0.044991 0.000193 0.111903
v -0.044806 0.004404 0.106055
v 0.002535 0.045762 0.074236
v 0.000004 0.04583 0.074159
v 0.000923 0.046679 0.074458
v 0.008564 0.045788 0.075277
v 0.005063 0.045478 0.074415
v 0.00457 0.046444 0.074689
v 0.027513 0.035574 0.08061
v 0.03008 0.033521 0.083173
v 0.032214 0.031279 0.081595
v 0.023089 0.038735 0.078884
v 0.018609 0.041112 0.076794
v 0.014957 0.042643 0.075722
v 0.038362 0.028093 0.095879
v 0.035486 0.029394 0.090605
v 0.03529 0.031685 0.091509
v 0.032109 0.032944 0.086991
v 0.032324 0.034458 0.088148
v 0.030232 0.034614 0.085291
v 0.029512 0.036654 0.085471
v 0.028297 0.036153 0.083722
v 0.026273 0.037594 0.082252
v 0.025162 0.039483 0.082143
v 0.023088 0.039577 0.080231
v 0.020905 0.041663 0.079603
v 0.044062 0.017358 0.11029
v 0.032074 0.031587 0.084661
v 0.035429 0.027691 0.087503
v 0.038386 0.023347 0.090094
v 0.044034 0.009373 0.101283
v 0.0448 0.004605 0.107427
v 0.042677 0.014336 0.098555
v 0.040796 0.018961 0.093854
v -0.044788 0.009392 0.113299
v -0.044999 0.006954 0.11924
v -0.0448 0.013928 0.115065
v -0.04407 0.017355 0.11028
v -0.044912 0.000191 0.116568
v -0.044034 0.011641 0.106523
v -0.042573 0.02161 0.104833
v -0.042699 0.016207 0.102092
v -0.040601 0.024916 0.099962
v -0.038028 0.0286 0.095339
v -0.040811 0.020631 0.09783
v -0.038396 0.024849 0.093778
v -0.035279 0.031619 0.091497
v -0.044045 0.009315 0.101353
v -0.035487 0.028804 0.089983
v -0.032131 0.033155 0.087169
v -0.031661 0.035022 0.08745
v -0.030232 0.034614 0.085291
v -0.028297 0.036153 0.083722
v -0.02884 0.037127 0.084919
v -0.026273 0.037594 0.082252
v -0.042721 0.014163 0.097585
v -0.005084 0.046122 0.074714
v -0.003027 0.046561 0.074564
v -0.002531 0.045823 0.074269
v 0.007561 0.044911 0.074546
v 0.011837 0.044987 0.076006
v 0.010035 0.044407 0.075028
v 0.01255 0.043923 0.075803
v 0.016595 0.043457 0.077618
v 0.015012 0.043251 0.076651
v -0.007561 0.044911 0.074546
v -0.008804 0.045654 0.0753
v -0.005013 0.045184 0.074075
v -0.023094 0.038734 0.078892
v -0.026274 0.036586 0.080617
v -0.028359 0.03492 0.081759
v -0.030177 0.033412 0.083198
v -0.032357 0.031139 0.081328
v -0.0321 0.031612 0.084961
v -0.012596 0.044502 0.076193
v -0.010124 0.04455 0.075161
v 0.044034 0.011489 0.106333
v 0.044803 0.013007 0.115064
v 0.038396 0.024811 0.093729
v 0.027353 0.035978 0.081674
v 0.018558 0.041604 0.077714
v -0.013777 0.043422 0.075983
v -0.016256 0.043531 0.077454
v 0.040811 0.020574 0.097757
v -0.015022 0.042623 0.075753
v -0.018577 0.04113 0.07679
v -0.020882 0.041653 0.07958
v -0.018558 0.041604 0.077714
v -0.025448 0.039326 0.082341
v -0.023088 0.039577 0.080231
v -0.038446 0.023315 0.090476
v -0.040848 0.018849 0.093945
v -0.044802 -0.004084 0.105747
v -0.044988 -0.011673 0.118282
v -0.044986 -0.004832 0.118338
v -0.044788 -0.008106 0.112389
v -0.018283 -0.042568 0.078339
v -0.013658 -0.043596 0.076313
v -0.012971 -0.044418 0.076354
v -0.007395 -0.045006 0.074826
v -0.008566 -0.04558 0.07529
v -0.009989 -0.044508 0.075342
v 0.044807 -0.013508 0.115114
v 0.044359 -0.017145 0.111919
v 0.04399 -0.017352 0.109962
v 0.044792 -0.008294 0.112586
v 0.044985 -0.011363 0.118396
v 0.044807 -0.004134 0.106189
v 0.028013 -0.034849 0.081109
v 0.023191 -0.038237 0.077028
v 0.018626 -0.040691 0.075554
v 0.013477 -0.042726 0.074819
v 0.008599 -0.044002 0.073668
v 0.005115 -0.044569 0.073457
v 0.00259 -0.044798 0.073276
v 0.000037 -0.044869 0.073148
v -0.002511 -0.044795 0.073204
v -0.005055 -0.044583 0.073515
v -0.007613 -0.044194 0.073761
v -0.011156 -0.043402 0.073841
v -0.016268 -0.041706 0.074855
v -0.0197 -0.040149 0.075835
v -0.023065 -0.038316 0.077009
v -0.027577 -0.0352 0.078638
v 0.00505 -0.045835 0.074716
v 0.007562 -0.044729 0.074664
v 0.008793 -0.045414 0.075311
v 0.012515 -0.044361 0.076209
v 0.015021 -0.043062 0.076727
v 0.016245 -0.043314 0.077469
v 0.032375 -0.030826 0.081313
v 0.03149 -0.03187 0.08387
v 0.025246 -0.03701 0.079809
v 0.022091 -0.039017 0.078437
v 0.018551 -0.04088 0.076933
v 0.015095 -0.042339 0.075898
v 0.0101 -0.043984 0.074894
v 0.040907 -0.018356 0.093705
v 0.044042 -0.009029 0.101331
v 0.035539 -0.0272 0.086751
v 0.038446 -0.023021 0.090478
v 0.042721 -0.013868 0.097585
v -0.042838 -0.021112 0.105642
v -0.044265 -0.016615 0.111235
v -0.042741 -0.018253 0.104378
v 0.001834 -0.04632 0.074481
v 0.002529 -0.045528 0.07427
v -0.000008 -0.045588 0.074209
v -0.003694 -0.046202 0.074591
v -0.002534 -0.045467 0.074237
v -0.005062 -0.045375 0.074519
v -0.025231 -0.03912 0.08219
v -0.029598 -0.036221 0.085535
v -0.026308 -0.037483 0.082426
v -0.021314 -0.041211 0.079827
v -0.021979 -0.039867 0.079632
v -0.018558 -0.041523 0.077939
v -0.015023 -0.04269 0.076382
v -0.025049 -0.037766 0.081052
v -0.029339 -0.035101 0.084493
v -0.032112 -0.032219 0.086549
v -0.032143 -0.03422 0.087951
v -0.035487 -0.029098 0.090605
v -0.035232 -0.031468 0.091446
v -0.038197 -0.028091 0.095651
v -0.044034 -0.013678 0.108632
v -0.044026 -0.009157 0.102485
v -0.042677 -0.014041 0.098555
v -0.040811 -0.020278 0.097757
v -0.040796 -0.018666 0.093854
v -0.038386 -0.023053 0.090095
v -0.044812 -0.013358 0.115182
v -0.038396 -0.024516 0.093729
v -0.035428 -0.027398 0.087504
v -0.031975 -0.03124 0.083787
v -0.029339 -0.034345 0.08357
v -0.029289 -0.033895 0.082311
v -0.025262 -0.036998 0.079812
v -0.020858 -0.039721 0.07786
v -0.040738 -0.02441 0.100282
v -0.016233 -0.041874 0.076078
v -0.01132 -0.043553 0.074837
v 0.005094 -0.045097 0.074288
v 0.018558 -0.041523 0.077939
v 0.021057 -0.041309 0.079668
v 0.021978 -0.039867 0.079632
v 0.025263 -0.038172 0.081697
v 0.025501 -0.039013 0.082384
v 0.029504 -0.036311 0.085465
v 0.032071 -0.032411 0.086741
v 0.032119 -0.034296 0.08792
v 0.03541 -0.031209 0.09166
v 0.025273 -0.037401 0.08082
v 0.044034 -0.011345 0.106523
v 0.012594 -0.04347 0.075635
v 0.029339 -0.034345 0.08357
v 0.029339 -0.035101 0.084493
v 0.035499 -0.027808 0.088863
v 0.035504 -0.02914 0.090594
v 0.038396 -0.024553 0.093778
v 0.040811 -0.020335 0.09783
v 0.042699 -0.015912 0.102092
v 0.038153 -0.028196 0.09559
v 0.040619 -0.024582 0.099998
v 0.042646 -0.021171 0.105044
v -0.039462 0.056447 0.141091
v -0.036228 0.056447 0.146158
v -0.032347 0.056447 0.150749
v -0.027888 0.056447 0.154781
v -0.022933 0.056447 0.158183
v -0.017567 0.056447 0.160894
v -0.011889 0.056447 0.162866
v -0.005998 0.056447 0.164063
v -0 0.056447 0.164465
v 0.005998 0.056447 0.164063
v 0.011889 0.056447 0.162866
v 0.017567 0.056447 0.160894
v 0.022932 0.056447 0.158183
v 0.027888 0.056447 0.154781
v 0.032347 0.056447 0.150749
v 0.036228 0.056447 0.146158
v 0.039462 0.056447 0.141091
v 0.041993 0.056447 0.135639
v 0.043773 0.056447 0.129897
v 0.044773 0.056447 0.12397
v 0.044974 0.056447 0.117962
v 0.044373 0.056447 0.111981
v 0.042979 0.056447 0.106133
v 0.040818 0.056447 0.100524
v 0.03793 0.056447 0.095252
v 0.034364 0.056447 0.090413
v 0.030185 0.056447 0.086092
v 0.025467 0.056447 0.082366
v 0.020295 0.056447 0.079303
v 0.014761 0.056447 0.076956
v 0.008963 0.056447 0.075368
v 0.003006 0.056447 0.074566
v -0.003006 0.056447 0.074566
v -0.008963 0.056447 0.075368
v -0.014761 0.056447 0.076956
v -0.020295 0.056447 0.079303
v -0.025467 0.056447 0.082366
v -0.030185 0.056447 0.086092
v -0.034364 0.056447 0.090413
v -0.03793 0.056447 0.095252
v -0.040819 0.056447 0.100524
v -0.042979 0.056447 0.106133
v -0.044373 0.056447 0.111981
v -0.044974 0.056447 0.117962
v -0.044773 0.056447 0.12397
v -0.043774 0.056447 0.129897
v -0.041993 0.056447 0.135639
v 0.04473 -0.027292 0.124924
v 0.044934 -0.030479 0.117002
v 0.044095 -0.033102 0.11048
v 0.042625 -0.035293 0.105044
v 0.040368 -0.037466 0.099636
v 0.038166 -0.039079 0.095614
v 0.036564 -0.040037 0.093236
v 0.033728 -0.041467 0.089687
v 0.030865 -0.042659 0.086717
v 0.028685 -0.043433 0.084791
v 0.026424 -0.044139 0.083031
v 0.021685 -0.045347 0.080036
v 0.019214 -0.045854 0.078777
v 0.02411 -0.044771 0.081461
v 0.014008 -0.046688 0.076706
v 0.016612 -0.046309 0.077648
v 0.005925 -0.04743 0.074859
v 0.008584 -0.047255 0.075293
v 0.011317 -0.047005 0.075912
v -0.008418 -0.047268 0.075262
v -0.005624 -0.047445 0.07482
v -0.00281 -0.047552 0.074556
v 0.000241 -0.047588 0.074466
v 0.003151 -0.047543 0.074577
v -0.019305 -0.045837 0.078822
v -0.016667 -0.0463 0.077668
v -0.013998 -0.046689 0.0767
v -0.011283 -0.047009 0.075904
v -0.021851 -0.04531 0.080125
v -0.031059 -0.042586 0.086896
v -0.027686 -0.043755 0.083996
v -0.02431 -0.044718 0.081603
v -0.033854 -0.041408 0.089827
v -0.038187 -0.039063 0.095657
v -0.036691 -0.039966 0.093413
v -0.040385 -0.037453 0.099668
v -0.042072 -0.035909 0.103499
v -0.043081 -0.034728 0.106434
v -0.044425 -0.032444 0.112114
v -0.044962 -0.03018 0.117743
v -0.044763 -0.0276 0.124157
v -0.003151 -0.011431 0.164354
v -0.000237 -0.011386 0.164468
v -0.011319 -0.011969 0.163018
v -0.008585 -0.011719 0.163638
v -0.005958 -0.011547 0.164071
v -0.016611 -0.012665 0.161287
v -0.013999 -0.012285 0.162224
v -0.021685 -0.013627 0.158895
v -0.019183 -0.013114 0.160171
v -0.027593 -0.01519 0.155015
v -0.024111 -0.014206 0.157449
v -0.033476 -0.017381 0.14956
v -0.03089 -0.016325 0.152188
v -0.037301 -0.019338 0.144693
v -0.042395 -0.023398 0.134605
v -0.039998 -0.021189 0.140095
v -0.04392 -0.025549 0.129257
v 0.043435 -0.024742 0.131264
v 0.042049 -0.023044 0.135484
v 0.040021 -0.021209 0.140043
v 0.037363 -0.01938 0.144586
v 0.033516 -0.017405 0.149497
v 0.027743 -0.015238 0.154894
v 0.031072 -0.016395 0.152015
v 0.024278 -0.014249 0.157342
v 0.019311 -0.013139 0.16011
v 0.021858 -0.013666 0.1588
v 0.01399 -0.012284 0.162228
v 0.016669 -0.012675 0.161263
v 0.011283 -0.011965 0.163027
v 0.005634 -0.011529 0.164115
v 0.008405 -0.011705 0.163673
v 0.002803 -0.011422 0.164373
vn -0 0.001 -0
vn -0 0.001 -0
vn -0 0.001 -0
vn -0 0.001 -0
vn -0 0.001 -0
vn 0 0.001 -0
vn 0 0.001 -0
vn -0 0.001 -0
vn 0 0.001 -0
vn -0 0.001 -0
vn -0 0.001 -0
vn -0 0.001 -0
vn 0 0.001 -0
vn -0 0.001 -0
vn -0 0.001 -0
vn 0 0.001 -0
vn -0 0.001 -0
vn -0 0.001 -0
vn -0 0.001 -0
vn -0 0.001 -0
vn 0 0.001 -0
vn -0 0.001 -0
vn -0 0.001 -0
vn 0 0.001 -0
vn -0 0.001 -0
vn 0 0.001 -0
vn 0 0.001 -0
vn -0 0.001 -0
vn -0 0.001 -0
vn 0 0.001 -0
vn -0 0.001 -0
vn -0 0.001 -0
vn -0.000026 0.000012 0.001
vn -0.000068 0.000027 0.000997
vn -0.000213 0.000019 0.000977
vn -0.000203 0.000024 0.000979
vn -0.000121 0.000011 0.000993
vn -0.000312 0.000015 0.00095
vn -0.000335 0.000025 0.000942
vn -0.000392 0.00001 0.00092
vn -0.00046 0.000028 0.000888
vn -0.000487 0.000014 0.000873
vn -0.000577 0.000018 0.000817
vn -0.000566 0.000026 0.000824
vn -0.000682 0.000028 0.000731
vn -0.000646 0.000011 0.000763
vn -0.000778 0.00002 0.000628
vn -0.000776 0.000022 0.000631
vn -0.000716 0.000011 0.000698
vn -0.000837 0.000014 0.000546
vn -0.000854 0.000027 0.000519
vn -0.000886 0.00001 0.000464
vn -0.000917 0.000026 0.000398
vn -0.000926 0.000015 0.000377
vn -0.000963 0.000016 0.00027
vn -0.000957 0.000029 0.000288
vn -0.00099 0.000027 0.000136
vn -0.000982 0.000011 0.00019
vn -0.001 0.000023 0.000003
vn -0.001 0.000021 -0
vn -0.000995 0.000012 0.000096
vn -0.000995 0.000013 -0.000098
vn -0.00099 0.000027 -0.000136
vn -0.000981 0.000011 -0.000193
vn -0.000963 0.000024 -0.00027
vn -0.000959 0.000018 -0.000283
vn -0.000917 0.000027 -0.000398
vn -0.000926 0.000016 -0.000378
vn -0.000854 0.000026 -0.000519
vn -0.000881 0.00001 -0.000473
vn -0.000781 0.000025 -0.000624
vn -0.000776 0.000019 -0.000631
vn -0.000837 0.000013 -0.000546
vn -0.000714 0.000012 -0.0007
vn -0.000682 0.000027 -0.000731
vn -0.000644 0.000011 -0.000765
vn -0.000577 0.000023 -0.000817
vn -0.00057 0.000019 -0.000821
vn -0.00046 0.000027 -0.000888
vn -0.000484 0.000014 -0.000875
vn -0.000335 0.000026 -0.000942
vn -0.000399 0.00001 -0.000917
vn -0.000218 0.000027 -0.000975
vn -0.000203 0.000017 -0.000979
vn -0.000309 0.000014 -0.000951
vn -0.000119 0.000011 -0.000993
vn -0.000068 0.000027 -0.000997
vn 0.000002 0.000002 -0.001
vn 0.000068 0.00001 -0.000998
vn 0.000044 0.000023 -0.000999
vn 0.000203 0.000027 -0.000979
vn 0.00017 0.000013 -0.000985
vn 0.000335 0.000026 -0.000942
vn 0.000263 0.00001 -0.000965
vn 0.000441 0.00003 -0.000897
vn 0.00046 0.000015 -0.000888
vn 0.000354 0.000016 -0.000935
vn 0.000529 0.000011 -0.000848
vn 0.000576 0.000027 -0.000817
vn 0.000607 0.000013 -0.000794
vn 0.000682 0.00002 -0.000731
vn 0.000679 0.000023 -0.000734
vn 0.000775 0.000027 -0.000631
vn 0.00075 0.000012 -0.000662
vn 0.00086 0.000018 -0.00051
vn 0.000854 0.000024 -0.000519
vn 0.000809 0.000011 -0.000587
vn 0.000907 0.000015 -0.000421
vn 0.000917 0.000027 -0.000398
vn 0.000946 0.00001 -0.000323
vn 0.000963 0.000026 -0.00027
vn 0.00097 0.000014 -0.000241
vn 0.000991 0.000019 -0.000136
vn 0.000989 0.000026 -0.000147
vn 0.001 0.000028 -0
vn 0.000999 0.000011 -0.000047
vn 0.00099 0.00002 0.000141
vn 0.00099 0.000023 0.000136
vn 0.000999 0.000011 0.000049
vn 0.00097 0.000014 0.000243
vn 0.000963 0.000025 0.00027
vn 0.000946 0.00001 0.000324
vn 0.000917 0.000027 0.000398
vn 0.000906 0.000015 0.000422
vn 0.000854 0.000017 0.00052
vn 0.000863 0.000028 0.000504
vn 0.000775 0.000027 0.000631
vn 0.000808 0.000011 0.000589
vn 0.000683 0.000022 0.00073
vn 0.000682 0.000021 0.000731
vn 0.000748 0.000012 0.000663
vn 0.000606 0.000013 0.000796
vn 0.000576 0.000027 0.000817
vn 0.000527 0.000011 0.00085
vn 0.00046 0.000025 0.000888
vn 0.000446 0.000017 0.000895
vn 0.000335 0.000025 0.000942
vn 0.000352 0.000016 0.000936
vn 0.000203 0.000027 0.000979
vn 0.000262 0.00001 0.000965
vn 0.000075 0.000024 0.000997
vn 0.000068 0.00002 0.000997
vn 0.000168 0.000013 0.000986
vn -0.000048 0.000585 0.00081
vn 0.00001 0.000603 0.000797
vn -0.000137 0.000004 0.000991
vn -0.00017 0.000019 0.000985
vn -0.000263 0.000011 0.000965
vn -0.000266 0.000009 0.000964
vn -0.000404 0.000036 0.000914
vn -0.000354 -0.000011 0.000935
vn -0.000441 0.000022 0.000897
vn -0.00053 0.000003 0.000848
vn -0.000529 0.000002 0.000849
vn -0.000607 0.000006 0.000794
vn -0.000616 0.000001 0.000787
vn -0.000679 0.000024 0.000734
vn -0.000729 0.000005 0.000684
vn -0.000749 0.000021 0.000662
vn -0.000822 0.000018 0.000568
vn -0.000809 0.000002 0.000587
vn -0.00086 0.000022 0.000509
vn -0.000888 0.000003 0.00046
vn -0.000907 0.000021 0.000421
vn -0.000947 0.000004 0.000321
vn -0.000946 0.000003 0.000323
vn -0.00097 0.000008 0.000241
vn -0.000975 -0.000001 0.000223
vn -0.000989 0.000023 0.000147
vn -0.000997 0.000006 0.000071
vn -0.000999 0.000019 0.000047
vn -0.000997 0.000021 -0.000077
vn -0.000999 0 -0.000049
vn -0.00099 0.000023 -0.000142
vn -0.000975 -0 -0.00022
vn -0.00097 0.00001 -0.000243
vn -0.000946 0.000004 -0.000324
vn -0.000947 0.000006 -0.000321
vn -0.000884 0.000033 -0.000466
vn -0.000906 -0.000009 -0.000422
vn -0.000863 0.000022 -0.000505
vn -0.000819 0.000006 -0.000573
vn -0.000808 0.000017 -0.000589
vn -0.000725 0.000024 -0.000689
vn -0.000748 -0.000003 -0.000663
vn -0.000683 0.000023 -0.00073
vn -0.000618 0.000001 -0.000786
vn -0.000606 0.000008 -0.000796
vn -0.000527 0.000003 -0.00085
vn -0.000529 0.000004 -0.000849
vn -0.000446 0.000022 -0.000895
vn -0.000397 0.000004 -0.000918
vn -0.000352 0.000022 -0.000936
vn -0.000256 0.000005 -0.000967
vn -0.000262 0.000001 -0.000965
vn -0.000168 0.000007 -0.000986
vn -0.000155 0 -0.000988
vn -0.000075 0.000024 -0.000997
vn -0.000002 0.000006 -0.001
vn 0.000026 0.00002 -0.000999
vn 0.000146 0.000019 -0.000989
vn 0.000121 0.000001 -0.000993
vn 0.000213 0.000022 -0.000977
vn 0.000269 0.000003 -0.000963
vn 0.000312 0.000022 -0.00095
vn 0.000392 0.000012 -0.00092
vn 0.000396 0.000009 -0.000918
vn 0.000525 0.000031 -0.00085
vn 0.000487 -0.000007 -0.000873
vn 0.000566 0.000023 -0.000824
vn 0.000628 0.000005 -0.000778
vn 0.000646 0.000018 -0.000763
vn 0.000736 0.000022 -0.000677
vn 0.000716 -0 -0.000698
vn 0.000778 0.000024 -0.000628
vn 0.000828 0.000001 -0.000561
vn 0.000837 0.000009 -0.000546
vn 0.000886 0.000001 -0.000464
vn 0.000881 0.000008 -0.000473
vn 0.000944 0.000035 -0.000328
vn 0.000926 -0.00001 -0.000377
vn 0.000957 0.000022 -0.000288
vn 0.000981 0.000003 -0.000191
vn 0.000982 0.000003 -0.00019
vn 0.000995 0.000006 -0.000096
vn 0.000996 0.000001 -0.000087
vn 0.001 0.000024 -0.000003
vn 0.000998 0.000004 0.00007
vn 0.000995 0.000018 0.000098
vn 0.000981 0.000012 0.000193
vn 0.000979 0.000006 0.000204
vn 0.000959 0.000022 0.000283
vn 0.000942 0.000004 0.000336
vn 0.000926 0.000021 0.000378
vn 0.000881 0.000003 0.000473
vn 0.000881 0.000003 0.000473
vn 0.000837 0.000008 0.000547
vn 0.000828 -0 0.000561
vn 0.000781 0.000023 0.000624
vn 0.000732 0.000006 0.000681
vn 0.000714 0.00002 0.0007
vn 0.000624 0.00002 0.000781
vn 0.000644 0.000001 0.000765
vn 0.00057 0.000023 0.000821
vn 0.000505 -0.000001 0.000863
vn 0.000484 0.000009 0.000875
vn 0.00041 -0 0.000912
vn 0.000399 0.000008 0.000917
vn 0.000267 0.000029 0.000963
vn 0.000309 -0.000008 0.000951
vn 0.000218 0.000023 0.000976
vn 0.000135 0.000004 0.000991
vn 0.000119 0.000013 0.000993
vn 0.000041 0.000015 0.000999
vn 0.000001 -0.000005 0.001
vn -0.000084 0.000018 0.000996
vn -0 -0 -0.001
vn -0.000001 0 -0.001
vn -0 -0 -0.001
vn -0.000001 -0 -0.001
vn 0 -0 -0.001
vn -0.000001 -0 -0.001
vn -0.000002 0 -0.001
vn -0 0 -0.001
vn -0.000001 0 -0.001
vn -0 0 -0.001
vn -0.000001 0 -0.001
vn -0.000001 0.000001 -0.001
vn -0.000002 0 -0.001
vn -0.000002 0.000001 -0.001
vn -0.000002 0 -0.001
vn -0.000001 -0 -0.001
vn -0.000001 -0 -0.001
vn -0.000001 -0 -0.001
vn -0.000001 -0.000001 -0.001
vn -0 -0 -0.001
vn -0 -0 -0.001
vn -0 -0 -0.001
vn -0 -0 -0.001
vn -0 -0 -0.001
vn 0 -0 -0.001
vn -0 -0 -0.001
vn -0 -0 -0.001
vn -0 -0 -0.001
vn 0 -0 -0.001
vn -0.000002 0 -0.001
vn -0 0 -0.001
vn -0.000001 0 -0.001
vn -0.000001 -0.000001 -0.001
vn -0 -0 -0.001
vn -0 -0 -0.001
vn 0 0 -0.001
vn -0 -0 -0.001
vn 0 0 -0.001
vn 0 -0 -0.001
vn 0 -0 -0.001
vn 0.000002 -0 -0.001
vn 0.000002 -0 -0.001
vn 0.000001 -0 -0.001
vn 0.000001 0 -0.001
vn 0.000001 0 -0.001
vn 0 0 -0.001
vn -0 0 -0.001
vn 0 0 -0.001
vn 0 0 -0.001
vn -0 0 -0.001
vn 0 0 -0.001
vn 0 -0 -0.001
vn -0 -0 -0.001
vn 0 -0 -0.001
vn 0 -0 -0.001
vn -0 0 -0.001
vn -0 0 -0.001
vn -0 -0 -0.001
vn 0 -0 -0.001
vn 0.000001 -0.000001 -0.001
vn 0.000001 -0 -0.001
vn 0.000002 -0 -0.001
vn 0 -0 -0.001
vn 0.000002 -0 -0.001
vn 0.000002 0 -0.001
vn 0.000001 0 -0.001
vn 0.000001 0 -0.001
vn 0 0 -0.001
vn 0 0 -0.001
vn 0.000001 0 -0.001
vn 0 0 -0.001
vn 0 0 -0.001
vn 0 0 -0.001
vn 0 0 -0.001
vn 0 0 -0.001
vn 0 0 -0.001
vn 0 0 -0.001
vn 0 -0 -0.001
vn -0 -0 -0.001
vn 0 -0 -0.001
vn -0 0 -0.001
vn -0 0 -0.001
vn -0 -0 -0.001
vn -0 -0 -0.001
vn -0 -0 -0.001
vn 0 -0 -0.001
vn 0.000001 -0 -0.001
vn 0 -0 -0.001
vn 0 -0 -0.001
vn 0 -0 -0.001
vn 0 -0 -0.001
vn 0.000002 -0 -0.001
vn 0 -0 -0.001
vn 0 -0 -0.001
vn 0 -0 -0.001
vn 0 -0 -0.001
vn 0 0 -0.001
vn 0 -0 -0.001
vn -0 0 -0.001
vn -0 0 -0.001
vn -0.00069 0.000711 -0.000134
vn -0.000668 0.0007 -0.000252
vn -0.000452 0.000709 -0.000542
vn -0.000359 0.000703 -0.000614
vn -0.000086 0.00071 -0.000699
vn -0.000206 0.000692 -0.000692
vn 0.000569 0.00071 -0.000414
vn 0.000639 0.000701 -0.000316
vn 0.000705 0.000691 -0.000158
vn 0.000703 0.00071 -0.000038
vn 0.00057 0.00071 0.000414
vn 0.000646 0.000692 0.000322
vn 0.000377 0.000705 0.000601
vn 0.000271 0.000708 0.000652
vn -0.000366 0.000692 0.000623
vn -0.000452 0.00071 0.00054
vn -0.000692 0.000709 0.000134
vn -0.000676 0.000692 0.000253
vn -0.000771 0.000637 0.000011
vn -0.000584 0.000812 0.000016
vn -0.000509 0.00086 0.000041
vn -0.000414 0.00091 0.000028
vn -0.000427 0.000904 0.00002
vn -0.000301 0.000954 0.000019
vn -0.000187 0.000982 0.000012
vn -0.000262 0.000965 0.000025
vn -0.000187 0.000982 0.000011
vn -0.000105 0.000994 0.00001
vn -0.000028 0.001 0.000003
vn -0.000069 0.000998 -0.000011
vn 0.000029 0.001 0
vn 0.000091 0.000996 0.000006
vn 0.000057 0.000998 -0.000012
vn 0.000157 0.000988 0.000014
vn 0.000187 0.000982 0.000002
vn 0.000239 0.000971 0.000028
vn 0.000325 0.000946 0.000023
vn 0.000334 0.000942 0.000018
vn 0.000405 0.000914 0.000035
vn 0.000473 0.00088 0.00003
vn 0.000457 0.000889 0.000022
vn 0.000563 0.000826 0.000029
vn 0.000999 0.000043 0
vn 0.001 -0.000007 0.000005
vn 0.000946 0.000101 -0.000308
vn -0.000999 0.000043 -0
vn -0.000999 0.000053 0.000001
vn 0.000037 0.000295 -0.000955
vn 0.000193 0.000358 -0.000914
vn 0.000103 0.000319 -0.000942
vn 0.000083 0.000368 -0.000926
vn 0.000683 0.000723 -0.000104
vn 0.000595 0.000801 -0.000058
vn 0.000492 0.000868 -0.000066
vn 0.000491 0.00087 -0.000044
vn 0.000439 0.000889 -0.000129
vn 0.000403 0.000912 -0.00007
vn 0.000336 0.000925 -0.00018
vn 0.000551 0.000834 0.000024
vn 0.000618 0.000786 0.000016
vn 0.000671 0.000741 0.000026
vn 0.000876 0.00024 -0.000418
vn 0.000821 0.000269 -0.000503
vn 0.000821 0.000268 -0.000504
vn 0.000775 0.000311 -0.000551
vn 0.000772 0.000321 -0.000548
vn 0.000736 0.000313 -0.000601
vn 0.000705 0.00038 -0.000599
vn 0.000705 0.00038 -0.000599
vn 0.000646 0.00034 -0.000684
vn 0.000616 0.00045 -0.000646
vn 0.000977 0.000061 -0.000206
vn 0.00071 0.000703 -0.000038
vn 0.000768 0.00064 -0.000029
vn 0.000815 0.000579 0.000012
vn 0.000874 0.000485 0.000006
vn 0.000987 0.000161 0.000002
vn 0.000965 0.000264 0
vn 0.000925 0.00038 0.000003
vn 0.000874 0.000486 0.000006
vn 0.000824 0.000566 0.000009
vn 0.000736 0.000677 0.00001
vn 0.000999 0.000043 0
vn 0.00099 0.000138 -0.000001
vn 0.000966 0.000257 0.000002
vn 0.000929 0.00037 0.000002
vn 0.000762 0.000647 0.000022
vn -0.000999 0.00001 -0.000032
vn -0.000992 0.000044 -0.00012
vn -0.001 -0.00002 0.000017
vn -0.000994 0.000055 -0.000092
vn -0.000977 0.000113 -0.000181
vn -0.000999 0.000026 -0.000025
vn -0.000977 0.000113 -0.000178
vn -0.000948 0.000161 -0.000274
vn -0.000916 0.000214 -0.000339
vn -0.000954 0.00017 -0.000247
vn -0.000991 0.00011 -0.000074
vn -0.001 0.000024 -0.000014
vn -0.000922 0.000223 -0.000317
vn -0.00087 0.00026 -0.000418
vn -0.000993 0.000109 -0.000047
vn -0.000976 0.0002 -0.000088
vn -0.00088 0.000274 -0.000389
vn -0.000817 0.000319 -0.000481
vn -0.000821 0.000281 -0.000497
vn -0.000775 0.00028 -0.000566
vn -0.000744 0.000363 -0.000561
vn -0.000752 0.000302 -0.000586
vn -0.000703 0.000362 -0.000613
vn -0.000976 0.0002 -0.000086
vn -0.00095 0.000285 -0.000125
vn -0.000131 0.000291 -0.000948
vn 0.000161 0.000517 -0.000841
vn 0.000291 0.000394 -0.000872
vn 0.000265 0.000533 -0.000804
vn 0.000339 0.00039 -0.000856
vn 0.00041 0.000428 -0.000805
vn 0.000401 0.000504 -0.000765
vn -0.000196 0.000517 -0.000833
vn -0.000209 0.00054 -0.000815
vn -0.000079 0.000557 -0.000826
vn -0.000036 0.00035 -0.000936
vn -0.000041 0.000371 -0.000928
vn -0.000545 0.000832 -0.000101
vn -0.00057 0.000821 -0.000029
vn -0.000645 0.000761 -0.000066
vn -0.000679 0.000728 -0.000095
vn -0.000703 0.000709 -0.000043
vn -0.00034 0.000507 -0.000792
vn -0.000267 0.000428 -0.000863
vn 0.00099 0.000094 -0.000104
vn 0.001 0.000018 -0.00002
vn 0.000999 0.000024 -0.000021
vn 0.000885 0.000401 -0.000236
vn 0.000819 0.000496 -0.000287
vn 0.000824 0.000484 -0.000294
vn 0.000772 0.000544 -0.000328
vn 0.000777 0.000535 -0.000332
vn 0.000726 0.000589 -0.000356
vn 0.000746 0.00054 -0.00039
vn 0.000703 0.000604 -0.000376
vn 0.000672 0.000603 -0.000431
vn 0.000654 0.000642 -0.000401
vn 0.000559 0.000703 -0.000439
vn 0.000484 0.000719 -0.000499
vn 0.000387 0.000761 -0.000521
vn -0.000028 0.000807 -0.00059
vn -0.000161 0.0008 -0.000578
vn -0.000399 0.000574 -0.000715
vn 0.000946 0.000258 -0.000197
vn 0.000982 0.000147 -0.000117
vn -0.000339 0.000925 -0.00017
vn -0.000404 0.000912 -0.00007
vn -0.000449 0.000883 -0.000137
vn -0.000522 0.000534 -0.000665
vn -0.000447 0.000428 -0.000786
vn -0.000356 0.000796 -0.000489
vn -0.000237 0.000835 -0.000496
vn 0.000097 0.00087 -0.000483
vn 0.000218 0.000853 -0.000474
vn 0.00062 0.00076 -0.000196
vn 0.000707 0.00069 -0.000156
vn -0.000447 0.000808 -0.000385
vn -0.000267 0.000875 -0.000403
vn -0.000157 0.000939 -0.000307
vn -0.000095 0.000915 -0.000391
vn -0.000619 0.000458 -0.000638
vn -0.000574 0.000383 -0.000724
vn 0.000176 0.000904 -0.000391
vn 0.000248 0.000917 -0.000312
vn 0.00032 0.00087 -0.000374
vn -0.000337 0.000521 -0.000784
vn -0.000051 0.000835 -0.000547
vn 0.000039 0.000834 -0.00055
vn 0.000036 0.000837 -0.000545
vn 0.000131 0.00083 -0.000542
vn 0.000299 0.000847 -0.00044
vn 0.000415 0.000807 -0.000421
vn 0.000452 0.000797 -0.000401
vn 0.000563 0.000741 -0.000365
vn 0.000861 0.000471 -0.000192
vn 0.000914 0.000375 -0.000153
vn 0.000916 0.00037 -0.000156
vn 0.000956 0.000271 -0.000116
vn 0.000972 0.000216 -0.000091
vn 0.000994 0.000104 -0.000044
vn 0.000433 0.000418 -0.000799
vn 0.000526 0.000523 -0.00067
vn 0.000574 0.000382 -0.000725
vn 0.000871 0.000275 -0.000407
vn 0.00092 0.000221 -0.000323
vn 0.000921 0.000217 -0.000324
vn 0.00096 0.000156 -0.000232
vn 0.000973 0.000125 -0.000192
vn 0.000993 0.000062 -0.000098
vn -0.000769 0.000519 -0.000374
vn -0.000839 0.000441 -0.000319
vn -0.00087 0.000452 -0.000197
vn -0.000916 0.00037 -0.000158
vn -0.000964 0.000264 0.000001
vn -0.000964 0.000266 0.000001
vn -0.000875 0.000484 0.000007
vn -0.000879 0.000477 0.000005
vn -0.000563 0.00074 -0.000368
vn -0.000452 0.000797 -0.0004
vn -0.000926 0.000377 0.000003
vn -0.000928 0.000373 0.000002
vn -0.000872 0.000454 -0.000182
vn -0.000802 0.00055 -0.000233
vn -0.000787 0.000526 -0.000322
vn -0.000746 0.000569 -0.000346
vn -0.000739 0.000581 -0.000342
vn -0.000695 0.000618 -0.000367
vn -0.000702 0.000606 -0.000373
vn -0.000652 0.000646 -0.000397
vn -0.000654 0.000642 -0.000401
vn -0.000559 0.000703 -0.00044
vn -0.000988 0.000155 0
vn -0.000988 0.000153 0
vn -0.000951 0.000285 -0.000122
vn -0.000915 0.000369 -0.000161
vn -0.000688 0.000725 0.000018
vn -0.00058 0.000814 0.000014
vn -0.000478 0.000878 -0.000026
vn -0.000742 0.00067 0.000021
vn -0.000777 0.000629 -0.000027
vn -0.000831 0.000557 0.000014
vn -0.000816 0.000579 0.000009
vn -0.000702 0.000365 -0.000612
vn -0.000646 0.000342 -0.000682
vn -0.000435 0.000799 -0.000416
vn -0.000281 0.000912 -0.000299
vn 0.00069 0.000723 0.000018
vn -0.000323 0.000946 0.00003
vn -0.000688 0.000726 0.000018
vn -0.000999 -0.000045 0.000001
vn -0.000999 -0.000051 -0
vn -0.000999 0.000001 -0.000034
vn -0.000441 -0.000409 -0.000799
vn -0.000237 -0.000269 -0.000933
vn -0.000309 -0.000367 -0.000878
vn 0.000981 0.000046 -0.00019
vn 0.000999 -0.000002 -0.000034
vn 0.000999 -0.000037 -0.000005
vn 0.000999 -0.000044 0
vn 0.000572 -0.00082 0.000018
vn 0.000561 -0.000827 0.000024
vn 0.000463 -0.000885 0.00004
vn 0.000412 -0.000911 0.000015
vn 0.000363 -0.000931 0.000036
vn 0.000284 -0.000959 0.000014
vn 0.000247 -0.000969 0.000028
vn 0.000175 -0.000985 0.000006
vn 0.00016 -0.000987 0.000012
vn 0.00009 -0.000996 0.000004
vn 0.000057 -0.000998 -0.000013
vn 0.000028 -0.001 0
vn -0.000029 -0.001 0.000003
vn -0.00007 -0.000998 -0.00001
vn -0.000083 -0.000997 -0.000002
vn -0.000149 -0.000989 0.000012
vn -0.000218 -0.000976 0.000002
vn -0.000189 -0.000982 0.000021
vn -0.000307 -0.000951 0.000024
vn -0.000404 -0.000914 0.000039
vn -0.000474 -0.00088 0.000016
vn -0.000462 -0.000887 0.000024
vn -0.00056 -0.000828 0.000031
vn -0.000584 -0.000812 0.000019
vn 0.00019 -0.000472 -0.000861
vn 0.000396 -0.000444 -0.000804
vn 0.000678 -0.000732 -0.000064
vn 0.000652 -0.000742 -0.000155
vn 0.000547 -0.000836 -0.000036
vn 0.000495 -0.000864 -0.000093
vn 0.000494 -0.000865 -0.000092
vn 0.000378 -0.00092 -0.000105
vn 0.000455 -0.000797 -0.000398
vn 0.000316 -0.000872 -0.000374
vn 0.000677 -0.000735 0.000023
vn 0.000858 -0.000513 0.000016
vn 0.000999 -0.000045 0
vn 0.000988 -0.000154 -0
vn 0.000817 -0.000577 0.000009
vn 0.000812 -0.000583 0.000011
vn 0.000884 -0.000468 0.000003
vn 0.000926 -0.000377 0.000002
vn 0.000964 -0.000264 0.000001
vn 0.000965 -0.000262 0.000001
vn 0.000989 -0.00015 0.000001
vn 0.000898 -0.00044 0.000005
vn 0.000932 -0.000363 0.000005
vn 0.000758 -0.000652 0.000021
vn 0.000743 -0.00067 0.000014
vn 0.000757 -0.000653 -0.000005
vn -0.000977 -0.000057 -0.000204
vn 0.000121 -0.000354 -0.000927
vn 0.00003 -0.000282 -0.000959
vn -0.000029 -0.000396 -0.000918
vn -0.000117 -0.000276 -0.000954
vn -0.000178 -0.000374 -0.00091
vn -0.000027 -0.000407 -0.000913
vn -0.000708 -0.00038 -0.000595
vn -0.000621 -0.000405 -0.000671
vn -0.000538 -0.000376 -0.000754
vn -0.000558 -0.000421 -0.000715
vn -0.000441 -0.00042 -0.000793
vn -0.000314 -0.000308 -0.000898
vn -0.000179 -0.000371 -0.000911
vn -0.000473 -0.000669 -0.000573
vn -0.000612 -0.000459 -0.000644
vn -0.000718 -0.000389 -0.000577
vn -0.000707 -0.000387 -0.000591
vn -0.000762 -0.000338 -0.000553
vn -0.000775 -0.000354 -0.000523
vn -0.000834 -0.000308 -0.000458
vn -0.000817 -0.000269 -0.00051
vn -0.000874 -0.000243 -0.000421
vn -0.000994 -0.000089 -0.000067
vn -0.000978 -0.000169 -0.000126
vn -0.000956 -0.000271 -0.000116
vn -0.000916 -0.00037 -0.000156
vn -0.000999 -0.00002 -0.000046
vn -0.000992 -0.000057 -0.000115
vn -0.000885 -0.000401 -0.000236
vn -0.000814 -0.000502 -0.000291
vn -0.000823 -0.000521 -0.000226
vn -0.000746 -0.000615 -0.000255
vn -0.000747 -0.000616 -0.00025
vn -0.000692 -0.000671 -0.000268
vn -0.000691 -0.000662 -0.000292
vn -0.000599 -0.000722 -0.000345
vn -0.000695 -0.000475 -0.000539
vn -0.000721 -0.000536 -0.000439
vn -0.000787 -0.000478 -0.000391
vn -0.00087 -0.00027 -0.000413
vn -0.000919 -0.000225 -0.000325
vn -0.000946 -0.000104 -0.000307
vn -0.000993 -0.000025 -0.000117
vn -0.000976 -0.000095 -0.000194
vn -0.00096 -0.000158 -0.000231
vn -0.000921 -0.000215 -0.000326
vn -0.000637 -0.000623 -0.000454
vn -0.000554 -0.000725 -0.00041
vn -0.000517 -0.000682 -0.000517
vn -0.000441 -0.000803 -0.0004
vn -0.000424 -0.000587 -0.000689
vn -0.000336 -0.000762 -0.000554
vn 0.000091 -0.000504 -0.000859
vn 0.000203 -0.0005 -0.000842
vn 0.00021 -0.000446 -0.00087
vn 0.000338 -0.000535 -0.000774
vn 0.000435 -0.000342 -0.000833
vn 0.000523 -0.000493 -0.000695
vn 0.00055 -0.00037 -0.000749
vn 0.000628 -0.000418 -0.000656
vn 0.000618 -0.000385 -0.000686
vn 0.000704 -0.000319 -0.000635
vn 0.000768 -0.000325 -0.000551
vn 0.000824 -0.000285 -0.00049
vn 0.000992 -0.000054 -0.000117
vn 0.000999 -0.000018 -0.000043
vn 0.000033 -0.000807 -0.00059
vn 0.000115 -0.000804 -0.000583
vn 0.000144 -0.000837 -0.000528
vn 0.000203 -0.000828 -0.000522
vn 0.000459 -0.000747 -0.000481
vn 0.000558 -0.000697 -0.00045
vn 0.000559 -0.0007 -0.000445
vn 0.000637 -0.000655 -0.000406
vn 0.000992 -0.000109 -0.000069
vn 0.001 -0.000018 -0.00001
vn -0.000266 -0.000714 -0.000648
vn -0.000293 -0.000789 -0.000541
vn -0.000177 -0.0008 -0.000573
vn -0.000201 -0.000769 -0.000607
vn -0.000097 -0.000781 -0.000616
vn 0.000384 -0.000713 -0.000587
vn 0.000485 -0.00068 -0.00055
vn 0.000626 -0.00059 -0.000511
vn 0.000711 -0.000532 -0.00046
vn 0.000713 -0.000542 -0.000444
vn 0.000789 -0.000476 -0.000389
vn 0.000821 -0.000451 -0.000349
vn 0.000888 -0.000364 -0.000282
vn 0.00017 -0.000872 -0.000459
vn 0.000293 -0.000892 -0.000345
vn 0.000792 -0.000591 -0.000155
vn 0.000863 -0.000489 -0.000125
vn -0.000135 -0.000829 -0.000542
vn -0.000036 -0.000837 -0.000545
vn -0.000046 -0.000826 -0.000562
vn 0.000051 -0.000828 -0.000559
vn 0.000305 -0.000845 -0.00044
vn 0.000418 -0.000849 -0.000322
vn 0.000602 -0.000739 -0.000302
vn 0.000669 -0.000687 -0.000284
vn 0.000677 -0.000702 -0.000221
vn 0.000742 -0.000611 -0.000275
vn 0.000743 -0.000614 -0.000266
vn 0.000828 -0.000496 -0.000261
vn 0.000863 -0.000463 -0.000202
vn 0.000914 -0.000372 -0.000159
vn 0.000915 -0.000372 -0.000158
vn 0.000951 -0.000285 -0.000115
vn 0.00095 -0.000285 -0.000125
vn 0.000976 -0.0002 -0.000086
vn 0.000976 -0.0002 -0.000088
vn 0.000993 -0.000109 -0.000047
vn -0.000391 -0.000768 -0.000508
vn 0.00034 -0.00053 -0.000777
vn 0.000422 -0.000517 -0.000745
vn 0.000702 -0.000386 -0.000599
vn 0.000772 -0.000331 -0.000542
vn 0.000823 -0.000289 -0.000488
vn 0.00087 -0.000256 -0.000421
vn 0.000874 -0.000262 -0.000409
vn 0.000922 -0.000221 -0.00032
vn 0.000917 -0.000214 -0.000337
vn 0.000954 -0.000169 -0.000247
vn 0.000949 -0.000162 -0.000272
vn 0.000977 -0.000111 -0.00018
vn 0.000977 -0.000111 -0.000181
vn 0.000994 -0.000061 -0.000094
vn -0.001 0.000021 0.000017
vn -0.000999 -0.000026 -0.000019
vn -0.001 -0.000025 -0.000013
vn -0.000992 -0.00011 -0.000065
vn -0.000874 -0.000486 0.000006
vn -0.000964 -0.000267 0.000001
vn -0.000965 -0.000264 0.000001
vn -0.000925 -0.00038 0.000003
vn -0.000928 -0.000372 0.000002
vn -0.000988 -0.000152 0.000001
vn -0.000988 -0.000154 0
vn -0.000726 -0.000681 -0.000096
vn -0.000612 -0.000791 -0.000004
vn -0.000586 -0.000807 -0.00008
vn -0.000532 -0.000847 -0.000018
vn -0.000504 -0.000857 -0.000107
vn -0.000441 -0.000895 -0.000063
vn -0.000437 -0.000893 -0.00011
vn -0.000348 -0.00093 -0.000117
vn -0.000344 -0.000918 -0.000196
vn -0.000219 -0.000959 -0.000182
vn -0.000763 -0.000646 0.00002
vn -0.000739 -0.000673 0.000009
vn -0.000874 -0.000487 0.000006
vn -0.000824 -0.000566 0.000009
vn -0.000815 -0.000579 0.000012
vn -0.000979 -0.00016 -0.000126
vn -0.000946 -0.000258 -0.000197
vn -0.000914 -0.000375 -0.000154
vn -0.000861 -0.000471 -0.000192
vn -0.000688 -0.000726 0.000015
vn -0.00065 -0.000759 0.000029
vn -0.00031 -0.00095 0.000027
vn 0.000685 -0.000728 0.000019
vn 0.000077 0.000996 -0.000049
vn 0.000087 0.000994 -0.000073
vn 0.000062 0.000996 -0.000062
vn 0.000066 0.000995 -0.000073
vn 0.000074 0.000994 -0.000078
vn 0.000083 0.000989 -0.000121
vn 0.000044 0.000995 -0.00009
vn 0.000044 0.000995 -0.000087
vn 0.000045 0.000995 -0.000088
vn 0.000044 0.000991 -0.000126
vn 0.000036 0.000993 -0.000115
vn 0.00003 0.000989 -0.000147
vn 0.000005 0.000995 -0.000103
vn 0.000007 0.000995 -0.000099
vn 0.000005 0.000995 -0.000095
vn -0.000009 0.000992 -0.000129
vn -0.000028 0.000998 -0.00006
vn 0.000005 0.000998 -0.000059
vn -0.000043 0.000991 -0.000125
vn -0.000044 0.000994 -0.000102
vn -0.000058 0.000992 -0.000116
vn -0.000051 0.000998 -0.000047
vn -0 0.001 -0
vn -0.000015 0.000998 -0.000053
vn -0.000089 0.000991 -0.000098
vn -0.000077 0.000995 -0.000064
vn -0.000075 0.000995 -0.000063
vn -0.000074 0.000995 -0.000062
vn -0.000122 0.000989 -0.000078
vn -0.000103 0.000994 -0.000044
vn -0.000088 0.000995 -0.000041
vn -0.000059 0.000998 -0.000006
vn -0.000033 0.000999 -0.00003
vn -0.00013 0.000991 -0.000022
vn -0.000105 0.000994 -0.000002
vn -0.000097 0.000995 -0.000003
vn -0.000091 0.000996 0.000001
vn -0.000126 0.000992 0.000013
vn -0.000087 0.000995 0.000038
vn -0.000032 0.000999 -0.000012
vn -0.000119 0.000992 0.000046
vn -0.000107 0.000993 0.000052
vn -0.000128 0.000989 0.00007
vn -0.000096 0.000992 0.000078
vn -0.000077 0.000995 0.000056
vn -0.000069 0.000996 0.000057
vn -0.000088 0.000992 0.000085
vn -0.000052 0.000994 0.000093
vn -0.000027 0.001 -0.000001
vn -0.000069 0.000991 0.000117
vn -0.000044 0.000991 0.000123
vn -0.000036 0.000996 0.000085
vn -0.00003 0.000996 0.000084
vn -0.000033 0.000992 0.00012
vn -0.000016 0.000992 0.000121
vn -0.000016 0.000992 0.000121
vn -0.000001 0.000993 0.00012
vn -0 0.000992 0.000128
vn 0.000017 0.000992 0.000127
vn 0.000018 0.000991 0.00013
vn 0.00004 0.00099 0.000132
vn 0.000032 0.000993 0.000116
vn 0.000064 0.000992 0.000106
vn -0.000028 0.001 0
vn 0.000061 0.000993 0.000103
vn 0.000085 0.000992 0.000096
vn 0.000054 0.000996 0.000068
vn 0.000063 0.000996 0.000066
vn 0.000081 0.000994 0.000078
vn 0.000126 0.00099 0.000068
vn -0.000038 0.000999 0.000007
vn 0.000099 0.000994 0.000054
vn 0.000125 0.000991 0.000044
vn 0.000104 0.000994 0.00004
vn 0.000125 0.000992 0.000027
vn 0.00011 0.000994 0.000026
vn 0.00014 0.00099 0.000008
vn 0.000105 0.000994 0.000011
vn 0.000158 0.000987 -0.000027
vn -0.000053 0.000998 0.000038
vn 0.000115 0.000993 -0.000019
vn 0.000161 0.000985 -0.000066
vn 0.000076 0.000997 -0.000024
vn 0.000104 0.000992 -0.000066
vn 0 0.001 -0
vn -0.00004 0.000998 0.000056
vn 0.001 -0.000005 0.000028
vn 0.001 0 -0.00002
vn 0.000995 -0.000005 0.000102
vn 0.000999 0.000001 0.000033
vn 0.000998 0.000001 -0.000055
vn 0.000991 -0.000007 -0.000131
vn 0.000992 -0.000005 -0.000126
vn 0.000983 0 -0.000185
vn 0.000965 -0.000002 -0.000262
vn 0.000924 -0.000007 -0.000383
vn 0.000928 -0.000001 -0.000372
vn 0.000965 -0.000001 -0.00026
vn 0.000877 -0 -0.00048
vn 0.00082 -0 -0.000572
vn 0.000874 -0.000003 -0.000486
vn 0.000828 0.000008 -0.000561
vn 0.000783 -0.000009 -0.000622
vn 0.000717 0.000016 -0.000697
vn 0.000693 -0.000022 -0.00072
vn 0.000749 0.000005 -0.000663
vn 0.000612 0.000011 -0.000791
vn 0.000608 0.000005 -0.000794
vn 0.000663 -0.000005 -0.000749
vn 0.000456 -0.00001 -0.00089
vn 0.000507 0 -0.000862
vn 0.000551 0.000054 -0.000833
vn 0.000526 -0.000013 -0.00085
vn 0.000319 0.000002 -0.000948
vn 0.000342 -0.000014 -0.00094
vn 0.000399 -0.000006 -0.000917
vn 0.000411 0.000012 -0.000911
vn 0.000157 -0.000002 -0.000988
vn 0.000162 -0.000009 -0.000987
vn 0.000222 -0.000015 -0.000975
vn 0.000234 0.000004 -0.000972
vn 0.000286 -0.000022 -0.000958
vn -0.000156 0.000003 -0.000988
vn -0.000138 0.000032 -0.00099
vn -0.000095 -0.000036 -0.000995
vn -0.00003 0.000006 -0.001
vn -0.000019 0.000036 -0.000999
vn 0.000039 -0.000037 -0.000999
vn 0.0001 0.000029 -0.000995
vn 0.000079 -0.000046 -0.000996
vn -0.000402 -0.000009 -0.000916
vn -0.000344 0.00002 -0.000939
vn -0.00034 0.00001 -0.000941
vn -0.000283 -0.000018 -0.000959
vn -0.00023 0.000019 -0.000973
vn -0.000219 -0.000003 -0.000976
vn -0.000457 -0.000005 -0.00089
vn -0.000439 0.000005 -0.000899
vn -0.000654 -0.000012 -0.000756
vn -0.000604 0.00001 -0.000797
vn -0.000514 0.000005 -0.000858
vn -0.000514 0.000005 -0.000858
vn -0.00058 -0.00001 -0.000814
vn -0.000747 0.000005 -0.000664
vn -0.000697 -0.000021 -0.000717
vn -0.00072 0.000017 -0.000694
vn -0.000818 -0.000001 -0.000576
vn -0.000786 -0.000008 -0.000618
vn -0.00083 0.000013 -0.000558
vn -0.000877 -0.000001 -0.00048
vn -0.000877 -0.000001 -0.00048
vn -0.000916 -0.000006 -0.000401
vn -0.000932 -0.000004 -0.000362
vn -0.000943 0.000017 -0.000331
vn -0.000973 0.000004 -0.000232
vn -0.00097 -0.000004 -0.000244
vn -0.000998 0 -0.000057
vn -0.000992 -0.000011 -0.000129
vn -0.000995 0.000005 -0.000097
vn -0.000999 0.000001 0.000033
vn -0.001 -0.000003 0.000026
vn -0.000999 -0 0.000038
vn -0.000999 -0.000002 0.000032
vn -0.000999 0.000002 -0.000037
vn -0.000999 -0.000001 -0.000049
vn -0.000995 -0.000003 -0.0001
vn -0.000989 0.000006 -0.000147
vn -0.000928 0.000003 -0.000373
vn -0.000973 -0.000003 -0.000232
vn -0.000965 0.000004 -0.000262
vn -0.000875 0.000003 -0.000485
vn -0.000933 -0 -0.000359
vn -0.000814 0.000001 -0.000581
vn -0.000877 0.000002 -0.000481
vn -0.000745 -0.000002 -0.000667
vn -0.000805 0.000004 -0.000593
vn -0.000719 0.000005 -0.000695
vn -0.00062 0 -0.000785
vn -0.000608 0.000006 -0.000794
vn -0.000667 -0.000001 -0.000745
vn -0.00051 0.000004 -0.00086
vn -0.000518 0.000001 -0.000856
vn -0.00039 0.00001 -0.000921
vn -0.000418 -0.000001 -0.000909
vn -0.000264 0.000002 -0.000964
vn -0.000235 0.00002 -0.000972
vn -0.000326 0.000001 -0.000945
vn -0.000133 0 -0.000991
vn -0.00008 0.000033 -0.000996
vn -0.000156 0.000004 -0.000988
vn -0 0.000011 -0.001
vn -0.000027 0 -0.001
vn 0.000063 -0.000002 -0.000998
vn 0.000147 0.000011 -0.000989
vn 0.000223 0.000024 -0.000975
vn 0.000264 -0.000002 -0.000964
vn 0.000133 0.000003 -0.000991
vn 0.000418 -0.000001 -0.000908
vn 0.00039 0.000008 -0.000921
vn 0.00032 -0.000003 -0.000947
vn 0.000513 0.000002 -0.000858
vn 0.00051 0.000004 -0.00086
vn 0.000609 0.000004 -0.000793
vn 0.00062 -0.000001 -0.000785
vn 0.000749 -0.000001 -0.000662
vn 0.000693 0.00001 -0.00072
vn 0.000719 -0.000003 -0.000695
vn 0.000818 -0 -0.000575
vn 0.000805 0.000004 -0.000593
vn 0.00088 0.000001 -0.000474
vn 0.000877 0.000003 -0.000481
vn 0.000932 0.000002 -0.000362
vn 0.000933 0.000001 -0.000359
vn 0.000967 0.000003 -0.000253
vn 0.000973 -0.000001 -0.000232
vn 0.000999 -0.000001 -0.000049
vn 0.000995 0.000003 -0.0001
vn 0.000988 -0.000001 -0.000155
vn -0.000039 0 0.000999
vn -0.000221 0 0.000975
vn -0.000163 0.000003 0.000987
vn -0.000199 -0 0.00098
vn -0.000067 0 0.000998
vn -0.000101 0.000003 0.000995
vn -0.000338 0.000001 0.000941
vn -0.000328 0.000001 0.000945
vn -0.000284 -0 0.000959
vn -0.000454 0.000001 0.000891
vn -0.000451 0.000001 0.000893
vn -0.000398 -0 0.000917
vn -0.000573 0 0.00082
vn -0.000566 0.000001 0.000824
vn -0.000512 -0 0.000859
vn -0.000713 -0 0.000702
vn -0.000651 0.000002 0.000759
vn -0.000671 -0 0.000742
vn -0.000786 -0.000001 0.000618
vn -0.000764 0.000001 0.000646
vn -0.000843 0.000002 0.000538
vn -0.000916 -0.000001 0.0004
vn -0.000907 0.000001 0.000421
vn -0.000862 -0.000001 0.000506
vn -0.000962 -0 0.000274
vn -0.000955 0.000001 0.000296
vn -0.000999 -0 0.000048
vn -0.000987 0 0.000163
vn -0.000986 0 0.000166
vn 0.000999 -0 0.000039
vn 0.00098 -0.000001 0.0002
vn 0.000986 0.000001 0.000166
vn 0.00095 0.000001 0.000312
vn 0.000914 -0 0.000407
vn 0.000955 0 0.000296
vn 0.000863 -0.000001 0.000505
vn 0.000907 0.000001 0.000421
vn 0.000787 -0.000001 0.000617
vn 0.000843 0.000001 0.000538
vn 0.000671 -0 0.000742
vn 0.000655 0.000002 0.000756
vn 0.000717 -0 0.000697
vn 0.000764 0.000001 0.000646
vn 0.000577 0 0.000817
vn 0.000566 0.000001 0.000824
vn 0.000451 0.000001 0.000893
vn 0.000457 0.000001 0.000889
vn 0.000516 -0 0.000857
vn 0.000339 0.000001 0.000941
vn 0.000283 -0 0.000959
vn 0.000328 0.000001 0.000945
vn 0.0004 -0 0.000916
vn 0.000199 -0 0.00098
vn 0.000158 0.000004 0.000987
vn 0.000219 0 0.000976
vn 0.000031 -0 0.001
vn 0.000067 0.000001 0.000998
vn 0.000091 0 0.000996
usemtl JointGrey
f 1//1 2//1 3//1
f 3//2 4//2 1//2
f 5//3 6//3 3//3
f 3//4 6//4 7//4
f 3//1 7//1 8//1
f 9//1 10//1 3//1
f 3//5 10//5 11//5
f 3//6 11//6 5//6
f 12//1 13//1 3//1
f 3//7 13//7 14//7
f 3//8 14//8 9//8
f 15//1 16//1 3//1
f 3//9 16//9 17//9
f 3//10 17//10 12//10
f 18//11 19//11 3//11
f 3//12 19//12 20//12
f 3//13 20//13 15//13
f 21//1 22//1 3//1
f 3//14 22//14 23//14
f 3//15 23//15 18//15
f 24//16 25//16 3//16
f 3//17 25//17 26//17
f 3//18 26//18 21//18
f 27//1 28//1 3//1
f 3//19 28//19 29//19
f 3//20 29//20 24//20
f 30//1 31//1 3//1
f 3//21 31//21 32//21
f 3//22 32//22 27//22
f 33//23 34//23 3//23
f 3//24 34//24 35//24
f 3//25 35//25 30//25
f 36//1 37//1 3//1
f 3//26 37//26 38//26
f 3//27 38//27 33//27
f 39//1 40//1 3//1
f 3//28 40//28 41//28
f 3//29 41//29 36//29
f 42//30 43//30 3//30
f 3//31 43//31 44//31
f 3//32 44//32 39//32
f 2//1 45//1 3//1
f 3//1 45//1 46//1
f 3//1 46//1 42//1
f 47//33 1//33 48//33
f 48//34 1//34 4//34
f 3//35 49//35 50//35
f 3//36 50//36 4//36
f 4//37 50//37 48//37
f 49//38 3//38 51//38
f 51//39 3//39 8//39
f 51//40 8//40 52//40
f 52//41 8//41 7//41
f 52//42 7//42 53//42
f 53//43 7//43 6//43
f 53//44 6//44 54//44
f 5//45 55//45 6//45
f 6//46 55//46 54//46
f 11//47 56//47 57//47
f 11//48 57//48 5//48
f 5//49 57//49 55//49
f 56//50 11//50 58//50
f 58//51 11//51 10//51
f 58//52 10//52 59//52
f 59//53 10//53 9//53
f 59//54 9//54 60//54
f 60//55 9//55 14//55
f 60//56 14//56 61//56
f 13//57 62//57 14//57
f 14//58 62//58 61//58
f 12//59 63//59 64//59
f 12//60 64//60 13//60
f 13//61 64//61 62//61
f 63//62 12//62 65//62
f 65//63 12//63 17//63
f 65//64 17//64 66//64
f 66//65 17//65 16//65
f 66//66 16//66 67//66
f 15//67 68//67 16//67
f 16//68 68//68 67//68
f 20//69 69//69 15//69
f 15//70 69//70 68//70
f 19//71 70//71 71//71
f 19//72 71//72 20//72
f 20//73 71//73 69//73
f 70//74 19//74 72//74
f 72//75 19//75 18//75
f 72//76 18//76 73//76
f 73//77 18//77 23//77
f 73//78 23//78 74//78
f 22//79 75//79 23//79
f 23//80 75//80 74//80
f 21//81 76//81 22//81
f 22//82 76//82 75//82
f 26//83 77//83 78//83
f 26//84 78//84 21//84
f 21//85 78//85 76//85
f 77//86 26//86 79//86
f 79//87 26//87 25//87
f 79//88 25//88 80//88
f 80//89 25//89 24//89
f 80//90 24//90 81//90
f 29//91 82//91 24//91
f 24//92 82//92 81//92
f 28//93 83//93 29//93
f 29//94 83//94 82//94
f 27//95 84//95 85//95
f 27//96 85//96 28//96
f 28//97 85//97 83//97
f 84//98 27//98 86//98
f 86//99 27//99 32//99
f 86//100 32//100 87//100
f 87//101 32//101 31//101
f 87//102 31//102 88//102
f 30//103 89//103 31//103
f 31//104 89//104 88//104
f 35//105 90//105 91//105
f 35//106 91//106 30//106
f 30//107 91//107 89//107
f 90//108 35//108 92//108
f 92//109 35//109 34//109
f 92//110 34//110 93//110
f 93//111 34//111 33//111
f 93//112 33//112 94//112
f 94//113 33//113 38//113
f 94//114 38//114 95//114
f 37//115 96//115 38//115
f 38//116 96//116 95//116
f 36//117 97//117 98//117
f 36//118 98//118 37//118
f 37//119 98//119 96//119
f 97//120 36//120 99//120
f 99//121 36//121 41//121
f 99//122 41//122 100//122
f 100//123 41//123 40//123
f 100//124 40//124 101//124
f 101//125 40//125 39//125
f 101//126 39//126 102//126
f 44//127 103//127 39//127
f 39//128 103//128 102//128
f 43//129 104//129 105//129
f 43//130 105//130 44//130
f 44//131 105//131 103//131
f 104//132 43//132 106//132
f 106//133 43//133 42//133
f 106//134 42//134 107//134
f 107//135 42//135 46//135
f 107//136 46//136 108//136
f 45//137 109//137 46//137
f 46//138 109//138 108//138
f 2//139 110//139 45//139
f 45//140 110//140 109//140
f 1//141 47//141 111//141
f 1//142 111//142 2//142
f 2//143 111//143 110//143
f 80//144 81//144 112//144
f 80//145 112//145 79//145
f 113//146 81//146 114//146
f 114//147 81//147 82//147
f 114//148 82//148 83//148
f 114//149 83//149 115//149
f 115//150 83//150 116//150
f 83//151 85//151 116//151
f 116//152 85//152 84//152
f 116//153 84//153 117//153
f 117//154 84//154 86//154
f 86//155 87//155 117//155
f 117//156 87//156 118//156
f 118//157 87//157 88//157
f 118//158 88//158 119//158
f 119//159 88//159 89//159
f 119//160 89//160 120//160
f 120//161 89//161 91//161
f 120//162 91//162 90//162
f 120//163 90//163 121//163
f 121//164 90//164 92//164
f 121//165 92//165 122//165
f 122//166 92//166 93//166
f 93//167 94//167 122//167
f 122//168 94//168 123//168
f 123//169 94//169 95//169
f 123//170 95//170 124//170
f 124//171 95//171 96//171
f 124//172 96//172 125//172
f 125//173 96//173 98//173
f 125//174 98//174 97//174
f 125//175 97//175 126//175
f 126//176 97//176 99//176
f 126//177 99//177 100//177
f 126//178 100//178 127//178
f 127//179 100//179 128//179
f 100//180 101//180 128//180
f 128//181 101//181 102//181
f 128//182 102//182 129//182
f 129//183 102//183 103//183
f 129//184 103//184 130//184
f 130//185 103//185 105//185
f 130//186 105//186 104//186
f 130//187 104//187 131//187
f 131//188 104//188 106//188
f 131//189 106//189 107//189
f 131//190 107//190 132//190
f 132//191 107//191 108//191
f 132//192 108//192 133//192
f 133//193 108//193 109//193
f 133//194 109//194 134//194
f 134//195 109//195 110//195
f 110//196 111//196 134//196
f 134//197 111//197 135//197
f 135//198 111//198 47//198
f 135//199 47//199 136//199
f 136//200 47//200 48//200
f 136//201 48//201 137//201
f 137//202 48//202 50//202
f 137//203 50//203 49//203
f 137//204 49//204 138//204
f 138//205 49//205 51//205
f 138//206 51//206 52//206
f 138//207 52//207 139//207
f 139//208 52//208 140//208
f 52//209 53//209 140//209
f 140//210 53//210 54//210
f 140//211 54//211 141//211
f 141//212 54//212 55//212
f 141//213 55//213 142//213
f 142//214 55//214 57//214
f 142//215 57//215 56//215
f 142//216 56//216 143//216
f 143//217 56//217 58//217
f 143//218 58//218 59//218
f 143//219 59//219 144//219
f 144//220 59//220 145//220
f 59//221 60//221 145//221
f 145//222 60//222 61//222
f 145//223 61//223 146//223
f 146//224 61//224 62//224
f 62//225 64//225 146//225
f 146//226 64//226 147//226
f 147//227 64//227 63//227
f 147//228 63//228 148//228
f 148//229 63//229 65//229
f 148//230 65//230 66//230
f 148//231 66//231 149//231
f 149//232 66//232 67//232
f 149//233 67//233 150//233
f 150//234 67//234 68//234
f 150//235 68//235 151//235
f 151//236 68//236 69//236
f 69//237 71//237 151//237
f 151//238 71//238 152//238
f 152//239 71//239 70//239
f 152//240 70//240 153//240
f 153//241 70//241 72//241
f 153//242 72//242 154//242
f 154//243 72//243 73//243
f 154//244 73//244 74//244
f 154//245 74//245 155//245
f 155//246 74//246 75//246
f 155//247 75//247 156//247
f 156//248 75//248 76//248
f 156//249 76//249 157//249
f 76//250 78//250 157//250
f 157//251 78//251 77//251
f 157//252 77//252 158//252
f 158//253 77//253 79//253
f 158//254 79//254 112//254
f 158//255 112//255 113//255
f 113//256 112//256 81//256
f 159//257 160//257 161//257
f 162//258 163//258 164//258
f 165//259 166//259 167//259
f 163//260 168//260 169//260
f 170//261 171//261 172//261
f 169//262 168//262 173//262
f 173//263 168//263 174//263
f 175//264 176//264 177//264
f 178//265 179//265 180//265
f 180//266 179//266 181//266
f 182//267 183//267 180//267
f 180//268 183//268 178//268
f 184//269 185//269 186//269
f 184//270 186//270 187//270
f 173//271 174//271 186//271
f 186//272 174//272 187//272
f 164//273 163//273 169//273
f 188//274 189//274 190//274
f 188//275 190//275 191//275
f 192//276 193//276 194//276
f 194//277 193//277 188//277
f 188//278 193//278 189//278
f 161//279 160//279 195//279
f 195//280 160//280 192//280
f 196//281 197//281 198//281
f 166//282 199//282 200//282
f 200//283 199//283 201//283
f 167//284 166//284 200//284
f 202//285 203//285 204//285
f 184//286 205//286 185//286
f 185//287 205//287 182//287
f 182//288 205//288 183//288
f 191//289 190//289 162//289
f 191//290 162//290 164//290
f 195//291 192//291 194//291
f 206//292 159//292 207//292
f 207//293 159//293 161//293
f 208//294 206//294 209//294
f 210//295 197//295 211//295
f 211//296 197//296 196//296
f 212//297 213//297 214//297
f 214//298 213//298 215//298
f 215//299 213//299 216//299
f 217//300 218//300 219//300
f 217//301 219//301 220//301
f 221//302 222//302 223//302
f 224//303 165//303 225//303
f 225//304 165//304 167//304
f 226//305 224//305 227//305
f 227//306 224//306 225//306
f 209//307 206//307 207//307
f 228//308 208//308 229//308
f 229//309 208//309 209//309
f 172//310 171//310 230//310
f 231//311 232//311 233//311
f 231//312 233//312 234//312
f 235//313 198//313 231//313
f 231//314 198//314 232//314
f 196//315 198//315 235//315
f 236//316 237//316 216//316
f 216//317 237//317 215//317
f 212//318 214//318 238//318
f 212//319 238//319 239//319
f 220//320 219//320 240//320
f 220//321 240//321 238//321
f 238//322 240//322 239//322
f 241//323 242//323 217//323
f 217//324 242//324 218//324
f 243//325 244//325 242//325
f 243//326 242//326 241//326
f 245//327 246//327 243//327
f 243//328 246//328 244//328
f 247//329 248//329 249//329
f 249//330 248//330 245//330
f 245//331 248//331 246//331
f 222//332 221//332 247//332
f 222//333 247//333 249//333
f 203//334 226//334 204//334
f 204//335 226//335 227//335
f 202//336 250//336 203//336
f 251//337 175//337 252//337
f 252//338 175//338 177//338
f 171//339 228//339 230//339
f 230//340 228//340 229//340
f 233//341 170//341 234//341
f 234//342 170//342 172//342
f 253//343 210//343 254//343
f 254//344 210//344 211//344
f 255//345 256//345 257//345
f 257//346 256//346 254//346
f 254//347 256//347 253//347
f 236//348 255//348 237//348
f 237//349 255//349 257//349
f 199//350 223//350 201//350
f 201//351 223//351 222//351
f 258//352 176//352 202//352
f 202//353 176//353 250//353
f 177//354 176//354 258//354
f 179//355 251//355 181//355
f 181//356 251//356 252//356
f 125//357 126//357 259//357
f 259//358 126//358 127//358
f 131//359 260//359 130//359
f 260//360 131//360 132//360
f 134//361 135//361 261//361
f 261//362 133//362 134//362
f 142//363 143//363 262//363
f 262//364 143//364 144//364
f 145//365 146//365 263//365
f 263//366 146//366 147//366
f 151//367 152//367 264//367
f 264//368 150//368 151//368
f 154//369 155//369 265//369
f 265//370 155//370 156//370
f 116//371 117//371 266//371
f 266//372 117//372 118//372
f 122//373 123//373 267//373
f 267//374 121//374 122//374
f 251//375 179//375 268//375
f 269//376 176//376 175//376
f 270//377 176//377 269//377
f 271//378 250//378 270//378
f 270//379 250//379 176//379
f 272//380 203//380 250//380
f 273//381 203//381 274//381
f 274//382 203//382 272//382
f 273//383 226//383 203//383
f 275//384 226//384 273//384
f 276//385 224//385 275//385
f 275//386 224//386 226//386
f 277//387 224//387 276//387
f 278//388 165//388 277//388
f 277//389 165//389 224//389
f 279//390 165//390 278//390
f 279//391 166//391 165//391
f 280//392 166//392 279//392
f 281//393 166//393 280//393
f 281//394 199//394 166//394
f 282//395 199//395 281//395
f 283//396 223//396 282//396
f 282//397 223//397 199//397
f 221//398 223//398 283//398
f 284//399 239//399 240//399
f 285//400 284//400 286//400
f 287//401 288//401 289//401
f 290//402 291//402 187//402
f 187//403 174//403 290//403
f 292//404 293//404 294//404
f 295//405 296//405 297//405
f 296//406 292//406 297//406
f 297//407 292//407 294//407
f 298//408 299//408 300//408
f 301//409 298//409 283//409
f 301//410 283//410 302//410
f 302//411 283//411 282//411
f 302//412 282//412 281//412
f 302//413 281//413 303//413
f 303//414 281//414 280//414
f 221//415 283//415 298//415
f 221//416 298//416 247//416
f 247//417 298//417 300//417
f 304//418 305//418 306//418
f 306//419 305//419 307//419
f 306//420 307//420 308//420
f 308//421 307//421 309//421
f 308//422 309//422 310//422
f 310//423 309//423 311//423
f 310//424 311//424 312//424
f 310//425 312//425 313//425
f 313//426 312//426 314//426
f 313//427 314//427 315//427
f 287//428 289//428 316//428
f 299//429 317//429 300//429
f 300//430 317//430 318//430
f 244//431 246//431 319//431
f 319//432 242//432 244//432
f 320//433 321//433 219//433
f 320//434 219//434 322//434
f 323//435 322//435 242//435
f 323//436 242//436 319//436
f 318//437 319//437 246//437
f 318//438 246//438 300//438
f 321//439 284//439 240//439
f 321//440 240//440 219//440
f 322//441 219//441 218//441
f 322//442 218//442 242//442
f 246//443 248//443 300//443
f 324//444 325//444 326//444
f 324//445 326//445 327//445
f 290//446 328//446 325//446
f 329//447 324//447 327//447
f 329//448 327//448 330//448
f 290//449 325//449 324//449
f 331//450 329//450 330//450
f 331//451 330//451 332//451
f 332//452 333//452 334//452
f 332//453 334//453 331//453
f 324//454 329//454 291//454
f 324//455 291//455 290//455
f 335//456 334//456 333//456
f 335//457 333//457 336//457
f 337//458 291//458 329//458
f 337//459 329//459 331//459
f 338//460 335//460 336//460
f 338//461 336//461 339//461
f 339//462 336//462 340//462
f 339//463 340//463 341//463
f 341//464 340//464 342//464
f 342//465 340//465 343//465
f 342//466 343//466 344//466
f 345//467 337//467 331//467
f 345//468 331//468 334//468
f 346//469 347//469 348//469
f 296//470 295//470 349//470
f 349//471 295//471 350//471
f 349//472 350//472 351//472
f 351//473 350//473 352//473
f 352//474 350//474 353//474
f 352//475 353//475 354//475
f 355//476 356//476 346//476
f 355//477 346//477 357//477
f 357//478 346//478 348//478
f 347//479 294//479 348//479
f 348//480 294//480 293//480
f 358//481 270//481 269//481
f 358//482 269//482 359//482
f 359//483 269//483 360//483
f 361//484 360//484 362//484
f 361//485 362//485 363//485
f 364//486 356//486 365//486
f 365//487 356//487 355//487
f 366//488 367//488 321//488
f 321//489 367//489 286//489
f 286//490 284//490 321//490
f 368//491 318//491 305//491
f 305//492 318//492 317//492
f 305//493 317//493 307//493
f 307//494 317//494 299//494
f 307//495 299//495 309//495
f 309//496 299//496 369//496
f 309//497 369//497 311//497
f 311//498 369//498 312//498
f 312//499 369//499 301//499
f 312//500 301//500 314//500
f 314//501 301//501 370//501
f 370//502 303//502 354//502
f 354//503 303//503 352//503
f 293//504 275//504 348//504
f 348//505 275//505 357//505
f 364//506 371//506 372//506
f 373//507 287//507 322//507
f 322//508 287//508 366//508
f 374//509 272//509 271//509
f 374//510 271//510 375//510
f 375//511 271//511 270//511
f 376//512 372//512 377//512
f 377//513 372//513 371//513
f 371//514 365//514 274//514
f 274//515 365//515 355//515
f 277//516 296//516 278//516
f 278//517 296//517 349//517
f 301//518 369//518 298//518
f 298//519 369//519 299//519
f 377//520 371//520 374//520
f 274//521 355//521 273//521
f 273//522 355//522 357//522
f 275//523 273//523 357//523
f 378//524 376//524 379//524
f 379//525 376//525 377//525
f 278//526 349//526 279//526
f 279//527 349//527 351//527
f 279//528 351//528 280//528
f 371//529 364//529 365//529
f 275//530 293//530 276//530
f 276//531 293//531 292//531
f 276//532 292//532 277//532
f 277//533 292//533 296//533
f 351//534 352//534 280//534
f 280//535 352//535 303//535
f 303//536 370//536 302//536
f 302//537 370//537 301//537
f 318//538 368//538 319//538
f 319//539 368//539 373//539
f 319//540 373//540 323//540
f 323//541 373//541 322//541
f 322//542 366//542 320//542
f 320//543 366//543 321//543
f 354//544 353//544 370//544
f 370//545 353//545 315//545
f 370//546 315//546 314//546
f 305//547 304//547 368//547
f 368//548 304//548 288//548
f 368//549 288//549 373//549
f 373//550 288//550 287//550
f 287//551 316//551 366//551
f 366//552 316//552 367//552
f 339//553 341//553 363//553
f 339//554 363//554 338//554
f 335//555 338//555 380//555
f 335//556 380//556 381//556
f 337//557 345//557 205//557
f 337//558 205//558 184//558
f 178//559 183//559 381//559
f 178//560 381//560 380//560
f 375//561 358//561 377//561
f 375//562 377//562 374//562
f 183//563 205//563 345//563
f 183//564 345//564 381//564
f 268//565 380//565 338//565
f 268//566 338//566 363//566
f 361//567 363//567 341//567
f 361//568 341//568 360//568
f 360//569 341//569 342//569
f 360//570 342//570 359//570
f 359//571 342//571 344//571
f 359//572 344//572 358//572
f 358//573 344//573 379//573
f 358//574 379//574 377//574
f 184//575 187//575 291//575
f 184//576 291//576 337//576
f 381//577 345//577 334//577
f 381//578 334//578 335//578
f 175//579 362//579 360//579
f 175//580 360//580 269//580
f 270//581 358//581 375//581
f 251//582 268//582 362//582
f 362//583 268//583 363//583
f 179//584 178//584 268//584
f 268//585 178//585 380//585
f 343//586 378//586 344//586
f 344//587 378//587 379//587
f 374//588 371//588 272//588
f 272//589 371//589 274//589
f 300//590 248//590 247//590
f 271//591 272//591 250//591
f 362//592 175//592 251//592
f 382//593 290//593 174//593
f 382//594 174//594 168//594
f 383//595 384//595 385//595
f 386//596 387//596 388//596
f 389//597 390//597 391//597
f 391//598 390//598 388//598
f 392//599 393//599 394//599
f 395//600 285//600 396//600
f 397//601 284//601 285//601
f 284//602 397//602 239//602
f 197//603 398//603 198//603
f 198//604 398//604 399//604
f 198//605 399//605 400//605
f 198//606 400//606 232//606
f 232//607 400//607 401//607
f 232//608 401//608 233//608
f 233//609 401//609 402//609
f 233//610 402//610 170//610
f 170//611 402//611 403//611
f 170//612 403//612 404//612
f 170//613 404//613 171//613
f 171//614 404//614 405//614
f 171//615 405//615 406//615
f 171//616 406//616 228//616
f 228//617 406//617 407//617
f 228//618 407//618 408//618
f 228//619 408//619 409//619
f 228//620 409//620 208//620
f 208//621 409//621 206//621
f 206//622 410//622 411//622
f 206//623 411//623 412//623
f 206//624 412//624 159//624
f 159//625 412//625 413//625
f 159//626 413//626 160//626
f 414//627 415//627 416//627
f 417//628 418//628 419//628
f 420//629 421//629 398//629
f 398//630 422//630 399//630
f 399//631 422//631 423//631
f 399//632 423//632 400//632
f 400//633 423//633 424//633
f 400//634 424//634 401//634
f 401//635 424//635 425//635
f 402//636 401//636 426//636
f 197//637 420//637 398//637
f 427//638 256//638 255//638
f 212//639 239//639 397//639
f 212//640 397//640 428//640
f 429//641 253//641 430//641
f 430//642 253//642 256//642
f 430//643 256//643 427//643
f 431//644 427//644 216//644
f 431//645 216//645 428//645
f 428//646 216//646 213//646
f 428//647 213//647 212//647
f 427//648 255//648 236//648
f 427//649 236//649 216//649
f 210//650 253//650 420//650
f 420//651 253//651 429//651
f 420//652 429//652 421//652
f 432//653 433//653 434//653
f 414//654 435//654 436//654
f 436//655 435//655 437//655
f 437//656 438//656 439//656
f 439//657 438//657 440//657
f 440//658 438//658 390//658
f 437//659 435//659 438//659
f 441//660 442//660 443//660
f 444//661 441//661 445//661
f 444//662 445//662 386//662
f 386//663 445//663 446//663
f 386//664 446//664 387//664
f 388//665 387//665 391//665
f 440//666 390//666 389//666
f 447//667 387//667 446//667
f 448//668 445//668 441//668
f 448//669 441//669 443//669
f 449//670 443//670 442//670
f 449//671 442//671 450//671
f 450//672 442//672 451//672
f 450//673 451//673 452//673
f 452//674 451//674 453//674
f 452//675 453//675 454//675
f 455//676 385//676 456//676
f 455//677 456//677 457//677
f 458//678 457//678 459//678
f 458//679 459//679 460//679
f 461//680 383//680 385//680
f 461//681 385//681 455//681
f 452//682 462//682 463//682
f 452//683 463//683 450//683
f 450//684 463//684 464//684
f 450//685 464//685 465//685
f 465//686 464//686 466//686
f 465//687 466//687 448//687
f 448//688 466//688 467//688
f 448//689 467//689 468//689
f 448//690 443//690 465//690
f 465//691 443//691 449//691
f 465//692 449//692 450//692
f 462//693 452//693 454//693
f 462//694 454//694 469//694
f 434//695 469//695 432//695
f 433//696 461//696 455//696
f 433//697 455//697 434//697
f 469//698 434//698 458//698
f 469//699 458//699 462//699
f 445//700 448//700 468//700
f 445//701 468//701 446//701
f 446//702 468//702 470//702
f 446//703 470//703 447//703
f 447//704 471//704 387//704
f 387//705 471//705 391//705
f 436//706 472//706 414//706
f 414//707 472//707 415//707
f 415//708 426//708 416//708
f 416//709 426//709 417//709
f 418//710 473//710 419//710
f 419//711 473//711 474//711
f 474//712 473//712 475//712
f 474//713 475//713 476//713
f 474//714 476//714 477//714
f 477//715 476//715 478//715
f 478//716 479//716 480//716
f 480//717 479//717 481//717
f 394//718 395//718 392//718
f 392//719 395//719 396//719
f 437//720 404//720 436//720
f 436//721 404//721 403//721
f 436//722 403//722 472//722
f 472//723 403//723 415//723
f 425//724 424//724 473//724
f 473//725 424//725 423//725
f 473//726 423//726 475//726
f 475//727 423//727 482//727
f 483//728 397//728 395//728
f 395//729 397//729 285//729
f 391//730 471//730 389//730
f 471//731 408//731 389//731
f 389//732 408//732 407//732
f 389//733 407//733 440//733
f 440//734 407//734 439//734
f 484//735 425//735 418//735
f 418//736 425//736 473//736
f 475//737 482//737 476//737
f 476//738 482//738 485//738
f 476//739 485//739 486//739
f 486//740 485//740 479//740
f 479//741 487//741 488//741
f 488//742 487//742 489//742
f 403//743 402//743 415//743
f 415//744 402//744 426//744
f 421//745 429//745 487//745
f 487//746 429//746 430//746
f 407//747 406//747 439//747
f 439//748 406//748 405//748
f 439//749 405//749 437//749
f 437//750 405//750 404//750
f 426//751 401//751 484//751
f 484//752 401//752 425//752
f 423//753 422//753 482//753
f 482//754 422//754 398//754
f 482//755 398//755 485//755
f 485//756 398//756 421//756
f 485//757 421//757 479//757
f 479//758 421//758 487//758
f 487//759 430//759 489//759
f 489//760 430//760 427//760
f 489//761 427//761 490//761
f 490//762 427//762 431//762
f 490//763 431//763 491//763
f 491//764 431//764 428//764
f 491//765 428//765 483//765
f 483//766 428//766 397//766
f 447//767 470//767 471//767
f 426//768 484//768 417//768
f 417//769 484//769 418//769
f 476//770 486//770 478//770
f 478//771 486//771 479//771
f 479//772 488//772 481//772
f 481//773 488//773 489//773
f 481//774 489//774 492//774
f 492//775 489//775 490//775
f 492//776 490//776 493//776
f 493//777 490//777 491//777
f 493//778 491//778 494//778
f 494//779 491//779 483//779
f 494//780 483//780 394//780
f 394//781 483//781 395//781
f 384//782 328//782 290//782
f 384//783 290//783 385//783
f 385//784 290//784 382//784
f 385//785 382//785 456//785
f 460//786 459//786 190//786
f 457//787 456//787 163//787
f 457//788 163//788 162//788
f 459//789 457//789 190//789
f 190//790 457//790 162//790
f 456//791 382//791 168//791
f 456//792 168//792 163//792
f 466//793 464//793 413//793
f 466//794 413//794 467//794
f 467//795 413//795 412//795
f 467//796 412//796 468//796
f 468//797 412//797 411//797
f 468//798 411//798 470//798
f 470//799 411//799 410//799
f 470//800 410//800 471//800
f 471//801 410//801 409//801
f 471//802 409//802 408//802
f 193//803 192//803 464//803
f 193//804 464//804 463//804
f 460//805 190//805 189//805
f 463//806 460//806 193//806
f 193//807 460//807 189//807
f 434//808 455//808 457//808
f 434//809 457//809 458//809
f 462//810 458//810 460//810
f 462//811 460//811 463//811
f 464//812 192//812 160//812
f 464//813 160//813 413//813
f 410//814 206//814 409//814
f 420//815 197//815 210//815
f 495//816 496//816 142//816
f 142//817 496//817 497//817
f 142//818 497//818 141//818
f 141//819 497//819 498//819
f 141//820 498//820 140//820
f 140//821 498//821 499//821
f 140//822 499//822 139//822
f 139//823 499//823 500//823
f 139//824 500//824 138//824
f 138//825 500//825 501//825
f 138//826 501//826 137//826
f 137//827 501//827 502//827
f 137//828 502//828 136//828
f 136//829 502//829 503//829
f 136//830 503//830 135//830
f 135//831 503//831 504//831
f 135//832 504//832 261//832
f 261//1 504//1 505//1
f 261//833 505//833 133//833
f 133//834 505//834 506//834
f 133//835 506//835 132//835
f 132//836 506//836 507//836
f 132//837 507//837 260//837
f 260//838 507//838 508//838
f 260//839 508//839 130//839
f 130//840 508//840 509//840
f 130//841 509//841 129//841
f 129//842 509//842 510//842
f 129//843 510//843 128//843
f 128//844 510//844 511//844
f 128//845 511//845 127//845
f 127//846 511//846 512//846
f 127//847 512//847 259//847
f 259//1 512//1 513//1
f 259//848 513//848 125//848
f 125//849 513//849 514//849
f 125//850 514//850 124//850
f 124//851 514//851 515//851
f 124//852 515//852 123//852
f 123//853 515//853 516//853
f 123//854 516//854 267//854
f 267//1 516//1 517//1
f 267//855 517//855 121//855
f 121//856 517//856 518//856
f 121//857 518//857 120//857
f 120//858 518//858 519//858
f 120//859 519//859 119//859
f 119//860 519//860 520//860
f 119//861 520//861 118//861
f 118//862 520//862 521//862
f 118//863 521//863 266//863
f 266//1 521//1 522//1
f 266//864 522//864 116//864
f 116//865 522//865 523//865
f 116//866 523//866 115//866
f 115//867 523//867 524//867
f 115//868 524//868 114//868
f 114//869 524//869 525//869
f 114//870 525//870 113//870
f 113//871 525//871 526//871
f 113//872 526//872 158//872
f 158//873 526//873 527//873
f 158//874 527//874 157//874
f 157//875 527//875 528//875
f 157//876 528//876 156//876
f 156//877 528//877 529//877
f 156//878 529//878 265//878
f 265//1 529//1 530//1
f 265//879 530//879 154//879
f 154//880 530//880 531//880
f 154//881 531//881 153//881
f 153//882 531//882 532//882
f 153//883 532//883 152//883
f 152//884 532//884 533//884
f 152//885 533//885 264//885
f 264//1 533//1 534//1
f 264//886 534//886 150//886
f 150//887 534//887 535//887
f 150//888 535//888 149//888
f 149//889 535//889 536//889
f 149//890 536//890 148//890
f 148//891 536//891 537//891
f 148//892 537//892 147//892
f 147//893 537//893 538//893
f 147//894 538//894 263//894
f 263//1 538//1 539//1
f 263//895 539//895 145//895
f 145//896 539//896 540//896
f 145//897 540//897 144//897
f 144//898 540//898 541//898
f 144//899 541//899 262//899
f 262//900 541//900 495//900
f 262//901 495//901 142//901
f 396//902 542//902 543//902
f 285//903 286//903 396//903
f 286//904 514//904 396//904
f 286//905 515//905 514//905
f 543//906 392//906 396//906
f 543//907 393//907 392//907
f 543//908 544//908 393//908
f 393//909 544//909 394//909
f 394//910 544//910 494//910
f 545//911 546//911 493//911
f 493//912 494//912 545//912
f 544//913 545//913 494//913
f 547//914 492//914 546//914
f 492//915 547//915 481//915
f 546//916 492//916 493//916
f 481//917 547//917 548//917
f 481//918 548//918 549//918
f 478//919 549//919 550//919
f 478//920 480//920 549//920
f 549//921 480//921 481//921
f 551//922 552//922 477//922
f 551//923 477//923 478//923
f 551//924 478//924 550//924
f 553//925 554//925 474//925
f 553//926 474//926 555//926
f 555//927 474//927 552//927
f 552//928 474//928 477//928
f 556//929 417//929 419//929
f 556//930 419//930 557//930
f 557//931 419//931 554//931
f 554//932 419//932 474//932
f 558//933 414//933 416//933
f 558//934 416//934 559//934
f 559//935 416//935 560//935
f 560//936 416//936 417//936
f 560//937 417//937 556//937
f 561//938 390//938 562//938
f 562//939 390//939 438//939
f 562//940 438//940 563//940
f 563//941 438//941 564//941
f 564//942 438//942 435//942
f 564//943 435//943 565//943
f 565//944 435//944 558//944
f 558//945 435//945 414//945
f 566//946 386//946 567//946
f 567//947 386//947 388//947
f 567//948 388//948 568//948
f 568//949 388//949 569//949
f 569//950 388//950 390//950
f 569//951 390//951 561//951
f 570//952 444//952 566//952
f 566//953 444//953 386//953
f 571//954 442//954 572//954
f 572//955 442//955 441//955
f 570//956 573//956 444//956
f 444//957 573//957 441//957
f 441//958 573//958 572//958
f 453//959 451//959 574//959
f 574//960 451//960 442//960
f 442//961 571//961 574//961
f 575//962 454//962 453//962
f 574//963 576//963 453//963
f 453//964 576//964 575//964
f 454//965 575//965 577//965
f 469//966 454//966 577//966
f 469//967 577//967 578//967
f 432//968 469//968 579//968
f 579//969 469//969 578//969
f 432//970 579//970 580//970
f 432//971 580//971 433//971
f 581//972 383//972 461//972
f 581//973 461//973 433//973
f 581//974 433//974 580//974
f 538//975 325//975 539//975
f 325//976 384//976 582//976
f 582//977 384//977 383//977
f 383//978 581//978 582//978
f 325//979 328//979 384//979
f 538//980 326//980 325//980
f 537//981 327//981 538//981
f 538//982 327//982 326//982
f 332//983 330//983 536//983
f 536//984 330//984 537//984
f 537//985 330//985 327//985
f 333//986 332//986 535//986
f 535//987 332//987 536//987
f 336//988 333//988 534//988
f 534//989 333//989 535//989
f 533//990 340//990 336//990
f 533//991 336//991 534//991
f 532//992 340//992 533//992
f 378//993 532//993 531//993
f 378//994 343//994 532//994
f 532//995 343//995 340//995
f 530//996 376//996 531//996
f 531//997 376//997 378//997
f 372//998 530//998 529//998
f 530//999 372//999 376//999
f 528//1000 356//1000 529//1000
f 529//1001 356//1001 364//1001
f 364//1002 372//1002 529//1002
f 527//1003 347//1003 528//1003
f 528//1004 347//1004 346//1004
f 346//1005 356//1005 528//1005
f 526//1006 294//1006 527//1006
f 527//1007 294//1007 347//1007
f 526//1008 297//1008 294//1008
f 297//1009 526//1009 295//1009
f 524//1010 350//1010 295//1010
f 524//1011 295//1011 525//1011
f 525//1012 295//1012 526//1012
f 315//1013 353//1013 523//1013
f 523//1014 353//1014 524//1014
f 524//1015 353//1015 350//1015
f 313//1016 315//1016 522//1016
f 522//1017 315//1017 523//1017
f 310//1018 313//1018 521//1018
f 521//1019 313//1019 522//1019
f 306//1020 308//1020 520//1020
f 308//1021 310//1021 520//1021
f 520//1022 310//1022 521//1022
f 304//1023 306//1023 519//1023
f 519//1024 306//1024 520//1024
f 288//1025 304//1025 518//1025
f 518//1026 304//1026 519//1026
f 289//1027 288//1027 517//1027
f 517//1028 288//1028 518//1028
f 516//1029 316//1029 289//1029
f 516//1030 289//1030 517//1030
f 515//1031 286//1031 367//1031
f 515//1032 367//1032 516//1032
f 516//1033 367//1033 316//1033
f 503//1034 583//1034 584//1034
f 501//1035 585//1035 586//1035
f 501//1036 586//1036 587//1036
f 501//1037 587//1037 502//1037
f 502//1038 587//1038 503//1038
f 503//1039 587//1039 583//1039
f 500//1040 588//1040 589//1040
f 500//1041 589//1041 501//1041
f 501//1042 589//1042 585//1042
f 590//1043 591//1043 499//1043
f 499//1044 591//1044 500//1044
f 500//1045 591//1045 588//1045
f 498//1046 592//1046 593//1046
f 498//1047 593//1047 499//1047
f 499//1048 593//1048 590//1048
f 594//1049 595//1049 497//1049
f 497//1050 595//1050 592//1050
f 497//1051 592//1051 498//1051
f 596//1052 594//1052 496//1052
f 496//1053 594//1053 497//1053
f 495//1054 596//1054 496//1054
f 541//1055 597//1055 598//1055
f 541//1056 598//1056 495//1056
f 495//1057 598//1057 596//1057
f 540//1058 599//1058 597//1058
f 540//1059 597//1059 541//1059
f 325//1060 582//1060 539//1060
f 582//1061 599//1061 539//1061
f 539//1062 599//1062 540//1062
f 542//1063 396//1063 514//1063
f 513//1064 600//1064 542//1064
f 513//1065 542//1065 514//1065
f 601//1066 600//1066 513//1066
f 602//1067 601//1067 512//1067
f 512//1068 601//1068 513//1068
f 511//1069 603//1069 602//1069
f 511//1070 602//1070 512//1070
f 604//1071 603//1071 510//1071
f 510//1072 603//1072 511//1072
f 605//1073 509//1073 508//1073
f 509//1074 605//1074 606//1074
f 606//1075 604//1075 509//1075
f 509//1076 604//1076 510//1076
f 607//1077 605//1077 508//1077
f 507//1078 607//1078 508//1078
f 608//1079 507//1079 506//1079
f 608//1080 609//1080 507//1080
f 507//1081 609//1081 607//1081
f 610//1082 611//1082 506//1082
f 505//1083 612//1083 610//1083
f 505//1084 610//1084 506//1084
f 506//1085 611//1085 608//1085
f 504//1086 613//1086 505//1086
f 505//1087 613//1087 614//1087
f 614//1088 612//1088 505//1088
f 503//1089 584//1089 615//1089
f 503//1090 615//1090 504//1090
f 504//1091 615//1091 613//1091
