mtllib ../materials.mtl
v 0.064068 -0.038771 0.093207
v 0.067663 -0.032181 0.093196
v 0.070209 -0.026187 0.093265
v 0.057453 0.048206 0.093196
v 0.059717 0.04525 0.093197
v 0.05298 0.052978 0.093196
v 0.050985 0.055166 0.093228
v 0.047257 0.058084 0.093196
v 0.043266 0.061387 0.093245
v 0.038878 0.063998 0.093198
v -0.014847 -0.073418 0.09329
v -0.010196 -0.074186 0.093196
v -0.005134 -0.074722 0.093269
v -0.064068 0.038766 0.093207
v -0.067663 0.032177 0.093196
v -0.070209 0.026182 0.093265
v 0.015043 0.073356 0.093208
v 0.007662 0.07453 0.093196
v 0.001106 0.074918 0.093264
v 0.014774 0.073243 0.096215
v 0.022693 0.071406 0.093198
v 0.025403 0.07029 0.096188
v 0.032173 0.067664 0.093198
v 0.0347 0.066181 0.096207
v 0.057714 0.04748 0.096194
v 0.064047 0.038505 0.096188
v 0.064039 0.038812 0.093203
v 0.066505 0.034416 0.093195
v 0.068669 0.029523 0.096166
v 0.070561 0.025072 0.093201
v 0.072109 0.020191 0.0932
v 0.071938 0.02034 0.096096
v 0.073835 0.012736 0.093199
v 0.07396 0.010495 0.096245
v 0.074882 0.002576 0.093196
v 0.074726 0.00009 0.096149
v 0.074706 -0.005155 0.093197
v 0.073981 -0.010518 0.096212
v 0.074164 -0.01036 0.093209
v 0.073303 -0.015302 0.093195
v 0.071984 -0.020061 0.096149
v 0.064037 -0.038521 0.096202
v 0.061182 -0.043179 0.093198
v 0.057725 -0.047471 0.096184
v 0.058035 -0.047326 0.0932
v 0.054709 -0.051133 0.093195
v 0.050831 -0.054794 0.096182
v 0.047261 -0.058087 0.0932
v 0.041092 -0.062656 0.093199
v 0.043232 -0.060982 0.096111
v 0.034663 -0.066173 0.096247
v 0.032173 -0.067669 0.093198
v 0.025525 -0.070251 0.096183
v 0.022693 -0.071411 0.093198
v 0.014871 -0.073232 0.096213
v 0.015103 -0.073348 0.093206
v 0.010146 -0.074194 0.093195
v 0.004926 -0.07462 0.096054
v -0.00001 -0.074886 0.093202
v -0.020179 -0.072115 0.093198
v -0.025435 -0.070287 0.096171
v -0.027519 -0.069693 0.093195
v -0.034588 -0.066249 0.096195
v -0.034622 -0.066403 0.093211
v -0.038979 -0.06394 0.093197
v -0.042935 -0.061168 0.096142
v -0.047282 -0.058072 0.0932
v -0.050979 -0.054879 0.093297
v -0.073835 -0.01274 0.093199
v -0.073983 -0.010466 0.09621
v -0.074882 -0.002581 0.093196
v -0.074726 0.000005 0.096152
v -0.057645 -0.047568 0.096193
v -0.056478 -0.049237 0.093196
v -0.061182 -0.043179 0.093198
v -0.064028 -0.038533 0.09621
v -0.064039 -0.038817 0.093203
v -0.066505 -0.03442 0.093195
v -0.068634 -0.029662 0.096074
v -0.070561 -0.025076 0.093201
v -0.072109 -0.020196 0.0932
v -0.071857 -0.02051 0.096198
v -0.074706 0.005151 0.093197
v -0.074001 0.010397 0.096204
v -0.074165 0.010356 0.093209
v -0.073303 0.015298 0.093195
v -0.071927 0.020183 0.096234
v -0.064092 0.038421 0.096205
v -0.061182 0.043175 0.093198
v -0.057739 0.047444 0.096202
v -0.058035 0.047322 0.0932
v -0.054709 0.051129 0.093195
v -0.050723 0.054883 0.096198
v -0.047261 0.058083 0.0932
v -0.041092 0.062652 0.093199
v -0.043177 0.061015 0.096115
v -0.034541 0.066236 0.096233
v -0.032173 0.067664 0.093198
v -0.025423 0.070283 0.096188
v -0.025133 0.070538 0.093198
v -0.020179 0.072111 0.093198
v -0.014852 0.073237 0.096187
v -0.015103 0.073343 0.093206
v -0.010146 0.07419 0.093195
v -0.004787 0.074604 0.096147
v -0.024256 -0.052618 0.538691
v -0.029249 -0.049988 0.538644
v -0.017948 -0.055049 0.538677
v 0.052615 -0.024258 0.538691
v 0.049986 -0.029251 0.538644
v 0.055047 -0.01795 0.538677
v -0.05066 -0.05443 0.096727
v -0.005071 -0.074202 0.09669
v -0.015139 -0.072811 0.096703
v 0.068216 -0.029629 0.096692
v 0.042949 0.060734 0.096655
v 0.050761 0.054351 0.096694
v 0.005089 0.074212 0.096653
v -0.068224 0.029648 0.096653
v 0.009084 0.057176 0.538683
v 0.017948 0.055045 0.538677
v 0.017948 0.054983 0.536004
v 0.057177 0.009093 0.538688
v 0.057165 0.008957 0.536046
v 0.056286 0.013551 0.538689
v 0.055002 0.01789 0.535997
v 0.054357 0.020051 0.53869
v 0.051634 0.026185 0.538683
v 0.051576 0.026233 0.536159
v 0.049384 0.030214 0.538689
v 0.046877 0.033974 0.538686
v 0.046788 0.034025 0.536027
v 0.042549 0.039323 0.53869
v 0.040867 0.040976 0.536071
v 0.037591 0.044029 0.538685
v 0.034013 0.046847 0.538688
v 0.034191 0.046695 0.536189
v 0.028315 0.050545 0.538688
v 0.023602 0.052902 0.538662
v 0.057877 0.000087 0.536077
v 0.057894 -0.000009 0.538692
v 0.05719 -0.009011 0.536227
v 0.057178 -0.009086 0.538683
v 0.054985 -0.017951 0.536004
v 0.009095 -0.057179 0.538688
v 0.008959 -0.057167 0.536046
v 0.015721 -0.055767 0.538689
v 0.017892 -0.055004 0.535997
v 0.022087 -0.053518 0.538691
v 0.026188 -0.051636 0.538683
v 0.026236 -0.051579 0.536159
v 0.030216 -0.049386 0.538689
v 0.033976 -0.046879 0.538686
v 0.034027 -0.046791 0.536027
v 0.039325 -0.042552 0.53869
v 0.040978 -0.040869 0.536071
v 0.044031 -0.037593 0.538685
v 0.046849 -0.034015 0.538688
v 0.046707 -0.034136 0.536024
v 0.00009 -0.057879 0.536077
v -0.000007 -0.057897 0.538692
v -0.008991 -0.057175 0.53607
v -0.009084 -0.057181 0.538683
v -0.017948 -0.054987 0.536004
v -0.057177 -0.009097 0.538688
v -0.057165 -0.008961 0.536046
v -0.056286 -0.013555 0.538689
v -0.055002 -0.017894 0.535997
v -0.055028 -0.017996 0.538683
v -0.052616 -0.024258 0.53869
v -0.051534 -0.026269 0.536004
v -0.049384 -0.030219 0.538689
v -0.046877 -0.033978 0.538686
v -0.046788 -0.034029 0.536027
v -0.042549 -0.039327 0.53869
v -0.040908 -0.040972 0.536238
v -0.037591 -0.044033 0.538685
v -0.034013 -0.046852 0.538688
v -0.034133 -0.04671 0.536024
v -0.057901 -0.000053 0.536245
v -0.057895 0.000004 0.538692
v -0.057172 0.008989 0.53607
v -0.057178 0.009082 0.538683
v -0.054985 0.017946 0.536004
v -0.055047 0.017946 0.538677
v 0.00915 0.057126 0.536116
v 0.000006 0.057892 0.538692
v -0.000051 0.057899 0.536245
v -0.009095 0.057174 0.538688
v -0.008959 0.057162 0.536046
v -0.015721 0.055762 0.538689
v -0.017855 0.055036 0.536149
v -0.022087 0.053514 0.538691
v -0.026188 0.051632 0.538683
v -0.026267 0.051532 0.536004
v -0.030216 0.049381 0.538689
v -0.033976 0.046875 0.538686
v -0.034027 0.046786 0.536027
v -0.039325 0.042547 0.53869
v -0.040978 0.040865 0.536071
v -0.044031 0.037588 0.538685
v -0.046849 0.034011 0.538688
v -0.046708 0.034131 0.536024
v -0.050548 0.028313 0.538688
v -0.052904 0.0236 0.538662
v 0.039592 -0.043776 0.112403
v 0.050587 -0.030398 0.112353
v 0.056091 -0.017683 0.112471
v 0.056608 -0.008041 0.11444
v 0.058522 0.004867 0.112848
v 0.054516 0.022485 0.112472
v 0.045805 0.037047 0.11249
v 0.035611 0.046812 0.11246
v 0.02671 0.050553 0.114437
v 0.018623 0.054053 0.114448
v 0.006256 0.058611 0.112508
v -0.007039 0.058419 0.112425
v -0.019395 0.055636 0.112479
v -0.032018 0.04935 0.112448
v -0.038544 0.042233 0.114433
v -0.045423 0.037295 0.112524
v -0.049235 0.029071 0.114412
v -0.053123 0.021153 0.114408
v -0.055758 0.012716 0.11439
v -0.056966 0.003655 0.114644
v -0.058293 -0.007778 0.112666
v -0.052784 -0.021991 0.114428
v -0.048774 -0.029836 0.114445
v -0.045235 -0.037553 0.112498
v -0.037877 -0.042837 0.11441
v -0.030831 -0.048167 0.114395
v -0.022711 -0.052373 0.114644
v -0.015792 -0.056489 0.112677
v -0.003157 -0.058865 0.112481
v 0.01158 -0.055992 0.114443
v 0.024595 -0.053573 0.112507
v -0.026247 -0.051466 0.535854
v 0.051464 -0.02625 0.535854
v 0.026247 0.051461 0.535854
v -0.051464 0.026245 0.535854
v -0.016963 0.052533 0.531419
v 0.000023 0.055272 0.531563
v 0.032217 0.044857 0.53147
v 0.049278 0.024899 0.53143
v 0.054584 -0.008368 0.531452
v 0.024861 -0.049312 0.531451
v -0.039191 -0.038924 0.531478
v -0.055247 0.000059 0.531506
v 0.052954 0.015984 0.118932
v 0.054771 0.007718 0.118936
v 0.055371 -0.000445 0.118761
v 0.039377 -0.038832 0.118961
v 0.033001 -0.044378 0.118961
v 0.025856 -0.048888 0.118959
v 0.018149 -0.052265 0.118897
v -0.032772 -0.044417 0.121578
v -0.043006 -0.034796 0.118909
v -0.051135 -0.020397 0.121573
v -0.053885 -0.012335 0.119001
v -0.042728 0.035113 0.118921
v 0.002426 0.055246 0.118937
v 0.010852 0.054226 0.118941
v 0.018751 0.051772 0.121486
v 0.026423 0.048306 0.121506
v 0.054404 -0.008515 0.121478
v 0.052714 -0.016661 0.118981
v 0.049557 -0.02451 0.118976
v 0.045055 -0.032188 0.118763
v 0.009834 -0.054145 0.121738
v 0.001767 -0.055253 0.119001
v -0.006265 -0.054941 0.118952
v -0.014983 -0.053305 0.118766
v -0.022558 -0.050218 0.121593
v -0.047438 -0.027929 0.121595
v -0.055217 -0.003676 0.118852
v -0.054686 0.007566 0.121513
v -0.051089 0.020501 0.121573
v -0.047355 0.028091 0.121502
v -0.03649 0.041204 0.12164
v -0.030162 0.046358 0.118916
v -0.02246 0.050493 0.119035
v -0.014151 0.053536 0.118753
v -0.005695 0.05501 0.118948
v 0.033565 0.043917 0.119003
v 0.039864 0.03829 0.119004
v 0.045565 0.031463 0.118758
v 0.049896 0.02388 0.118925
v 0.008596 0.054405 0.530328
v 0.016843 0.052553 0.531148
v 0.054536 0.008398 0.531116
v 0.052547 0.016831 0.531114
v 0.044767 0.032248 0.531103
v 0.039029 0.039072 0.531248
v 0.024869 0.049266 0.531149
v -0.008462 0.054519 0.531106
v -0.024896 0.049201 0.531027
v -0.032185 0.044841 0.53116
v -0.039119 0.038985 0.531253
v -0.044701 0.032353 0.531131
v -0.049099 0.025116 0.531051
v -0.052443 0.017094 0.531072
v -0.054484 0.008651 0.531092
v -0.054522 -0.008415 0.531087
v -0.052554 -0.016825 0.531122
v -0.049181 -0.025009 0.531109
v -0.044583 -0.032468 0.531053
v -0.032531 -0.044629 0.53124
v -0.02499 -0.049181 0.531085
v -0.016978 -0.052494 0.531098
v -0.008548 -0.054509 0.531109
v -0.000022 -0.055204 0.531184
v 0.008456 -0.054534 0.53113
v 0.017568 -0.052235 0.530947
v 0.032231 -0.0448 0.531136
v 0.039027 -0.039078 0.531245
v 0.04473 -0.032305 0.531113
v 0.049237 -0.024907 0.531119
v 0.05253 -0.016894 0.531124
v 0.055227 -0.000003 0.531247
vn 0.000106 -0.000056 0.000993
vn -0.000001 -0.000001 -0.001
vn 0.00044 0.000413 -0.000797
vn 0.000068 0.000076 -0.000995
vn 0.000314 0.000392 -0.000865
vn 0.000068 0.000097 -0.000993
vn -0.000066 -0.000502 0.000862
vn -0.000106 0.000056 0.000993
vn 0.000017 0.000119 0.000993
vn 0.000247 0.000967 0.000059
vn 0.000266 0.000957 0.000116
vn 0.000367 0.00093 0.000014
vn 0.000402 0.000909 0.000111
vn 0.000479 0.000877 0.00003
vn 0.000509 0.000857 0.000085
vn 0.000729 0.000677 0.0001
vn 0.000791 0.000606 0.000078
vn 0.000812 0.000573 0.000116
vn 0.000829 0.000557 0.000055
vn 0.000871 0.000488 0.000048
vn 0.000884 0.000455 0.000105
vn 0.000917 0.000398 -0.000013
vn 0.000942 0.000299 0.000152
vn 0.000941 0.000335 0.000038
vn 0.000973 0.000225 0.000046
vn 0.000973 0.000201 0.000108
vn 0.000994 0.000102 0.000035
vn 0.000991 0.000072 0.000113
vn 0.000999 -0.000023 0.000034
vn 0.000991 -0.000069 0.000115
vn 0.000993 -0.000103 0.000055
vn 0.000984 -0.000172 0.000051
vn 0.000973 -0.000204 0.000105
vn 0.000962 -0.000273 -0.000011
vn 0.000898 -0.000438 0.000046
vn 0.000835 -0.000547 0.000054
vn 0.000812 -0.000573 0.000117
vn 0.000795 -0.000604 0.000053
vn 0.000752 -0.000657 0.000046
vn 0.000724 -0.000682 0.000105
vn 0.000682 -0.000731 -0.00001
vn 0.000586 -0.000792 0.000172
vn 0.000631 -0.000775 -0.000018
vn 0.000516 -0.000849 0.000109
vn 0.00049 -0.000871 0.000028
vn 0.000404 -0.000907 0.000115
vn 0.000367 -0.00093 0.000013
vn 0.000268 -0.000956 0.000117
vn 0.000247 -0.000967 0.000056
vn 0.000168 -0.000984 0.000051
vn 0.000136 -0.000986 0.000101
vn 0.000068 -0.000997 -0.000024
vn -0.00003 -0.000989 0.000144
vn -0.000237 -0.000957 0.00017
vn -0.000313 -0.000949 0.00003
vn -0.000401 -0.00091 0.000099
vn -0.00042 -0.000906 0.000052
vn -0.000492 -0.000869 0.000051
vn -0.000518 -0.000849 0.000104
vn -0.000577 -0.000817 -0.000007
vn -0.000643 -0.000749 0.000161
vn -0.000994 -0.000102 0.000029
vn -0.000991 -0.00007 0.000113
vn -0.000713 -0.000693 0.000108
vn -0.000789 -0.000613 0.000034
vn -0.000811 -0.000573 0.000118
vn -0.000835 -0.000547 0.000055
vn -0.000871 -0.000488 0.000049
vn -0.000883 -0.000457 0.000102
vn -0.000917 -0.000398 -0.00002
vn -0.000942 -0.000299 0.000155
vn -0.000942 -0.000332 0.000044
vn -0.000973 -0.000225 0.000058
vn -0.000973 -0.000206 0.000108
vn -0.000999 0.000023 0.000033
vn -0.000991 0.000069 0.000113
vn -0.000993 0.000103 0.000053
vn -0.000984 0.000172 0.000051
vn -0.000972 0.000206 0.000109
vn -0.000962 0.000273 -0.000004
vn -0.000898 0.000438 0.000043
vn -0.000835 0.000547 0.000056
vn -0.000812 0.000572 0.000118
vn -0.000795 0.000604 0.000054
vn -0.000752 0.000657 0.000047
vn -0.000723 0.000682 0.000107
vn -0.000682 0.000731 -0.000008
vn -0.000587 0.000792 0.000168
vn -0.000631 0.000776 -0.000015
vn -0.000515 0.00085 0.000109
vn -0.00049 0.000871 0.000028
vn -0.000403 0.000908 0.000113
vn -0.000378 0.000925 0.000042
vn -0.000302 0.000952 0.000052
vn -0.000267 0.000957 0.000116
vn -0.000236 0.00097 0.000054
vn -0.000168 0.000985 0.000049
vn -0.000133 0.000986 0.000104
vn -0.000064 0.000998 -0.000023
vn 0.000111 0.000993 0.000047
vn -0.000033 -0.000081 -0.000996
vn 0.000081 -0.000033 -0.000996
vn -0.000642 -0.00075 0.000158
vn -0.000135 -0.000977 0.000162
vn -0.000131 -0.00098 0.000151
vn 0.000918 -0.000351 0.000181
vn 0.000617 0.000756 0.000218
vn 0.000615 0.000762 0.000203
vn 0.000103 0.000991 0.000085
vn -0.000919 0.000352 0.000179
vn -0.000698 -0.000699 0.000156
vn -0.000243 -0.000958 0.00015
vn -0.000032 -0.000988 0.000151
vn 0.000899 -0.000428 0.000093
vn 0.000695 0.000688 0.000207
vn 0.000531 0.000822 0.000207
vn 0.00003 0.000985 0.00017
vn -0.000899 0.000428 0.000089
vn 0.000234 0.000972 -0.000023
vn 0.00098 0.000196 -0.000015
vn 0.000969 0.000234 -0.000085
vn 0.000959 0.000284 0.000001
vn 0.000909 0.000403 -0.000106
vn 0.000925 0.00038 -0.000014
vn 0.000873 0.000488 -0.000011
vn 0.000823 0.000548 -0.00015
vn 0.000852 0.000523 -0.000018
vn 0.000777 0.000629 -0.000014
vn 0.000759 0.000647 -0.000079
vn 0.000688 0.000725 0.000016
vn 0.000613 0.000778 -0.000141
vn 0.000651 0.000759 0
vn 0.000544 0.000839 -0.000012
vn 0.000427 0.000851 -0.000306
vn 0.000354 0.000935 -0.000022
vn 0.000997 0.00008 -0.000009
vn 0.000997 0.000079 -0.000004
vn 0.000997 -0.000075 -0.000009
vn 0.000997 -0.000079 0.000002
vn 0.000971 -0.000239 -0.000003
vn 0.000972 -0.000234 -0.000023
vn 0.000208 -0.000978 -0.000015
vn 0.000234 -0.000968 -0.000086
vn 0.000333 -0.000943 0.000002
vn 0.000412 -0.000899 -0.000146
vn 0.00038 -0.000925 -0.000014
vn 0.000488 -0.000873 -0.000011
vn 0.000548 -0.000823 -0.00015
vn 0.000523 -0.000852 -0.000018
vn 0.000629 -0.000777 -0.000014
vn 0.000647 -0.000759 -0.000079
vn 0.000725 -0.000688 0.000016
vn 0.000778 -0.000613 -0.000141
vn 0.000762 -0.000648 -0.000011
vn 0.000835 -0.00055 -0.00002
vn 0.000912 -0.000409 -0.000021
vn 0.00008 -0.000997 -0.000009
vn 0.000079 -0.000997 -0.000004
vn -0.000077 -0.000997 -0.000009
vn -0.000079 -0.000997 -0.000005
vn -0.000237 -0.000971 -0.000011
vn -0.000234 -0.000972 -0.000023
vn -0.00098 -0.000196 -0.000015
vn -0.000969 -0.000234 -0.000085
vn -0.000962 -0.000272 -0.00002
vn -0.000933 -0.000359 -0.000023
vn -0.000921 -0.000381 -0.000085
vn -0.000879 -0.000477 0.000003
vn -0.000823 -0.000549 -0.000148
vn -0.000853 -0.000522 -0.000018
vn -0.000777 -0.000629 -0.000014
vn -0.00076 -0.000646 -0.000075
vn -0.000688 -0.000725 0.000026
vn -0.000612 -0.000778 -0.000142
vn -0.000646 -0.000763 -0.000011
vn -0.00055 -0.000835 -0.00002
vn -0.000409 -0.000912 -0.000021
vn -0.000997 -0.000082 -0.000009
vn -0.000997 -0.000079 0.000005
vn -0.000997 0.00008 0.000001
vn -0.000997 0.000079 -0.000005
vn -0.000971 0.000237 -0.000011
vn -0.000972 0.000234 -0.000023
vn 0.000237 0.000972 -0.000013
vn 0.000079 0.000997 -0.000017
vn 0.000084 0.000996 0.000001
vn -0.000079 0.000997 0.000005
vn -0.000082 0.000997 -0.000009
vn -0.000208 0.000978 -0.000015
vn -0.000233 0.000969 -0.000082
vn -0.000333 0.000943 0.00001
vn -0.000412 0.000899 -0.000148
vn -0.000384 0.000923 -0.000023
vn -0.000488 0.000873 -0.000018
vn -0.000549 0.000823 -0.000148
vn -0.000522 0.000853 -0.000018
vn -0.000629 0.000777 -0.000014
vn -0.000647 0.000759 -0.000079
vn -0.000725 0.000688 0.000016
vn -0.000778 0.000613 -0.000141
vn -0.000762 0.000648 -0.000011
vn -0.000839 0.000544 -0.00002
vn -0.000854 0.000429 -0.000295
vn -0.000935 0.000354 -0.000022
vn 0.000545 -0.000445 0.000711
vn 0.000586 -0.000415 0.000696
vn 0.000634 -0.000336 0.000697
vn 0.000643 -0.000285 0.00071
vn 0.000681 -0.000229 0.000696
vn 0.000692 -0.00018 0.0007
vn 0.000705 -0.000152 0.000693
vn 0.000722 -0.000022 0.000691
vn 0.00071 -0.000046 0.000702
vn 0.000724 0.000047 0.000689
vn 0.000692 0.000172 0.000701
vn 0.000687 0.000152 0.000711
vn 0.000681 0.000237 0.000693
vn 0.000639 0.000327 0.000696
vn 0.000605 0.000361 0.000709
vn 0.000588 0.000414 0.000695
vn 0.000529 0.000485 0.000697
vn 0.000486 0.000509 0.00071
vn 0.000451 0.000556 0.000699
vn 0.000403 0.000586 0.000703
vn 0.000371 0.000619 0.000693
vn 0.000287 0.000661 0.000693
vn 0.00029 0.000659 0.000694
vn 0.000154 0.000709 0.000688
vn 0.00019 0.000679 0.000709
vn 0.000103 0.000713 0.000694
vn -0.000008 0.000712 0.000702
vn -0.000015 0.00071 0.000704
vn -0.000094 0.000712 0.000695
vn -0.000153 0.000692 0.000705
vn -0.000194 0.000693 0.000695
vn -0.000288 0.000657 0.000697
vn -0.000317 0.000632 0.000707
vn -0.000379 0.000611 0.000695
vn -0.000419 0.000579 0.0007
vn -0.000451 0.000564 0.000692
vn -0.000537 0.000481 0.000693
vn -0.00052 0.000491 0.000698
vn -0.000574 0.000427 0.000699
vn -0.000589 0.000415 0.000694
vn -0.000648 0.000318 0.000692
vn -0.000633 0.000334 0.000698
vn -0.000682 0.000236 0.000693
vn -0.000685 0.000212 0.000697
vn -0.000708 0.000148 0.000691
vn -0.000709 0.000114 0.000696
vn -0.00074 -0.00003 0.000672
vn -0.000697 0.000045 0.000715
vn -0.000719 -0.000047 0.000693
vn -0.000703 -0.00015 0.000695
vn -0.000687 -0.000179 0.000704
vn -0.000679 -0.000249 0.00069
vn -0.000643 -0.000327 0.000692
vn -0.000644 -0.000324 0.000693
vn -0.000576 -0.000438 0.00069
vn -0.000584 -0.000414 0.000699
vn -0.000528 -0.000483 0.000699
vn -0.000528 -0.000483 0.000698
vn -0.000435 -0.000576 0.000692
vn -0.000441 -0.000566 0.000696
vn -0.000379 -0.000616 0.00069
vn -0.000347 -0.000629 0.000696
vn -0.000226 -0.000703 0.000674
vn -0.000284 -0.000648 0.000707
vn -0.000205 -0.000689 0.000695
vn -0.00012 -0.000697 0.000707
vn -0.000097 -0.000708 0.000699
vn 0.000014 -0.000718 0.000696
vn 0.000045 -0.00071 0.000703
vn 0.000089 -0.000716 0.000693
vn 0.00023 -0.000686 0.00069
vn 0.000193 -0.000681 0.000707
vn 0.00029 -0.000661 0.000692
vn 0.000392 -0.000593 0.000703
vn 0.000372 -0.000595 0.000712
vn 0.000451 -0.000562 0.000694
vn 0.000522 -0.000492 0.000696
vn -0.000515 -0.000851 -0.000104
vn -0.000391 -0.000918 0.000066
vn 0.000851 -0.000515 -0.000104
vn 0.000918 -0.000391 0.000066
vn 0.000513 0.000857 0.000043
vn 0.000387 0.000916 -0.000105
vn -0.000856 0.000515 0.000046
vn -0.000916 0.000387 -0.000105
vn -0.000328 0.000808 -0.000489
vn -0.000208 0.000848 -0.000488
vn -0.000061 0.00087 -0.000489
vn 0.000066 0.000871 -0.000487
vn 0.000465 0.000741 -0.000483
vn 0.000561 0.000665 -0.000494
vn 0.000746 0.00045 -0.00049
vn 0.000805 0.00034 -0.000487
vn 0.000871 -0.000074 -0.000485
vn 0.000849 -0.000197 -0.00049
vn 0.00045 -0.000746 -0.000491
vn 0.00034 -0.000805 -0.000487
vn -0.000572 -0.000658 -0.00049
vn -0.00066 -0.000574 -0.000485
vn -0.00087 -0.000061 -0.000489
vn -0.000871 0.000061 -0.000487
vn 0.00089 0.000196 0.000412
vn 0.000909 -0.000084 0.000409
vn 0.000691 -0.000566 0.000449
vn 0.000565 -0.00065 0.000508
vn 0.000485 -0.000769 0.000417
vn 0.000225 -0.000885 0.000408
vn -0.000584 -0.000773 0.000246
vn -0.000688 -0.000635 0.00035
vn -0.00059 -0.000647 0.000483
vn -0.000756 -0.000463 0.000462
vn -0.000851 -0.000435 0.000294
vn -0.000935 -0.000233 0.000268
vn -0.000753 0.000458 0.000473
vn -0.000597 0.000649 0.000473
vn -0.000016 0.00089 0.000456
vn 0.000103 0.000855 0.000509
vn 0.000194 0.000934 0.000299
vn 0.000395 0.000876 0.000277
vn 0.000923 -0.000274 0.00027
vn 0.000954 -0.000014 0.000298
vn 0.000861 0.000052 0.000506
vn 0.000873 0.000208 0.000441
vn 0.000869 -0.000143 0.000473
vn 0.000816 -0.000329 0.000475
vn 0.000736 -0.000445 0.00051
vn 0.00082 -0.000359 0.000447
vn 0.000691 -0.000578 0.000435
vn 0.000046 -0.000966 0.000255
vn 0.000307 -0.000902 0.000302
vn 0.000342 -0.000791 0.000507
vn 0.000491 -0.000748 0.000447
vn 0.000122 -0.000904 0.000409
vn -0.000037 -0.000862 0.000505
vn -0.000174 -0.000877 0.000448
vn -0.000266 -0.000919 0.000291
vn -0.000476 -0.000837 0.00027
vn -0.000156 -0.000867 0.000474
vn -0.000349 -0.000811 0.00047
vn -0.000444 -0.000838 0.000317
vn -0.000864 -0.000423 0.000274
vn -0.000745 -0.000597 0.000298
vn -0.000871 -0.000288 0.000399
vn -0.000854 -0.000123 0.000506
vn -0.000943 -0.000034 0.000332
vn -0.000913 0.000253 0.00032
vn -0.000961 0.000135 0.000242
vn -0.000903 0.000031 0.000429
vn -0.000915 0.000285 0.000286
vn -0.00086 0.000425 0.000283
vn -0.00075 0.000598 0.000282
vn -0.00086 0.000422 0.000286
vn -0.000537 0.0008 0.000267
vn -0.00073 0.000616 0.000296
vn -0.00058 0.000663 0.000473
vn -0.000421 0.000771 0.000477
vn -0.000281 0.000814 0.000508
vn -0.000401 0.000802 0.000442
vn -0.000164 0.000886 0.000434
vn -0.000025 0.000884 0.000467
vn -0.00019 0.000853 0.000485
vn 0.000571 0.000775 0.00027
vn 0.00038 0.000877 0.000294
vn 0.000258 0.000874 0.000412
vn 0.000429 0.000769 0.000474
vn 0.000587 0.000657 0.000474
vn 0.00067 0.000541 0.000508
vn 0.00062 0.000649 0.000442
vn 0.000778 0.000454 0.000434
vn 0.000767 0.000458 0.00045
vn 0.000803 0.000311 0.000508
vn 0.00003 0.000903 -0.000428
vn 0.000238 0.00087 -0.000432
vn 0.000854 0.000204 -0.000478
vn 0.000857 0.000202 -0.000474
vn 0.000806 0.000346 -0.00048
vn 0.00076 0.000446 -0.000473
vn 0.000666 0.000571 -0.00048
vn 0.000667 0.000571 -0.000479
vn 0.000559 0.000676 -0.00048
vn 0.000466 0.000742 -0.000483
vn 0.000336 0.000812 -0.000477
vn 0.000332 0.000811 -0.000482
vn 0.000203 0.000856 -0.000475
vn -0.000052 0.000878 -0.000475
vn -0.000216 0.000852 -0.000477
vn -0.000321 0.000821 -0.000473
vn -0.00046 0.000749 -0.000477
vn -0.000458 0.000752 -0.000474
vn -0.00057 0.000666 -0.000482
vn -0.00057 0.000667 -0.00048
vn -0.000667 0.00057 -0.00048
vn -0.000667 0.00057 -0.00048
vn -0.000749 0.000462 -0.000475
vn -0.000749 0.00046 -0.000477
vn -0.000811 0.000336 -0.000478
vn -0.000812 0.000337 -0.000477
vn -0.000855 0.000205 -0.000476
vn -0.000855 0.000206 -0.000476
vn -0.000877 0.000055 -0.000477
vn -0.000879 -0.000052 -0.000474
vn -0.000854 -0.000204 -0.000478
vn -0.000857 -0.000202 -0.000475
vn -0.00081 -0.000336 -0.00048
vn -0.000813 -0.000334 -0.000477
vn -0.000749 -0.000459 -0.000478
vn -0.00075 -0.000459 -0.000477
vn -0.00066 -0.000582 -0.000475
vn -0.00058 -0.000658 -0.00048
vn -0.000461 -0.000747 -0.000479
vn -0.000461 -0.000747 -0.000479
vn -0.000336 -0.000812 -0.000478
vn -0.000335 -0.000812 -0.000479
vn -0.000205 -0.000855 -0.000475
vn -0.000204 -0.000855 -0.000477
vn -0.000068 -0.000876 -0.000477
vn -0.000067 -0.000876 -0.000477
vn 0.000069 -0.000875 -0.00048
vn 0.000066 -0.000877 -0.000476
vn 0.000204 -0.000854 -0.000478
vn 0.000205 -0.000853 -0.000481
vn 0.000357 -0.000809 -0.000467
vn 0.000445 -0.00076 -0.000473
vn 0.00057 -0.000666 -0.000481
vn 0.00057 -0.000668 -0.000478
vn 0.000666 -0.00057 -0.000481
vn 0.000666 -0.00057 -0.000481
vn 0.000749 -0.000462 -0.000474
vn 0.000749 -0.000456 -0.000481
vn 0.000812 -0.000336 -0.000477
vn 0.000811 -0.000333 -0.00048
vn 0.00086 -0.000189 -0.000474
vn 0.000875 -0.000079 -0.000478
vn 0.000874 0.000069 -0.000481
vn 0.000877 0.000065 -0.000475
vn 0.000221 -0.000975 0
vn 0.000372 -0.000928 0.000001
vn 0.000401 -0.000916 0
vn 0.000522 -0.000853 0
vn 0.000534 -0.000846 0
vn 0.000644 -0.000765 0
vn 0.000656 -0.000755 0
vn 0.000765 -0.000644 0
vn 0.00076 -0.00065 0
vn 0.000854 -0.00052 0.000001
vn 0.000863 -0.000506 0
vn 0.000925 -0.00038 0
vn 0.000928 -0.000373 0
vn 0.000972 -0.000234 0
vn 0.000979 -0.000203 -0
vn 0.000997 -0.000077 -0
vn 0.000993 -0.000119 0
vn 0.000997 0.000082 0
vn 0.000997 0.000073 0
vn 0.000973 0.000229 0
vn 0.000977 0.000215 0.000001
vn 0.000927 0.000376 0
vn 0.000932 0.000361 0.000001
vn 0.000852 0.000523 -0
vn 0.000868 0.000496 0.000001
vn 0.000768 0.000641 0
vn 0.000765 0.000644 0
vn 0.000647 0.000762 -0
vn 0.000666 0.000746 0
vn 0.000514 0.000857 -0
vn 0.000524 0.000852 -0
vn 0.000379 0.000925 -0.000001
vn 0.000412 0.000911 0
vn 0.000219 0.000976 -0.000001
vn 0.000245 -0.00097 -0
vn 0.000136 -0.000991 -0
vn 0.000079 -0.000997 0
vn -0.00084 -0.000542 -0
vn -0.000768 -0.000641 0.000001
vn -0.000685 -0.000729 -0.000001
vn -0.000651 -0.000759 -0
vn -0.000517 -0.000856 -0
vn -0.000494 -0.00087 -0.000001
vn -0.000382 -0.000924 0
vn -0.000377 -0.000926 -0
vn -0.000233 -0.000973 0.000001
vn -0.000184 -0.000983 0
vn -0.000081 -0.000997 0.000001
vn -0.000039 -0.000999 -0
vn -0.000851 -0.000525 0
vn -0.000898 -0.000441 -0.000001
vn -0.000925 -0.000381 0
vn -0.000946 -0.000323 -0
vn -0.000974 -0.000228 0.000001
vn -0.000999 0.000047 -0
vn -0.000988 -0.000152 -0
vn -0.000996 -0.000085 0.000001
vn -0.000996 0.000088 0
vn -0.000972 0.000235 -0
vn -0.000963 0.000268 -0.000001
vn -0.000923 0.000385 0
vn -0.000897 0.000441 -0.000001
vn -0.000855 0.000519 0
vn -0.000835 0.00055 -0
vn -0.000699 0.000715 0.000001
vn -0.000765 0.000644 -0.000001
vn -0.000513 0.000858 0.000001
vn -0.000632 0.000775 -0
vn -0.000645 0.000764 -0
vn 0.000296 0.000955 0.000001
vn 0.00012 0.000993 0
vn 0.000101 0.000995 0.000001
vn -0.000088 0.000996 -0.000001
vn -0.000029 0.001 0.000001
vn -0.000227 0.000974 -0
vn -0.000172 0.000985 0.000001
vn -0.000344 0.000939 -0
vn -0.000387 0.000922 0.000001
vn -0.000473 0.000881 -0
usemtl LinkGrey
f 1//1 2//1 3//1
f 4//2 5//2 6//2
f 4//3 6//3 7//3
f 7//4 6//4 8//4
f 7//5 8//5 9//5
f 9//6 8//6 10//6
f 11//7 12//7 13//7
f 14//8 15//8 16//8
f 17//9 18//9 19//9
f 17//10 20//10 21//10
f 21//11 20//11 22//11
f 21//12 22//12 23//12
f 23//13 22//13 24//13
f 23//14 24//14 10//14
f 10//15 24//15 9//15
f 7//16 25//16 4//16
f 4//17 25//17 5//17
f 5//18 25//18 26//18
f 5//19 26//19 27//19
f 27//20 26//20 28//20
f 28//21 26//21 29//21
f 28//22 29//22 30//22
f 30//23 29//23 31//23
f 31//24 29//24 32//24
f 31//25 32//25 33//25
f 33//26 32//26 34//26
f 33//27 34//27 35//27
f 35//28 34//28 36//28
f 35//29 36//29 37//29
f 37//30 36//30 38//30
f 37//31 38//31 39//31
f 39//32 38//32 40//32
f 40//33 38//33 41//33
f 40//34 41//34 3//34
f 3//35 42//35 1//35
f 1//36 42//36 43//36
f 43//37 42//37 44//37
f 43//38 44//38 45//38
f 45//39 44//39 46//39
f 46//40 44//40 47//40
f 46//41 47//41 48//41
f 48//42 47//42 49//42
f 49//43 47//43 50//43
f 49//44 50//44 51//44
f 49//45 51//45 52//45
f 52//46 51//46 53//46
f 52//47 53//47 54//47
f 54//48 53//48 55//48
f 54//49 55//49 56//49
f 56//50 55//50 57//50
f 57//51 55//51 58//51
f 57//52 58//52 59//52
f 59//53 58//53 13//53
f 60//54 11//54 61//54
f 60//55 61//55 62//55
f 62//56 61//56 63//56
f 62//57 63//57 64//57
f 64//58 63//58 65//58
f 65//59 63//59 66//59
f 65//60 66//60 67//60
f 68//61 67//61 66//61
f 69//62 70//62 71//62
f 71//63 70//63 72//63
f 68//64 73//64 74//64
f 74//65 73//65 75//65
f 75//66 73//66 76//66
f 75//67 76//67 77//67
f 77//68 76//68 78//68
f 78//69 76//69 79//69
f 78//70 79//70 80//70
f 80//71 79//71 81//71
f 81//72 79//72 82//72
f 81//73 82//73 69//73
f 69//74 82//74 70//74
f 71//75 72//75 83//75
f 83//76 72//76 84//76
f 83//77 84//77 85//77
f 85//78 84//78 86//78
f 86//79 84//79 87//79
f 86//80 87//80 16//80
f 16//81 88//81 14//81
f 14//82 88//82 89//82
f 89//83 88//83 90//83
f 89//84 90//84 91//84
f 91//85 90//85 92//85
f 92//86 90//86 93//86
f 92//87 93//87 94//87
f 94//88 93//88 95//88
f 95//89 93//89 96//89
f 95//90 96//90 97//90
f 95//91 97//91 98//91
f 98//92 97//92 99//92
f 98//93 99//93 100//93
f 100//94 99//94 101//94
f 101//95 99//95 102//95
f 101//96 102//96 103//96
f 103//97 102//97 104//97
f 104//98 102//98 105//98
f 104//99 105//99 19//99
f 17//100 19//100 20//100
f 106//101 107//101 108//101
f 109//102 110//102 111//102
f 66//103 112//103 68//103
f 113//104 114//104 11//104
f 113//105 11//105 13//105
f 41//106 115//106 3//106
f 116//107 117//107 7//107
f 116//108 7//108 9//108
f 118//109 20//109 19//109
f 87//110 119//110 16//110
f 73//111 68//111 112//111
f 61//112 11//112 114//112
f 58//113 113//113 13//113
f 42//114 3//114 115//114
f 25//115 7//115 117//115
f 24//116 116//116 9//116
f 105//117 118//117 19//117
f 88//118 16//118 119//118
f 120//119 121//119 122//119
f 123//120 124//120 125//120
f 125//121 124//121 126//121
f 125//122 126//122 127//122
f 127//123 126//123 128//123
f 128//124 126//124 129//124
f 128//125 129//125 130//125
f 130//126 129//126 131//126
f 131//127 129//127 132//127
f 131//128 132//128 133//128
f 133//129 132//129 134//129
f 133//130 134//130 135//130
f 135//131 134//131 136//131
f 136//132 134//132 137//132
f 136//133 137//133 138//133
f 138//134 137//134 139//134
f 121//135 139//135 122//135
f 124//136 123//136 140//136
f 140//137 123//137 141//137
f 140//138 141//138 142//138
f 142//139 141//139 143//139
f 142//140 143//140 144//140
f 144//141 143//141 111//141
f 145//142 146//142 147//142
f 147//143 146//143 148//143
f 147//144 148//144 149//144
f 149//145 148//145 150//145
f 150//146 148//146 151//146
f 150//147 151//147 152//147
f 152//148 151//148 153//148
f 153//149 151//149 154//149
f 153//150 154//150 155//150
f 155//151 154//151 156//151
f 155//152 156//152 157//152
f 157//153 156//153 158//153
f 158//154 156//154 159//154
f 158//155 159//155 110//155
f 111//156 110//156 144//156
f 146//157 145//157 160//157
f 160//158 145//158 161//158
f 160//159 161//159 162//159
f 162//160 161//160 163//160
f 162//161 163//161 164//161
f 164//162 163//162 108//162
f 165//163 166//163 167//163
f 167//164 166//164 168//164
f 167//165 168//165 169//165
f 169//166 168//166 170//166
f 170//167 168//167 171//167
f 170//168 171//168 172//168
f 172//169 171//169 173//169
f 173//170 171//170 174//170
f 173//171 174//171 175//171
f 175//172 174//172 176//172
f 175//173 176//173 177//173
f 177//174 176//174 178//174
f 178//175 176//175 179//175
f 178//176 179//176 107//176
f 108//177 107//177 164//177
f 166//178 165//178 180//178
f 180//179 165//179 181//179
f 180//180 181//180 182//180
f 182//181 181//181 183//181
f 182//182 183//182 184//182
f 184//183 183//183 185//183
f 122//184 186//184 120//184
f 120//185 186//185 187//185
f 187//186 186//186 188//186
f 187//187 188//187 189//187
f 188//188 190//188 189//188
f 189//189 190//189 191//189
f 191//190 190//190 192//190
f 191//191 192//191 193//191
f 193//192 192//192 194//192
f 194//193 192//193 195//193
f 194//194 195//194 196//194
f 196//195 195//195 197//195
f 197//196 195//196 198//196
f 197//197 198//197 199//197
f 199//198 198//198 200//198
f 199//199 200//199 201//199
f 201//200 200//200 202//200
f 202//201 200//201 203//201
f 202//202 203//202 204//202
f 204//203 203//203 205//203
f 185//204 205//204 184//204
f 206//205 44//205 207//205
f 207//206 44//206 42//206
f 207//207 42//207 115//207
f 207//208 115//208 208//208
f 208//209 115//209 41//209
f 208//210 41//210 209//210
f 209//211 41//211 38//211
f 209//212 38//212 210//212
f 210//213 38//213 36//213
f 210//214 36//214 34//214
f 210//215 34//215 211//215
f 211//216 34//216 32//216
f 211//217 32//217 29//217
f 211//218 29//218 26//218
f 211//219 26//219 212//219
f 212//220 26//220 25//220
f 212//221 25//221 117//221
f 212//222 117//222 213//222
f 213//223 117//223 116//223
f 213//224 116//224 214//224
f 214//225 116//225 24//225
f 214//226 24//226 215//226
f 215//227 24//227 22//227
f 215//228 22//228 216//228
f 216//229 22//229 20//229
f 216//230 20//230 118//230
f 216//231 118//231 105//231
f 216//232 105//232 217//232
f 217//233 105//233 102//233
f 217//234 102//234 218//234
f 218//235 102//235 99//235
f 218//236 99//236 97//236
f 218//237 97//237 219//237
f 219//238 97//238 96//238
f 219//239 96//239 220//239
f 220//240 96//240 93//240
f 220//241 93//241 221//241
f 221//242 93//242 90//242
f 221//243 90//243 222//243
f 222//244 90//244 88//244
f 222//245 88//245 223//245
f 223//246 88//246 119//246
f 223//247 119//247 87//247
f 223//248 87//248 224//248
f 224//249 87//249 84//249
f 224//250 84//250 225//250
f 225//251 84//251 226//251
f 226//252 84//252 72//252
f 226//253 72//253 70//253
f 226//254 70//254 82//254
f 226//255 82//255 227//255
f 227//256 82//256 79//256
f 227//257 79//257 228//257
f 228//258 79//258 76//258
f 228//259 76//259 229//259
f 229//260 76//260 73//260
f 229//261 73//261 230//261
f 230//262 73//262 112//262
f 230//263 112//263 231//263
f 231//264 112//264 66//264
f 231//265 66//265 63//265
f 231//266 63//266 232//266
f 232//267 63//267 233//267
f 63//268 61//268 233//268
f 233//269 61//269 114//269
f 233//270 114//270 234//270
f 234//271 114//271 113//271
f 234//272 113//272 58//272
f 234//273 58//273 235//273
f 235//274 58//274 55//274
f 235//275 55//275 236//275
f 236//276 55//276 53//276
f 236//277 53//277 51//277
f 236//278 51//278 206//278
f 206//279 51//279 50//279
f 206//280 50//280 47//280
f 206//281 47//281 44//281
f 237//282 107//282 179//282
f 237//283 164//283 107//283
f 238//284 110//284 159//284
f 238//285 144//285 110//285
f 239//286 139//286 137//286
f 239//287 122//287 139//287
f 240//288 205//288 203//288
f 240//289 184//289 205//289
f 241//290 195//290 192//290
f 241//291 192//291 190//291
f 242//292 190//292 188//292
f 242//293 188//293 186//293
f 243//294 239//294 137//294
f 243//295 137//295 134//295
f 244//296 132//296 129//296
f 244//297 129//297 126//297
f 245//298 140//298 142//298
f 245//299 142//299 144//299
f 246//300 154//300 151//300
f 246//301 151//301 148//301
f 247//302 179//302 176//302
f 247//303 176//303 174//303
f 248//304 166//304 180//304
f 248//305 180//305 182//305
f 211//306 249//306 250//306
f 210//307 251//307 209//307
f 206//308 207//308 252//308
f 206//309 252//309 253//309
f 206//310 253//310 254//310
f 236//311 255//311 235//311
f 230//312 231//312 256//312
f 230//313 256//313 257//313
f 229//314 230//314 257//314
f 229//315 257//315 228//315
f 227//316 228//316 258//316
f 227//317 258//317 259//317
f 221//318 222//318 260//318
f 221//319 260//319 220//319
f 216//320 217//320 261//320
f 216//321 261//321 262//321
f 215//322 262//322 263//322
f 215//323 263//323 264//323
f 265//324 266//324 209//324
f 265//325 209//325 251//325
f 250//326 251//326 210//326
f 250//327 210//327 211//327
f 208//328 209//328 266//328
f 208//329 266//329 267//329
f 267//330 268//330 207//330
f 267//331 207//331 208//331
f 268//332 252//332 207//332
f 269//333 270//333 235//333
f 269//334 235//334 255//334
f 254//335 255//335 236//335
f 254//336 236//336 206//336
f 234//337 235//337 270//337
f 234//338 270//338 271//338
f 234//339 271//339 272//339
f 232//340 272//340 273//340
f 232//341 273//341 256//341
f 233//342 234//342 272//342
f 233//343 272//343 232//343
f 231//344 232//344 256//344
f 274//345 258//345 228//345
f 274//346 228//346 257//346
f 226//347 227//347 259//347
f 226//348 259//348 275//348
f 225//349 275//349 276//349
f 276//350 277//350 224//350
f 276//351 224//351 225//351
f 275//352 225//352 226//352
f 223//353 224//353 277//353
f 223//354 277//354 278//354
f 278//355 260//355 222//355
f 278//356 222//356 223//356
f 279//357 280//357 220//357
f 279//358 220//358 260//358
f 219//359 220//359 280//359
f 219//360 280//360 281//360
f 281//361 282//361 218//361
f 281//362 218//362 219//362
f 218//363 282//363 283//363
f 283//364 261//364 217//364
f 283//365 217//365 218//365
f 264//366 284//366 214//366
f 264//367 214//367 215//367
f 262//368 215//368 216//368
f 213//369 214//369 284//369
f 213//370 284//370 285//370
f 285//371 286//371 212//371
f 285//372 212//372 213//372
f 212//373 286//373 287//373
f 211//374 212//374 287//374
f 211//375 287//375 249//375
f 242//376 186//376 288//376
f 288//377 186//377 289//377
f 124//378 290//378 126//378
f 126//379 290//379 291//379
f 126//380 291//380 244//380
f 132//381 244//381 292//381
f 132//382 292//382 134//382
f 134//383 292//383 293//383
f 134//384 293//384 243//384
f 239//385 243//385 294//385
f 239//386 294//386 122//386
f 122//387 294//387 289//387
f 122//388 289//388 186//388
f 190//389 242//389 295//389
f 190//390 295//390 241//390
f 195//391 241//391 296//391
f 195//392 296//392 198//392
f 198//393 296//393 297//393
f 198//394 297//394 200//394
f 200//395 297//395 298//395
f 200//396 298//396 203//396
f 203//397 298//397 299//397
f 203//398 299//398 240//398
f 240//399 299//399 300//399
f 240//400 300//400 184//400
f 184//401 300//401 301//401
f 184//402 301//402 182//402
f 182//403 301//403 302//403
f 182//404 302//404 248//404
f 166//405 248//405 303//405
f 166//406 303//406 168//406
f 168//407 303//407 304//407
f 168//408 304//408 171//408
f 171//409 304//409 305//409
f 171//410 305//410 174//410
f 174//411 305//411 306//411
f 174//412 306//412 247//412
f 179//413 247//413 307//413
f 179//414 307//414 237//414
f 237//415 307//415 308//415
f 237//416 308//416 164//416
f 164//417 308//417 309//417
f 164//418 309//418 162//418
f 162//419 309//419 310//419
f 162//420 310//420 160//420
f 160//421 310//421 311//421
f 160//422 311//422 146//422
f 146//423 311//423 312//423
f 146//424 312//424 148//424
f 148//425 312//425 313//425
f 148//426 313//426 246//426
f 154//427 246//427 314//427
f 154//428 314//428 156//428
f 156//429 314//429 315//429
f 156//430 315//430 159//430
f 159//431 315//431 316//431
f 159//432 316//432 238//432
f 238//433 316//433 317//433
f 238//434 317//434 144//434
f 144//435 317//435 318//435
f 144//436 318//436 245//436
f 140//437 245//437 319//437
f 140//438 319//438 124//438
f 124//439 319//439 290//439
f 269//440 255//440 313//440
f 313//441 255//441 246//441
f 246//442 255//442 254//442
f 246//443 254//443 314//443
f 314//444 254//444 253//444
f 314//445 253//445 315//445
f 315//446 253//446 252//446
f 315//447 252//447 316//447
f 316//448 252//448 268//448
f 316//449 268//449 317//449
f 317//450 268//450 267//450
f 317//451 267//451 318//451
f 318//452 267//452 266//452
f 318//453 266//453 245//453
f 245//454 266//454 265//454
f 245//455 265//455 319//455
f 319//456 265//456 251//456
f 319//457 251//457 290//457
f 290//458 251//458 250//458
f 290//459 250//459 291//459
f 291//460 250//460 249//460
f 291//461 249//461 244//461
f 244//462 249//462 287//462
f 244//463 287//463 292//463
f 292//464 287//464 286//464
f 292//465 286//465 285//465
f 292//466 285//466 293//466
f 293//467 285//467 243//467
f 243//468 285//468 284//468
f 243//469 284//469 294//469
f 294//470 284//470 264//470
f 294//471 264//471 289//471
f 289//472 264//472 263//472
f 289//473 263//473 288//473
f 269//474 313//474 312//474
f 269//475 312//475 270//475
f 270//476 312//476 311//476
f 274//477 257//477 306//477
f 306//478 257//478 247//478
f 247//479 257//479 256//479
f 247//480 256//480 307//480
f 307//481 256//481 308//481
f 308//482 256//482 273//482
f 308//483 273//483 309//483
f 309//484 273//484 272//484
f 309//485 272//485 310//485
f 310//486 272//486 271//486
f 310//487 271//487 311//487
f 311//488 271//488 270//488
f 306//489 305//489 274//489
f 274//490 305//490 258//490
f 258//491 305//491 304//491
f 258//492 304//492 259//492
f 259//493 304//493 303//493
f 248//494 276//494 275//494
f 259//495 303//495 275//495
f 275//496 303//496 248//496
f 276//497 248//497 302//497
f 276//498 302//498 301//498
f 276//499 301//499 277//499
f 277//500 301//500 300//500
f 277//501 300//501 278//501
f 278//502 300//502 299//502
f 278//503 299//503 260//503
f 260//504 299//504 279//504
f 279//505 299//505 298//505
f 296//506 280//506 297//506
f 297//507 280//507 279//507
f 297//508 279//508 298//508
f 263//509 262//509 288//509
f 288//510 262//510 261//510
f 288//511 261//511 242//511
f 242//512 261//512 295//512
f 295//513 261//513 283//513
f 295//514 283//514 241//514
f 241//515 283//515 282//515
f 241//516 282//516 281//516
f 241//517 281//517 296//517
f 296//518 281//518 280//518
